<svg xmlns="http://www.w3.org/2000/svg" viewBox="7105.948 -5296.39 36 36">
    <defs>
        <style>
            .cls-1{fill:none}.cls-2{fill:#fff}
        </style>
    </defs>
    <g id="calculator" transform="translate(6988 -5633)">
        <g id="_x36_4px_boxes" transform="translate(117.948 336.61)">
            <path id="Rectangle_378" d="M0 0h36v36H0z" class="cls-1" data-name="Rectangle 378"/>
        </g>
        <g id="Production" transform="translate(123.011 338.86)">
            <g id="Group_377" data-name="Group 377">
                <path id="Path_376" d="M21.938 25.938a1.688 1.688 0 1 0 1.688 1.688 1.687 1.687 0 0 0-1.688-1.688zm0-5.063a1.687 1.687 0 1 0 1.688 1.687 1.687 1.687 0 0 0-1.688-1.687zm0-5.062a1.688 1.688 0 1 0 1.687 1.687 1.687 1.687 0 0 0-1.687-1.687zm-5.062 5.063a1.687 1.687 0 1 0 1.688 1.687 1.687 1.687 0 0 0-1.689-1.688zm0-5.062a1.688 1.688 0 1 0 1.687 1.686 1.687 1.687 0 0 0-1.688-1.687zm0 10.125a1.688 1.688 0 1 0 1.688 1.688 1.687 1.687 0 0 0-1.689-1.689zM31.219 4H12.656A3.66 3.66 0 0 0 9 7.656v24.188a3.66 3.66 0 0 0 3.656 3.656h18.563a3.66 3.66 0 0 0 3.656-3.656V7.656A3.66 3.66 0 0 0 31.219 4zm.844 27.844a.855.855 0 0 1-.844.844H12.656a.855.855 0 0 1-.844-.844V7.656a.855.855 0 0 1 .844-.844h18.563a.855.855 0 0 1 .844.844zM15.188 13h13.5v-2.812h-13.5zM27 20.875a1.687 1.687 0 1 0 1.688 1.687A1.687 1.687 0 0 0 27 20.875zm0 5.063a1.688 1.688 0 1 0 1.688 1.688A1.687 1.687 0 0 0 27 25.938zm0-10.125a1.688 1.688 0 1 0 1.688 1.687A1.687 1.687 0 0 0 27 15.813z" class="cls-2" data-name="Path 376" transform="translate(-9 -4)"/>
            </g>
        </g>
    </g>
</svg>
