<svg xmlns="http://www.w3.org/2000/svg" viewBox="0 0 30 30">
  <defs>
    <style>
      .cls-1 {
        fill: none;
      }

      .cls-2 {
		opacity: 0.56;
      }
    </style>
  </defs>
  <g id="timer" transform="translate(-29.913 -337)">
    <g id="_x36_4px_boxes" transform="translate(29.913 337)">
      <rect id="Rectangle_397" data-name="Rectangle 397" class="cls-1" width="30" height="30"/>
    </g>
    <g id="Production" transform="translate(33.85 338.688)">
      <g id="Group_396" data-name="Group 396">
        <path id="Path_395" data-name="Path 395" class="cls-2" d="M19.2,16.451V11.588h-2.26v4.864a2.034,2.034,0,1,0,2.26,0Zm6.838-5.988,2.02-2.451L26.318,6.575,24.318,9A11,11,0,0,0,19.2,7.125V5.26h2.26V3h-6.78V5.26h2.26V7.125a11.093,11.093,0,1,0,9.1,3.338ZM24.369,24.437a8.9,8.9,0,1,1,2.607-6.295A8.845,8.845,0,0,1,24.369,24.437Z" transform="translate(-7 -3)"/>
      </g>
    </g>
  </g>
</svg>
