<svg xmlns="http://www.w3.org/2000/svg" viewBox="0 0 24 24">
  <defs>
    <style>
      .cls-1 {
        fill: none;
      }

      .cls-2 {
        fill: #fff;
      }
    </style>
  </defs>
  <g id="cookie" transform="translate(0 0)">
    <g id="_x36_4px_boxes">
      <rect id="Rectangle_441" data-name="Rectangle 441" class="cls-1" width="24" height="24"/>
    </g>
    <g id="Production" transform="translate(2.249 2.25)">
      <g id="Group_440" data-name="Group 440">
        <path id="Path_439" data-name="Path 439" class="cls-2" d="M12.266,12.486a1.569,1.569,0,0,0-1.887-.289c-.441.257-.492.515-.418.731a.486.486,0,0,0,.386.314,1.4,1.4,0,0,1,.755.41,1.38,1.38,0,0,1,.41.756.476.476,0,0,0,.7.35A1.512,1.512,0,0,0,12.266,12.486Zm.083,7.389a1.375,1.375,0,0,0-.259.3.475.475,0,0,0,.429.73,1.518,1.518,0,0,1,1.37.917.476.476,0,0,0,.768.2.549.549,0,0,0,.087-.1A1.6,1.6,0,0,0,12.349,19.875ZM9.592,16.2a1.371,1.371,0,0,0-.36.17.474.474,0,0,0,.093.842,1.516,1.516,0,0,1,.874,1.4.476.476,0,0,0,.742.436A1.6,1.6,0,0,0,9.592,16.2Zm4.98-.209a1.511,1.511,0,0,0-1.883.205.476.476,0,0,0,.281.8,1.514,1.514,0,0,1,1.165,1.166.471.471,0,0,0,.312.382.477.477,0,0,0,.511-.123A1.573,1.573,0,0,0,14.571,15.986ZM15.561,6a9.562,9.562,0,1,0,9.563,9.562A9.557,9.557,0,0,0,15.561,6Zm0,17.323a7.76,7.76,0,1,1,7.761-7.76A7.77,7.77,0,0,1,15.561,23.323Zm1.192-4.751c-.441.257-.492.515-.418.731a.486.486,0,0,0,.386.314,1.4,1.4,0,0,1,.755.41,1.38,1.38,0,0,1,.41.756.476.476,0,0,0,.7.35,1.512,1.512,0,0,0,.052-2.271A1.569,1.569,0,0,0,16.754,18.571Z" transform="translate(-5.999 -6)"/>
      </g>
    </g>
  </g>
</svg>
