<svg xmlns="http://www.w3.org/2000/svg" viewBox="7008 -4579 24 24">
	<g id="Filterlists" transform="translate(6992 -4593)">
		<g id="Filterlists-2" style="opacity:.56" data-name="Filterlists" transform="translate(16 13)">
			<path id="Rectangle_336" d="M0 0h24v24H0z" style="fill:none" data-name="Rectangle 336" transform="translate(0 1)"/>
			<g id="Group_1001" data-name="Group 1001" transform="translate(-17.57 4.381)">
				<g id="Group_994" data-name="Group 994" transform="translate(26.265 1.951)">
					<g id="Group_993" data-name="Group 993">
						<path id="Path_720" d="M17.8 18.286h12.615v-1.855H17.8zm0-5.565h12.615v-1.856H17.8zm0-7.42v1.854h12.615V5.3z" data-name="Path 720" transform="translate(-17.8 -5.3)"/>
					</g>
				</g>
				<g id="Group_996" data-name="Group 996" transform="translate(19.651 5.912)">
					<g id="Group_995" data-name="Group 995">
						<path id="Path_721" d="M4.956 17.988a2.5 2.5 0 0 0-1.966-1.967A2.525 2.525 0 0 0 .021 18.99a2.5 2.5 0 0 0 1.966 1.966 2.525 2.525 0 0 0 2.969-2.968zm-1.6.742a.9.9 0 1 1-1.113-1.113.9.9 0 0 1 1.118 1.113z" data-name="Path 721" transform="translate(.025 -15.975)"/>
					</g>
				</g>
				<g id="Group_998" data-name="Group 998" transform="translate(19.651 11.848)">
					<g id="Group_997" data-name="Group 997">
						<path id="Path_722" d="M4.956 33.988a2.5 2.5 0 0 0-1.966-1.967A2.525 2.525 0 0 0 .021 34.99a2.5 2.5 0 0 0 1.966 1.966 2.525 2.525 0 0 0 2.969-2.968zm-1.6.742a.9.9 0 1 1-1.113-1.113.9.9 0 0 1 1.118 1.113z" data-name="Path 722" transform="translate(.025 -31.975)"/>
					</g>
				</g>
				<g id="Group_1000" data-name="Group 1000" transform="translate(19.651 -.025)">
					<g id="Group_999" data-name="Group 999">
						<path id="Path_723" d="M4.956 1.988A2.5 2.5 0 0 0 2.99.021 2.525 2.525 0 0 0 .021 2.99a2.5 2.5 0 0 0 1.967 1.966 2.525 2.525 0 0 0 2.968-2.968zm-1.6.742a.791.791 0 0 1-.631.631.9.9 0 1 1 .631-.631z" data-name="Path 723" transform="translate(.025 .025)"/>
					</g>
				</g>
			</g>
		</g>
	</g>
</svg>