<svg xmlns="http://www.w3.org/2000/svg" viewBox="7167.5 -5254.5 177 149">
    <defs>
        <style>
            .cls-1{fill:none;opacity:.87}.cls-2{fill:#e73b28}.cls-10,.cls-2,.cls-4,.cls-5,.cls-6,.cls-7,.cls-8,.cls-9{fill-rule:evenodd}.cls-3,.cls-4{fill:#fff}.cls-6{fill:#7fb885}.cls-7{fill:#ffdd27}.cls-8{fill:#549dd6}.cls-9{fill:#c4dcf4}.cls-10{fill:#facbb7}.cls-11{filter:url(#_2018-02-14_16-40-58)}
        </style>
        <filter id="_2018-02-14_16-40-58" width="177" height="149" x="7167.5" y="-5254.5" filterUnits="userSpaceOnUse">
            <feOffset dy="1"/>
            <feGaussianBlur result="blur" stdDeviation="1.5"/>
            <feFlood flood-opacity=".369"/>
            <feComposite in2="blur" operator="in"/>
            <feComposite in="SourceGraphic"/>
        </filter>
    </defs>
    <g id="Illustration01" transform="translate(7164 -5579)">
        <g id="Group_858" class="cls-11" data-name="Group 858" transform="translate(-7164 5579)">
            <rect id="_2018-02-14_16-40-58-2" width="168" height="140" class="cls-1" data-name="2018-02-14_16-40-58" rx="2" transform="translate(7172 -5251)"/>
        </g>
        <g id="Group_1034" data-name="Group 1034" transform="translate(67.169 337.03)">
            <path id="Path_1072" d="M162 335.776l4.192-.876-1.783 3.129a8.223 8.223 0 0 1 3.191 1.6c1.064 1.064 2.659 1.158 3.066 1.815a8.2 8.2 0 0 0 1.032 1.22l-1.032 2.19a3.091 3.091 0 0 1-1.658.313c-.594-.188-5.944-1.345-6.132-3.035-.188-1.721-.594-2.1-.282-2.972.345-.881-.594-3.384-.594-3.384z" class="cls-2" data-name="Path 1072" transform="translate(-111.317 -230.146)"/>
            <path id="Path_1073" d="M169.7 23.677c0-.782-.063-.876-.688-.907s-1.251 0-1.877 0a32.439 32.439 0 0 0-5.506.469 11.768 11.768 0 0 0-5.037 2.409 1.182 1.182 0 0 0 1.251 2c.876-.313 1.752-.532 2.628-.813.063-.031.156.031.313.063-.344.25-.626.438-.876.626a4.569 4.569 0 0 0-1.5 1.846 3.1 3.1 0 0 0-.188 1.095.612.612 0 0 0 .25.407 1.83 1.83 0 0 0 1.22-.094c.751-.469 1.533-.939 2.346-1.345 1.283-.626 2.628-1.22 3.942-1.846a1.525 1.525 0 0 1 .344-.125 4.527 4.527 0 0 1-1.1.813 18.83 18.83 0 0 0-3.535 2.753A4.646 4.646 0 0 0 160.535 33a6.187 6.187 0 0 1-1.689 3.254 10.111 10.111 0 0 1-2.628 1.815 35.264 35.264 0 0 1-6.445 2.1 4.44 4.44 0 0 0-.907.313.724.724 0 0 0-.407 1 1.409 1.409 0 0 0 .438.594c.594.407 1.22.751 1.846 1.095.5.282 1.064.532 1.6.813-.438.939-.813 1.783-1.22 2.659-.438-.125-.751-.25-1.095-.313a.348.348 0 0 0-.313.094c-.031.125-.063.313.031.407a1.51 1.51 0 0 0 .438.282c.156.094.344.156.469.219-.188 1.314-.407 2.534-.532 3.754a7.137 7.137 0 0 0 .125 1.627.648.648 0 0 0 .282.407 1.955 1.955 0 0 0 1.5.25c.626-.219 1.251-.469 1.877-.688.25-.094.469-.219.782-.344a3.724 3.724 0 0 1 .063.97 2.171 2.171 0 0 0 .094 1.47c.219.532.375 1.064.594 1.6.156.375.313.438.688.282a2.834 2.834 0 0 0 .5-.344c.438-.313.876-.657 1.314-.97.813-.532 1.658-1 2.5-1.5a9.892 9.892 0 0 1 .156-2.722 33.27 33.27 0 0 1 1.314-4.13 18.8 18.8 0 0 1 1.815-2.91c.125-.188.407-.282.688-.469.188.751.532 1.345 1.126 1.5a6.318 6.318 0 0 0 2.409.219 2.555 2.555 0 0 0 2.253-2.159 2.4 2.4 0 0 0-.344-2 2.624 2.624 0 0 1-.282-.594c.156 0 .25-.031.375-.031a4.966 4.966 0 0 0 3.567-1.47c.156-.125.344-.282.375-.438a14.574 14.574 0 0 0 .375-1.971 27.579 27.579 0 0 0-.5-5.225c-.407.72-.876 1.314-.594 2.1.031.063-.063.188-.094.282a5.67 5.67 0 0 1-.375.876 5.015 5.015 0 0 1-.782 1.158 10.76 10.76 0 0 1-1.126.876c-.563.532-1.22.375-1.908.282.845-.688 1.658-1.314 2.409-2a4.742 4.742 0 0 0 1-1.095 3.365 3.365 0 0 0-.688-3.973c-.313.031-.407.282-.407.532a4.171 4.171 0 0 0 .094.876 2.5 2.5 0 0 1-.031 1.439c-1.47.563-2.91 1.189-4.568.532.313-.594.626-1.189.97-1.783.375-.594.782-1.126 1.189-1.721a1.509 1.509 0 0 0 .188-1.408.58.58 0 0 0-.751.188 8.473 8.473 0 0 1-2.659 1.908 17.381 17.381 0 0 1-1.908.782.427.427 0 0 1 .156-.375 20.059 20.059 0 0 1 5.037-3.535c.782-.407.845-.5.469-1.314a1.846 1.846 0 0 0-.438-.063 20.728 20.728 0 0 0-2.753.657c-1.439.5-2.816 1.126-4.224 1.689-.344.125-.72.219-1.251.375a5.614 5.614 0 0 1 2.127-1.377 18.488 18.488 0 0 1 2.315-.845 24.813 24.813 0 0 1 2.472-.344c-.094-.407-.188-.688-.282-1.064-1.5.125-2.91.188-4.317.344s-2.816.375-4.255.438a4.523 4.523 0 0 1 1.251-.813 9.964 9.964 0 0 1 2-.813 43.415 43.415 0 0 1 5.694-.626c.754.046 1.348.046 1.973.046z" class="cls-3" data-name="Path 1073" transform="translate(-101.968 -15.657)"/>
            <path id="Path_1074" d="M169.946 23.917c-.594 0-1.22 0-1.846.063a38.661 38.661 0 0 0-5.694.626 9.964 9.964 0 0 0-2 .813 6.108 6.108 0 0 0-1.251.813c1.439-.063 2.847-.282 4.255-.438s2.816-.219 4.317-.344c.094.344.156.657.282 1.064-.907.125-1.689.156-2.472.344a17.24 17.24 0 0 0-2.315.845 5.387 5.387 0 0 0-2.127 1.377c.532-.156.876-.25 1.251-.375 1.408-.563 2.816-1.189 4.224-1.689a27.113 27.113 0 0 1 2.753-.657 1.14 1.14 0 0 1 .438.063c.375.813.313.907-.469 1.314a18.3 18.3 0 0 0-5.037 3.535.6.6 0 0 0-.156.375c.626-.25 1.283-.469 1.908-.782a8.473 8.473 0 0 0 2.659-1.908.571.571 0 0 1 .751-.188 1.509 1.509 0 0 1-.188 1.408c-.407.563-.845 1.126-1.189 1.721-.344.563-.657 1.189-.97 1.783 1.658.657 3.1 0 4.568-.532a2.8 2.8 0 0 0 .031-1.439 4.171 4.171 0 0 1-.094-.876c0-.25.094-.5.407-.532a3.365 3.365 0 0 1 .688 3.973 4.742 4.742 0 0 1-1 1.095c-.751.657-1.564 1.283-2.409 2 .688.063 1.314.219 1.908-.282.344-.313.782-.532 1.126-.876a7.5 7.5 0 0 0 .782-1.158c.156-.282.25-.594.375-.876a.994.994 0 0 0 .094-.282c-.25-.782.188-1.377.594-2.1a27.337 27.337 0 0 1 .5 5.225 14.571 14.571 0 0 1-.376 1.98c-.031.156-.219.313-.375.438a4.863 4.863 0 0 1-3.567 1.47 1.954 1.954 0 0 0-.375.031 5.369 5.369 0 0 0 .282.594 2.4 2.4 0 0 1 .344 2 2.555 2.555 0 0 1-2.253 2.159 6.318 6.318 0 0 1-2.409-.219 1.885 1.885 0 0 1-1.126-1.5c-.282.188-.563.282-.688.469a21.522 21.522 0 0 0-1.815 2.91 30.232 30.232 0 0 0-1.314 4.13 8.81 8.81 0 0 0-.156 2.722c-.845.5-1.689 1-2.5 1.5a12.91 12.91 0 0 0-1.314.97 2.835 2.835 0 0 1-.5.344c-.375.188-.563.094-.688-.282-.219-.532-.375-1.095-.594-1.6a2.628 2.628 0 0 1-.094-1.47 3.655 3.655 0 0 0-.063-.97c-.313.125-.563.25-.782.344-.626.25-1.251.469-1.877.688a1.955 1.955 0 0 1-1.5-.25.648.648 0 0 1-.282-.407 7.137 7.137 0 0 1-.125-1.627c.125-1.22.344-2.472.532-3.754-.125-.063-.313-.125-.469-.219a1.061 1.061 0 0 1-.438-.282.6.6 0 0 1-.031-.407.348.348 0 0 1 .313-.094c.344.094.657.188 1.095.313.407-.876.782-1.752 1.22-2.659-.563-.282-1.095-.532-1.6-.813-.626-.344-1.251-.688-1.846-1.095a1.409 1.409 0 0 1-.438-.594.712.712 0 0 1 .407-1 4.44 4.44 0 0 1 .907-.313 35.264 35.264 0 0 0 6.445-2.1 10.934 10.934 0 0 0 2.628-1.815 6.668 6.668 0 0 0 1.689-3.254 4.989 4.989 0 0 1 1.158-1.971 17.619 17.619 0 0 1 3.535-2.753 6.613 6.613 0 0 0 1.095-.813 1.121 1.121 0 0 0-.344.125c-1.314.594-2.628 1.189-3.942 1.846a25.161 25.161 0 0 0-2.346 1.345 1.83 1.83 0 0 1-1.22.094c-.094 0-.25-.25-.25-.407a2.61 2.61 0 0 1 .188-1.095 4.522 4.522 0 0 1 1.5-1.846c.25-.188.532-.375.876-.626-.188-.031-.25-.063-.313-.063-.876.25-1.783.5-2.628.813a1.241 1.241 0 0 1-1.627-.469 1.186 1.186 0 0 1 .375-1.533A11.6 11.6 0 0 1 162 23.6a32.439 32.439 0 0 1 5.506-.469h1.877c.501-.09.563.004.563.786z" class="cls-4" data-name="Path 1074" transform="translate(-102.213 -15.897)"/>
            <path id="Path_1075" d="M207.51 83.427c.094-.469-.219-.563-.5-.657a1.19 1.19 0 0 0-1.47.375c.031.125.094.219.125.344l.219.438a1.745 1.745 0 0 0-.407 0c-.094.063-.219.219-.188.313a.845.845 0 0 0 .97.438.634.634 0 0 0 .375-.876c-.063-.156-.125-.344-.25-.657.501.126.782.189 1.126.282z" class="cls-4" data-name="Path 1075" transform="translate(-141.06 -56.824)"/>
            <path id="Path_1076" d="M23.589 76.222a2.356 2.356 0 0 1 .657-2.972c1.064-.72 1.877-1 3.348.282.156-.344.344-.657.469-1 .188-.563.313-1.158.532-1.721a.912.912 0 0 0-.125-.845c-.407-.594-.344-.782.375-1 1.846-.657 3.66-1.283 5.506-1.94.5-.188.97-.407 1.47-.626-.125-.5-.25-1-.407-1.564a7.014 7.014 0 0 1 1.22-.313 14.921 14.921 0 0 0 4.536-.845c-.282-1.94-1.564-5.819-3.191-7.383-1.689.657-3.254.626-4.474-.97a6.3 6.3 0 0 1-.72.313 1.361 1.361 0 0 1-1.689-.375c-.188-.219-.344-.438-.532-.626a17.235 17.235 0 0 1-2.784-3.41 19.809 19.809 0 0 0-1.752-2.253c-.72-.97-1.408-1.94-2.127-2.878a.655.655 0 0 0-.125-.188c-.532-.657-.532-.688.094-1.158.469-.375 1.032-.688 1.533-1.032l-.282-4.036a4.728 4.728 0 0 1-.907-.407 7.263 7.263 0 0 1-1.251-.939c-.188-.156-.219-.5-.282-.751a7.556 7.556 0 0 1 0-.845c-.532.313-1 .563-1.47.876-.375.25-.72.594-1.126.813a7.839 7.839 0 0 0-1.721 1.314 5.144 5.144 0 0 1-.688.438c-.407.25-.813.5-1.189.782-.626.5-1.158.375-1.377-.407-.407-1.5-.845-3.035-1.251-4.536-.094-.407-.282-.563-.688-.469a3.768 3.768 0 0 0-.845.25c-1 .5-1.971 1.032-2.941 1.564-.657.344-1.158.219-1.439-.469-.657-1.5-1.314-3.035-1.971-4.536-.469-1.095-1-2.159-1.47-3.254-.156-.375-.25-.751-.375-1.126a375.24 375.24 0 0 0-1.908-5.256c-.5-1.283-1-2.472-1.47-3.66-.283-.72-.47-1.471-.752-2.284a16.669 16.669 0 0 1 2.409-1.564c1.564-.688 3.035-1.533 4.536-2.315a66.937 66.937 0 0 1 6.82-3.1c1.251-.469 2.5-1.032 3.723-1.533a52.96 52.96 0 0 0 1.752-.72c-.063-.939-.125-1.877-.25-2.816-.063-.594-.063-.688.5-.813 1.283-.25 2.6-.469 3.879-.72 1.47-.313 2.91-.688 4.38-.97 1.846-.375 3.629-.626 5.412-.939 1.377-.219 2.753-.5 4.13-.688C39.2.355 41.109.167 43.018-.021a.841.841 0 0 1 .97.657 5.641 5.641 0 0 1 .25 1.22c.156 1.721.282 3.41.407 5.131.063 1.126.031 2.253.063 3.379.031.782.094 1.533.094 2.315.031 1.032 0 2.034.031 3.066 0 .469.063.939.094 1.408a6.582 6.582 0 0 1-.063 1.752 11.527 11.527 0 0 0 0 1.47c-.031.5-.094.532-.594.5-.72-.031-1.408-.063-2.127-.031-.657.031-1.314.188-2 .282-.344.031-.688 0-1.032.031-.532.063-1.064.156-1.627.25s-1.158.156-1.815.282c.594 2.44 1.22 4.849 1.846 7.383-.313.125-.688.282-1.095.469a6.086 6.086 0 0 0-.688.25 253.49 253.49 0 0 0-3.129 1.689 2.926 2.926 0 0 0-.594.438c-.125.125-.25.344-.188.5a8.148 8.148 0 0 0 .5 1.47 1.392 1.392 0 0 1 0 1.22 2.784 2.784 0 0 1-1.158 1.314c-.407.188-.751.469-1.158.657a1.745 1.745 0 0 0-1.189 1.783c.031.876.125 1.783.188 2.659a2.755 2.755 0 0 0 .063.532c.375.375.751.688 1.064 1.032l1.969 2.256c.469.563.907 1.158 1.377 1.721a5.355 5.355 0 0 0 .626.563c.282-.813.563-1.564.845-2.44a17.86 17.86 0 0 1-1.47-3.66 4.814 4.814 0 0 0-.594.25c-.532.344-1.064.72-1.627 1.064a.266.266 0 0 1-.344-.407c.282-.219.626-.407.939-.626.407-.25.782-.5 1.189-.751-.031-.063-.031-.094-.063-.156-.344.063-.688.156-1.032.219a1.127 1.127 0 0 1-1 0c-.125-.5.282-.469.594-.563s.626-.156 1.064-.282c-.469-.188-.782-.282-1.095-.438-.563-.313-.626-.563-.25-1.158.782.282 1.564.532 2.5.876a5.016 5.016 0 0 1-.344-.594 7.637 7.637 0 0 1-.657-1.345q-.422-1.408 1.126-1.314c-.5.907.063 1.5.657 2.284.094-.438.188-.751.25-1.064.094-.5.156-1.032.219-1.564a1.677 1.677 0 0 1 .751-1.189c.094.156.25.282.282.438a9.685 9.685 0 0 1-.063 1.345c-.031.313-.063.626-.125 1.126a13.814 13.814 0 0 1 1.283-.813 2 2 0 0 1 .813-.313c.344-.063.375.031.532.563a2.861 2.861 0 0 0-2.19 1.47c-.313.469-.282.594.188.97.563.407 1.158.813 1.752 1.22a3.63 3.63 0 0 1 .751.626 7.573 7.573 0 0 1 3.848-.188c1.408.313 2.159 1.439 2.972 2.565.626-.438 1.251-.845 1.846-1.283 1.533-1.158 3.035-2.346 4.6-3.473a1.222 1.222 0 0 0 .563-1.251c-.031-.25-.063-.532-.125-.876-.751.313-1.377.594-2.065.813a3.439 3.439 0 0 1-1.377.219c-.845-.063-1.283-.657-1.189-1.627.125-1.439.344-2.847.532-4.411-.063-.031-.219-.125-.407-.219a2.235 2.235 0 0 1-.469-.25.433.433 0 0 1-.094-.375.421.421 0 0 1 .375-.156 7.122 7.122 0 0 1 1.095.344c.407-.907.813-1.752 1.22-2.691-.845-.438-1.658-.813-2.44-1.22a7.055 7.055 0 0 1-1.126-.751c-.688-.594-.563-1.283.282-1.6a12.821 12.821 0 0 1 2.44-.688 17.334 17.334 0 0 0 3.6-1.189 16.853 16.853 0 0 0 2.6-1.314 7.2 7.2 0 0 0 1.158-1.032c.219-.188.438-.344.657-.532.063.031.094.063.156.094a1.847 1.847 0 0 1-.063.438 4.07 4.07 0 0 1-1.377 1.533 9.861 9.861 0 0 1-3.296 1.663c-.438.125-.813.375-1.251.532-.469.156-.939.282-1.408.407h-.063c-.939.282-1.846.563-2.784.845-.063.031-.094.094-.188.219a3.568 3.568 0 0 0 .344.344 10.829 10.829 0 0 0 3 1.658 3.332 3.332 0 0 1 .72.5 7.231 7.231 0 0 0-1.6 2.816c.5.063.907.156 1.314.188a10.977 10.977 0 0 0 3.911-.407c.188-.063.438-.219.5.063a.675.675 0 0 1-.156.594 2.764 2.764 0 0 1-.939.407 19.4 19.4 0 0 1-3.817.156c-.375 0-.782-.063-1.251-.094-.063.469-.125.939-.156 1.408l-.188 2.315a3.218 3.218 0 0 0 .031.532c.156 1 .532 1.251 1.47.907a24.779 24.779 0 0 0 2.44-1.158c.407-.219.782-.532 1.189-.751a3.834 3.834 0 0 1 .5-.125c-.188.751-.876.751-1.189 1.095.156 1.439.313 2.847.5 4.286a16.01 16.01 0 0 0 3.191-1.6 1.452 1.452 0 0 0 .657-1.251 17.615 17.615 0 0 1 1.377-5.475 29.271 29.271 0 0 1 2.659-4.6 2.195 2.195 0 0 1 1.439-1c.344.219.469.438.188.845a.951.951 0 0 0 .5 1.345 3.476 3.476 0 0 0 2.628-.063 2.134 2.134 0 0 0 1.064-2.127 1.706 1.706 0 0 0-1.564-1.377c-.219-.031-.469.063-.563-.282.25-.375.626-.25.845-.219a10.892 10.892 0 0 0 3.222-2.847c-.751.219-1.345 1.032-2.378.72.156-.188.219-.313.313-.407.751-.563 1.47-1.095 2.221-1.627a2.59 2.59 0 0 0 1-1.439c.063-.219.156-.407.219-.626a5.45 5.45 0 0 0 .156-.688 6.171 6.171 0 0 1 .219-1.095c.25-.782.563-1.533.845-2.315a5.4 5.4 0 0 1 3.786-3.5 1.786 1.786 0 0 1 .813 0 7.461 7.461 0 0 1 2.691 1.064 2.2 2.2 0 0 1 .97 1.658 8.9 8.9 0 0 0 .563 1.689c.594-.751 1.126-1.439 1.721-2.19.219.282.063.375-.063.532a7.369 7.369 0 0 0-1.408 1.908c.97.313 1.908-.125 2.972-.031-.125.313-.219.532-.313.751a3.112 3.112 0 0 0-2.127.125 21.722 21.722 0 0 0 1.533 1.783A1.625 1.625 0 0 1 83.783 20c-.469.282-.5.313-.813-.094-.657-.782-1.283-1.6-1.94-2.378-.063-.094-.156-.188-.188-.25-.125.72-.25 1.408-.438 2.1a4.056 4.056 0 0 1-1 1.783 6.218 6.218 0 0 1-4.067 1.971 2.462 2.462 0 0 1-2.753-1.908c-.063-.219-.156-.469-.219-.688-.094.031-.156.063-.156.094.188.907-.344 1.689-.375 2.534a.561.561 0 0 1-.188.313 4.828 4.828 0 0 1-3.318 1.623 1.924 1.924 0 0 0-.438.031c-.063 0-.125.063-.25.125a2.422 2.422 0 0 0 .219.5 2.739 2.739 0 0 1-.188 3.129 2.347 2.347 0 0 1-1.721 1.064 4.769 4.769 0 0 1-2.472-.25c-.375-.188-.626-.657-.939-1.032-.094-.094-.094-.25-.188-.438a1.537 1.537 0 0 0-.813.657 13.782 13.782 0 0 0-1.627 2.659c-.407 1.189-.813 2.409-1.22 3.6a4.57 4.57 0 0 0-.094.688c.125.063.188.125.282.125a43.8 43.8 0 0 1 5.663 1 44.717 44.717 0 0 0 5.35 1 .282.282 0 0 1 .156.031c1.126.657 2.284.25 3.41.094.97-.125 1.158-.063 1.439.907.094.375.156.72.25 1.095.125.407.282.782.438 1.189 1-.094 1.908-.219 2.878-.313-.219-.688-.407-1.314-.626-1.908-.282-.72-.219-.907.5-1.064a57.932 57.932 0 0 1 3.222-.594c1.5-.25 3-.469 4.505-.688.344-.063.688-.094 1.032-.156.657-.125.939.188.782.813a22.444 22.444 0 0 1-.72 2.19.963.963 0 0 0 .282 1.251 2.563 2.563 0 0 1 .688 1.689c.063.375.188.751.25 1.126.063.313.156.626.219.939.125.469.313.626.813.532.344-.063.688-.156 1.032-.219.219-.031.469 0 .532.282.063.313-.156.344-.407.407a31.323 31.323 0 0 0-3.035 1 3.752 3.752 0 0 0-1.815 1.283c.375.031.657.094.939.094 1.377 0 2.753 0 4.13.031h.375c.344 0 .688.031.72.469s-.313.407-.594.5c-1.314.344-2.6.688-3.879 1.064a9.048 9.048 0 0 0-1.314.688c.313.156.438.25.563.25.594.031 1.189.031 1.783.063.939.031 1.908.063 2.847.125.313 0 .563.125.563.469 0 .282-.25.375-.5.438a85.104 85.104 0 0 0-3.973 1.314 1.516 1.516 0 0 0-.563.532c1.533.407 3.1.094 4.63.282a1.677 1.677 0 0 1 .156.344c.094.375 0 .5-.407.5l-1.032-.094a1.958 1.958 0 0 0-.282 1.533c.282 1.377.094 2.753.282 4.13a19.738 19.738 0 0 1 .25 2.378 9.748 9.748 0 0 1-.125 1.627c-.031.282-.25.313-.5.313-.626.031-1.283.125-1.908.188l-2.065.188c-1.314.156-2.628.344-3.942.5-1.1.125-2.19.313-3.285.532-.751.156-1.533.094-2.315.188-1.877.219-3.754.438-5.631.72-.907.125-1.783.438-2.722.5a36.9 36.9 0 0 0-1.846.125c-.563.031-.626.125-.594.688.063.563.063 1.158.125 1.721.031.313.063.657.125.97a12.656 12.656 0 0 1 .282 2.878 21.873 21.873 0 0 0 .282 2.878c.188 1.126.438 2.253.626 3.379.156.876-.094 1.251-1 1.658-.813.375-.939.594-.688 1.47a14.162 14.162 0 0 1 .72 3.567 2.7 2.7 0 0 1-.063.876 9.4 9.4 0 0 0-.594 4.255c.031 1.533-.031 3.035-.063 4.568 0 .063-.063.156-.031.219.313 1.158.188 2.409.688 3.535.438.97.688 2 1.189 2.972.751 1.439 1.877 2.565 2.659 3.942.188.344.344.72.532 1.064.219.407.469.813.72 1.22a20.684 20.684 0 0 1 2.034 3.754.729.729 0 0 1-.219 1 .411.411 0 0 1-.657-.063 22.213 22.213 0 0 0-2.346-2.5c-1.064-1.22-2.159-2.409-3.222-3.629a8.678 8.678 0 0 1-.688-1.158 47.29 47.29 0 0 1-.72-1.158 138.128 138.128 0 0 1-.813 3.629c0 .063-.156.094-.25.156-.25-.188-.469-.344-.751-.563a17.234 17.234 0 0 1 .188-1.783 3.729 3.729 0 0 0-.219-2.472 1.933 1.933 0 0 1 .438-2.472 10.944 10.944 0 0 0-1.032-3.1 11.954 11.954 0 0 1-1.13-3.529 14.178 14.178 0 0 1 .188-5.381 20.854 20.854 0 0 0 .375-2.44 2.9 2.9 0 0 0-.344-1.6c-.344-.688-.626-1.377-.97-2.127a2.7 2.7 0 0 0-.469.156c-.532.313-1.064.626-1.627.907-1.345.688-2.722 1.314-4.1 1.971a.785.785 0 0 0-.469.751 48.573 48.573 0 0 1-.219 3.723 4.442 4.442 0 0 1-.375 1.439 2.715 2.715 0 0 0-.313 1.314c.063 1.6 0 3.191 0 4.787 0 .5.063 1 .094 1.5 0 .094.031.188.031.313a355.06 355.06 0 0 0-.375 3.316c.313-.031.626-.094.939-.125a8.575 8.575 0 0 1 .876-.156.681.681 0 0 1 .751.97 4.467 4.467 0 0 1-.469.845 70.739 70.739 0 0 0-1.283 2.1.918.918 0 0 0-.094.313c.188.094.344.219.5.313a.562.562 0 0 0 .813-.063.575.575 0 0 1 .813-.094c-.063.219-.156.407-.25.688l.939.469a3.279 3.279 0 0 1 .532-.438.75.75 0 0 1 .626-.063c.25.156.125.375-.063.563a.686.686 0 0 0-.094.25c.219.125.438.219.626.313.407-.125.594-.657 1.158-.438q-.094.375-.188.845a4.3 4.3 0 0 1 .626.407c.469.407 1.126.5 1.564 1.032a10.731 10.731 0 0 0 1.47 1.126 1.269 1.269 0 0 1 .407 1.658 5.97 5.97 0 0 1-1.095 1.94 1.2 1.2 0 0 1-1.314.438c-1.408-.375-2.816-.72-4.255-1.095a3.961 3.961 0 0 1-.563-.188c-1.251-.469-2.5-.907-3.723-1.408-.907-.375-1.815-.876-2.691-1.345a.99.99 0 0 1-.313-.563 2.036 2.036 0 0 1 .438-1.689 2.513 2.513 0 0 0 .594-1.658.719.719 0 0 1 .375-.688c.438-.219.907-.344 1.377-.532.25.876-.375 1.126-.876 1.5a1.881 1.881 0 0 0 .094.626 3.851 3.851 0 0 0 1.783 1.877 1.112 1.112 0 0 1 .282.125 7.979 7.979 0 0 0 2.159 1.158 11.443 11.443 0 0 0 1.658.657 4.431 4.431 0 0 1 2.534-2.159c-.688-.688-.876-.688-1.5-.156a1.65 1.65 0 0 1-.469.344.428.428 0 0 1-.438-.063.545.545 0 0 1 .031-.438 6.022 6.022 0 0 1 .594-.72c-.219-.125-.407-.25-.657-.375-.375.407-.782.782-1.126 1.158-.219.25-.438.407-.688.156s-.094-.469.094-.72a8.679 8.679 0 0 0 .657-.97 1.97 1.97 0 0 1-.563-.188c-.407-.219-.657-.031-.845.344a8.367 8.367 0 0 1-.563.876c-.125.188-.25.344-.469.25a.4.4 0 0 1-.219-.563c.156-.438.344-.876.532-1.345-.407-.282-.813-.563-1.283-.907-.094-.282.094-.5.25-.751.594-.907 1.158-1.877 1.721-2.816a2.71 2.71 0 0 0 .063-.313c-.282.063-.532.063-.782.125-.876.219-1.721.438-2.565.72-.563.188-.563.25-.344.813.156.407.313.845.438 1.283a2.379 2.379 0 0 1-.031.438c-.156-.063-.282-.063-.313-.125a12 12 0 0 1-1.158-2.972c.5-.094.97-.188 1.47-.313-.25-1.189-.532-2.315-.72-3.473a36.317 36.317 0 0 1-.688-5.193 19.074 19.074 0 0 0-.25-2.253c-.219-.031-.375-.031-.5-.063-.97 3.41-.657 6.914-.72 10.449a1.393 1.393 0 0 1 .375.188.654.654 0 0 1 .407.72 8.783 8.783 0 0 1-.72 3.1 1.925 1.925 0 0 0-.282.907 10.676 10.676 0 0 1-.813 2.378 4.37 4.37 0 0 1-.282.532c-.156.25-.375.188-.594.094s-.219-.282-.156-.5c.25-.876.5-1.783.72-2.659a9.787 9.787 0 0 0 .125-1.377.685.685 0 0 1-.156-.094c-.438.375-.907.751-1.314 1.158a22.945 22.945 0 0 1-3 2.472c-.782.563-1.533 1.189-2.284 1.783a12.376 12.376 0 0 1-1.064.688c-.375.188-.782.344-1.126.563a.435.435 0 0 1-.594-.031.456.456 0 0 1-.063-.657 13.289 13.289 0 0 1 .97-1.345 22.008 22.008 0 0 1 3-2.91 57.123 57.123 0 0 0 2.628-2.1c.5-.438.97-.939 1.439-1.408a7.954 7.954 0 0 1 .907-.876.711.711 0 0 0 .344-.751c-.094-1.283-.188-2.6-.282-3.879-.031-.438 0-.845-.031-1.283-.188-1.6-.407-3.191-.626-4.818-.031-.344-.25-.469-.532-.532a6.075 6.075 0 0 0-.751-.063 9.594 9.594 0 0 1-1.314-.219c-.688-.188-.876-.094-1.158.563a62.71 62.71 0 0 1-1.189 2.565c-.407.907-.782 1.846-1.251 2.722a14.837 14.837 0 0 1-1.94 3.348 12.129 12.129 0 0 0-.72 1.032c-.188.282-.407.563-.657.876.375.407.125.813-.156 1.251-.313.563-.594 1.126-.907 1.689-.125.25-.25.469-.407.72a2.588 2.588 0 0 1 1.032 1.815 2 2 0 0 1-.688 1.877c-1.032.97-2.1 1.908-3.222 2.784a13.368 13.368 0 0 1-2 1.251 31.154 31.154 0 0 1-3 1.627c-1.158.469-1.439.563-2.19-.313-.438-.532-.907-1.032-1.314-1.6a2.364 2.364 0 0 1 .219-2.284 7.124 7.124 0 0 1 1.533-1.533A17.052 17.052 0 0 0 27 110.48a3.762 3.762 0 0 0 .438-.876c.156.031.407.063.813.125a2.951 2.951 0 0 0 .344-.563c.094-.219.25-.375.438-.219.344.313.563.031.782-.094.25-.156.532-.313.438-.688 0-.031.031-.094.063-.219a3.072 3.072 0 0 0 .907.156 4.513 4.513 0 0 0 .939-.375c-.156-.407-.25-.782-.407-1.126a34.48 34.48 0 0 1-.813-1.908 1.145 1.145 0 0 1-.063-.845c.188-.375.594-.407 1-.344.657.125 1.314.219 2 .344.282.031.532.031.751.063a4.823 4.823 0 0 0 1.032-2.127c.532-1.721 1.158-3.41 1.721-5.1a25.224 25.224 0 0 0 1.408-4.349c-.563-.5-1.345-.219-1.94-.532-.626-.313-1.22-.626-1.94-1 .375-2.941.751-5.913 1.189-8.854s.939-5.882 1.439-8.885c-.469.094-.876.156-1.283.219a2.3 2.3 0 0 1-.438.125c-1.095-.125-1.94.532-2.878.845-.313.094-.594.219-.907.282a1.337 1.337 0 0 0-.97.939c-.626 1.721-1.22 3.41-1.689 5.225 1.533.407 2.659 1.564 4.067 2.284a2.267 2.267 0 0 1 .97 1.189 1.219 1.219 0 0 1-.031.876 2.407 2.407 0 0 1-1.314 1.783 1.557 1.557 0 0 1-1.564-.094c-.469-.313-.97-.563-1.533-.876q-.047.375-.094.657c-.125.532-.344.657-.845.375a7.067 7.067 0 0 1-.813-.532c.031.25 0 .407.031.532a3.587 3.587 0 0 1 .188 1.815.818.818 0 0 0 .125.626 21.44 21.44 0 0 1 2.539 3.688c0 .031.031.031.094.094.407-.313.813-.657 1.251-.939a3.9 3.9 0 0 1 1.158-.532c1-.156 1.6.313 1.689 1.439a3.762 3.762 0 0 1-1.064 3.16 10.44 10.44 0 0 1-1.752 1.564 5.812 5.812 0 0 1-1.846.72 1.262 1.262 0 0 1-1.314-.626 14.228 14.228 0 0 1-1.032-2.472c-.344-.876-.782-1.721-1.189-2.565a2.6 2.6 0 0 0-.407-.563c-.876.344-.72 1.032-.657 1.533a10.815 10.815 0 0 1-.094 2.847 10.308 10.308 0 0 1-.344 2.19c-.25.688-.469 1.377-.782 2.034a1.789 1.789 0 0 1-2.159.688 6.386 6.386 0 0 1-3.723-4.38 3.072 3.072 0 0 1 .282-2.159 1.483 1.483 0 0 1 1.627-.626 11.3 11.3 0 0 1 1.283.594c.063-.344.188-.688.25-1.064.125-.72.25-1.439.407-2.127a1.37 1.37 0 0 0-.344-1.314 5.635 5.635 0 0 1-1.283-2.409c-.125-.282-.25-.594-.407-.97a10.668 10.668 0 0 1-.876 1.032 42.449 42.449 0 0 1-1.815 1.533 4.162 4.162 0 0 0-.594.438 3.565 3.565 0 0 1-2.722.782 1.2 1.2 0 0 1-.939-.97 2.281 2.281 0 0 1 .156-1.22 9.937 9.937 0 0 1 2.284-2.816c.845-.72 1.721-1.439 2.628-2.19a4.335 4.335 0 0 1-.344-2.784 2.636 2.636 0 0 1-2.159.188 2.177 2.177 0 0 1-1.6-1.6 3.8 3.8 0 0 1-.063-2.565 3.006 3.006 0 0 1 1.908-1.783 2.421 2.421 0 0 1 1.815-.031 1.86 1.86 0 0 1 1.251 1.251c.094.344.313.407.626.313.688-.156 1.345-.344 2.034-.438.379-.026.786.006 1.255-.057zM41.359 64.8c-.344.031-.657.063-.97.094-.782.094-1.564.25-2.346.344-.282.031-.532-.063-.813-.031-.438.031-.594.25-.532.688.031.188.063.344.094.532.031.594-.063.751-.626.939-.407.125-.813.219-1.22.344-.532.156-1.032.375-1.533.532-.751.219-1.533.438-2.284.657a4.806 4.806 0 0 0-1.721.907c.031.125.063.219.094.313.657 1.064 1.314 2.127 1.94 3.191a.614.614 0 0 0 .813.313 27.24 27.24 0 0 0 2.659-1 19.122 19.122 0 0 1 3.16-1.158c.657-.188.907.094.782.72-.25 1.533-.5 3.1-.751 4.63-.156 1-.25 2-.407 3.035-.25 1.877-.594 3.754-.751 5.631a34.64 34.64 0 0 1-.469 4.036c-.188 1.032-.094 1.158.876 1.564a1.525 1.525 0 0 0 .344.125l1.408.469c.72.219 1.439.438 2.159.594a17.456 17.456 0 0 0 1.783.25c1.283.156 2.565.375 3.848.5 1.032.094 2.1.125 3.129.125a11.631 11.631 0 0 0 2.065-.25.632.632 0 0 0 .626-.563c.094-.907.219-1.815.313-2.753l.375-4.317c.094-.876.25-1.783.313-2.659a57.24 57.24 0 0 0 .25-4 41.035 41.035 0 0 0 .125-5.882 2.686 2.686 0 0 1 1.377-2.878 5.87 5.87 0 0 0 .563-.375c.188-.125.375-.25.5-.344a3.43 3.43 0 0 1-.375-.97 28.476 28.476 0 0 1-.469-4.317 5.421 5.421 0 0 0-.125-1.158c-.563.219-1.032.438-1.5.594-.97.313-2.034.063-2.972.532-.657-.125-.813.313-.907.813-.031.156-.063.282-.094.438a.6.6 0 0 1-.532.563c-.469.094-.97.188-1.533.282.156.939.313 1.846.469 2.753a.694.694 0 0 0 .156.344c.282.313.594.563.876.876.125.156.344.375.313.532-.063.313-.344.407-.626.407-.156 0-.313-.031-.438-.031a9.98 9.98 0 0 1-4.443-1.846 6.063 6.063 0 0 1-2.44-2.346c-.188-.407-.563-.688-.407-1.189.062-.159-.063-.378-.126-.6zm-24.84-24.744a19.706 19.706 0 0 0 1.658-1.156 39.413 39.413 0 0 1 4.505-3.066c1.251-.782 2.5-1.5 3.723-2.253 0-.813-.031-1.6 0-2.378a9.96 9.96 0 0 1 1.126-3.535.822.822 0 0 1 .97-.375c.344.156.219.469.219.72v.219a8.061 8.061 0 0 0 .657 4.286 629.28 629.28 0 0 0 7.133-4c-.156-1-.282-2.034-.5-3-.438-1.752-.939-3.5-1.439-5.256a132.022 132.022 0 0 1-.907-3.379c-.188-.751-.375-1.5-.594-2.221-.375-1.22-.751-2.409-1.126-3.629a5.79 5.79 0 0 0-.844-1.981c-.282.125-.532.219-.782.313-.375.156-.782.282-1.158.438a7.58 7.58 0 0 0-1.439.657 4.349 4.349 0 0 1-.657.344c-.25.125-.563.188-.813.313-.407.219-.782.5-1.22.72-.939.5-1.94.907-2.847 1.439-1.158.657-2.253 1.377-3.379 2.034a45.97 45.97 0 0 1-1.658.97c-1.126.657-2.284 1.283-3.379 2-.907.563-1.721 1.22-2.628 1.783a.766.766 0 0 0-.407.939c.188 1 .407 2 .657 2.972.219.876.563 1.689.813 2.565.344 1.283.626 2.565.939 3.817.219.782.5 1.564.72 2.346.094.344.094.751.188 1.095.313.939.688 1.846 1 2.816.219.657.313 1.345.5 2a2.056 2.056 0 0 0 .969 1.443zM44.05 20c0-1.377.063-2.816.031-4.255-.031-1.377-.156-2.722-.219-4.1-.094-1.94-.125-3.879-.219-5.819-.063-1.345-.156-2.659-.25-4C43.33.949 43.205.761 42.329.793a26.573 26.573 0 0 0-4.724.469c-1.439.313-2.941.532-4.38.782a14.731 14.731 0 0 0-2.847.532c-.031.031-.094 0-.156.031a11.787 11.787 0 0 0-2.378.375 9.361 9.361 0 0 1-3.066.594c-.063 0-.125.063-.219.063l-1.6.375c-.97.219-1.908.469-2.91.688 0 .876-.031 1.658 0 2.44a21.941 21.941 0 0 0 .375 2.878 3.56 3.56 0 0 1 .125 1.158 3.447 3.447 0 0 0 .282 1.658c1.158-.594 2.253-1.095 3.316-1.721 1.815-1 3.692-1.752 5.538-2.565a2.605 2.605 0 0 1 1.689-.188.53.53 0 0 1 .469.407c.25.751.657 1.408.845 2.19.313 1.345.813 2.659 1.189 3.973.5 1.846.939 3.723 1.439 5.569a2.1 2.1 0 0 0 .188.375c2.821-.248 5.605-.624 8.546-.876zm-5.725 35.136c.25.282.438.532.657.751a5.4 5.4 0 0 1 .813.876 14.962 14.962 0 0 1 1.905 5.005 9.561 9.561 0 0 0 .407 1.877 2.051 2.051 0 0 1 .188 1.126 1.5 1.5 0 0 0 .469 1.408 3.6 3.6 0 0 1 .438.532 4.077 4.077 0 0 0 1.6 1.408c.782.469 1.564.97 2.378 1.408a.862.862 0 0 0 .594.125c.282-.094.25-.375.219-.626-.188-1.064-.344-2.1-.532-3.222a12.472 12.472 0 0 1-1.283-.438c-.438-.188-.97-.188-1.22-.72.407-.25.72-.031 1.032.063a9.122 9.122 0 0 0 1.189.438 3.42 3.42 0 0 0 2.6-.156c-.031-.813-.031-1.627-.094-2.44a5.325 5.325 0 0 0-.282-1.22c-.094-.282-.282-.375-.594-.219a5.965 5.965 0 0 1-3.66.72c-.407-.063-.751-.156-.907-.532a18.815 18.815 0 0 1-.813-2.065 7.294 7.294 0 0 1-.25-1.846c0-.532-.063-.97-.594-1.22.063-.313.188-.438.469-.344a3.285 3.285 0 0 0 1.095.25c1.032.063 2.034.156 3.066.125a4.9 4.9 0 0 0 2.159-.407l-.407-.813c-1.064.344-1.064.344-1.47-.375a4.783 4.783 0 0 1 .845-.532 19.792 19.792 0 0 0 3.6-2.127 5.129 5.129 0 0 0 .782-.72c-.939-.156-1.752-.25-2.534-.407-.845-.156-1.658-.344-2.472-.469s-1.627-.219-2.44-.313c.063-.845.782-.438 1.095-.72 0-.094.063-.188.031-.282-.188-.939-.375-1.846-.563-2.784a6.69 6.69 0 0 0-2.346-3.973 3.358 3.358 0 0 0-3.473-.438 3.9 3.9 0 0 1 2.628 1.5c-.125.219-.25.375-.407.626-.438-.375-.845-.72-1.251-1.032-.688-.5-.72-.5-1.314-.469.532.375 1.126.782 1.721 1.22a1.092 1.092 0 0 1 .375.469.928.928 0 0 1-.094.594.34.34 0 0 1-.563-.063c-.125-.156-.282-.282-.407-.438a4.139 4.139 0 0 0-2.534-1.533c-.313.219-.532.344-.72.469.876.594 1.658 1.126 2.472 1.689a1.665 1.665 0 0 1 .657 1.251c-.626.031-.594 0-1-.344-.626-.532-1.251-1.064-1.908-1.564-.125-.094-.313-.094-.438-.156a.7.7 0 0 0 .125.876c.469.532.907 1.064 1.314 1.627a8.73 8.73 0 0 1 .594 1.032c-.219.313-.407.188-.563.063-.469-.438-.939-.876-1.377-1.345a18.598 18.598 0 0 1-1-1.095 7.061 7.061 0 0 0 1.721 4.13 2.431 2.431 0 0 1-.688 0 2.17 2.17 0 0 1-1.189-1.377c-.219-.594-.407-1.189-.626-1.815a2.591 2.591 0 0 0 .282 3.441c.188.188.25.469.438.688a7.26 7.26 0 0 0 .657.563c-.282.063-.407.125-.5.125a2.248 2.248 0 0 0-1.6.532 1.981 1.981 0 0 0-1 1.877 2.928 2.928 0 0 0 2 2.534 2.306 2.306 0 0 0 2.498-.779zM19.241 8.52a11.356 11.356 0 0 1-1.283.72c-1.126.407-2.284.72-3.379 1.158-1.658.657-3.254 1.377-4.881 2.065-.939.407-1.815.97-2.784 1.283-1.689.563-3.129 1.658-4.755 2.346-.876.375-.97.876-.626 1.752.031.125.125.219.156.344.876 2.034 1.783 4.036 2.6 6.1a35.423 35.423 0 0 1 1.533 4.443 21.049 21.049 0 0 0 1.189 3.035c.469 1.189.939 2.409 1.439 3.6.344.813.5.876 1.283.438 1.095-.626 2.19-1.251 3.348-1.908a3.526 3.526 0 0 0-.094-.563c-.407-1.439-.845-2.878-1.251-4.286-.782-2.784-1.564-5.569-2.346-8.322l-.094-.375c-.063-.532-1.064-.907-.532-.939a5.457 5.457 0 0 0 1.658-.813c1.6-1.251 3.723-1.627 5.475-2.659 1.189-.72 2.378-1.439 3.6-2.19a58.573 58.573 0 0 0-.256-5.229zm52 57.6c1.47-.188 2.972-.407 4.443-.626a8.584 8.584 0 0 0 1.22-.282 8.591 8.591 0 0 0 1.283-.344 1.706 1.706 0 0 0 .751-.469c.5-.5.97-1.064 1.5-1.564a8.4 8.4 0 0 0 1.533-2.472A9.675 9.675 0 0 0 83 55.448c-.094-1.439-.282-2.878-.5-4.286a4.77 4.77 0 0 0-1.064-2.44l-1.6-1.877a8.192 8.192 0 0 0-3.129-2.44 14.955 14.955 0 0 0-2.159-.782 20.8 20.8 0 0 0-2.44-.313 3.66 3.66 0 0 0-1.908.282 1.334 1.334 0 0 1-.563.188 6.6 6.6 0 0 0-2.534.751 7.258 7.258 0 0 0-2 1.283c-.688.657-1.5 1.126-2.221 1.783a8.881 8.881 0 0 0-1.564 1.689 5.9 5.9 0 0 0-.813 2.91 29.582 29.582 0 0 1-.219 3.348 4.356 4.356 0 0 0 .063 1.908 12.418 12.418 0 0 0 2.534 4.787c.688.751 1.658 1.095 2.346 1.783a3.175 3.175 0 0 0 .845.594q1.032.469 2.065.845a8.713 8.713 0 0 0 3.098.656zm-1.658-27.5c-.25-.125-.344-.219-.438-.219-2.409-.469-4.818-.97-7.258-1.408a23.353 23.353 0 0 0-2.972-.344c-.532-.031-.563.063-.375.688.375-.063.751-.094 1.158-.156.063.344.219.563-.063.813-.438.375-.813.813-1.22 1.22-.219.188-.438.375-.657.594a3.486 3.486 0 0 0-.282-.313c-.313.156-.563.282-.845.407-.845.407-1.721.813-2.565 1.22s-1.721.782-2.6 1.158a2.051 2.051 0 0 1-.626 0c.469-1.064 1.5-1.47 2.065-2.315-.939.594-1.815 1.22-2.722 1.877-.25.156-.469.344-.72.5-.845.657-1.689 1.314-2.5 1.971a1.543 1.543 0 0 0-.469 1.564l.469 3c.063.438.25.72.657.782 1.251.219 2.5.407 3.754.626.657.125 1.408 0 1.971.532.375.344.438.657.063 1a21.274 21.274 0 0 1-1.877 1.439c-.5.375-1.032.657-1.564 1a.761.761 0 0 0-.344 1.126c.094.25.219.469.313.72-.156.094-.25.188-.344.188-.657.031-.72.469-.751.97-.031.657-.188 1.314-.282 2-.031.313 0 .626 0 .939.407.031.72.063 1.032.094.219.876.438 1.689.657 2.534a96.45 96.45 0 0 1 2.565-.594 2.967 2.967 0 0 1 .72-.156 5.741 5.741 0 0 0 1.908-.5c-.063-.438-.125-.813-.156-1.22-.125-1.47-.219-2.91-.313-4.38-.156-2.409-.282-4.818-.438-7.227-.063-.813-.125-1.627-.219-2.472a2.319 2.319 0 0 1-.031-.657.6.6 0 0 1 .594-.469 5.446 5.446 0 0 1 .375.438c.407-.125.782-.25 1.158-.375-.063-.125-.063-.188-.125-.25-.282-.344-.594-.657-.907-1-.438-.5-.407-.751.219-1 1-.375 2.034-.72 3.066-1a.98.98 0 0 1 1.314.782c.094.313.156.626.25.939.063.282.25.5.5.469a8.64 8.64 0 0 0 2.472-.595 3.592 3.592 0 0 1-.407-.751 3.344 3.344 0 0 0-1.093-1.721c-.094-.094-.25-.188-.313-.313a.867.867 0 0 1 0-.563.812.812 0 0 1 .438-.188 3.833 3.833 0 0 0 .594.063c.782-.125 1.564-.25 2.346-.407 1.032-.25 2.034-.532 3.035-.782.59-.098 1.122-.187 1.779-.281zm-14.8 45.114c3.786-1 7.446-1.94 11.169-2.941-.156-.219-.282-.407-.438-.626.563-.282.282-.72.25-1.064-.125-1.721-.282-3.41-.438-5.131-.094-1.1-.219-2.159-.344-3.254-.094-.876-.188-1.721-.282-2.628-2.284.25-4.505.5-6.57.72-.156.282-.188.469-.313.563-.469.375-.939.751-1.439 1.1a2.171 2.171 0 0 0-1 1.815c-.031 1.752-.125 3.5-.188 5.225v.375a519.35 519.35 0 0 1-.409 5.843zm-31.069-4.258v1.439a.769.769 0 0 0 .156.532c.532.688 1.095 1.377 1.627 2.034.031.063.125.063.219.094a1.677 1.677 0 0 0 .156-.344 8.719 8.719 0 0 0 .25-2.847 2.863 2.863 0 0 0-.845-2.034c.125-.375.282-.657.72-.688a1.65 1.65 0 0 0 1.564-2.284 4.524 4.524 0 0 0-.282-.688c-.626-1.47-.907-1.345-2.221-1.1a.916.916 0 0 0-.751.626 3.962 3.962 0 0 0-.188.563c-.188.563-.25 1.064.313 1.439a.234.234 0 0 1 .031.156c-.188.156-.407.313-.657.5A1.977 1.977 0 0 0 21.9 77a4.462 4.462 0 0 1-.845.282 1.2 1.2 0 0 0-.876.532.779.779 0 0 1-1.064.282c-.125-.563-.188-1.064-.344-1.564a.95.95 0 0 0-1.158-.688 3.554 3.554 0 0 0-2.064 1.256 1.121 1.121 0 0 0-.125.344 3.185 3.185 0 0 0 .407 2.378 1.407 1.407 0 0 0 1.971.626c.219-.094.407-.188.688-.313.125.344.594.407.594.876a6.9 6.9 0 0 0 .125 1.126c.156 1.408 1.126 2.159 2.284 2.941.438-1.032.845-1.94 1.251-2.878a.686.686 0 0 0-.188-.751c-.282-.282-.594-.532-.876-.813-.344-.313-.313-.469.063-.657a4.268 4.268 0 0 1 1.971-.503zm10.544-30.785a1.132 1.132 0 0 1-1-.563 9.227 9.227 0 0 0-.97-1.22c-.626-.72-1.283-1.377-1.94-2.1-.469-.5-.939-1.032-1.408-1.533a.5.5 0 0 0-.657-.188 6.316 6.316 0 0 0-1.752.939 11.439 11.439 0 0 1-1.314.813c-.563.282-.626.5-.282 1 .375.563.72 1.126 1.095 1.689.063.094.125.219.188.313.688.876 1.408 1.752 2.034 2.659a16.9 16.9 0 0 0 3.066 3.441 2.124 2.124 0 0 0 1.752.594 3.393 3.393 0 0 1 2.13-4.155l-.942-1.689zm-6.414-19.46a5.166 5.166 0 0 0-.72 2.472 15.427 15.427 0 0 0 .407 3.786.994.994 0 0 1-.063.407c-.751-.188-.407-1-.907-1.345-.469.219-.939.438-1.408.688a7.6 7.6 0 0 0-1.095.626c-.25.188-.594.438-.594.688a1.977 1.977 0 0 0 .282 1.189 3.789 3.789 0 0 0 1.658 1.47.744.744 0 0 1 .5.688c.063.72.094 1.439.156 2.127.031.375.094.782.156 1.251.657-.407 1.22-.751 1.815-1.126a2.371 2.371 0 0 0-.094-.5 6.386 6.386 0 0 1 0-2.878 2.5 2.5 0 0 1 1.095-1.815 14.89 14.89 0 0 1 1.783-1.064 1.064 1.064 0 0 0 .685-1.345c-.156-.813-.657-1.126-1.533-.813.063.094.156.219.219.313.156.188.313.344.094.594s-.469.063-.657-.063c-.125-.063-.219-.219-.313-.313a5.359 5.359 0 0 1-1.126-2.5c-.152-.847-.215-1.692-.34-2.537zm-5.975 56.627a.911.911 0 0 0-.25 1 11.544 11.544 0 0 0 2.127 4.13A1.586 1.586 0 0 0 26 91.4c.094-.063.219-.125.313-.188a2.412 2.412 0 0 0 1.095-1.627 5.845 5.845 0 0 0-.125-2.847 27.97 27.97 0 0 0-.72-1.721 4.44 4.44 0 0 0-.344-.563 11.218 11.218 0 0 1-2 1.189 3.357 3.357 0 0 1-2.35.215zm7.1.25a13.691 13.691 0 0 0 .219-2.221 1.217 1.217 0 0 1 .97-1.345 2.753 2.753 0 0 0 .626-.375 1.847 1.847 0 0 0-1.846-.563c-.438.125-.626-.156-.5-.626.313-1.032.657-2.1 1-3.129.407-1.22.813-2.44 1.251-3.66a.635.635 0 0 0-.031-.626 39.175 39.175 0 0 1-1.095-1.94c-.094-.156-.188-.313-.375-.594-.219.626-.407 1.095-.563 1.6a3.977 3.977 0 0 0-.219 2.941 1.874 1.874 0 0 1-.594 2.284.963.963 0 0 0-.188.594c-.063.532-.063 1.095-.094 1.627-.031.407-.188.72-.563.782-.125.845-.219 1.627-.344 2.409a.687.687 0 0 0 .031.438c.25.469.5.907.751 1.345a.765.765 0 0 0 .282.344 10.331 10.331 0 0 0 1.283.715zm-5.63 12.515a1.886 1.886 0 0 1-.344-.438c-.125-.313-.219-.657-.344-.97a2.769 2.769 0 0 0-1.689-1.94 1.043 1.043 0 0 0-1.158.344 2.128 2.128 0 0 0-.125 1.94c.188.375.375.751.594 1.126a7.335 7.335 0 0 0 2.315 2.284 1.108 1.108 0 0 0 1.6-.282 6.768 6.768 0 0 0 1-2.565 19.545 19.545 0 0 0 .282-3.035 21.27 21.27 0 0 0-.125-2.5c-.657-.219-1.22-.407-1.877-.594a22.514 22.514 0 0 0-.5 2.44 7.653 7.653 0 0 0 .5 3.222.948.948 0 0 1-.129.968zm12.608 6.32a10.1 10.1 0 0 0-4.286-.657c.219.532.469 1.064.688 1.564.313.688.657 1.408.939 2.1.156.407.063.594-.344.72-.469.125-.939.25-1.47.375.344.626 1.064 1.22.094 1.877-.219-.5-.407-1-.626-1.533-.313.188-.563.344-.813.469.156.594.845.876.813 1.533l-.657.188c-.156-.25-.282-.5-.407-.72s-.25-.469-.375-.688c-.813.344-.813.72-.094 1.721-.313.344-.438.344-.751.031-.25-.25-.469-.563-.751-.876-.25.219-.438.407-.688.626.782.72 1.47 1.408 2.19 2.1.5-.344 1.064-.626 1.564-1a16.052 16.052 0 0 0 3.441-3.535c.219-.344.344-.594.031-.907a1.469 1.469 0 0 1-.188-.282q.798-1.558 1.69-3.107zM28.595 90.3a8.452 8.452 0 0 0-.813 2.472 1.539 1.539 0 0 0 .156.626c.375.907.751 1.783 1.095 2.691a7.785 7.785 0 0 0 .344.907c.5 1.064.782 1.345 2.19.751l.188-.094a9.756 9.756 0 0 0 2.065-1.689 4.047 4.047 0 0 0 .907-1.689 2.334 2.334 0 0 0-.188-1.6.515.515 0 0 0-.563-.375 3.4 3.4 0 0 0-.813.125 3.362 3.362 0 0 0-1.783 1.627 12.7 12.7 0 0 0-.688 1.627c-.094.25-.188.469-.626.344.063-.375.156-.751.219-1.158.063-.469.282-1 .125-1.377a25.694 25.694 0 0 0-1.815-3.188zm10.731 2.6c-.532 1.533-1 2.91-1.5 4.286-.313.845-.626 1.689-.907 2.534-.313.876-.626 1.721-.907 2.6a2.4 2.4 0 0 0-.031 1.564 6.922 6.922 0 0 0 1.22-1.064 19.87 19.87 0 0 0 2.44-4.161c.344-.782.688-1.533 1.064-2.284.313-.594.657-1.189.939-1.721-.816-.63-1.567-1.194-2.318-1.754zm39.8-52.09c2.253-.156 4.38-.313 6.539-.469a20.7 20.7 0 0 0 1.126-3.316 4.552 4.552 0 0 0-.657 0c-1.627.313-3.285.626-4.881 1-.782.188-1.533.438-2.284.688-.469.156-.532.313-.344.782a13.922 13.922 0 0 0 .496 1.312zM45.52 56.919v-.125h-1.5c-.25 0-.438.063-.407.375a7.413 7.413 0 0 0 1.158 3.6 1.472 1.472 0 0 0 .782.532 4.042 4.042 0 0 0 2.19-.313.451.451 0 0 0 .219-.344 138.4 138.4 0 0 0 .313-3.567c.031-.438-.094-.469-.532-.407-.752.092-1.472.155-2.223.249zm6.7 47.648c.344 0 .407-.188.407-.407a41.109 41.109 0 0 0 .25-4.38c-.125-1.658-.125-3.316-.25-4.974-.031-.407.031-.907-.313-1.251-1.283.063-1.283.063-1.627.375.063.845.094 1.627.156 2.44a16.614 16.614 0 0 0 .094 2.159c.403 2.002.872 4.004 1.279 6.038zM19.147 84.356c-.688.532-1.345.939-1.908 1.439a17.751 17.751 0 0 0-1.815 1.94 5.806 5.806 0 0 0-.782 1.345c-.282.72.219 1.251.97 1.064a3.6 3.6 0 0 0 1.283-.532 23.013 23.013 0 0 0 2.378-1.94 7.4 7.4 0 0 0 1.533-2.1c-.596-.402-1.127-.809-1.659-1.216zm16.175 24.966a3.541 3.541 0 0 0-.407.313 20.876 20.876 0 0 1-2.253 2.472 16.257 16.257 0 0 1-3.5 2.5 6.6 6.6 0 0 0-1.6.72 9.254 9.254 0 0 1-1.533.876c-.188.094-.438.125-.688.219a1.043 1.043 0 0 0 1.377.5c.375-.156.813-.25 1.189-.438.626-.313 1.22-.688 1.846-.97a19.514 19.514 0 0 0 5.256-3.911c.813-.748.844-1.248.312-2.281zm27.093 6.414c-.688-.094-1.283-.188-1.908-.282h-.157a14.756 14.756 0 0 1-7.258-2.5c-.125-.094-.344-.094-.5-.156a2.584 2.584 0 0 1-.688-.438c-.344-.344-.657-.72-.97-1.064a1.991 1.991 0 0 0-.313.188c-.72.688-.688 1.126.219 1.564 1.47.72 2.972 1.408 4.505 2.034 1.032.407 2.127.657 3.191 1.032a14.305 14.305 0 0 0 2.565.5.687.687 0 0 0 .72-.25c.187-.222.379-.409.594-.628zm-7.79-29.377A71.351 71.351 0 0 0 64.1 82.01a35.931 35.931 0 0 0-9.48 2.722zm-23.246-3.692c0-.031-.031-.031-.031-.063a5.4 5.4 0 0 0-1.158.5 1.512 1.512 0 0 0 .063 2.315c.438.282.907.5 1.345.813.688.469 1.158.219 1.689-.219A1.6 1.6 0 0 0 33.6 84.2a5.614 5.614 0 0 0-2.1-1.5c0-.064-.058-.033-.121-.033zm48.086-63.572a5.969 5.969 0 0 1-2.816 1.283 5.565 5.565 0 0 1-3.1-.5A2.346 2.346 0 0 0 76.18 22.1a5.17 5.17 0 0 0 2.628-1.345 1.507 1.507 0 0 0 .657-1.66zM28.345 113.8c-.438-.407-.813-.813-1.22-1.189a.863.863 0 0 0-.282-.219c-.219-.031-.563-.125-.688-.031a8.561 8.561 0 0 0-1.408 1.408 1.937 1.937 0 0 0-.25 1.126c0 .563.282.72.845.688a1.846 1.846 0 0 0 .438-.063 9.144 9.144 0 0 0 2.534-1.533.465.465 0 0 0 .031-.187zm29.909.626a9.5 9.5 0 0 0 4.067.375.58.58 0 0 0 .219-.063c.282-.188.407-.532.156-.751-.532-.532-.939-1.189-1.689-1.439a1.07 1.07 0 0 0-.626-.031 5.851 5.851 0 0 0-1.251.626 2.039 2.039 0 0 0-.876 1.279zM23.339 81.853a9.313 9.313 0 0 0-.688 1.658c-.125.563-.657 1.032-.438 1.721a3.522 3.522 0 0 0 3.129-.97 177.703 177.703 0 0 0-2.003-2.409zm56.439-67.67a12.44 12.44 0 0 1-.313-.5 7.177 7.177 0 0 0-1.846-1.345 1.641 1.641 0 0 0-1.564-.125c-.532.25-1.064.469-1.564.72a5.577 5.577 0 0 0-.845.657c.156.125.282.125.344.094a4.174 4.174 0 0 1 2.691-.125 5.774 5.774 0 0 0 .72.125c.813.186 1.532.342 2.377.499zm-.845 3.567a.579.579 0 0 0-.688-.375q-1.736.188-3.473.282a1.476 1.476 0 0 0-1 .375 4.383 4.383 0 0 0 5.161-.283zm-5.475-1.35c1.689-.313 3.41-.594 5.131-.907-1.501-1.404-3.973-.593-5.131.907zm-38.2 27.75a35.825 35.825 0 0 0 2.816-2.44c-.282-.5-.407-.594-.782-.282-.688.532-1.283 1.158-1.94 1.689-.312.283-.375.537-.093 1.037zm1.721-3.5c-.282-.031-.407-.094-.469-.063-.594.375-1.158.72-1.721 1.126-.282.219-.156.469.094.688a7.194 7.194 0 0 0 2.097-1.751zm-14.86 39.577c.407.344 1.283.094 1.095-.313-.314.094-.595.156-1.095.313z" class="cls-5" data-name="Path 1076"/>
            <path id="Path_1077" d="M184 26c.063.344.125.657.219 1.064.313-.063.72-.156 1.126-.219.563-.125.813.063.876.594.031.313-.156.438-.375.563-.438.25-.876.469-1.314.72-.939.594-1.908 1.189-2.816 1.846-.563.407-1 .939-1.533 1.408.031.063.063.094.094.156.688-.313 1.408-.563 2.065-.907a7.779 7.779 0 0 0 2.534-1.846.633.633 0 0 1 .594-.188c.125.031.219.344.219.563a.884.884 0 0 1-.125.563 10.51 10.51 0 0 1-1 1.6 6.652 6.652 0 0 0-1.126 1.846c-.063.125-.125.282-.188.407-.282.5-.563.688-.907.563-.594-.25-.876-.657-.688-1.22.188-.532.469-1.032.72-1.627-.469.25-.907.438-1.345.688-.594.344-1.189.751-1.783 1.126-.094.063-.188.094-.219.188-.25.5-.563.626-1.1.313-.156-.094-.469.031-.72.094a1.163 1.163 0 0 1 .125-1.47 11.034 11.034 0 0 1 1.846-1.971c1-.813 2.1-1.5 3.16-2.253a.711.711 0 0 0 .344-.438 378.331 378.331 0 0 0-5.162 2.472 3.2 3.2 0 0 0-.939.594 1.956 1.956 0 0 1-1.752.407 1.369 1.369 0 0 1 0-1.533 4.958 4.958 0 0 1 1.815-2.034 2.642 2.642 0 0 0 .563-.469 12.232 12.232 0 0 0-3 .845.99.99 0 0 1-1.126-.031 1.139 1.139 0 0 1-.094-2 11.341 11.341 0 0 1 5.381-2.472 25.8 25.8 0 0 1 3.786-.344c1.032 0 2.1-.094 3.129-.094.72 0 .845.188.72 1-.563 0-1.158-.031-1.752 0-1.689.125-3.379.25-5.068.469A7.272 7.272 0 0 0 176.336 26a10.188 10.188 0 0 0-1.064.688c2.973-.188 5.788-.748 8.728-.688zm-.282 1.064a11.426 11.426 0 0 0-6.32 2.284c.031.063.031.094.063.156a394.928 394.928 0 0 0 6.259-2.437z" class="cls-5" data-name="Path 1077" transform="translate(-118.489 -16.169)"/>
            <path id="Path_1078" d="M206.1 53.783c.125-.094.188-.219.282-.25a14.605 14.605 0 0 0 3.5-2.5 3.2 3.2 0 0 0 1-3.441.972.972 0 0 1 .318-1.192 3.215 3.215 0 0 1 .282 4.6 13.474 13.474 0 0 1-4.13 3 .969.969 0 0 1-1.252-.217z" class="cls-5" data-name="Path 1078" transform="translate(-141.62 -31.904)"/>
            <path id="Path_1079" d="M172.056 62.855a.921.921 0 0 1-.782 1 .867.867 0 0 1-.876-.845 1.148 1.148 0 0 1 1.126-1.032c.344.064.532.377.532.877z" class="cls-5" data-name="Path 1079" transform="translate(-117.087 -42.603)"/>
            <path id="Path_1080" d="M205.746 84.7a8.069 8.069 0 0 1-.25-.469 3.671 3.671 0 0 1-.156-.344 1.057 1.057 0 0 1 1.251-.438c.344.125.751.094.782.657-.375-.063-.72-.094-1.158-.156a5.725 5.725 0 0 0 .219.532.637.637 0 0 1-.282.939.882.882 0 0 1-1.032-.407c-.094-.219 0-.344.219-.375a3.287 3.287 0 0 1 .407.061z" class="cls-5" data-name="Path 1080" transform="translate(-140.922 -57.317)"/>
            <path id="Path_1081" d="M188.228 71.4c-.72-.25-1.064-.594-1.032-1.064a.61.61 0 0 1 .594-.563c.282-.031.688-.188.845.219a1.655 1.655 0 0 1 .031.876c-.066.224-.281.38-.438.532z" class="cls-5" data-name="Path 1081" transform="translate(-128.629 -47.93)"/>
            <path id="Path_1082" d="M106.02 202.6c.063.25.188.438.156.626-.156.532.188.813.407 1.189a6.266 6.266 0 0 0 2.44 2.346 9.834 9.834 0 0 0 4.443 1.846c.156 0 .313.031.438.031.313.031.594-.094.626-.407.031-.156-.156-.375-.313-.532-.282-.313-.594-.563-.876-.876a.7.7 0 0 1-.156-.344c-.156-.907-.313-1.815-.469-2.753.563-.094 1.032-.188 1.533-.282a.6.6 0 0 0 .532-.563c.031-.156.063-.282.094-.438.094-.5.25-.939.907-.813.939-.5 2-.25 2.972-.532.469-.156.907-.344 1.5-.594.031.407.125.782.125 1.158a28.475 28.475 0 0 0 .469 4.317 3.827 3.827 0 0 0 .375.97c-.125.094-.313.219-.5.344l-.563.375a2.6 2.6 0 0 0-1.377 2.878 40.936 40.936 0 0 1-.125 5.882c-.031 1.345-.156 2.691-.25 4-.063.907-.25 1.783-.313 2.659l-.375 4.317c-.094.907-.219 1.815-.313 2.753-.031.375-.313.5-.626.563a15.494 15.494 0 0 1-2.065.25c-1.032 0-2.1-.031-3.129-.125-1.283-.125-2.565-.313-3.848-.5-.594-.094-1.189-.125-1.783-.25-.72-.156-1.439-.375-2.159-.594l-1.408-.469a1.121 1.121 0 0 1-.344-.125c-.97-.407-1.064-.532-.876-1.564.25-1.345.344-2.691.469-4.036.156-1.877.5-3.754.751-5.631.125-1 .25-2 .407-3.035.219-1.533.469-3.1.751-4.63.125-.626-.125-.907-.782-.72a16.661 16.661 0 0 0-3.16 1.158 24.515 24.515 0 0 1-2.659 1 .614.614 0 0 1-.813-.313c-.626-1.064-1.283-2.127-1.94-3.191a.918.918 0 0 1-.094-.313 5.355 5.355 0 0 1 1.721-.907c.751-.219 1.533-.407 2.284-.657.532-.156 1.032-.375 1.533-.532.407-.125.813-.219 1.22-.344.563-.188.657-.344.626-.939a3.161 3.161 0 0 0-.094-.532c-.063-.438.094-.688.532-.688a7.348 7.348 0 0 0 .813.031c.782-.094 1.564-.219 2.346-.344a7.6 7.6 0 0 1 .94-.12z" class="cls-2" data-name="Path 1082" transform="translate(-64.66 -137.793)"/>
            <path id="Path_1083" d="M40.014 60a1.97 1.97 0 0 1-.97-1.408c-.188-.657-.282-1.345-.5-2-.313-.939-.688-1.877-1-2.816-.125-.344-.094-.72-.188-1.1-.219-.782-.5-1.564-.72-2.346-.344-1.283-.594-2.565-.939-3.817-.219-.845-.594-1.689-.813-2.565-.25-.97-.438-2-.657-2.972a.766.766 0 0 1 .407-.939c.907-.563 1.721-1.22 2.628-1.783 1.095-.688 2.253-1.314 3.379-2 .563-.313 1.095-.657 1.658-.97 1.126-.688 2.221-1.408 3.379-2.034.939-.532 1.908-.939 2.847-1.439.407-.219.782-.5 1.22-.72.25-.125.532-.188.813-.313.219-.094 2.878-1.314 3.254-1.47.25-.094.5-.188.782-.313a5.79 5.79 0 0 1 .845 1.971c.375 1.22.751 2.409 1.126 3.629.219.751.407 1.5.594 2.221.313 1.126.594 2.253.907 3.379.469 1.752 1 3.5 1.439 5.256.25 1 .344 2 .5 3-2.44 1.345-4.755 2.659-7.133 4a8.108 8.108 0 0 1-.657-4.286v-.219c-.031-.25.094-.594-.219-.72a.822.822 0 0 0-.97.375A9.96 9.96 0 0 0 49.9 51.15c-.031.782 0 1.533 0 2.378-1.22.72-2.472 1.47-3.723 2.253a36.84 36.84 0 0 0-4.505 3.066A15.662 15.662 0 0 1 40.014 60z" class="cls-4" data-name="Path 1083" transform="translate(-23.496 -19.948)"/>
            <path id="Path_1084" d="M88.172 21.871c-2.941.219-5.725.594-8.541.876a2.1 2.1 0 0 1-.188-.375c-.469-1.846-.939-3.723-1.439-5.569-.375-1.345-.876-2.628-1.189-3.973a22.717 22.717 0 0 0-.845-2.19.572.572 0 0 0-.469-.407 2.825 2.825 0 0 0-1.689.188 51.45 51.45 0 0 0-5.475 2.6c-1.064.626-2.159 1.126-3.316 1.721a3.162 3.162 0 0 1-.282-1.658 4.86 4.86 0 0 0-.125-1.158 21.942 21.942 0 0 1-.375-2.878c-.063-.782 0-1.6 0-2.44.97-.219 1.94-.469 2.91-.688l1.6-.375a.58.58 0 0 1 .219-.063 8.616 8.616 0 0 0 3.066-.594 19.3 19.3 0 0 1 2.346-.375.282.282 0 0 0 .156-.031 14.3 14.3 0 0 1 2.847-.532c1.47-.25 2.941-.469 4.38-.782a26.864 26.864 0 0 1 4.724-.469c.876-.031 1.032.156 1.064 1.032.063 1.345.188 2.659.25 4 .094 1.94.125 3.879.219 5.819.063 1.377.188 2.722.219 4.1a154.098 154.098 0 0 0-.067 4.221z" class="cls-4" data-name="Path 1084" transform="translate(-44.122 -1.869)"/>
            <path id="Path_1085" d="M112.385 146.354a2.367 2.367 0 0 1-2.6.751 3.024 3.024 0 0 1-2-2.534 1.981 1.981 0 0 1 1-1.877 2.4 2.4 0 0 1 1.6-.532c.094 0 .219-.063.5-.125a7.262 7.262 0 0 1-.657-.563 5.146 5.146 0 0 0-.438-.688 2.6 2.6 0 0 1-.282-3.441c.219.626.407 1.22.626 1.815a2.262 2.262 0 0 0 1.189 1.377 2.431 2.431 0 0 0 .688 0 6.979 6.979 0 0 1-1.721-4.13c.375.438.688.782 1 1.095.438.469.907.907 1.377 1.345.156.125.344.25.563-.063a6.786 6.786 0 0 0-.594-1.032c-.407-.563-.876-1.1-1.314-1.627a.741.741 0 0 1-.125-.876 1.051 1.051 0 0 1 .438.156 23.065 23.065 0 0 1 1.908 1.564c.407.344.375.375 1 .344a1.415 1.415 0 0 0-.657-1.251c-.813-.532-1.6-1.095-2.472-1.689.156-.094.375-.25.72-.469a4.139 4.139 0 0 1 2.534 1.533c.125.156.282.282.407.438.188.219.438.25.563.063a.654.654 0 0 0 .094-.594.9.9 0 0 0-.375-.469c-.594-.438-1.189-.845-1.721-1.22.594-.031.626-.031 1.314.469.407.313.813.657 1.251 1.032.156-.25.282-.407.407-.626a4.178 4.178 0 0 0-2.628-1.5 3.351 3.351 0 0 1 3.473.438 6.69 6.69 0 0 1 2.346 3.973c.188.939.375 1.846.563 2.784.031.094-.031.188-.031.282-.313.282-1.032-.125-1.095.72.813.094 1.627.188 2.44.313.845.125 1.658.313 2.472.469.782.125 1.6.25 2.534.407a7.2 7.2 0 0 1-.782.72 19.792 19.792 0 0 1-3.6 2.127 7.7 7.7 0 0 0-.845.532c.375.72.375.72 1.47.375l.407.813a4.818 4.818 0 0 1-2.159.407c-1.032.031-2.034-.063-3.066-.125a6.9 6.9 0 0 1-1.095-.25c-.313-.094-.407.031-.469.344.532.219.594.688.594 1.22a9.044 9.044 0 0 0 .25 1.846 11.806 11.806 0 0 0 .813 2.065.949.949 0 0 0 .907.532 5.965 5.965 0 0 0 3.66-.72c.313-.156.5-.063.594.219a5.731 5.731 0 0 1 .282 1.22c.063.813.063 1.627.094 2.44a3.419 3.419 0 0 1-2.6.156 6.088 6.088 0 0 1-1.189-.438c-.313-.125-.626-.313-1.032-.063.25.532.813.563 1.22.72a12.473 12.473 0 0 0 1.283.438c.188 1.126.344 2.159.532 3.222.031.25.063.563-.219.626a.8.8 0 0 1-.594-.125c-.813-.469-1.6-.939-2.378-1.408a4.077 4.077 0 0 1-1.6-1.408 2.332 2.332 0 0 0-.438-.532 1.5 1.5 0 0 1-.469-1.408 2.32 2.32 0 0 0-.188-1.126 12.522 12.522 0 0 1-.407-1.877 13.955 13.955 0 0 0-1.908-5.006 5.4 5.4 0 0 0-.813-.876 4.189 4.189 0 0 0-.552-.722zm-1.22-1.971a8.773 8.773 0 0 0-.813.657.908.908 0 0 0-.344.751c.5.125.97.25 1.439.344a.392.392 0 0 0 .344-.188c.031-.094-.094-.25-.156-.344a1.2 1.2 0 0 0-.344-.25c.25-.469.5-.876.72-1.283a.681.681 0 0 0-.188-.876 1.008 1.008 0 0 0-1.032-.25c-.626.469-1.251.97-1.846 1.5-.219.219-.063.407.25.438.375-.344.626-.845 1.345-1.1.16.131.343.318.625.601zm5.319-4.13c-.469.72-.5.939-.125 1.345a.443.443 0 0 0 .594.094.938.938 0 0 0 .469-.876c-.063-.532-.501-.469-.939-.563zm2.44-1.377c-.469 0-.626.125-.626.532a.677.677 0 0 0 .657.72c.282 0 .563-.063.563-.438 0-.563-.188-.814-.594-.814z" class="cls-4" data-name="Path 1085" transform="translate(-74.06 -91.218)"/>
            <path id="Path_1086" d="M22.2 27.3a41.451 41.451 0 0 1 .219 5.225c-1.189.72-8.259 4.286-9.824 5.538a1 1 0 0 0-.344 1.032l.094.375c.782 2.784 1.564 5.569 2.346 8.322.407 1.439.845 2.878 1.251 4.286a3.526 3.526 0 0 1 .094.563c-1.158.657-2.253 1.283-3.348 1.908-.751.438-.939.375-1.283-.438-.469-1.189-.939-2.409-1.439-3.6a22.574 22.574 0 0 1-1.189-3.035 37.246 37.246 0 0 0-1.533-4.443c-.813-2.065-1.721-4.067-2.6-6.1a1.677 1.677 0 0 1-.156-.344c-.344-.876-.25-1.408.626-1.752 1.627-.688 3.066-1.783 4.755-2.346.97-.313 1.846-.876 2.784-1.283 1.627-.72 3.222-1.439 4.881-2.065 1.095-.438 2.284-.751 3.379-1.158.411-.153.787-.435 1.287-.685z" class="cls-4" data-name="Path 1086" transform="translate(-2.959 -18.78)"/>
            <path id="Path_1087" d="M203.486 161.3a9.582 9.582 0 0 1-3.1-.626 23.703 23.703 0 0 1-2.065-.845 3.175 3.175 0 0 1-.845-.594c-.72-.688-1.689-1.032-2.346-1.783a12.2 12.2 0 0 1-2.534-4.787 4.356 4.356 0 0 1-.063-1.908 29.575 29.575 0 0 0 .219-3.348 5.9 5.9 0 0 1 .813-2.91 7.287 7.287 0 0 1 1.564-1.689c.72-.626 1.533-1.126 2.221-1.783a8.942 8.942 0 0 1 4.536-2.034 1.334 1.334 0 0 0 .563-.188 3.331 3.331 0 0 1 1.908-.282 20.8 20.8 0 0 1 2.44.313 16.058 16.058 0 0 1 2.159.782 8.577 8.577 0 0 1 3.129 2.44c.532.626 1.095 1.251 1.6 1.877a4.77 4.77 0 0 1 1.064 2.44c.188 1.439.407 2.847.5 4.286a9.238 9.238 0 0 1-1.032 4.912 8.824 8.824 0 0 1-1.533 2.472c-.532.5-.97 1.064-1.5 1.564a1.9 1.9 0 0 1-.751.469 8.588 8.588 0 0 1-1.283.344c-.407.094-.813.219-1.22.282-1.503.219-2.974.407-4.444.596zm.031-20.711a5.913 5.913 0 0 0-1.126.063c-1.5.5-3.1.845-4.1 2.221a1.887 1.887 0 0 1-.25.25 6.867 6.867 0 0 0-2 2.941 20.612 20.612 0 0 0-.657 2.659 7.926 7.926 0 0 0 .156 3.316 12.245 12.245 0 0 0 .907 2.534 3.234 3.234 0 0 0 1.032 1.126c.626.438 1.377.72 2 1.158a7.549 7.549 0 0 0 3.692 1.251c.407.063.813.031 1.251.063a6.159 6.159 0 0 0 2.127-.313 13.39 13.39 0 0 0 2.534-.845 6.7 6.7 0 0 0 3.222-3.754 1.111 1.111 0 0 1 .125-.282 2.2 2.2 0 0 0 .438-1.627 17.252 17.252 0 0 0-.219-3.6 2.806 2.806 0 0 0-.282-1.064 18.678 18.678 0 0 0-1.1-2.065 11.929 11.929 0 0 0-1.846-1.721 24.776 24.776 0 0 0-2.159-1.314 9.615 9.615 0 0 0-3.745-.998z" class="cls-4" data-name="Path 1087" transform="translate(-132.249 -95.182)"/>
            <path id="Path_1088" d="M171.873 119.228c-.657.125-1.158.188-1.658.313-1 .25-2.034.563-3.035.782a20.46 20.46 0 0 1-2.346.407c-.188.031-.407-.094-.594-.063a.525.525 0 0 0-.438.188.867.867 0 0 0 0 .563c.031.125.188.219.313.313a3.344 3.344 0 0 1 1.095 1.721 3.592 3.592 0 0 0 .407.751 9.821 9.821 0 0 1-2.472.594c-.282.031-.438-.188-.5-.469a10.512 10.512 0 0 0-.25-.939 1 1 0 0 0-1.314-.782c-1.032.282-2.034.626-3.066 1-.626.219-.657.469-.219 1 .282.344.594.657.907 1l.125.25c-.375.125-.751.25-1.158.375-.125-.156-.25-.282-.375-.438a.573.573 0 0 0-.594.469 2.319 2.319 0 0 0 .031.657c.063.813.156 1.627.219 2.472.156 2.409.282 4.818.438 7.227.094 1.47.188 2.91.313 4.38.031.407.094.782.156 1.22a5.55 5.55 0 0 1-1.908.5 2.967 2.967 0 0 0-.72.156c-.845.188-1.689.407-2.565.594l-.657-2.534c-.313-.031-.626-.063-1.032-.094 0-.313-.031-.626 0-.939.094-.657.219-1.314.282-2 .031-.532.094-.939.751-.97.094 0 .156-.094.344-.188-.094-.25-.219-.469-.313-.72a.761.761 0 0 1 .344-1.126c.5-.344 1.064-.657 1.564-1a29.638 29.638 0 0 0 1.877-1.439c.375-.313.313-.626-.063-1-.563-.532-1.314-.407-1.971-.532-1.251-.219-2.5-.407-3.754-.626-.407-.063-.594-.344-.657-.782l-.469-3a1.483 1.483 0 0 1 .469-1.564c.845-.657 1.689-1.314 2.5-1.971a5.889 5.889 0 0 1 .72-.5c.876-.626 1.783-1.283 2.722-1.877-.563.845-1.564 1.251-2.065 2.315a2.051 2.051 0 0 0 .626 0 96.405 96.405 0 0 0 2.6-1.158c.845-.407 1.721-.813 2.565-1.22.25-.125.532-.25.845-.407a3.488 3.488 0 0 1 .282.313c.219-.188.438-.375.657-.594.407-.407.782-.845 1.22-1.22.313-.25.125-.5.063-.813-.375.063-.782.094-1.158.156-.188-.626-.156-.72.375-.688a24.026 24.026 0 0 1 2.972.344c2.409.438 4.849.939 7.258 1.408-.033-.034.061.029.311.185z" class="cls-6" data-name="Path 1088" transform="translate(-102.294 -80.611)"/>
            <path id="Path_1089" d="M175.1 233.343c.156-2.034.282-3.942.407-5.85v-.375c.063-1.752.156-3.5.188-5.225a2.139 2.139 0 0 1 1-1.815 15.867 15.867 0 0 0 1.439-1.095 1.79 1.79 0 0 0 .313-.563c2.065-.219 4.286-.469 6.57-.72.094.907.188 1.752.282 2.628.125 1.1.25 2.159.344 3.254.156 1.721.313 3.41.438 5.131.031.375.344.813-.25 1.064.156.219.282.375.438.626-3.723.997-7.383 1.97-11.169 2.94z" class="cls-6" data-name="Path 1089" transform="translate(-120.319 -149.612)"/>
            <path id="Path_1090" d="M57.294 240.736a4.962 4.962 0 0 0-2 .438c-.375.188-.407.344-.063.657.282.282.594.532.876.813a.686.686 0 0 1 .188.751c-.407.939-.813 1.877-1.251 2.878-1.158-.751-2.127-1.5-2.284-2.941-.031-.375-.125-.751-.125-1.126 0-.469-.469-.532-.594-.876-.282.125-.469.219-.688.313a1.407 1.407 0 0 1-1.971-.626 3.136 3.136 0 0 1-.407-2.378 1.121 1.121 0 0 1 .125-.344 3.758 3.758 0 0 1 2.065-1.251.906.906 0 0 1 1.158.688c.156.5.219 1 .344 1.564a.786.786 0 0 0 1.064-.282 1.282 1.282 0 0 1 .876-.532 3.828 3.828 0 0 0 .845-.282 1.977 1.977 0 0 1 1.908-.125c.25-.188.438-.344.657-.5 0-.063 0-.156-.031-.156-.563-.375-.5-.907-.313-1.439l.188-.563a1.03 1.03 0 0 1 .751-.626c1.314-.219 1.6-.375 2.221 1.1a4.523 4.523 0 0 1 .282.688 1.646 1.646 0 0 1-1.564 2.284c-.438.031-.594.313-.72.688a2.757 2.757 0 0 1 .845 2.034 7.882 7.882 0 0 1-.25 2.847 1.677 1.677 0 0 1-.156.344c-.094-.031-.188-.031-.219-.094a17.771 17.771 0 0 1-1.783-2.6c.026-.345.026-.782.026-1.346zm.094-1.908c-.438.313-.25.657-.188 1.032.063.5.313.626.72.344a.947.947 0 0 0 .375-.907c0-.344-.313-.313-.563-.375a1.922 1.922 0 0 0-.344-.094zm-3.66.907c-.156.25-.282.438-.407.657-.156.25-.219.5.094.688a.531.531 0 0 0 .813-.219c.344-.469.219-.782-.5-1.126z" class="cls-7" data-name="Path 1090" transform="translate(-33.58 -161.261)"/>
            <path id="Path_1091" d="M88.509 143.289c.313.563.594 1.064.907 1.689a3.685 3.685 0 0 0-1.846 1.564 3.875 3.875 0 0 0-.282 2.6 2.16 2.16 0 0 1-1.752-.594 17.887 17.887 0 0 1-3.066-3.441c-.626-.907-1.345-1.783-2.034-2.659-.063-.094-.125-.219-.188-.313-.375-.563-.72-1.126-1.095-1.689-.344-.5-.25-.72.282-1a6.183 6.183 0 0 0 1.314-.813 6.317 6.317 0 0 1 1.752-.939.538.538 0 0 1 .657.188c.469.532.939 1.032 1.408 1.533a58.575 58.575 0 0 1 1.94 2.1c.344.375.657.813.97 1.22a1.217 1.217 0 0 0 1.033.554z" class="cls-6" data-name="Path 1091" transform="translate(-54.251 -94.599)"/>
            <path id="Path_1092" d="M79.5 93.5a21.965 21.965 0 0 0 .407 2.5 5.5 5.5 0 0 0 1.126 2.5.994.994 0 0 0 .313.313c.219.125.438.313.657.063.219-.219.031-.407-.094-.594a2.707 2.707 0 0 1-.219-.313c.876-.313 1.377 0 1.533.813a1.064 1.064 0 0 1-.688 1.345 20.613 20.613 0 0 0-1.783 1.064 2.5 2.5 0 0 0-1.095 1.815 6.387 6.387 0 0 0 0 2.878c.031.156.063.344.094.5-.594.375-1.158.72-1.815 1.126-.063-.469-.125-.876-.156-1.251-.063-.72-.094-1.439-.156-2.127a.791.791 0 0 0-.5-.688 3.79 3.79 0 0 1-1.658-1.47 1.925 1.925 0 0 1-.282-1.189c.031-.25.375-.5.594-.688a7.6 7.6 0 0 1 1.1-.626c.469-.25.939-.438 1.408-.688.5.344.188 1.158.907 1.345a.994.994 0 0 0 .063-.407 15.427 15.427 0 0 1-.407-3.786A4.424 4.424 0 0 1 79.5 93.5z" class="cls-4" data-name="Path 1092" transform="translate(-51.66 -64.269)"/>
            <path id="Path_1093" d="M69.2 271.408a3.34 3.34 0 0 0 2.346-.219 13.454 13.454 0 0 0 2-1.189 4.437 4.437 0 0 1 .344.563c.25.563.5 1.126.72 1.721a5.862 5.862 0 0 1 .125 2.847 2.521 2.521 0 0 1-1.095 1.627c-.094.063-.219.125-.313.188a1.561 1.561 0 0 1-2.253-.407 11.544 11.544 0 0 1-2.127-4.13.861.861 0 0 1 .253-1.001z" class="cls-7" data-name="Path 1093" transform="translate(-47.334 -185.55)"/>
            <path id="Path_1094" d="M87.264 242.248c-.407-.219-.876-.438-1.345-.688a.765.765 0 0 1-.282-.344c-.25-.438-.532-.876-.751-1.345a.688.688 0 0 1-.031-.438c.094-.782.219-1.564.344-2.409a.7.7 0 0 0 .563-.782l.094-1.627a1.116 1.116 0 0 1 .188-.594 1.883 1.883 0 0 0 .594-2.284 3.831 3.831 0 0 1 .219-2.941c.188-.469.344-.97.563-1.6.188.282.282.438.375.594.375.657.72 1.283 1.1 1.94a.639.639 0 0 1 .031.626c-.438 1.22-.845 2.44-1.251 3.66-.344 1.032-.688 2.1-1 3.129-.156.469.031.751.5.626a1.915 1.915 0 0 1 1.846.563 3.315 3.315 0 0 1-.626.375 1.217 1.217 0 0 0-.97 1.345 10.474 10.474 0 0 1-.161 2.194z" class="cls-4" data-name="Path 1094" transform="translate(-58.293 -156.14)"/>
            <path id="Path_1095" d="M66.1 300.8a.819.819 0 0 0 .094-.939 8.01 8.01 0 0 1-.5-3.222c.094-.813.344-1.627.5-2.44.657.219 1.22.407 1.877.594.031.782.125 1.627.125 2.5a19.909 19.909 0 0 1-.282 3.035 6.974 6.974 0 0 1-1 2.565 1.134 1.134 0 0 1-1.6.282A7.334 7.334 0 0 1 63 300.9a19.091 19.091 0 0 1-.594-1.126 2.221 2.221 0 0 1 .125-1.94c.156-.375.782-.469 1.158-.344a2.769 2.769 0 0 1 1.689 1.94c.125.313.219.657.344.97.098.088.223.214.378.4zm-.563.876c-.219-.688-.407-1.377-.657-2.034a1.511 1.511 0 0 0-.876-.876c-.532-.219-.751-.094-.751.469a3.025 3.025 0 0 0 1.158 2.378.89.89 0 0 0 1.127.064z" class="cls-7" data-name="Path 1095" transform="translate(-42.762 -202.179)"/>
            <path id="Path_1096" d="M95.591 333.991c-.594 1.064-1.158 2.065-1.752 3.129.063.063.094.188.188.282.313.313.219.563-.031.907a16.052 16.052 0 0 1-3.441 3.535 13.323 13.323 0 0 1-1.564 1c-.72-.688-1.439-1.345-2.19-2.1.25-.219.438-.407.688-.626.282.313.5.626.751.876.313.313.407.313.751-.031-.688-.97-.688-1.377.094-1.721.125.219.25.469.375.688.125.25.282.469.407.72l.657-.188c.031-.657-.626-.939-.813-1.533.25-.156.469-.282.813-.469.219.532.407 1 .626 1.533.97-.657.25-1.251-.094-1.877.532-.125 1-.282 1.47-.375.407-.094.532-.282.344-.72-.282-.72-.626-1.408-.939-2.1-.219-.532-.469-1.032-.688-1.564a9.82 9.82 0 0 1 4.348.634z" class="cls-2" data-name="Path 1096" transform="translate(-59.644 -229.049)"/>
            <path id="Path_1097" d="M89.669 288.7c.688 1.158 1.345 2.127 1.846 3.16.156.344-.063.907-.125 1.377-.063.375-.125.751-.219 1.158.438.125.532-.063.626-.344a7.475 7.475 0 0 1 .688-1.627 3.362 3.362 0 0 1 1.783-1.627 3.4 3.4 0 0 1 .813-.125.478.478 0 0 1 .563.375 2.555 2.555 0 0 1 .188 1.6 3.866 3.866 0 0 1-.907 1.689 9.756 9.756 0 0 1-2.065 1.689l-.188.094c-1.408.594-1.689.313-2.19-.751-.125-.282-.219-.626-.344-.907-.375-.907-.751-1.783-1.095-2.691a1.164 1.164 0 0 1-.156-.626 6.883 6.883 0 0 1 .782-2.444zm5.068 2.753c-.407.25-.72.313-.845.5-.532.876-1 1.752-1.5 2.659-.063.094.031.313.094.375a.6.6 0 0 0 .407.063 1.017 1.017 0 0 0 .407-.313c.469-.751.97-1.47 1.408-2.253.154-.217.029-.53.029-1.031z" class="cls-7" data-name="Path 1097" transform="translate(-61.074 -198.399)"/>
            <path id="Path_1098" d="M118.064 297c.751.563 1.5 1.126 2.315 1.752-.282.5-.626 1.095-.939 1.721-.375.751-.72 1.533-1.064 2.284a19.868 19.868 0 0 1-2.44 4.161 8.493 8.493 0 0 1-1.22 1.064 2.209 2.209 0 0 1 .031-1.564c.282-.876.594-1.752.907-2.6s.626-1.689.907-2.534c.502-1.374.972-2.751 1.503-4.284z" class="cls-4" data-name="Path 1098" transform="translate(-78.738 -204.103)"/>
            <path id="Path_1099" d="M251.584 122.155a13.925 13.925 0 0 1-.5-1.314c-.188-.469-.125-.626.344-.782a19.2 19.2 0 0 1 2.284-.688c1.627-.375 3.254-.688 4.881-1a4.552 4.552 0 0 1 .657 0 20.7 20.7 0 0 1-1.126 3.316c-2.16.155-4.287.313-6.54.468z" class="cls-4" data-name="Path 1099" transform="translate(-172.463 -81.348)"/>
            <path id="Path_1100" d="M141.3 181.4c.751-.094 1.47-.156 2.221-.25.469-.063.563-.031.532.407-.063 1.189-.188 2.378-.313 3.567a.451.451 0 0 1-.219.344 4.042 4.042 0 0 1-2.19.313 1.317 1.317 0 0 1-.782-.532 7.005 7.005 0 0 1-1.158-3.6c-.031-.313.156-.375.407-.375h1.5z" class="cls-4" data-name="Path 1100" transform="translate(-95.78 -124.478)"/>
            <path id="Path_1101" d="M163.533 310.044c-.438-2-.907-4.036-1.283-6.069a16.377 16.377 0 0 1-.094-2.159c-.031-.782-.094-1.6-.156-2.44.344-.313.344-.313 1.627-.375.344.344.282.845.313 1.251.125 1.658.125 3.316.25 4.974a34.265 34.265 0 0 1-.25 4.38c0 .25-.063.438-.407.438z" class="cls-4" data-name="Path 1101" transform="translate(-111.317 -205.477)"/>
            <path id="Path_1102" d="M51.087 269.7c.532.407 1.064.813 1.627 1.251a6.847 6.847 0 0 1-1.533 2.1 17.862 17.862 0 0 1-2.378 1.94 4.63 4.63 0 0 1-1.283.532.765.765 0 0 1-.97-1.064 4.873 4.873 0 0 1 .782-1.345 17.751 17.751 0 0 1 1.815-1.94c.595-.535 1.253-.942 1.94-1.474zm-1.408 3.441c-.407-.344-.72-.5-.97-.438a2.519 2.519 0 0 0-1.064 1.47c0 .282.188.469.407.313a4.233 4.233 0 0 0 1.628-1.345z" class="cls-7" data-name="Path 1102" transform="translate(-31.941 -185.344)"/>
            <path id="Path_1103" d="M91.049 349.5a1.583 1.583 0 0 1-.282 2.315 19.04 19.04 0 0 1-5.256 3.911c-.626.282-1.22.688-1.846.97-.375.188-.782.282-1.189.438a1.034 1.034 0 0 1-1.377-.5 3.562 3.562 0 0 0 .688-.219 8.134 8.134 0 0 0 1.533-.876 6.1 6.1 0 0 1 1.6-.72 16.258 16.258 0 0 0 3.5-2.5 23.968 23.968 0 0 0 2.253-2.472.994.994 0 0 1 .376-.347z" class="cls-4" data-name="Path 1103" transform="translate(-55.727 -240.178)"/>
            <path id="Path_1104" d="M172.487 360.243c-.219.219-.407.407-.594.626a.654.654 0 0 1-.72.25 14.857 14.857 0 0 1-2.565-.5c-1.032-.407-2.159-.626-3.191-1.032-1.533-.626-3-1.314-4.505-2.034-.907-.438-.939-.876-.219-1.564a1.991 1.991 0 0 1 .313-.188c.313.344.626.751.97 1.064a2.583 2.583 0 0 0 .688.438c.156.094.344.063.5.156a15.8 15.8 0 0 0 4.568 2.065 15.089 15.089 0 0 0 2.691.438h.156c.621.093 1.221.187 1.908.281z" class="cls-4" data-name="Path 1104" transform="translate(-110.073 -244.507)"/>
            <path id="Path_1105" d="M174.6 266.48v-1.658a36.618 36.618 0 0 1 9.48-2.722 73.147 73.147 0 0 1-9.48 4.38z" class="cls-4" data-name="Path 1105" transform="translate(-119.975 -180.121)"/>
            <path id="Path_1106" d="M96.614 264.094c.063 0 .125-.031.156 0a5.614 5.614 0 0 1 2.1 1.5 1.714 1.714 0 0 1-.313 1.815 1.22 1.22 0 0 1-1.689.219c-.438-.282-.907-.5-1.345-.813a1.491 1.491 0 0 1-.063-2.315 4.8 4.8 0 0 1 1.158-.5q-.004.047-.004.094zm-.72 1.47a1.986 1.986 0 0 0 1.971 1.064c.313-.063.407-.219.282-.532a1.752 1.752 0 0 0-1.345-.97.735.735 0 0 0-.908.438z" class="cls-7" data-name="Path 1106" transform="translate(-65.235 -181.427)"/>
            <path id="Path_1107" d="M241.013 61.1a1.526 1.526 0 0 1-.657 1.658 5.17 5.17 0 0 1-2.628 1.345 2.346 2.346 0 0 1-2.628-2.221 5.521 5.521 0 0 0 3.1.5 5.969 5.969 0 0 0 2.813-1.282z" class="cls-4" data-name="Path 1107" transform="translate(-161.548 -42.005)"/>
            <path id="Path_1108" d="M82.079 360.481c0 .031 0 .125-.063.156a9.144 9.144 0 0 1-2.534 1.533.994.994 0 0 1-.438.063c-.563.031-.845-.156-.845-.688a1.937 1.937 0 0 1 .25-1.126 9.979 9.979 0 0 1 1.408-1.408c.125-.094.469 0 .688.031a.63.63 0 0 1 .282.219c.439.407.846.813 1.252 1.22z" class="cls-4" data-name="Path 1108" transform="translate(-53.735 -246.685)"/>
            <path id="Path_1109" d="M186.2 361.534a2 2 0 0 1 .876-1.283 5.851 5.851 0 0 1 1.251-.626 1.07 1.07 0 0 1 .626.031c.751.25 1.158.907 1.689 1.439a.487.487 0 0 1-.156.751.452.452 0 0 1-.219.063 10.021 10.021 0 0 1-4.067-.375z" class="cls-4" data-name="Path 1109" transform="translate(-127.946 -247.112)"/>
            <path id="Path_1110" d="M72.075 261.7c.688.813 1.345 1.564 2.034 2.378a3.522 3.522 0 0 1-3.129.97c-.219-.688.282-1.158.438-1.721a7.71 7.71 0 0 1 .657-1.627z" class="cls-7" data-name="Path 1110" transform="translate(-48.736 -179.847)"/>
            <path id="Path_1111" d="M241.6 40.779a98.22 98.22 0 0 1-2.346-.469 2.665 2.665 0 0 1-.72-.125 4.174 4.174 0 0 0-2.691.125c-.094.031-.188 0-.344-.094a8.7 8.7 0 0 1 .845-.657 14.147 14.147 0 0 1 1.564-.72 1.491 1.491 0 0 1 1.564.125 6.512 6.512 0 0 1 1.846 1.345c.095.126.189.314.282.47z" class="cls-4" data-name="Path 1111" transform="translate(-161.822 -26.596)"/>
            <path id="Path_1112" d="M240.962 56a4.331 4.331 0 0 1-5.162.313 1.476 1.476 0 0 1 1-.375c1.158-.094 2.315-.156 3.473-.282a.549.549 0 0 1 .689.344z" class="cls-4" data-name="Path 1112" transform="translate(-162.029 -38.255)"/>
            <path id="Path_1113" d="M234.8 48.907c1.158-1.5 3.629-2.315 5.131-.907-1.721.282-3.442.595-5.131.907z" class="cls-4" data-name="Path 1113" transform="translate(-161.342 -32.503)"/>
            <path id="Path_1114" d="M112.276 134.787c-.313-.5-.219-.782.094-1.064.657-.563 1.283-1.158 1.94-1.689.375-.282.5-.219.782.282a26.528 26.528 0 0 1-2.816 2.471z" class="cls-7" data-name="Path 1114" transform="translate(-77.017 -90.632)"/>
            <path id="Path_1115" d="M113.037 129.863a7.721 7.721 0 0 1-2.1 1.752c-.25-.219-.375-.469-.094-.688a20.3 20.3 0 0 1 1.721-1.126c.066-.001.191.03.473.062z" class="cls-7" data-name="Path 1115" transform="translate(-76.058 -89.212)"/>
            <path id="Path_1116" d="M70.7 255.813c.469-.125.782-.219 1.1-.313.183.407-.662.657-1.1.313z" class="cls-4" data-name="Path 1116" transform="translate(-48.581 -175.586)"/>
            <path id="Path_1117" d="M194.62 34.9c-2.127.813-4.192 1.627-6.257 2.44-.031-.063-.031-.094-.063-.156a11.426 11.426 0 0 1 6.32-2.284z" class="cls-4" data-name="Path 1117" transform="translate(-129.389 -24.002)"/>
            <path id="Path_1118" d="M113.511 166.6l-.626-.626c-.72.25-.939.751-1.345 1.1-.282-.031-.469-.219-.25-.438a27.012 27.012 0 0 1 1.846-1.5c.25-.188.813 0 1.032.25a.719.719 0 0 1 .188.876c-.219.407-.438.813-.72 1.283a1.857 1.857 0 0 1 .344.25c.094.094.188.282.156.344a.393.393 0 0 1-.344.188c-.469-.094-.97-.219-1.439-.344a.908.908 0 0 1 .344-.751c.188-.16.439-.316.814-.632z" class="cls-5" data-name="Path 1118" transform="translate(-76.406 -113.438)"/>
            <path id="Path_1119" d="M134.789 156.8c.407.094.876.031.939.594a.972.972 0 0 1-.469.876.443.443 0 0 1-.594-.094c-.346-.437-.346-.656.124-1.376z" class="cls-5" data-name="Path 1119" transform="translate(-92.365 -107.765)"/>
            <path id="Path_1120" d="M142.086 152.4c.438 0 .626.25.626.813 0 .375-.25.438-.563.438a.677.677 0 0 1-.657-.72c-.032-.406.125-.531.594-.531z" class="cls-5" data-name="Path 1120" transform="translate(-97.223 -104.742)"/>
            <path id="Path_1121" d="M209.579 145.2a8.287 8.287 0 0 1 3.692 1.064 18.909 18.909 0 0 1 2.159 1.314 13.676 13.676 0 0 1 1.846 1.721 14.566 14.566 0 0 1 1.1 2.065 2.971 2.971 0 0 1 .282 1.064 17.383 17.383 0 0 1 .219 3.6 2.346 2.346 0 0 1-.438 1.627.773.773 0 0 0-.125.282 6.7 6.7 0 0 1-3.222 3.754 13.388 13.388 0 0 1-2.534.845 6.159 6.159 0 0 1-2.127.313c-.407-.031-.845-.031-1.251-.063a7.443 7.443 0 0 1-3.692-1.251c-.626-.438-1.377-.72-2-1.158a3.234 3.234 0 0 1-1.032-1.126 14.375 14.375 0 0 1-.907-2.534 8.48 8.48 0 0 1-.156-3.316 18.345 18.345 0 0 1 .657-2.659 7.263 7.263 0 0 1 2-2.941 1.889 1.889 0 0 0 .25-.25c1-1.377 2.6-1.721 4.1-2.221a3.565 3.565 0 0 1 1.179-.13z" class="cls-5" data-name="Path 1121" transform="translate(-138.311 -99.794)"/>
            <path id="Path_1122" d="M75.5 248c.094.031.219.063.313.094.219.063.532.031.563.375a.947.947 0 0 1-.375.907c-.407.25-.626.125-.72-.344-.034-.375-.191-.75.219-1.032z" class="cls-5" data-name="Path 1122" transform="translate(-51.689 -170.433)"/>
            <path id="Path_1123" d="M63.266 250.9c.688.344.813.657.532 1.126a.561.561 0 0 1-.813.219c-.344-.188-.25-.438-.094-.688a4.479 4.479 0 0 1 .375-.657z" class="cls-5" data-name="Path 1123" transform="translate(-43.118 -172.425)"/>
            <path id="Path_1124" d="M67.853 311.555a.885.885 0 0 1-1.095-.031 3.072 3.072 0 0 1-1.158-2.378c0-.563.219-.688.751-.469a1.512 1.512 0 0 1 .876.876c.219.625.407 1.314.626 2.002z" class="cls-2" data-name="Path 1124" transform="translate(-45.077 -212.056)"/>
            <path id="Path_1125" d="M102.391 297.5c0 .5.094.813-.031 1.032a24.468 24.468 0 0 1-1.408 2.253 1.017 1.017 0 0 1-.407.313.6.6 0 0 1-.407-.063.343.343 0 0 1-.094-.375 45.46 45.46 0 0 1 1.5-2.659c.128-.188.44-.251.847-.501z" class="cls-2" data-name="Path 1125" transform="translate(-68.728 -204.446)"/>
            <path id="Path_1126" d="M52.3 279.748a4.513 4.513 0 0 1-1.6 1.377c-.219.125-.438-.031-.407-.313a2.343 2.343 0 0 1 1.064-1.47c.188-.095.532.058.943.406z" class="cls-2" data-name="Path 1126" transform="translate(-34.557 -191.95)"/>
            <path id="Path_1127" d="M98 267.993a.748.748 0 0 1 .907-.438 1.8 1.8 0 0 1 1.345.97c.125.313.031.5-.282.532a1.892 1.892 0 0 1-1.97-1.064z" class="cls-2" data-name="Path 1127" transform="translate(-67.34 -183.856)"/>
            <g id="Group_1031" data-name="Group 1031" transform="translate(9.692 8.958)">
                <path id="Path_1128" d="M38.857 59.783c-.375-1-.782-2.034-1.158-3.066a396.531 396.531 0 0 1-1.564-4.63l-.188-.532c-.25-.72-.469-1.47-.72-2.19 0 0-.532-1.689-.657-2.065-.282-.845-.532-1.658-.813-2.5-.188-.563-.375-1.095-.563-1.658-.219-.594-.407-1.189-.594-1.752.375-.219.782-.438 1.158-.657.25-.125.469-.25.72-.375.344-.188.657-.375 1-.563l.375-.219c.344-.219.72-.407 1.064-.626a63.79 63.79 0 0 0 2.5-1.47 26.789 26.789 0 0 1 2.472-1.314l.469-.219a13.018 13.018 0 0 0 1.314-.72c.282-.156.563-.344.845-.5.5-.282 1.064-.532 1.564-.782l.188-.094c.657-.313 1.283-.626 1.94-.907l.626-.313.5-.25c.438-.188.845-.407 1.283-.594.845-.375 1.689-.751 2.628-1.126.125-.063.282-.094.438-.156.031.063.094.125.125.188.156.219.219.313.188.469a.76.76 0 0 0 .125.563c0 .031.031.031.031.063.031.063.031.094.063.156.031.031.031.063.063.094.031.156.094.344.125.5s.094.344.125.5c.094.375.219.751.313 1.126l.063.25c.094.282.156.563.25.813a3.418 3.418 0 0 1 .156.532c.094.313.219.657.313 1 .344 1.314.657 2.5.939 3.692.063.313.125.594.188.907.063.344.156.72.25 1.064.094.407.25.845.375 1.22.063.25.156.5.219.751a.34.34 0 0 1 .031.156 2.092 2.092 0 0 0 .188 1.6 1.525 1.525 0 0 1 .094.219 11.1 11.1 0 0 1 .594 3.066c-.782.626-5.757 3.16-6.195 3.348-.031.031-.063.031-.094.063a2.722 2.722 0 0 1-.438-1.314c0-.469-.063-1.032-.094-1.6-.031-.407-.094-.845-.094-1.22a.535.535 0 0 0 .219-.407.587.587 0 0 0-.594-.563.736.736 0 0 0-.25.063h-.156a1.448 1.448 0 0 0-1.064.563 5.848 5.848 0 0 0-1.095 2.44 21.39 21.39 0 0 0-.313 2.44 14.4 14.4 0 0 0-.063 1.439c-.344.125-.469.156-.563.282a24.394 24.394 0 0 1-2.878 1.877c-.407.25-.72.438-.907.563-.344.219-.657.438-.97.657l-.845.563c-.97.657-1.971 1.283-2.941 1.94a.031.031 0 0 0-.031.031 17.937 17.937 0 0 0-.279-.816z" class="cls-8" data-name="Path 1128" transform="translate(-32.093 -29.937)"/>
                <path id="Path_1129" d="M52.417 29.795a.031.031 0 0 0 .031.031 1.324 1.324 0 0 0 .156.813v.031a.684.684 0 0 0 .094.156.031.031 0 0 0 .031.031c.031.156.094.313.125.469.031.188.094.344.125.532.094.375.219.751.313 1.126l.063.25c.094.282.156.563.25.845a3.418 3.418 0 0 1 .156.532c.094.344.219.657.282.97.344 1.314.657 2.5.939 3.692.063.282.125.594.188.876.063.344.156.72.25 1.095.125.438.25.845.375 1.251.063.25.156.5.219.72a2.906 2.906 0 0 0 .22 1.785.445.445 0 0 1 .063.188 11.785 11.785 0 0 1 .563 2.659c-1 .688-4.505 2.5-5.631 3.035a1.5 1.5 0 0 1-.188-.688c0-.5-.063-1.064-.094-1.658-.031-.344-.063-.688-.094-1a.963.963 0 0 0 .188-.594 1.069 1.069 0 0 0-1.064-1.032.926.926 0 0 0-.313.063H49.6a1.887 1.887 0 0 0-1.408.72A6.258 6.258 0 0 0 47 49.348c-.125.594-.25 1.627-.344 2.5-.031.469-.063.845-.063 1.158a1.061 1.061 0 0 0-.438.282c-.282.282-2.034 1.345-2.784 1.815-.407.25-.72.438-.907.563-.344.219-.657.438-1 .657l-.845.563c-.751.5-1.564 1.032-2.5 1.627l-.063-.156c-.375-1-.782-2.034-1.158-3.066-.532-1.533-1.064-3.1-1.564-4.63l-.188-.532c-.25-.72-.469-1.47-.72-2.19a31.636 31.636 0 0 0-.282-.907c-.125-.375-.25-.751-.375-1.158a76.542 76.542 0 0 0-.813-2.5c-.188-.563-.375-1.126-.563-1.658l-.469-1.408c.282-.156.532-.282.813-.438.25-.125.469-.25.72-.375.344-.188.688-.375 1-.563l.375-.219c.344-.219.72-.407 1.064-.594.845-.469 1.689-.97 2.534-1.47a25.588 25.588 0 0 1 2.44-1.283c.156-.063.313-.156.469-.219.469-.219.907-.5 1.345-.751.282-.156.563-.344.845-.469.5-.282 1.032-.532 1.564-.782l.188-.094c.657-.313 1.283-.626 1.94-.907l.626-.282c.156-.094.344-.156.5-.25.407-.188.845-.407 1.251-.594.845-.375 1.689-.751 2.628-1.126.125-.063.156-.063.188-.094m.438-1.095a4.815 4.815 0 0 0-.876.282c-.876.375-1.783.751-2.659 1.158l-1.783.845c-.845.407-1.721.813-2.565 1.22-.594.282-1.189.563-1.783.876-.72.407-1.408.845-2.159 1.22a26.907 26.907 0 0 0-2.972 1.564c-1.158.72-2.378 1.377-3.567 2.065-.469.25-.907.532-1.377.782-.657.375-1.345.72-1.971 1.095a.545.545 0 0 0-.156.438c.375 1.189.813 2.346 1.22 3.5.407 1.22.782 2.44 1.189 3.66.344 1.032.657 2.065 1 3.1.594 1.721 1.158 3.473 1.752 5.193.438 1.251.939 2.5 1.408 3.754.125.282.188.438.313.438a.868.868 0 0 0 .407-.188 159.9 159.9 0 0 0 2.941-1.94c.594-.407 1.22-.813 1.815-1.22a41.582 41.582 0 0 0 3.879-2.534c.063-.063.845-.282.782-.313-.25-.156.063-2.972.282-4.067-.031-.219.688-2.6 1.689-2.6a1.377 1.377 0 0 1 .313.063c0-.094.031-.125.094-.125.094 0 .219.125.031.125a.236.236 0 0 1-.125-.031c-.031.907.219 2.284.219 3.191a3.425 3.425 0 0 0 .563 1.689c0 .156.094.25.188.25a.416.416 0 0 0 .219-.094.5.5 0 0 1 .219-.125c.438-.188 6.476-3.254 6.507-3.629a10.263 10.263 0 0 0-.626-3.379 2.243 2.243 0 0 1-.25-1.5.9.9 0 0 0-.031-.407c-.188-.657-.407-1.314-.594-1.971-.156-.657-.282-1.314-.438-1.971-.313-1.22-.626-2.472-.939-3.692-.125-.532-.313-1.032-.469-1.533-.094-.282-.156-.532-.25-.813-.125-.438-.25-.907-.375-1.345-.094-.344-.156-.688-.25-1a3.248 3.248 0 0 1-.125-.313c-.031-.125-.156-.25-.125-.344.063-.657-.469-.939-.563-1.377z" class="cls-3" data-name="Path 1129" transform="translate(-30.98 -28.7)"/>
            </g>
            <g id="Group_1032" data-name="Group 1032" transform="translate(19.366 .793)">
                <path id="Path_1130" d="M79.105 22.59c-2.19-10.011-3.285-12.014-4.286-12.014h-.188l-.031.063c-.97.375-1.908.813-2.6 1.126-1.064.5-2.127 1-3.16 1.5-.657.313-1.283.594-1.94.907-1.032.469-2.034.939-3.066 1.408-.031-.344-.031-.688-.063-1.032 0-.344-.031-.688-.031-1-.031-.594-.031-1.22-.094-1.846l-.094-1.032c-.031-.313-.063-.626-.094-.97-.058-.751-.058-1.439-.058-2.033.031 0 .031-.031.063-.031.438-.125.939-.219 1.377-.313 1.627-.344 3.222-.657 4.787-1a.777.777 0 0 0 .25-.031 1.924 1.924 0 0 0 .407-.031c.407-.063.782-.156 1.189-.25.626-.125 1.283-.25 1.908-.375.594-.094 1.189-.156 1.752-.25.5-.063 1-.125 1.47-.188.532-.094 1.1-.188 1.627-.282.407-.063.845-.156 1.251-.219.25-.031.5-.094.72-.125a12.41 12.41 0 0 1 1.5-.219c.313 0 3.473-.188 4.662-.25.156.751.313 2.065.407 3.1a14.176 14.176 0 0 0 .219 1.689 3.35 3.35 0 0 1 0 .97 5.068 5.068 0 0 0-.031.688 4.687 4.687 0 0 0 .063.688c.031.125.031.25.063.407 0 .125.031.25.031.407a5.783 5.783 0 0 1 .031 1.032 5.393 5.393 0 0 0 .156 2.534 2.02 2.02 0 0 1 .063.97 2.717 2.717 0 0 0-.031.72l.031.344c.031.375.063.72.063 1.095a8.533 8.533 0 0 1-.094 1.283l-.031.532a6.449 6.449 0 0 1-.094.813 1.682 1.682 0 0 0-.031.5c0 .188-.031.563-.063.813h-.094a7.151 7.151 0 0 1-.782-.063 8.244 8.244 0 0 0-.876-.063 2.368 2.368 0 0 0-.469.031c-.407.063-4.38.594-5.6.72a4.569 4.569 0 0 1-.189-.723z" class="cls-8" data-name="Path 1130" transform="translate(-62.931 -3.631)"/>
                <path id="Path_1131" d="M84.957 3.6c.125.751.25 1.846.344 2.659.125.97.188 1.5.219 1.752a2.35 2.35 0 0 1 0 .813 6.028 6.028 0 0 0-.031.751 5.192 5.192 0 0 0 .063.751c.031.125.031.25.063.375 0 .125.031.282.031.407a4.616 4.616 0 0 1 .031.907 6.369 6.369 0 0 0 .156 2.753 1.854 1.854 0 0 1 .031.751 3.4 3.4 0 0 0-.031.813c0 .125.031.25.031.344.031.375.063.72.063 1.032a8.749 8.749 0 0 1-.094 1.251c0 .125-.031.25-.031.344v.188a4.908 4.908 0 0 1-.094.751 4.809 4.809 0 0 0-.063.594 1.4 1.4 0 0 1-.031.344c-.125 0-.25-.031-.375-.031a8.86 8.86 0 0 0-.939-.063 3.035 3.035 0 0 0-.532.031c-.532.063-3.723.5-5.162.657a1.111 1.111 0 0 1-.063-.313C76.01 9.983 74.977 9.076 73.789 9.076H73.6l-.094.063-.094.031c-.97.375-1.908.813-2.628 1.158l-3.191 1.5c-.657.313-1.283.594-1.94.907-.813.375-1.658.782-2.44 1.126a1.283 1.283 0 0 0-.031-.344c0-.344-.031-.657-.031-1-.031-.594-.031-1.22-.094-1.846-.031-.375-.063-.72-.094-1.064l-.094-.939c-.031-.594-.063-1.158-.063-1.658.344-.094.688-.156 1.064-.25h.03c1.408-.282 3.066-.657 4.755-1h.156a3.046 3.046 0 0 0 .5-.031c.407-.063.782-.156 1.189-.25l1.881-.379c.563-.094 1.158-.156 1.752-.25l1.5-.188c.563-.094 1.1-.188 1.627-.282.407-.063.813-.156 1.251-.219.25-.031.5-.094.751-.125A12.364 12.364 0 0 1 80.7 3.82c.156 0 2.784-.125 4.255-.219m.751-1c-.219.031-4.411.25-5.037.282-.782.031-1.533.25-2.284.344-.939.156-1.908.344-2.847.5-1.095.156-2.159.25-3.254.438-1.032.156-2.065.407-3.1.594a4.667 4.667 0 0 0-.657.063c-1.6.313-3.191.657-4.787 1-.5.094-.97.219-1.439.344-.156.031-.407.188-.407.313 0 .751.031 1.5.063 2.253.031.657.156 1.314.188 2 .063.939.094 1.877.125 2.847.031.532.063 1.064.094 1.658a.464.464 0 0 0 .219-.031l3.473-1.6c1.689-.782 3.41-1.6 5.1-2.409a37.532 37.532 0 0 1 2.6-1.126h.031c1.5 0 3.848 11.826 4.1 12.765h.063c.594 0 5.913-.72 5.976-.751a1.523 1.523 0 0 1 .375-.031c.532 0 1.126.125 1.658.125a2.368 2.368 0 0 0 .469-.031 8.6 8.6 0 0 0 .188-1.627 6.173 6.173 0 0 0 .125-1.095c.031-.563.094-1.126.125-1.689 0-.5-.031-.97-.063-1.47a5.914 5.914 0 0 0-.031-1.815 5.2 5.2 0 0 1-.125-2.315 6.065 6.065 0 0 0-.094-1.5c-.031-.344-.125-.688-.125-1.032a8.533 8.533 0 0 0 .031-1.783C86.3 7.23 85.99 3.57 85.708 2.6z" class="cls-3" data-name="Path 1131" transform="translate(-61.9 -2.6)"/>
            </g>
            <g id="Group_1033" data-name="Group 1033" transform="translate(.936 9.083)">
                <path id="Path_1132" d="M12.44 57.055c-.156-.469-.344-.939-.5-1.408a11.457 11.457 0 0 0-.344-.939c-.094-.25-.188-.532-.282-.782-.125-.313-.219-.626-.344-.939-.063-.219-.156-.438-.219-.657-.094-.25-.156-.532-.25-.782l-.282-.751a4.465 4.465 0 0 1-.25-.688c-.125-.344-.219-.657-.344-1-.125-.407-.282-.813-.407-1.189-.282-.72-.563-1.5-.876-2.284L7.5 43.665a56.638 56.638 0 0 1-.876-2.034 19.376 19.376 0 0 0-.907-1.783 15.486 15.486 0 0 1-.813-1.6c1.314-.907 8.76-4.255 9.48-4.505.375-.125.782-.282 1.189-.407l1.126-.375c.25-.094.532-.188.813-.313.188-.094.407-.156.594-.25.313-.125.657-.282.97-.407 1-.375 2.034-.751 3.035-1.095 0 .125-.031.25-.031.375a1.312 1.312 0 0 0 .031.5 3.521 3.521 0 0 1 .031 1.283 2.691 2.691 0 0 0-.031.5 5.135 5.135 0 0 0 .063.72c0 .063.031.125.031.188a.994.994 0 0 0 .094.282l-7.169 4.04-.156.094a10.445 10.445 0 0 1-1.189.5 7.523 7.523 0 0 0-1.251.532c-.657.344-.563 1.095-.5 1.5 0 .063.031.156.031.219a5.765 5.765 0 0 0 .313 1.314c.219.72.469 1.439.813 2.409l.563 1.6c.125.375.25.72.375 1.095a.736.736 0 0 1 .063.25c.031.094.031.156.063.25.063.188.125.344.188.532.094.313.219.657.313 1 .063.25.125.469.188.72.063.219.094.469.156.688a8.928 8.928 0 0 0 .344.939c.125.313.25.657.407.97.188.438.344.876.532 1.314a11.789 11.789 0 0 1-1.032.688c-.438.282-.907.532-1.377.782a7.913 7.913 0 0 0-.688.407c-.094.063-.219.125-.313.188-.252.125-.373.217-.533.28z" class="cls-8" data-name="Path 1132" transform="translate(-4.303 -30.337)"/>
                <path id="Path_1133" d="M20.232 30.383a.926.926 0 0 0 .063.313 2.714 2.714 0 0 1 0 1.126 3.035 3.035 0 0 0-.031.532 2.417 2.417 0 0 0 .094.845c0 .063.031.094.031.156-2.159 1.22-4.755 2.659-6.852 3.848l-.125.094c-.313.188-.72.313-1.126.5a9.768 9.768 0 0 0-1.314.563 1.8 1.8 0 0 0-.751 2c0 .063.031.125.031.188a6.488 6.488 0 0 0 .313 1.439c.219.72.469 1.47.813 2.409.188.532.375 1.064.563 1.627.125.375.25.72.375 1.095a1.994 1.994 0 0 1 .063.219c.031.094.031.156.063.25.063.188.125.375.188.532.094.344.219.657.313.97a4.44 4.44 0 0 1 .156.688c.063.219.094.469.188.72a9.6 9.6 0 0 0 .344 1c.125.313.25.657.407.97.125.313.25.626.407.939a6.152 6.152 0 0 1-.688.438c-.438.282-.907.532-1.345.782a7.914 7.914 0 0 0-.688.407 1.746 1.746 0 0 0-.25.156c-.094-.282-.219-.594-.313-.876-.125-.313-.219-.626-.344-.939-.094-.25-.188-.532-.282-.782-.125-.313-.219-.626-.344-.939-.063-.219-.156-.438-.219-.657-.094-.25-.156-.532-.25-.813a5.823 5.823 0 0 0-.313-.782 5.641 5.641 0 0 1-.25-.657c-.125-.313-.219-.657-.344-.97-.125-.407-.282-.813-.438-1.22-.282-.72-.563-1.5-.907-2.284l-.847-1.97c-.282-.657-.594-1.345-.876-2.034-.25-.563-.594-1.189-.97-1.846-.219-.407-.438-.845-.626-1.22 1.846-1.064 8.2-3.911 9.042-4.224.375-.125.782-.282 1.158-.407l1.126-.375c.25-.094.532-.188.845-.313.219-.094.407-.156.626-.25.344-.125.657-.282.97-.375.751-.313 1.533-.594 2.315-.876m1.032-1.28c-.282.063-.407.063-.532.094a127.7 127.7 0 0 0-3.191 1.158c-.532.188-1.064.438-1.6.657a7.829 7.829 0 0 1-.782.282c-.751.25-1.533.532-2.284.782-.438.156-10.074 4.411-9.886 4.881.407 1 1.408 2.659 1.846 3.66.563 1.345 1.158 2.659 1.721 4 .313.751.594 1.5.876 2.253.282.72.5 1.47.782 2.19.188.469.375.939.563 1.439.156.469.313.97.469 1.439.188.563.407 1.158.626 1.721.313.876.626 1.783.939 2.659a.317.317 0 0 0 .219.125h.031c.344-.188.688-.407 1.064-.594.688-.407 1.377-.782 2.065-1.189.407-.25.782-.5 1.158-.751a.433.433 0 0 0 .156-.282c-.313-.813-.688-1.627-1-2.472a7.724 7.724 0 0 1-.313-.907c-.125-.469-.219-.939-.344-1.408a22.18 22.18 0 0 0-.5-1.533c-.063-.156-.094-.344-.156-.5-.313-.907-.657-1.783-.97-2.691-.282-.782-.532-1.6-.782-2.409a5.732 5.732 0 0 1-.282-1.22c-.031-.438-.219-1.032.25-1.283.72-.407 1.721-.657 2.44-1.064 2.346-1.314 5.319-3 7.665-4.317.438-.25-.125-.031-.219-.563a3.607 3.607 0 0 1-.094-.813 5.954 5.954 0 0 0 0-1.971 1.173 1.173 0 0 1-.031-.344c.031-.344.063-.657.094-1.032z" class="cls-3" data-name="Path 1133" transform="translate(-2.991 -29.1)"/>
            </g>
            <path id="Path_1134" d="M112.916 25.219l.939-6.539L108 13.8l-2.722 3.942-.782.313s1.377 5.85 1.627 6.195a8.288 8.288 0 0 0 2.44.72l.469-3.6 2.378-.219-.751 3.692z" class="cls-9" data-name="Path 1134" transform="translate(-71.807 -9.503)"/>
            <path id="Path_1135" d="M90.568 12.688l-2.534 3.16L79.9 19.29l2.346-5.569 2.972-.344.063-1.377 1.314.219.25 1.251z" class="cls-9" data-name="Path 1135" transform="translate(-54.903 -8.267)"/>
            <path id="Path_1136" d="M64.833 56.9s-.031-3.16-2.691-3.379c-2.659-.188-3.535-.407-5.193.219s-1.251 1.47-3.6.188-2.1-1.377-4.1-.532c-2.034.845-1.721 1.6-2.722 3.191s.344 2-.063 3.254a34.7 34.7 0 0 0-.845 4.693s-.25 1.689.594 2.409 11.607-4.568 11.607-4.568z" class="cls-9" data-name="Path 1136" transform="translate(-31.326 -36.333)"/>
            <path id="Path_1137" d="M99.445 70.576c-.282.438-1.095.438-1.846-.031s-1.1-1.22-.813-1.658 1.126-.438 1.846.031c.75.469 1.126 1.189.813 1.658z" class="cls-9" data-name="Path 1137" transform="translate(-66.438 -47.133)"/>
            <path id="Path_1138" d="M79.606 82.992a1.495 1.495 0 1 1 .125-2.034 1.463 1.463 0 0 1-.125 2.034z" class="cls-9" data-name="Path 1138" transform="translate(-53.075 -55.262)"/>
            <path id="Path_1139" d="M55.053 93.505c-.375.594-1.377.594-2.253.063-.876-.563-1.283-1.47-.907-2.065s1.377-.594 2.253-.063c.875.56 1.282 1.471.907 2.065z" class="cls-9" data-name="Path 1139" transform="translate(-35.562 -62.585)"/>
            <path id="Path_1140" d="M133.907 171.971c0 .751-2.472-.407-2.941.125-.563.626.813 2.91-.063 2.91a3 3 0 1 1 3-3.035z" class="cls-10" data-name="Path 1140" transform="translate(-87.886 -116.147)"/>
        </g>
    </g>
</svg>
