<svg xmlns="http://www.w3.org/2000/svg" viewBox="6991.5 -5226.5 177 177">
    <defs>
        <style>
            .cls-1{fill:none;opacity:.87}.cls-2{fill:#62aad2}.cls-2,.cls-4,.cls-5,.cls-6,.cls-7{fill-rule:evenodd}.cls-3,.cls-6{fill:#fff}.cls-5{fill:#96c59a}.cls-7{fill:#b4d5b8}.cls-8{filter:url(#_2018-02-14_16-40-58)}
        </style>
        <filter id="_2018-02-14_16-40-58" width="177" height="177" x="6991.5" y="-5226.5" filterUnits="userSpaceOnUse">
            <feOffset dy="1"/>
            <feGaussianBlur result="blur" stdDeviation="1.5"/>
            <feFlood flood-opacity=".369"/>
            <feComposite in2="blur" operator="in"/>
            <feComposite in="SourceGraphic"/>
        </filter>
    </defs>
    <g id="Illustration02" transform="translate(6988 -5551)">
        <g id="Group_858" class="cls-8" data-name="Group 858" transform="translate(-6988 5551)">
            <rect id="_2018-02-14_16-40-58-2" width="168" height="168" class="cls-1" data-name="2018-02-14_16-40-58" rx="2" transform="translate(6996 -5223)"/>
        </g>
        <g id="Group_980" data-name="Group 980" transform="translate(77.48 353.961)">
            <path id="Path_680" d="M301.363 104.77a1.232 1.232 0 1 1-1.231-1.272 1.245 1.245 0 0 1 1.231 1.272z" class="cls-2" data-name="Path 680" transform="translate(-238.448 -83.26)"/>
            <path id="Path_681" d="M56.585 94.163a2.443 2.443 0 1 1-2.442-2.463 2.455 2.455 0 0 1 2.442 2.463z" class="cls-2" data-name="Path 681" transform="translate(-41.148 -73.843)"/>
            <path id="Path_682" d="M273.471 39l-1.9.828s-.828 5.006-.908 5.37-1.191 1.191-.444 2 .565 1.13 1.413 3.331c.363.969-.3 4-.747 5.168-.444 1.191-.666 1.11-2 3.25s-.969 1.7-.969 1.7 5.511 1.938 7.085 2.5-4.8 4.219-6.419 4.885c-1.635.666-.363.363-2.281 2.362s-3.916 3.109-3.028 4.057c1.433 1.554 1.554 2.14 2.281.807.747-1.332.141-2.887 2-2.947 2.059-.081 4.279.969 1.474 3.331-.949.787-1.474-3.714-2.543-1.9a25.4 25.4 0 0 1-1.595 2.483l-1.474 6.944-5.306 1.631s-.222 2.22 0 2.14 3.835-1.554 4-.444a44.82 44.82 0 0 1-1.11 8.278 16.683 16.683 0 0 0-.525 4.885c.222.3 5.935 3.169 5.935 3.169s12.5 9.689 12.616 9.023-1.474-18.612-2.059-20.973c-1.191-4.8-4.138 2.22-4.138 2.22s5.168-10.194 5.47-11.082.3-7.247.3-7.247.525 2.5.666 2.281 1.918-11.526 1.918-11.526l-9.528-4.663s.444-9.831.666-9.831a2.506 2.506 0 0 0 2.059-1.837c.222-1.393.2-1.332-.484-2.321-.707-1.009-.425-7.872-.425-7.872z" class="cls-2" data-name="Path 682" transform="translate(-205.813 -31.782)"/>
            <path id="Path_683" d="M9.149 70.963s-6.8-.182-6.883-1.534-2.463-2.523.787-6.823 2.665-5.168 4.441-5.915c1.756-.727 5.309-1.776 5.309-1.776s-1.332-5.026-1.776-5.026-.888.464-4.8-1.393-4.663-4.824-2-9.689S7.7 28.189 12.944 28.613s4.179 1.575 5.915 1.7 6.318 3.654 5.168 9.165c-.444 2.14-2.624 8.781-3.432 8.922s-1.9.02-1.9-2.786a26.73 26.73 0 0 1 .343-3.088c.081-.525 1.635-1.07 1.716-1.615.081-.606-1.312-1.231-1.231-1.857.343-2.967.363-5.793-1.05-6.359-2.665-1.029-5.39-.848-6.338.868-.969 1.716-3.492 8.418-2 11.546A22.3 22.3 0 0 1 11.774 49s4.826 12.334 5.208 11.3.949-6.54 1.857-6.116 2.2-.02 3.25 1.332 2.1 6.318 2.1 6.318l-4.462 2.246-2.362 2.947a24.664 24.664 0 0 0 3.553-1.918 17.189 17.189 0 0 1 5.309-2.22c1.332-.3-2.059 1.332-2.059 1.332a2.853 2.853 0 0 1-.585 3.391c-1.029.929-1.635.141-.747 1.191.888 1.029 3.391 0 4.138-.141s1.917 2.238 1.917 2.238-1.514 2.725-3.189 2.079c-1.7-.646-2.7-2.019-3.452-2s-2.584 1.7-3.25 3.411c-.686 1.736-3.048-4.32-2.947 2.5.1 6.843 5.753 5.309 3.694 10.941s2.806 7.085.444 8.862-4.905-.02-7.247.283a47.126 47.126 0 0 1-7.671.161c-1.978-.141-2.5-3.391-2.806-4-.3-.585-2.806-7.832-1.918-8.862s5.613-10.183 6.642-11.213a36.33 36.33 0 0 0 1.958-2.099z" class="cls-2" data-name="Path 683" transform="translate(-.172 -23.473)"/>
            <g id="Group_954" data-name="Group 954" transform="translate(.145 -.82)">
                <path id="Path_684" d="M67.8 70.713l.121-.061c-.222-.626-.444-1.252-.686-1.857a7.481 7.481 0 0 1-.384-.929c-.182-.767-.363-1.554-.484-2.342a6.7 6.7 0 0 1-.081-1.554 1.561 1.561 0 0 1 .424-.747c.121-.161.343-.242.484-.4.525-.525 1.07-1.029 1.575-1.575.444-.464.888-.929 1.292-1.433.384-.484.666-1.07 1.07-1.554a9.136 9.136 0 0 0 1.009-1.776 11.665 11.665 0 0 0 .484-1.413 10.306 10.306 0 0 0 .384-1.009c.141-.767.242-1.554.323-2.321.04-.262-.02-.545 0-.828.04-.424.141-.848.182-1.272a8.758 8.758 0 0 0 0-1.029 5.289 5.289 0 0 0 .02-.565c-.02-.363-.081-.707-.121-1.07.121.121.141.262.222.363a.656.656 0 0 0 .343.141.313.313 0 0 0 .222-.161c.121-.606.242-1.211.343-1.817.081-.5.121-1.029.2-1.534.141-.747.3-1.494.444-2.241.061-.283.061-.585.1-.888.04-.283.121-.545.141-.828a5.052 5.052 0 0 1 .1-1.11 4.571 4.571 0 0 0 .222-1.716 1.271 1.271 0 0 1 .04-.565 1.831 1.831 0 0 0 .141-1.211 1.37 1.37 0 0 0-.484-1.07q-.787-.545-1.635-1.029c-.323-.182-.707-.283-1.05-.444-.444-.2-.868-.4-1.292-.646a1.147 1.147 0 0 0-.662-.222 1.519 1.519 0 0 1-1.05-.222 3.344 3.344 0 0 0-.929-.3c-.323-.121-.666-.222-.989-.363a10.031 10.031 0 0 0-1.03-.545.584.584 0 0 1-.4-.545c-.081-.606-.1-1.211-.141-1.817-.02-.242-.02-.464-.02-.707-.02-.888-.02-1.8-.04-2.685a3.3 3.3 0 0 1 .04-.444c.081-.484.182-.969.262-1.453.121-.727.222-1.453.343-2.18a.321.321 0 0 1 .222-.2 2.979 2.979 0 0 0 1.231-.464 2.649 2.649 0 0 0 .908-1.554 4.32 4.32 0 0 0 .081-1.534 3.648 3.648 0 0 0-.323-.969c-.081-.222-.323-.444-.283-.646a9.639 9.639 0 0 1 .626-2.382 1.693 1.693 0 0 1 .182-.384.66.66 0 0 0 .2-.929.822.822 0 0 1-.02-.444c.04-.323.343-.323.545-.464.121-.081.3-.182.343-.323a1.4 1.4 0 0 0-.04-.989c-.121-.3.04-.525.363-.585a.967.967 0 0 0 .4-.141c.262-.182.4-.141.585.121a6.29 6.29 0 0 1 1.029 3.634c0 1.151-.141 2.3-.242 3.432-.081.868-.262 1.736-.384 2.6a3.436 3.436 0 0 0-.04.787c.02.161.161.262.283.061a2.283 2.283 0 0 0 .384-.767c.161-.626.283-1.272.4-1.918.1-.686.182-1.373.262-2.039a.475.475 0 0 1 .04-.161c.081-.525.182-1.029.262-1.554.04-.363.04-.727.061-1.07a5.668 5.668 0 0 0-.02-.828.961.961 0 0 1 .323-.848l.545.3a1.851 1.851 0 0 1 .868.929c.141.363.283.727.4 1.09.182.525.343 1.029.525 1.554a2.3 2.3 0 0 0 .323.626c.061.061.283.02.424-.02.121-.04.222-.2.343-.262a.416.416 0 0 0 .222-.606c-.2-.565-.384-1.13-.606-1.675-.323-.807-.686-1.595-1.029-2.4-.061-.141-.1-.3-.2-.545.646.161 1.171.262 1.7.444a14.806 14.806 0 0 1 1.615.767c.121.061.283.182.3.3.04.323.242.323.464.3.464-.04.666-.384.444-.787a5.339 5.339 0 0 0-.525-.787 12.842 12.842 0 0 0-1.776-2 4.127 4.127 0 0 0-2.818-1.151h-1.433a2.828 2.828 0 0 1 .4-.323c.686-.3 1.393-.565 2.1-.848a1.283 1.283 0 0 1 .363-.121c.565-.04 1.07-.363 1.675-.283.4.061.828-.081 1.211-.02s.807 0 1.11.363c.061.081.3.04.424 0a.353.353 0 0 0 .2-.3 1.894 1.894 0 0 0-.2-.565 2.914 2.914 0 0 0-1.191-1.373c-.04-.02-.061-.081-.081-.121a6.077 6.077 0 0 1-.182-.828A1.738 1.738 0 0 0 78.579.445a3.35 3.35 0 0 0-2.039.262 12.356 12.356 0 0 0-1.918 1.009A21.882 21.882 0 0 0 72.3 3.473a18.125 18.125 0 0 0-1.938 2 11.851 11.851 0 0 0-.929 1.312.063.063 0 0 1-.04-.02c-.2-.262-.384-.121-.585.04-.182.141-.1.3-.081.484a11.323 11.323 0 0 1 0 1.171.219.219 0 0 1-.161.161.4.4 0 0 1-.242-.121 7.207 7.207 0 0 0-.545-.565c-.323-.262-.363-.242-.606.1a.2.2 0 0 1-.1.081c-.262.04-.222.2-.141.384.242.484.484.949.686 1.453s.323 1.029.484 1.554c.02.081 0 .262-.04.283-.323.182-.646.343-.949.5-.2-.747-.363-1.413-.545-2.079a3.73 3.73 0 0 0-.3-.787c-.081-.141-.3-.343-.384-.3-.2.081-.464.161-.5.484-.04.3-.121.606-.182.888-.1.384-.222.747-.323 1.13a.121.121 0 0 1-.061-.121 7.419 7.419 0 0 1 .807-2.745c.061-.161.3-.323.081-.5a1.3 1.3 0 0 0-.424-.121c-.121-.061-.222-.242-.363-.343-.384-.343-.848-.081-1.272-.1a1.655 1.655 0 0 0-.686.182 19.726 19.726 0 0 0-4.061 2.317 11.913 11.913 0 0 0-1.029.989.362.362 0 0 0 .081.565 1.086 1.086 0 0 0 .929-.121c.5-.384 1.009-.767 1.534-1.13.384-.262.787-.5 1.171-.727.3-.182.626-.323 1.009-.525-.545.565-1.05 1.07-1.494 1.615a14.113 14.113 0 0 0-.908 1.413.3.3 0 0 0 0 .262.291.291 0 0 0 .262.061 2.266 2.266 0 0 0 .525-.161 5.046 5.046 0 0 0 .828-.5 6.444 6.444 0 0 0 .666-.626 6.021 6.021 0 0 1-.666 2.543 7.258 7.258 0 0 1-.969 1.534 4.5 4.5 0 0 1-1.03 1.211c-.4.283-.767.626-1.151.949-.323.283-.666.565-.989.848-.02.02-.081.02-.121.04a2.411 2.411 0 0 0-.323.161 10.04 10.04 0 0 1-1.13.606c-.484.2-.989.343-1.494.525a1.214 1.214 0 0 0-.262.182c-.081.061-.141.161-.242.2a.806.806 0 0 0-.5.807 1.963 1.963 0 0 0 1.9 2.039c.565.04 1.151.02 1.716.04.081 0 .242.141.222.2-.04.2-.161.363-.222.565a.4.4 0 0 0 .02.3.988.988 0 0 0 .949.222c.061-.02.1-.02.161-.04.525-.081 1.05-.182 1.554-.283.2-.04.4-.121.626-.182l.061.121a3.8 3.8 0 0 1-.484.727 3.038 3.038 0 0 1-1.877.929c-.061 0-.121.081-.141.141a1.953 1.953 0 0 0-.242 1.252 12.129 12.129 0 0 0 .545 3.149 3.7 3.7 0 0 0 .868 1.433.617.617 0 0 0 .4.141c.384-.081.747-.222 1.13-.3a2.828 2.828 0 0 0 1.453-.949c.3-.3.585-.646.908-.989.061.161.1.262.121.343.182.848.343 1.716.525 2.564a2.03 2.03 0 0 0 .343.5c.061-.161.1-.2.1-.262-.04-.3-.1-.606-.121-.908-.04-.525-.081-1.05-.1-1.575a2.586 2.586 0 0 1 .1-.545c.081-.3.182-.606.242-.908.121-.565.242-1.151.363-1.736-.222-.222-.343-.262-.545 0-.182.222-.283.525-.444.747-.323.464-.666.908-1.029 1.352a6.871 6.871 0 0 1-1.743 1.596c-.464.283-.747.283-1.029-.121a3.834 3.834 0 0 1-.767-1.7c-.081-.606-.283-1.171-.424-1.776a3.752 3.752 0 0 1-.081-.666.371.371 0 0 1 .161-.283c.222-.121.464-.182.686-.3a7.077 7.077 0 0 0 .807-.545 2.928 2.928 0 0 0 .929-1.615c.04-.141.1-.262.141-.4.04-.161.1-.4.02-.5-.141-.182-.343-.121-.525.04a5.126 5.126 0 0 1-2.14.747 3.451 3.451 0 0 1-.646 0c-.02-.02-.04-.061-.061-.081.283-.283.545-.565.828-.828.182-.161.182-.424-.02-.464s-.464-.182-.626.1c-.02.04-.141.061-.222.061-.464-.04-.949-.1-1.413-.121a2.283 2.283 0 0 1-1.877-.707c-.222-.283-.343-.666-.1-.807.444-.242.908-.424 1.352-.626a3.482 3.482 0 0 1 .747-.323 7.054 7.054 0 0 0 1.151-.646c.384-.2.707-.484 1.07-.707a7.34 7.34 0 0 0 .969-.807 12.187 12.187 0 0 0 1.151-1.13 6.527 6.527 0 0 0 .663-.995c.262-.464.545-.908.767-1.393.2-.444.343-.929.545-1.373a2.153 2.153 0 0 0 .141-1.231 1.2 1.2 0 0 1 .061-.807 5.825 5.825 0 0 1 .969-.848c-.121.384-.222.707-.3 1.05a13.242 13.242 0 0 0-.283 1.756c-.04.464.2.565.606.384.141-.061.283-.081.424-.141.081-.02.2-.04.222-.1.141-.3.283-.626.4-.949.121-.3.222-.606.363-1.009.061.343.121.585.161.848.061.606.081 1.231.141 1.857a.332.332 0 0 0 .161.242c.141.081.3.121.525.222l-.061 1.7c0 .161-.02.424.04.444a1.765 1.765 0 0 0 .565 0c.3 0 .606-.02.908 0 .04 0 .081.081.121.121a2 2 0 0 1 .384 1.918 2.26 2.26 0 0 1-.908 1.655c-.242.141-.464.04-.686.1a1.989 1.989 0 0 1-1.231-.121c-.121-.04-.283-.121-.343.061a.43.43 0 0 0 .141.323.635.635 0 0 1 .283.807c-.141.585-.2 1.191-.283 1.776-.061.424-.1.848-.141 1.272-.081.646-.2 1.272-.222 1.918-.02.848.04 1.716.061 2.584a9.538 9.538 0 0 0 .484 2.907c.1.283.2.5.5.585a4.345 4.345 0 0 1 .545.2 3.37 3.37 0 0 0 1.413.323 4.468 4.468 0 0 1 .949.262c-.061.061-.061.081-.1.1l-4 2.786c-.242.161-.5.323-.747.484a3.812 3.812 0 0 1-2.483.949.786.786 0 0 0-.646.262c-.222.222-.424.444-.666.646a10.947 10.947 0 0 0-2.019 2.3c-.585.929-1.151 1.877-1.716 2.826a1.073 1.073 0 0 0 .141 1.191 15.423 15.423 0 0 0 1.675.949c.242.121.262.2.2.4-.323.929-.626 1.877-.929 2.806-.262.848-.585 1.675-.767 2.523a1.592 1.592 0 0 1-1.009 1.191 36.168 36.168 0 0 1-3.593 1.292 3.22 3.22 0 0 0-.2-.464 3.57 3.57 0 0 0-.323-.444c-.283-.384-.666-.5-.969-.222-.525.484-1.009 1.029-1.514 1.554-.141.141-.283.323-.4.464a1.268 1.268 0 0 1 .242-1.191 4.885 4.885 0 0 1 1.433-1.514.266.266 0 0 0 .04-.464.586.586 0 0 0-.989.061c-.262.343-.545.666-.848 1.029a.7.7 0 0 1-.121-.182c-.141-.3-.283-.585-.424-.888a1.1 1.1 0 0 0-1.07-.5c-.626.222-1.252.464-1.857.707A12.1 12.1 0 0 1 44.08 52a2.119 2.119 0 0 0-1.07.747.4.4 0 0 0 .02.606.451.451 0 0 1 .061.525c-.161.444-.283.888-.424 1.332-.121.384.283.444.424.727.04-.3.04-.545.081-.807a9.614 9.614 0 0 1 .2-1.05c.04-.161.222-.283.363-.4a2.218 2.218 0 0 1 .283-.182 1.171 1.171 0 0 0 .2-.242.559.559 0 0 1-.02.262c-.121.686-.2 1.373-.343 2.059-.121.626-.242 1.231.262 1.736.363-.767.747-1.554 1.13-2.342.04.02.081.02.1.04a.818.818 0 0 1 0 .222c-.182.868-.384 1.756-.565 2.624a.449.449 0 0 0 .061.323c.161.161.343.3.585.5a4.173 4.173 0 0 0 .3-.5c.222-.525.4-1.05.626-1.575.02-.061.121-.081.141-.121-.141.646-.262 1.272-.4 1.9a1.33 1.33 0 0 0 .242 1.191 3.008 3.008 0 0 1 .3.4l.908 1.332a.447.447 0 0 0 .484.242c.424-.081.848-.161 1.252-.262a11.616 11.616 0 0 0 2.362-1.151 2.509 2.509 0 0 0 1.05-1.191c.061-.1 0-.283-.02-.424a2.556 2.556 0 0 0-.121-.363c-.2-.484-.384-.969-.606-1.453-.242-.5-.585-.989-.04-1.575.1.545.222 1.07.323 1.575a.609.609 0 0 0 .848.5c.222-.061.283-.182.242-.363-.081-.363-.141-.727-.242-1.09-.1-.4-.242-.787-.343-1.171a.385.385 0 0 1 .121-.323c.323-.283.747-.121 1.13-.161a2.116 2.116 0 0 1 .787.1c.323.061.626.182.949.242a.64.64 0 0 1 .545.727.814.814 0 0 0 0 .222c-.061.484-.1.969-.2 1.453s-.283.949-.384 1.433c-.161.828-.3 1.675-.464 2.523-.1.565-.242 1.11-.323 1.675-.141.989-.222 1.978-.323 2.967-.121 1.11-.2 2.22-.323 3.331a.821.821 0 0 0 .424.767 10.95 10.95 0 0 0 1.13.747 1.647 1.647 0 0 1 .989 1.453 10.966 10.966 0 0 0 .182 1.393c.061.525.141 1.05.182 1.595s.04 1.07.081 1.615c.04.525.141 1.03.161 1.554.02.384-.061.767-.04 1.151.02.525.1 1.05.121 1.595.02.444-.04.888-.04 1.352 0 .606.061 1.231.04 1.837a18.031 18.031 0 0 1-.2 2.1c-.161 1.151-.384 2.281-.585 3.432a.594.594 0 0 1-.2.363 8.356 8.356 0 0 1-.989.384c-.363.121-.747.222-1.11.363a6.31 6.31 0 0 0-.727.384.294.294 0 0 0-.141.262 2.6 2.6 0 0 0 .323.888c.384.545.3 1.231.626 1.8a6.022 6.022 0 0 1 .343 1.07c.1.283.061.626-.141.686-.727.161-1.433.3-2.16.464a9.692 9.692 0 0 0-2.039.484A16.408 16.408 0 0 0 48 97.863a3.573 3.573 0 0 0-1.538 1.737c-.141.343 0 .585.363.565.384-.02.747-.081 1.13-.121.464-.061.949-.1 1.413-.2.908-.2 1.8-.4 2.685-.646a9.163 9.163 0 0 0 2.261-1.029 2.36 2.36 0 0 1 .4-.121c.02.121.061.262.081.384.02.222 0 .444 0 .646a1.321 1.321 0 0 0 .363.081 2.635 2.635 0 0 0 .686.061 16.449 16.449 0 0 0 1.736-.323c.141-.04.384-.161.384-.262 0-.4-.1-.787-.121-1.191-.04-.565-.242-1.171.444-1.534a2.048 2.048 0 0 0 .262-.182.317.317 0 0 0 .161-.424c-.081-.363-.182-.747-.242-1.11a2.384 2.384 0 0 1 .262-1.231c.2-.565.363-1.13.565-1.7a.521.521 0 0 0-.464-.707 8.972 8.972 0 0 0-1.151.182 3.225 3.225 0 0 1 .1-.424c.262-.565.545-1.11.807-1.675.04-.1.04-.222.081-.343.02-.061.061-.141.081-.2a9.437 9.437 0 0 0 .606-1.191c.182-.5.262-1.05.4-1.575.121-.545.242-1.11.384-1.655a2.113 2.113 0 0 1 .081-.343c.061-.222.161-.424.2-.646.141-.828.262-1.675.384-2.5.081-.565.161-1.13.2-1.7.04-.545.04-1.09.081-1.635a5.368 5.368 0 0 1 .061-.565c.04-.565.081-1.13.161-1.7a.445.445 0 0 1 .3-.222c.323.222.767.323.848.787.081.424.141.848.222 1.272.121.626.262 1.272.343 1.9.1.747.182 1.514.262 2.281.1 1.009.2 2.039.242 3.048.02.5-.081 1.029-.04 1.534a19.777 19.777 0 0 1-.363 3.27 19.4 19.4 0 0 1-.5 2.342c-.02.1-.061.262-.141.283-.424.121-.727.5-1.231.5a.968.968 0 0 0-.949 1.07c.02.343.081.707.1 1.05a21.457 21.457 0 0 1 .121 2.543c-.02.444.242.989-.222 1.373v.04c.04.525-.323.888-.565 1.312a2.258 2.258 0 0 1-.343.424c-.3.323-.606.626-.908.929-.424.444-.828.888-1.272 1.312-.343.323-.727.626-1.07.949a6.549 6.549 0 0 0-1.292 2.16.638.638 0 0 0 .061.545.8.8 0 0 0 .585.121 3.258 3.258 0 0 0 .727-.2 14.038 14.038 0 0 0 3.21-1.716c.161-.121.363-.222.525-.323a4.545 4.545 0 0 0 1.11-1.211 3.4 3.4 0 0 0 .747-1.675c.02-.444.323-.484.606-.686 0 .141.02.242.02.343-.061.5.283.606.646.525.5-.121 1.009-.283 1.514-.444a1.333 1.333 0 0 0 .484-.343.357.357 0 0 0 .061-.323q-.242-.606-.545-1.211c-.141-.283-.121-.5.161-.646.262-.141.182-.262.061-.444a3.026 3.026 0 0 1-.4-.807 1.366 1.366 0 0 1 .04-.565 5.36 5.36 0 0 1 .182-1.877c.3-.767.545-1.554.828-2.321a.653.653 0 0 0-.3-.888.344.344 0 0 0-.545.061 1.942 1.942 0 0 1-.929.686 2.023 2.023 0 0 1 .283-.727 4.916 4.916 0 0 0 .848-1.837 14.681 14.681 0 0 0 .444-1.615c.121-.464.283-.929.4-1.393.182-.707.343-1.413.525-2.12.061-.262.2-.5.262-.787.1-.585.182-1.191.262-1.776.121-.807.242-1.615.384-2.463a1.061 1.061 0 0 1 .343.081 9.144 9.144 0 0 1 .929.606c.908.666 1.8 1.373 2.7 2.039.384.283.828.484 1.191.767a2.21 2.21 0 0 0 .888.4c.363.081.585-.1.626-.484.061-.686.161-1.373.2-2.079a15.353 15.353 0 0 0-.04-1.675c-.04-.525-.121-1.029-.161-1.554-.02-.3.061-.626.061-.929-.02-.646-.081-1.312-.121-1.958-.04-.484-.081-.949-.141-1.433-.1-.787-.222-1.575-.3-2.362a73.277 73.277 0 0 1-.222-2.079c-.061-.484-.121-.949-.161-1.433-.081-.747-.121-1.474-.2-2.22-.02-.182-.161-.363-.182-.565-.04-.384-.04-.787-.081-1.191a30.815 30.815 0 0 0-.222-1.332 3.677 3.677 0 0 0-.323-1.11 2.6 2.6 0 0 1-.081-.989 1.657 1.657 0 0 0-.606 1.756 18.639 18.639 0 0 1 .4 2.4c.061.444.121.908.182 1.352.1.767.222 1.554.323 2.321.061.424.081.868.121 1.292.02.161.081.384 0 .484-.343.384-.2.828-.141 1.252.081.545.283 1.07.323 1.615.061 1.252.081 2.5.081 3.755 0 1.211-.04 2.4-.061 3.613 0 .242-.04.484-.061.727v1.07c-.525-.384-.969-.727-1.433-1.05-.363-.262-.727-.5-1.07-.767-.464-.343-.888-.747-1.352-1.09-.363-.262-.767-.484-1.13-.747-.626-.444-1.211-.929-1.837-1.393-.565-.424-1.171-.807-1.736-1.211-.707-.525-1.393-1.05-2.1-1.575-.323-.242-.686-.464-1.029-.686-.464-.323-.929-.626-1.393-.929a74.79 74.79 0 0 0-1.635-1.05c-.525-.343-1.07-.646-1.615-.989a4.9 4.9 0 0 1-.646-.484c-.363-.343-.161-.828-.161-1.211a17.3 17.3 0 0 1 .283-2.261c.141-.989.283-2 .444-2.988q.151-1 .363-2c.121-.585.283-1.151.4-1.736a3.353 3.353 0 0 0 .061-.444c.1-.424.242-.828.323-1.252.141-.707.262-1.433.4-2.14.081-.5.182-1.009.262-1.534.081-.444.1-.908.222-1.352.2-.807.484-1.595.686-2.382a12.343 12.343 0 0 1 .686-2.382 9.2 9.2 0 0 0 .545-1.837 3.5 3.5 0 0 0 .061-1.029c0-.121-.182-.283-.3-.343-.061-.04-.242.081-.3.182-.161.242-.3.525-.464.787-.323-.363-.686-.767-1.03-1.151a.87.87 0 0 1-.2-.969c.1-.2.222-.4.323-.626.242-.444.444-.929.727-1.352a12.591 12.591 0 0 1 1.009-1.312 9.787 9.787 0 0 1 1.13-1.11c.2-.161.363-.424.747-.323a1.276 1.276 0 0 0 .767-.1 35.779 35.779 0 0 0 2.281-1.252c.585-.363 1.13-.767 1.7-1.171a104.37 104.37 0 0 0 1.837-1.312 16.6 16.6 0 0 0 1.352-.989.528.528 0 0 1 .626-.121c.565.222 1.13.424 1.7.666.646.283 1.312.565 1.938.888.424.222.828.5 1.252.727a.525.525 0 0 1 .323.444 3.692 3.692 0 0 1-.04.666c-.04.4-.1.807-.141 1.191l-.121 1.09-.121.686c-.1.525.061 1.07-.242 1.554-.04.061-.02.161-.02.262-.081.767-.182 1.534-.242 2.3a.835.835 0 0 1-.242.666c-.02.02-.02.081-.02.121a7.212 7.212 0 0 1-.081.929c-.04.222-.121.424-.2.727a1.177 1.177 0 0 1-.141-.222c-.262-.787-.545-1.554-.807-2.342-.182-.484-.363-.989-.545-1.474s-.384-.969-.545-1.453c-.182-.545-.3-1.09-.484-1.635-.141-.464-.343-.908-.484-1.352-.1-.3-.121-.646-.222-.949a.356.356 0 0 0-.262-.182.41.41 0 0 0-.242.242.365.365 0 0 0 .04.283c.343 1.151.686 2.3 1.05 3.432.2.626.424 1.252.626 1.877a.345.345 0 0 1-.04.323c-.323.2-.2.444-.1.686a6.446 6.446 0 0 1 .626 2.665c0 .545.04 1.09.061 1.635.02.262.1.525.1.787a17.383 17.383 0 0 1-.02 1.776c-.061.707-.182 1.413-.283 2.1-.1.666-.182 1.332-.323 2a6.115 6.115 0 0 1-.323.848 7.28 7.28 0 0 1-.848 2.1 5.117 5.117 0 0 0-.363.545c-.222.4-.424.807-.666 1.211a7.76 7.76 0 0 1-.525.686c-.565.727-1.09 1.474-1.675 2.2-.363.444-.787.848-1.191 1.272a1.22 1.22 0 0 1-.283.242l-.081-.323-.121-1.453c-.02-.343-.061-.666-.061-1.009 0-.121.121-.262.222-.384a4.076 4.076 0 0 0 .484-.545c.3-.525.545-1.07.807-1.595.323-.646.666-1.272.989-1.918.262-.5.545-1.009.767-1.554.182-.444.3-.908.464-1.352a6.525 6.525 0 0 0 .585-2.059c.02-.646.161-1.292.182-1.938s-.04-1.312-.061-1.958a5.291 5.291 0 0 0-.2-1.776c-.242-.727-.4-1.474-.686-2.18-.1-.262-.424-.424-.646-.626a.127.127 0 0 0-.121 0 .806.806 0 0 0-.424.787c.081.484.2.949.3 1.413a9.164 9.164 0 0 1 .262 1.453c.061.828.081 1.655.061 2.463 0 .545-.1 1.11-.121 1.655a8.778 8.778 0 0 1-.606 2.887c-.666 1.776-1.393 3.533-2.079 5.289-.081.182-.141.384-.2.565-.04 0-.1-.02-.141-.02a3.9 3.9 0 0 0 0-.686 3.69 3.69 0 0 0-.283-.949c-.1-.222-.384-.242-.626-.3a.557.557 0 0 0-.626.182 4.321 4.321 0 0 0-.565.646 5.2 5.2 0 0 0-.585 1.029c-.182.424-.262.868-.4 1.292-.444 1.373-.929 2.725-1.352 4.1-.242.787-.4 1.595-.585 2.4-.121.5-.2 1.009-.3 1.514a.1.1 0 0 0 .081.04c.1-.081.222-.141.262-.222.182-.5.323-.989.464-1.494.121-.384.222-.787.323-1.191.161-.545.323-1.11.5-1.655.262-.807.525-1.635.828-2.422s.646-1.575.969-2.362c.081-.182.182-.323.424-.262a2.422 2.422 0 0 0 .4.061v3.916a3.39 3.39 0 0 0 .1.908q.363 1.3.787 2.6c.141.444.323.868.5 1.292.1.222.2.464.3.686.3.626.565 1.272.888 1.9.208.043.45.305.673.568zm-52.04 31.369a2.026 2.026 0 0 1-.262-.5c-.262-.787-.484-1.595-.767-2.382a7.083 7.083 0 0 1-.4-2.241c0-.323-.161-.666-.161-.989a2.106 2.106 0 0 0-.4-1.252 2.266 2.266 0 0 1-.323-.444 2.144 2.144 0 0 0-.727-.908c-.283-.242-.646-.4-.666-.848-.02-.3-.061-.606-.1-.908-.1-.888-.222-1.756-.3-2.644a5.179 5.179 0 0 1 0-.969c.02-.787.04-1.595.121-2.382.061-.606.222-1.191.262-1.776.061-.727.061-1.474.081-2.2a1.065 1.065 0 0 1 .061-.242c.1-.444.242-.888.323-1.352.121-.747.222-1.514.323-2.261.1-.666.161-1.312.262-1.978.04-.2.121-.444.363-.444.464 0 .929.1 1.393.1.384 0 .424.2.424.484v1.453c0 .182.061.363.061.565.04.464.1.949.1 1.413.02.767 0 1.534.02 2.3l.061 1.837c.02.484.02.989.061 1.474.02.323.061.626.061.949.02.646 0 1.272.02 1.918.02.565.081 1.151.1 1.716 0 .1-.061.2-.061.3.02.545.02 1.07.061 1.615.02.4.1.828.121 1.231 0 .464-.061.929-.061 1.373 0 1.191.04 2.4.061 3.593a.483.483 0 0 0 .2.384c.182.061.3-.1.323-.3a1.1 1.1 0 0 0 0-.363c-.02-.2-.04-.4-.061-.585-.02-.4-.02-.807-.02-1.211 0-.2-.061-.4-.04-.606.02-.363.081-.727.1-1.07.04-.343.061-.686.081-1.029.081.121.1.242.161.343a5.921 5.921 0 0 0 1.615 2.1 15.523 15.523 0 0 0 2.039 1.352 15.92 15.92 0 0 1 3.391 2.745.277.277 0 0 0 .222.081.294.294 0 0 0 .1-.242 2.041 2.041 0 0 0-.323-.666 10.385 10.385 0 0 0-.868-1.009 22.953 22.953 0 0 0-1.635-1.494 7.1 7.1 0 0 0-.908-.606c-.2-.141-.363-.283-.545-.424a.774.774 0 0 1-.222-.222c-.464-.727-.969-1.433-1.393-2.18a3.119 3.119 0 0 0-1.151-.969.89.89 0 0 1-.464-.848c0-.1-.04-.182-.04-.283a5.167 5.167 0 0 1-.1-1.11c.121-1.05.3-2.1.484-3.149.061-.343.141-.707.222-1.05l.3-1.151c.2-.888.4-1.8.626-2.665.161-.606.343-1.191.545-1.8.242-.767.525-1.514.707-2.3a14 14 0 0 0 .323-2.019c.061-.525.081-.585.565-.686.384-.081.787-.161 1.171-.283.525-.141 1.029-.323 1.554-.484a1.319 1.319 0 0 1 .283 0c-.081-.242-.121-.484-.424-.606-.2-.081-.262-.262-.2-.525a9.369 9.369 0 0 0 .222-1.312c.061-.444.081-.888.121-1.332.061-.707.141-1.413.182-2.12.04-.606.02-1.231.061-1.837a7.406 7.406 0 0 0-.1-1.332c-.061-.5-.2-.989-.262-1.494-.061-.444-.04-.888-.141-1.312-.2-.787-.444-1.575-.686-2.362-.222-.707-.424-1.393-.666-2.1-.343-1.029-.727-2.039-1.07-3.068-.121-.343-.161-.707-.262-1.029a2 2 0 0 1 .1-1.373c.121-.3.222-.606.323-.908a7.128 7.128 0 0 1 .484-1.393 3.226 3.226 0 0 0 .283-1.191c.02-.2-.242-.363-.343-.242a3.532 3.532 0 0 0-.585.646 22.654 22.654 0 0 0-.868 1.716c-.343.747-.686 1.494-.989 2.261a.914.914 0 0 0-.081.606c.182.646.384 1.312.626 1.938a41.453 41.453 0 0 1 1.918 5.067c.121.565.4 1.11.565 1.675.121.464.141.969.222 1.433.141.787.283 1.575.4 2.362a10.056 10.056 0 0 1 .1 1.07c.04.666.081 1.352.081 2.019 0 .424-.1.868-.121 1.292-.02.222.081.464.061.686a39.53 39.53 0 0 1-.323 2.2.3.3 0 0 1-.2.182c-.707.161-1.393.323-2.1.464-.4.081-.807.141-1.211.2-.484.061-.969.1-1.453.141-.868.081-1.736.2-2.6.242a9.9 9.9 0 0 1-1.332-.121q-1.151-.091-2.3-.121c-1.453-.061-2.887-.081-4.34-.141-.464-.02-.929-.081-1.393-.141-.141-.02-.343-.02-.424-.1a2.8 2.8 0 0 1-.4-.666 26.805 26.805 0 0 1-.646-1.776c-.161-.5-.3-1.009-.464-1.494-.182-.606-.343-1.211-.525-1.817a3.277 3.277 0 0 1-.222-.565c-.121-.585-.2-1.171-.283-1.776-.04-.323-.1-.626-.121-.949a6.061 6.061 0 0 1-.061-.868c-.02-.3 0-.606 0-.908v-.384a3.271 3.271 0 0 1 .02-.444c.1-.565.182-1.13.3-1.675a11.835 11.835 0 0 1 .384-1.453c.161-.464.384-.908.585-1.352a3.876 3.876 0 0 1 .747-1.231c.323-.343.626-.686.929-1.05.424-.5.848-1.009 1.312-1.474a7.544 7.544 0 0 0 1.857-2.422 8.026 8.026 0 0 1 .545-1.009 1.851 1.851 0 0 0 .262-.424c.182-.585.323-1.191.484-1.817a10.128 10.128 0 0 0 1.171.1 5.7 5.7 0 0 0 1.009-.1c.262-.04.5-.1.767-.141l1.009-.121c.283-.04.585-.1.868-.141.262-.04.525-.081.787-.1a.7.7 0 0 1 .767.222c.04-.04.081-.121.121-.121.323-.02.424-.323.626-.5.182-.161.121-.3-.061-.444a.717.717 0 0 1-.222-.323 2.73 2.73 0 0 1-.081-.585.665.665 0 0 1 .424-.787c.161-.081.363-.141.525-.222a9.792 9.792 0 0 0 1.393-1.009c.727-.585 1.151-1.393 1.817-2a7.243 7.243 0 0 1 1.151-.929 14.363 14.363 0 0 1 1.615-.686c.525-.2 1.05-.384 1.575-.585a.311.311 0 0 1 .222.04.586.586 0 0 0 .747-.081.53.53 0 0 1 .3-.141c.666-.182 1.312-.363 1.978-.5a2.467 2.467 0 0 1 1.575 0 13.439 13.439 0 0 1-1.231.707c-.787.343-1.615.666-2.422.969a9.636 9.636 0 0 1-1.09.3.216.216 0 0 1-.121-.04c-.121-.242-.363-.141-.545-.161-.182-.04-.484.363-.424.525a1.525 1.525 0 0 0 .262.464c.363.484.727.949 1.11 1.413a.262.262 0 0 1 0 .384c-.5.666-1.029 1.312-1.534 1.978a.26.26 0 0 0-.02.242.28.28 0 0 0 .2.1 1.227 1.227 0 0 0 .363-.182 8.231 8.231 0 0 0 1.655-1.9 1.151 1.151 0 0 0 .141-1.211 4.7 4.7 0 0 0-.545-.747c-.121-.141-.121-.242.081-.3.464-.141.908-.283 1.393-.424a2.991 2.991 0 0 0 .222.283 3.861 3.861 0 0 1-.081-.424c.121.1.242.141.262.2a3.173 3.173 0 0 1 .081.464 11.506 11.506 0 0 0 .121 1.171c.121.525.283 1.029.444 1.534.121.384.02.626-.323.747-.363.121-.666.242-.787.707a4.466 4.466 0 0 1 .666.585 9.13 9.13 0 0 1 .787 1.171.8.8 0 0 0 .585.424 1.767 1.767 0 0 1 .444.2c0 .04-.02.081-.02.121a5.9 5.9 0 0 0-.747.484 6.317 6.317 0 0 1-2.3.908 2.3 2.3 0 0 1-2.5-.727 20.82 20.82 0 0 0-.908-.888c-.081.1-.1.182-.161.222a.584.584 0 0 0-.141.929 8.191 8.191 0 0 0 .888.989 1.28 1.28 0 0 0 .545.283 4.07 4.07 0 0 0 1.635-.081 4.92 4.92 0 0 0 .525-.121 4.6 4.6 0 0 0 1.776-.5 7.991 7.991 0 0 0 .908-.5c.343-.182.707-.343 1.11-.545a2.35 2.35 0 0 0 1.877.242.54.54 0 0 1 .343.081c.1.424.444.525.727.767a2.97 2.97 0 0 0 2.4.343c.444-.04.707-.363 1.05-.565a3.255 3.255 0 0 0 .565-.484c-.02-.04-.02-.081-.04-.1-.727.444-1.413.02-2.14.02a2.114 2.114 0 0 1 1.231-1.171c.666-.182.727-.686.787-1.151.081-.807.04-1.655.1-2.463a.723.723 0 0 1 .4-.727 6.421 6.421 0 0 1 .283 1.433 8.123 8.123 0 0 1-.424 1.938.987.987 0 0 0 .141 1.05.216.216 0 0 1 .04.121c.02.1.04.182.061.283a.879.879 0 0 0 .323-.2c.182-.2.343-.444.525-.666a3.325 3.325 0 0 0 .444-.484c.182-.343.323-.727.484-1.09.262-.585.545-1.151.807-1.736.1-.222.2-.464.323-.707.525.323.707.606.464 1.252-.081.242-.121.484-.2.727-.222.626-.464 1.231-.686 1.857-.04.1-.04.182-.081.283l.081.081c.182-.1.444-.161.525-.323a14.376 14.376 0 0 0 .626-1.534c.141-.444.2-.888.3-1.352h.1c.727.929.363 1.978.3 3.028a4.413 4.413 0 0 0 .323-.606c.061-.1.121-.262.2-.283.525-.121 1.029-.242 1.575-.323a13.474 13.474 0 0 0 2.806-.787 1.319 1.319 0 0 0 .767-1.009 4.274 4.274 0 0 0-.2-2.3c-.222-.908-.585-1.8-.848-2.7-.384-1.272-.747-2.564-1.11-3.835a15.521 15.521 0 0 0-.545-1.635 1.747 1.747 0 0 0-.787-.929A4.5 4.5 0 0 0 40.73 33c-.828.081-1.635.242-2.443.363-.848.121-1.7.242-2.543.384-.3.04-.585.161-.888.182-.908.121-1.837.182-2.745.343-1.09.182-2.16.424-3.25.626a4.659 4.659 0 0 0-2.079.828 1.92 1.92 0 0 0-.807 2.079c.081.323.141.666.2 1.009a7.391 7.391 0 0 1-.888.262.364.364 0 0 1-.323-.121 11.543 11.543 0 0 1-.484-1.151c-.182-.464-.343-.929-.5-1.373-.283-.707-.585-1.373-.848-2.079a6.065 6.065 0 0 0-1.453-2.22 6.989 6.989 0 0 0-2.241-1.171 4.606 4.606 0 0 1 0-.747 2.782 2.782 0 0 0-.323-1.958.491.491 0 0 0-.59-.256c-.707.182-1.433.363-2.12.585-.323.1-.444-.04-.585-.262-.04-.061-.04-.121-.081-.161a5.027 5.027 0 0 1-.707-3.048c.02-.2.242-.464.384-.4a2.034 2.034 0 0 1 .464.242c.363.222.707.464 1.07.666a5 5 0 0 0 .747.343 10.734 10.734 0 0 0 1.332.525.5.5 0 0 0 .646-.585c-.02-.424-.121-.868-.121-1.292-.02-.646.02-1.272.02-1.918a8.116 8.116 0 0 0-.061-1.211c-.02-.121-.262-.3-.363-.262a.5.5 0 0 0-.3.363 192.184 192.184 0 0 0-.2 3.553.454.454 0 0 1-.1.3c-.081.04-.222-.02-.323-.061-.646-.343-1.272-.707-1.9-1.05a1.806 1.806 0 0 1-.5-.323c-.464-.646-1.231-.807-1.837-1.191-.3.363-.343.484-.3.747l.061.727a4.946 4.946 0 0 0 .081.767c.161.707.323 1.413.5 2.12a6.847 6.847 0 0 0 1.11 2.241.471.471 0 0 0 .525.2c.242-.061.484-.121.727-.2.5-.161.989-.343 1.494-.5.061-.02.2.061.2.1a2.409 2.409 0 0 1 .121.747 17.393 17.393 0 0 1-.141 2.3c-.242 1.474-.545 2.927-.828 4.38-.02.121-.121.2-.2.343-.4-.545-.747-1.029-1.11-1.514-.464-.626-.949-1.252-1.413-1.877-.141-.182-.242-.384-.363-.545a7 7 0 0 1-1.171-2.281c-.061-.262-.02-.545-.1-.787-.121-.363-.343-.727-.484-1.09-.323-.727-.646-1.474-.949-2.2-.141-.323-.2-.666-.343-.969-.061-.141-.343-.343-.4-.3a.933.933 0 0 0-.424.5 1.734 1.734 0 0 0 .161.828c.242.666.525 1.312.787 1.978a11.976 11.976 0 0 0 .525 1.272 1.2 1.2 0 0 1 .161.848 4.592 4.592 0 0 0-.525-.04 1.143 1.143 0 0 0-.363.061c-.727.242-1.474.484-2.2.767a8.069 8.069 0 0 0-1.575.747 5.14 5.14 0 0 0-.989 1.09c-.5.646-1.029 1.292-1.494 1.978s-.888 1.413-1.312 2.12c-.464.767-.969 1.534-1.352 2.342-.363.767-.585 1.595-.888 2.382-.121.343-.283.646-.384.989-.121.464-.161.929-.283 1.393a5.92 5.92 0 0 0 .01 2.723.359.359 0 0 0 .161.222 8.206 8.206 0 0 0 1.171.444 6.947 6.947 0 0 0 1.13.182c.222.04.444.04.666.081.464.061.949.182 1.413.2.585.02 1.151-.04 1.736-.04a3.287 3.287 0 0 1 .626.061.288.288 0 0 1 .121.242A9.789 9.789 0 0 1 7.3 50.1a16.683 16.683 0 0 1-1.292 1.837 14.96 14.96 0 0 1-1.09 1.171c-.262.262-.565.5-.828.787a18.019 18.019 0 0 0-1.29 1.496c-.424.606-.787 1.252-1.151 1.9a9.284 9.284 0 0 0-.626 1.373 10.523 10.523 0 0 0-.2 1.151C.64 60.72.4 61.609.3 62.517a9.482 9.482 0 0 0 .02 2.14 25.031 25.031 0 0 0 .48 3.27 14.4 14.4 0 0 0 .526 1.573c.182.606.283 1.252.5 1.837a13.9 13.9 0 0 0 1.352 3.189c.182.262.363.606.626.707a3.258 3.258 0 0 0 1.09.04c.424 0 .828-.04 1.252-.02.525.02 1.05.1 1.554.121a.5.5 0 0 1 .525.5c.04.343.1.666.161.989.141.686.283 1.373.4 2.079.141.727.242 1.453.363 2.18.141.868.283 1.736.4 2.6.061.424.061.868.141 1.292a20.778 20.778 0 0 1 .565 3.533.182.182 0 0 0 .02.1c.121 1.009.262 2.019.363 3.028.04.343 0 .707.02 1.07l.182 3.331c.04.626.04 1.272.061 1.9a.151.151 0 0 0 .02.1c.081.1.161.283.242.283a.5.5 0 0 0 .384-.182.776.776 0 0 0 .081-.484c-.04-.283-.161-.545.04-.828.061-.081.02-.2.02-.323-.02-.262-.04-.5-.04-.767v-.262c-.02-.343-.061-.666-.081-1.009a.341.341 0 0 1 .1-.04c.061.081.161.141.2.222.1.283.161.565.262.848a321.25 321.25 0 0 0 1.8 4.2c.222.525.444 1.05.686 1.554a.953.953 0 0 0 .363.384 3.422 3.422 0 0 0 .781.41zm-4.866-90.474c.02.02.04.061.061.081-.141.525-.3 1.05-.424 1.575-.2.929-.4 1.857-.585 2.786a29.443 29.443 0 0 0-.323 1.837A90.808 90.808 0 0 0 9.3 20.51c-.121 1.029-.242 2.059-.3 3.109a7.208 7.208 0 0 0 .061 1.474 9.251 9.251 0 0 0 .262 1.494 3.581 3.581 0 0 0 .525.828c.04.04.161.02.242.04a1.151 1.151 0 0 0-.02-.262c-.081-.384-.2-.747-.262-1.13-.061-.444-.1-.888-.141-1.332-.02-.464-.061-.949-.04-1.413.04-.686.141-1.373.222-2.059.1-.787.182-1.575.3-2.362.121-.727.262-1.433.424-2.14.242-1.171.5-2.321.767-3.472.04-.2.121-.4.182-.606.161-.545.3-1.09.5-1.615.182-.464.444-.908.646-1.352-.04-.182-.424-.242-.161-.5.1-.1.222-.222.061-.323-.121-.1-.343-.222-.444-.161a2.378 2.378 0 0 0-.727.606c-.464.626-.868 1.292-1.292 1.958a14.977 14.977 0 0 0-1.875 4.454 26.584 26.584 0 0 0-.525 2.866c-.161 1.009-.262 2.039-.384 3.048-.04.343-.061.686-.081 1.029-.04.727-.1 1.474-.1 2.2 0 .5.081.989.121 1.494a1.022 1.022 0 0 0 .363.828c.262.2.424.222.606.02a.448.448 0 0 0-.141-.626c-.1-.081-.222-.182-.242-.283a20.764 20.764 0 0 1-.061-2.241c.04-.949.161-1.9.242-2.846.061-.686.081-1.373.2-2.039.283-1.413.606-2.826.949-4.239a9.171 9.171 0 0 1 .523-1.412c.262-.565.545-1.11.848-1.655.084-.141.246-.202.346-.282zm-1.816-3.23l.061.061c-.121.2-.262.384-.384.585-.666 1.09-1.352 2.18-1.978 3.29a23.908 23.908 0 0 0-1.151 2.4c-.222.525-.323 1.09-.5 1.635A16.206 16.206 0 0 0 4.435 20a20 20 0 0 0 0 2.2c.02.545.061 1.07.121 1.595a4.425 4.425 0 0 0 1.05 2.362.954.954 0 0 0 .5.2c.04.02.161-.1.161-.182 0-.061-.081-.141-.161-.2-.121-.1-.3-.182-.363-.3a6.911 6.911 0 0 1-.585-1.514 19.8 19.8 0 0 1-.182-2.2c0-.121.061-.222.061-.343 0-.606-.04-1.231.02-1.837.1-.848.262-1.675.444-2.5.141-.606.343-1.191.5-1.776a7.236 7.236 0 0 1 .323-1.13c.424-.908.888-1.8 1.373-2.7.323-.626.666-1.252 1.05-1.857a19.815 19.815 0 0 1 1.312-1.817c.464-.565.787-1.272 1.494-1.635.061-.02.1-.121.121-.182.02-.081.081-.222.04-.262-.1-.081-.262-.2-.343-.161-.262.141-.585.1-.828.343-.262.3-.666.464-.969.747A17 17 0 0 0 8.29 8.257a14.142 14.142 0 0 0-.969 1.211c-.384.545-.767 1.11-1.11 1.7-.525.888-1.029 1.776-1.534 2.685a5.408 5.408 0 0 1-.242.606 2.171 2.171 0 0 0-.444.888c-.323 1.151-.666 2.3-.949 3.472A8.944 8.944 0 0 0 2.739 22c.121.848.182 1.675.343 2.523a2.749 2.749 0 0 0 .484 1.009c.081.121.343.141.545.182.02 0 .121-.121.1-.161a1.111 1.111 0 0 0-.1-.525 3.188 3.188 0 0 1-.686-2.079c.04-.565-.061-1.13-.04-1.7a14.688 14.688 0 0 1 .141-1.877c.121-.747.3-1.474.484-2.2.1-.444.3-.848.4-1.292a8.819 8.819 0 0 1 1.05-2.6c.464-.787.908-1.595 1.433-2.342.545-.767 1.151-1.494 1.756-2.241a1.684 1.684 0 0 1 .429-.319zm7.122 1.07a.441.441 0 0 0 .1-.061 1.231 1.231 0 0 1 .242.323 5.692 5.692 0 0 1 .4 2.725c-.02.222.04.444.262.484a.357.357 0 0 0 .444-.3 7.191 7.191 0 0 0 .081-2.18 2.433 2.433 0 0 1 0-.384.288.288 0 0 1 .2.161c.222.626.424 1.272.646 1.9.081.222.141.464.2.686.061.161.161.3.323.182a.527.527 0 0 0 .2-.4 1.378 1.378 0 0 0-.1-.464A9.646 9.646 0 0 0 18 8.559a2.386 2.386 0 0 0-1.675-1.13.974.974 0 0 1-.606-.222 6.077 6.077 0 0 0-.707-.384c-.121.141-.242.222-.283.343a.8.8 0 0 0-.04.525 8.669 8.669 0 0 1 .545 1.736 16.2 16.2 0 0 1 .242 2.967c0 .182.02.384.283.384a.384.384 0 0 0 .363-.4v-.222c.04-.525.1-1.05.121-1.595a10.58 10.58 0 0 0-.043-1.113zm1.78-2.059a.569.569 0 0 1-.081.222c-.262.2-.1.343.061.464a2.957 2.957 0 0 0 .565.283 4.078 4.078 0 0 1 1.938 1.837 8.888 8.888 0 0 1 .747 1.958 15.489 15.489 0 0 1 .343 2.362c.04.525-.04 1.05-.04 1.575 0 .262 0 .525-.02.787-.04.686-.1 1.373-.161 2.059a18.66 18.66 0 0 1-.222 1.857c-.141.585-.384 1.151-.585 1.736-.1.283-.343.525-.2.848.02.04.04.1.061.141.04-.02.1-.02.1-.061.141-.283.3-.545.424-.848.2-.5.363-1.009.525-1.514a7.987 7.987 0 0 0 .3-.908 12.644 12.644 0 0 0 .283-2.483c0-.868.182-1.756.222-2.624.04-.686-.061-1.393-.04-2.079a8.18 8.18 0 0 0-.343-2.321 4.809 4.809 0 0 0-2.019-2.725 2.476 2.476 0 0 0-1.858-.566zm.121 6.076c-.606.424-.626.464-.384 1.029.02.04.02.081.04.121.242.525.464 1.07.747 1.554.444.747.929 1.474 1.393 2.22.182.3.161.384-.121.585-.626.464-1.272.949-1.9 1.433a.712.712 0 0 0-.1.242 2.125 2.125 0 0 0 .424-.061 12.792 12.792 0 0 0 2.665-1.373c.363-.262.4-.444.161-.828a34.801 34.801 0 0 1-.949-1.413c-.464-.767-.888-1.554-1.312-2.321-.22-.401-.442-.785-.665-1.188zM20.443 25.8l.081.081a.878.878 0 0 0 .3-.161 7.291 7.291 0 0 0 .5-.606 8.471 8.471 0 0 0 1.11-2.463c.3-.929.646-1.837.929-2.786a21.466 21.466 0 0 0 .666-2.483 7.755 7.755 0 0 0 .04-1.675c0-.081-.141-.222-.222-.242a.291.291 0 0 0-.262.161 2.986 2.986 0 0 0-.2.727 11.019 11.019 0 0 1-.081 1.151 64.904 64.904 0 0 1-.727 2.866c-.242.848-.5 1.7-.747 2.543a5.844 5.844 0 0 1-1.07 2.261 2.632 2.632 0 0 0-.317.626zm45.862 18.852c-.747.161-1.433.384-2.14.464a4.326 4.326 0 0 1-2.463-.323 1.757 1.757 0 0 1-.424-.343 2.633 2.633 0 0 1-.5-1.534c-.061-.444-.061-.888-.1-1.352-.3.2-.545.424-.484.807.04.222.04.444.081.666.1.565.222 1.13.3 1.716a1.328 1.328 0 0 0 1.151 1.292 5.4 5.4 0 0 0 2.2-.141 3.665 3.665 0 0 1 .606-.222 3.116 3.116 0 0 0 1.655-.646.33.33 0 0 0 .118-.384zM13.458 7.974c.121.565.222 1.009.323 1.474.141.727.283 1.474.424 2.2a13.99 13.99 0 0 0 .343 1.595c.04.141.283.222.444.323.02.02.182-.121.182-.2a6.311 6.311 0 0 0 0-1.07 23.282 23.282 0 0 0-.262-2.019c-.141-.727-.343-1.453-.5-2.16-.061-.242-.424-.626-.545-.545-.207.099-.308.301-.409.402zm49.355 8.478a1.69 1.69 0 0 0-.363-.4c-.04-.04-.242.121-.343.222a.907.907 0 0 0-.121.242c-.121.384-.222.767-.323 1.151a1.222 1.222 0 0 0 0 .384 1.584 1.584 0 0 0 .444-.04c.525-.327.565-.911.706-1.559zm-45.923.262a8.909 8.909 0 0 0-.384-1.05c-.081-.141-.242-.4-.484-.242-.384.262-.444.5-.222.949a2.122 2.122 0 0 0 .464.585.416.416 0 0 0 .343.04c.121-.039.202-.18.283-.281z" class="cls-3" data-name="Path 684" transform="translate(-.225 -.138)"/>
                <path id="Path_685" d="M235.6 69.755a7.864 7.864 0 0 1-.626-.807c-.323-.606-.606-1.252-.888-1.9-.1-.222-.222-.464-.3-.686a13.016 13.016 0 0 1-.5-1.292q-.424-1.3-.787-2.6a3.39 3.39 0 0 1-.1-.908v-3.919a2.424 2.424 0 0 1-.4-.061c-.242-.081-.343.081-.424.262-.323.787-.666 1.554-.969 2.362s-.565 1.615-.828 2.422c-.182.545-.343 1.09-.5 1.655a20.69 20.69 0 0 0-.323 1.191c-.141.5-.3 1.009-.464 1.494-.04.1-.182.161-.262.222a.1.1 0 0 0-.081-.04c.1-.5.182-1.009.3-1.514.182-.807.343-1.615.585-2.4.424-1.373.888-2.725 1.352-4.1.141-.424.242-.868.4-1.292a6.452 6.452 0 0 1 .585-1.029 5.885 5.885 0 0 1 .565-.646.548.548 0 0 1 .626-.182c.242.061.525.081.626.3a3.943 3.943 0 0 1 .283.949 3.9 3.9 0 0 1 0 .686c.04 0 .1.02.141.02.061-.182.141-.384.2-.565a234.85 234.85 0 0 0 2.079-5.289 8.889 8.889 0 0 0 .606-2.887c.02-.545.121-1.11.121-1.655 0-.828 0-1.655-.061-2.463-.04-.484-.182-.969-.262-1.453-.1-.484-.2-.949-.3-1.413a.806.806 0 0 1 .424-.787.127.127 0 0 1 .121 0c.222.2.545.363.646.626.283.707.444 1.453.686 2.18a6.578 6.578 0 0 1 .2 1.776c0 .646.081 1.312.061 1.958s-.161 1.292-.182 1.938a6.525 6.525 0 0 1-.585 2.059c-.161.444-.283.929-.464 1.352-.222.525-.5 1.029-.767 1.554-.323.646-.666 1.272-.989 1.918-.262.525-.525 1.07-.807 1.595a6.22 6.22 0 0 1-.484.545.832.832 0 0 0-.222.384 5.764 5.764 0 0 0 .061 1.009l.121 1.453a1.479 1.479 0 0 0 .081.323 2.3 2.3 0 0 1 .283-.242c.4-.424.828-.828 1.191-1.272.585-.707 1.11-1.453 1.675-2.2.182-.222.363-.444.525-.686.242-.384.444-.807.666-1.211.1-.182.242-.363.363-.545a7.057 7.057 0 0 0 .848-2.1 7.28 7.28 0 0 0 .323-.848c.141-.666.222-1.332.323-2 .1-.707.222-1.393.283-2.1a17.383 17.383 0 0 0 .02-1.776c0-.262-.081-.525-.1-.787q-.061-.818-.061-1.635a6.446 6.446 0 0 0-.626-2.665c-.121-.242-.222-.484.1-.686a.345.345 0 0 0 .04-.323c-.2-.626-.444-1.252-.626-1.877a224.511 224.511 0 0 1-1.05-3.432.686.686 0 0 1-.04-.283.41.41 0 0 1 .242-.242c.081-.02.242.1.262.182.1.3.121.646.222.949.141.464.343.908.484 1.352.161.545.3 1.09.484 1.635.161.484.363.969.545 1.453s.363.969.545 1.474c.283.787.545 1.554.807 2.342.02.04.06.081.141.222a4.486 4.486 0 0 0 .2-.727c.04-.3.04-.606.081-.929 0-.04 0-.1.02-.121a.835.835 0 0 0 .242-.666c.061-.767.161-1.534.242-2.3a.581.581 0 0 1 .02-.262c.3-.484.141-1.05.242-1.554.04-.222.1-.464.121-.686.061-.363.081-.727.121-1.09.04-.4.1-.807.141-1.191a3.691 3.691 0 0 0 .04-.666.525.525 0 0 0-.323-.444c-.424-.222-.828-.5-1.252-.727a40.646 40.646 0 0 0-1.938-.888c-.565-.242-1.13-.424-1.7-.666a.56.56 0 0 0-.626.121c-.424.363-.908.666-1.353.989-.606.444-1.211.868-1.837 1.312-.565.4-1.11.807-1.7 1.171-.747.444-1.514.868-2.281 1.252a1.034 1.034 0 0 1-.767.1c-.383-.121-.545.161-.747.323a14.676 14.676 0 0 0-1.13 1.11 10.326 10.326 0 0 0-1.009 1.312c-.283.424-.484.908-.727 1.352-.1.2-.222.4-.323.626a.87.87 0 0 0 .2.969c.343.4.707.787 1.03 1.151.161-.262.283-.545.464-.787.061-.1.242-.222.3-.182.141.061.3.222.3.343a4.413 4.413 0 0 1-.061 1.029 9.2 9.2 0 0 1-.545 1.837 12.345 12.345 0 0 0-.686 2.382c-.2.807-.464 1.595-.686 2.382-.121.444-.141.888-.222 1.352-.081.5-.161 1.029-.262 1.534-.121.707-.242 1.433-.4 2.14-.081.424-.222.828-.323 1.252a2.95 2.95 0 0 0-.061.444c-.141.585-.283 1.151-.4 1.736q-.212 1-.363 2c-.161.989-.3 2-.444 2.988a14.422 14.422 0 0 0-.283 2.261c0 .384-.2.848.162 1.211a3.852 3.852 0 0 0 .646.484c.525.343 1.07.666 1.615.989.545.343 1.09.707 1.635 1.05.464.3.929.626 1.393.929.343.222.686.444 1.03.686.707.525 1.393 1.07 2.1 1.575.565.424 1.171.807 1.736 1.211.626.444 1.211.929 1.837 1.393.363.262.767.484 1.13.747.464.343.888.727 1.353 1.09.343.262.727.5 1.07.767.444.323.908.666 1.433 1.05V78.5c0-.242.04-.484.061-.727.02-1.211.061-2.4.061-3.613 0-1.252 0-2.5-.081-3.755a15.215 15.215 0 0 0-.323-1.615c-.061-.424-.2-.848.141-1.252.081-.081 0-.323 0-.484l-.121-1.292c-.1-.767-.222-1.554-.323-2.321-.061-.444-.121-.908-.182-1.352a18.633 18.633 0 0 0-.4-2.4 1.634 1.634 0 0 1 .606-1.756 2.559 2.559 0 0 0 .081.989 4.364 4.364 0 0 1 .323 1.11 10.19 10.19 0 0 1 .222 1.332c.04.384.04.787.081 1.191.02.2.161.363.182.565.081.747.141 1.474.2 2.22.04.484.1.949.162 1.433.081.686.141 1.393.222 2.079.1.787.222 1.575.3 2.362.061.484.1.949.141 1.433.061.646.1 1.312.121 1.958.02.3-.061.626-.061.929.04.525.121 1.03.161 1.554a15.6 15.6 0 0 1 .04 1.675c-.04.686-.141 1.373-.2 2.079a.477.477 0 0 1-.626.484 2.093 2.093 0 0 1-.888-.4c-.363-.3-.807-.484-1.191-.767-.908-.666-1.8-1.352-2.7-2.039a9.145 9.145 0 0 0-.929-.606 1.061 1.061 0 0 0-.343-.081c-.141.868-.262 1.655-.383 2.463-.081.585-.161 1.191-.262 1.776a7.192 7.192 0 0 1-.262.787c-.182.707-.343 1.413-.525 2.12-.121.464-.262.929-.4 1.393a14.681 14.681 0 0 1-.444 1.615 4.915 4.915 0 0 1-.848 1.837 2.477 2.477 0 0 0-.283.727 1.942 1.942 0 0 0 .929-.686.344.344 0 0 1 .545-.061.677.677 0 0 1 .3.888c-.283.767-.545 1.554-.828 2.321a4.962 4.962 0 0 0-.182 1.877 2.861 2.861 0 0 0-.04.565 3.777 3.777 0 0 0 .4.807c.121.182.2.323-.061.444-.283.141-.3.363-.161.646a11.024 11.024 0 0 1 .549 1.205.381.381 0 0 1-.061.323 1.332 1.332 0 0 1-.484.343 13.021 13.021 0 0 1-1.514.444c-.363.081-.707-.02-.646-.525a1.059 1.059 0 0 0-.02-.343c-.283.2-.565.242-.606.686a3.4 3.4 0 0 1-.747 1.675 4.258 4.258 0 0 1-1.11 1.211c-.182.121-.363.2-.525.323a12.931 12.931 0 0 1-3.21 1.716 4.881 4.881 0 0 1-.727.2.8.8 0 0 1-.585-.121.576.576 0 0 1-.061-.545 6.55 6.55 0 0 1 1.292-2.16c.343-.323.727-.626 1.07-.949.444-.424.848-.868 1.272-1.312.3-.3.606-.626.908-.929a1.756 1.756 0 0 0 .343-.424c.242-.4.606-.767.565-1.312v-.04c.484-.384.2-.929.222-1.373.04-.848-.081-1.7-.121-2.543-.02-.343-.081-.707-.1-1.05a.968.968 0 0 1 .949-1.07c.5 0 .807-.384 1.231-.5.061-.02.121-.182.141-.283a19.4 19.4 0 0 0 .5-2.342 22.2 22.2 0 0 0 .363-3.27c-.04-.5.081-1.029.04-1.534-.061-1.009-.161-2.039-.242-3.048a88.441 88.441 0 0 0-.262-2.281c-.1-.646-.222-1.272-.343-1.9-.081-.424-.141-.848-.222-1.272-.081-.464-.525-.565-.848-.787-.04-.02-.283.141-.3.222-.081.565-.1 1.13-.161 1.7a5.374 5.374 0 0 0-.061.565c-.02.545-.02 1.09-.081 1.635-.04.565-.121 1.13-.2 1.7-.121.828-.242 1.675-.384 2.5-.04.222-.141.424-.2.646-.04.121-.04.222-.081.343-.121.545-.242 1.11-.384 1.655a13.841 13.841 0 0 1-.4 1.575 9.437 9.437 0 0 1-.606 1.191.6.6 0 0 0-.081.2c-.04.121-.04.242-.081.343-.262.565-.545 1.11-.807 1.675a2.178 2.178 0 0 0-.1.424c.424-.061.787-.141 1.151-.182a.521.521 0 0 1 .464.707c-.2.565-.363 1.13-.565 1.7a2.6 2.6 0 0 0-.262 1.231c.061.384.161.747.242 1.11.04.182.02.343-.161.424a2.051 2.051 0 0 0-.262.182c-.666.363-.464.969-.444 1.534.02.4.121.807.121 1.191 0 .081-.242.222-.384.262-.585.121-1.151.242-1.736.323a3.942 3.942 0 0 1-.686-.061c-.1-.02-.2-.04-.363-.081v-.646a2.143 2.143 0 0 0-.081-.384 1.34 1.34 0 0 0-.4.121A9.512 9.512 0 0 1 219.9 98c-.888.242-1.8.444-2.685.646-.464.1-.929.141-1.413.2-.384.04-.747.1-1.13.121-.363.02-.5-.222-.363-.565a3.784 3.784 0 0 1 1.534-1.736 16.406 16.406 0 0 1 2.483-1.352 13.064 13.064 0 0 1 2.039-.484c.727-.161 1.433-.3 2.16-.464.2-.04.242-.4.141-.686a9.452 9.452 0 0 0-.343-1.07c-.323-.565-.222-1.252-.626-1.8a2.6 2.6 0 0 1-.323-.888.294.294 0 0 1 .141-.262 4.137 4.137 0 0 1 .727-.384c.363-.141.727-.242 1.11-.363a8.354 8.354 0 0 0 .989-.384.5.5 0 0 0 .2-.363c.2-1.151.4-2.281.585-3.432.1-.686.162-1.393.2-2.1.02-.606-.04-1.231-.04-1.837 0-.444.061-.888.04-1.352-.02-.525-.1-1.07-.121-1.595-.02-.384.061-.767.04-1.151-.02-.525-.121-1.029-.161-1.554-.04-.545-.04-1.07-.081-1.615-.04-.525-.121-1.05-.182-1.595-.061-.464-.161-.929-.182-1.393a1.614 1.614 0 0 0-.989-1.453 8.424 8.424 0 0 1-1.13-.747c-.222-.182-.484-.363-.424-.767.141-1.11.222-2.22.323-3.331.1-.989.2-1.978.323-2.967.081-.565.222-1.11.323-1.675.161-.848.283-1.675.464-2.523.1-.484.283-.949.383-1.433s.141-.969.2-1.453v-.223a.626.626 0 0 0-.545-.727c-.323-.061-.626-.182-.949-.242a2.637 2.637 0 0 0-.787-.1c-.383.061-.787-.121-1.13.161a.409.409 0 0 0-.121.323c.1.4.242.787.343 1.171.1.363.161.727.242 1.09.04.182-.02.3-.242.363a.6.6 0 0 1-.848-.5c-.1-.525-.2-1.029-.323-1.575-.545.585-.2 1.07.04 1.575.222.484.4.969.606 1.453a2.553 2.553 0 0 1 .121.363c.02.141.081.323.02.424a2.508 2.508 0 0 1-1.05 1.191 12.777 12.777 0 0 1-2.362 1.151c-.424.1-.848.182-1.252.262a.476.476 0 0 1-.484-.242l-.908-1.332a3 3 0 0 0-.3-.4 1.273 1.273 0 0 1-.242-1.191c.121-.626.262-1.272.4-1.9-.04.02-.121.061-.141.121-.222.525-.4 1.05-.626 1.575a4.18 4.18 0 0 1-.3.5c-.222-.2-.424-.323-.585-.5a.43.43 0 0 1-.061-.323c.182-.868.363-1.756.565-2.624a.815.815 0 0 0 0-.222c-.04-.02-.081-.02-.1-.04-.384.787-.747 1.575-1.13 2.342a1.747 1.747 0 0 1-.262-1.736c.141-.686.222-1.373.343-2.059a.559.559 0 0 0 .02-.262 1.17 1.17 0 0 1-.2.242 2.22 2.22 0 0 1-.283.182 1.145 1.145 0 0 0-.363.4 9.617 9.617 0 0 0-.2 1.05c-.04.242-.061.5-.081.807-.141-.283-.545-.343-.424-.727.141-.444.262-.908.424-1.332a.428.428 0 0 0-.061-.525.389.389 0 0 1-.02-.606 2.037 2.037 0 0 1 1.07-.747 9.382 9.382 0 0 0 1.393-.606 52.917 52.917 0 0 1 1.857-.707 1.063 1.063 0 0 1 1.07.5c.141.3.283.585.424.888a.7.7 0 0 0 .121.182c.3-.363.585-.686.848-1.029a.586.586 0 0 1 .989-.061.266.266 0 0 1-.04.464 4.872 4.872 0 0 0-1.433 1.514 1.268 1.268 0 0 0-.242 1.191c.141-.161.262-.323.4-.464.5-.525.989-1.05 1.514-1.554.3-.283.666-.161.969.222.1.141.222.283.323.444a3.224 3.224 0 0 1 .2.464 38.107 38.107 0 0 0 3.593-1.292 1.518 1.518 0 0 0 1.009-1.191 26.045 26.045 0 0 1 .767-2.523c.3-.949.606-1.877.929-2.806.081-.222.04-.3-.2-.4-.585-.283-1.13-.626-1.675-.949a1.038 1.038 0 0 1-.142-1.191c.565-.949 1.13-1.9 1.716-2.826a10.467 10.467 0 0 1 2.019-2.3c.222-.2.444-.424.666-.646a.731.731 0 0 1 .646-.262 3.733 3.733 0 0 0 2.483-.949c.242-.161.5-.3.747-.484l4-2.786.1-.1a3.337 3.337 0 0 0-.949-.262 3.37 3.37 0 0 1-1.413-.323 2.98 2.98 0 0 0-.545-.2c-.3-.081-.4-.3-.5-.585a9.539 9.539 0 0 1-.484-2.907c-.02-.868-.081-1.716-.061-2.584.02-.646.141-1.292.222-1.918.061-.424.1-.848.141-1.272a12.54 12.54 0 0 1 .283-1.776.665.665 0 0 0-.283-.807.4.4 0 0 1-.141-.323c.061-.182.222-.1.343-.061a1.974 1.974 0 0 0 1.231.121c.222-.061.444.04.686-.1a2.328 2.328 0 0 0 .908-1.655 2.041 2.041 0 0 0-.384-1.918c-.04-.04-.081-.121-.121-.121H235a1.77 1.77 0 0 1-.565 0c-.061-.02-.04-.3-.04-.444.02-.565.04-1.151.061-1.7a3.412 3.412 0 0 1-.525-.222.332.332 0 0 1-.162-.242c-.061-.606-.081-1.231-.141-1.857a6.062 6.062 0 0 0-.161-.848c-.141.384-.242.707-.363 1.009a15.09 15.09 0 0 1-.4.949c-.02.061-.141.081-.222.1a3.479 3.479 0 0 0-.424.141c-.424.182-.646.081-.606-.384a13.236 13.236 0 0 1 .283-1.756 8.461 8.461 0 0 1 .3-1.05 5.824 5.824 0 0 0-.969.848 1.2 1.2 0 0 0-.061.807 2.134 2.134 0 0 1-.141 1.231c-.182.464-.323.929-.545 1.373a13.435 13.435 0 0 1-.767 1.393 5.653 5.653 0 0 1-.666.989c-.363.4-.767.767-1.151 1.13a5.279 5.279 0 0 1-.969.807c-.363.222-.666.5-1.07.707a7.053 7.053 0 0 1-1.151.646c-.262.081-.5.222-.747.323-.444.2-.908.384-1.352.626-.242.141-.121.525.1.807a2.283 2.283 0 0 0 1.877.707c.464.02.949.081 1.413.121.081 0 .2-.02.222-.061.182-.283.424-.141.626-.1s.2.3.02.464c-.283.262-.545.545-.828.828.02.02.04.061.061.081a3.451 3.451 0 0 0 .646 0 5.029 5.029 0 0 0 2.14-.747c.182-.141.384-.222.525-.04.081.1 0 .343-.02.5a3.206 3.206 0 0 1-.141.4 2.8 2.8 0 0 1-.929 1.615 7.079 7.079 0 0 1-.807.545c-.222.121-.464.182-.686.3a.371.371 0 0 0-.161.283 2.508 2.508 0 0 0 .081.666c.141.585.323 1.171.424 1.776a4.318 4.318 0 0 0 .767 1.7c.262.4.565.4 1.029.121a7.263 7.263 0 0 0 1.736-1.595c.343-.444.686-.888 1.03-1.352.161-.242.262-.525.444-.747.2-.262.343-.242.545 0-.121.585-.242 1.171-.363 1.736-.061.3-.161.606-.242.908a2.588 2.588 0 0 0-.1.545c.02.525.04 1.05.1 1.575.02.3.081.606.121.908a1.76 1.76 0 0 1-.1.262c-.141-.222-.3-.343-.343-.5-.2-.848-.363-1.716-.525-2.564a1.775 1.775 0 0 0-.121-.343c-.323.363-.606.686-.908.989a2.748 2.748 0 0 1-1.453.949c-.384.061-.747.222-1.13.3a.617.617 0 0 1-.4-.141 3.472 3.472 0 0 1-.868-1.433 13.043 13.043 0 0 1-.545-3.149 1.729 1.729 0 0 1 .242-1.252c.04-.061.1-.141.141-.141a2.885 2.885 0 0 0 2.362-1.655l-.061-.121a5.659 5.659 0 0 1-.626.182c-.525.1-1.029.182-1.554.283a.38.38 0 0 0-.161.04 1.013 1.013 0 0 1-.949-.222.5.5 0 0 1-.02-.3 4.7 4.7 0 0 0 .222-.565c.02-.04-.141-.2-.222-.2-.565-.02-1.151 0-1.716-.04a1.963 1.963 0 0 1-1.9-2.039.834.834 0 0 1 .5-.807c.1-.04.161-.141.242-.2s.162-.161.262-.182c.484-.182 1.009-.323 1.494-.525.384-.161.747-.4 1.13-.606.1-.061.222-.1.323-.161.04-.02.081-.02.121-.04.323-.283.666-.565.989-.848.384-.323.747-.666 1.151-.949a4.56 4.56 0 0 0 1.029-1.211 7.565 7.565 0 0 0 .969-1.534 6.021 6.021 0 0 0 .666-2.543c-.222.2-.424.444-.666.626a5.041 5.041 0 0 1-.828.5 2.266 2.266 0 0 1-.525.161.291.291 0 0 1-.262-.061.3.3 0 0 1 0-.262 10.5 10.5 0 0 1 .908-1.413c.444-.545.949-1.029 1.494-1.615-.384.2-.707.343-1.009.525a11.4 11.4 0 0 0-1.171.727c-.525.363-1.029.747-1.534 1.13a1.086 1.086 0 0 1-.929.121.362.362 0 0 1-.081-.565 11.915 11.915 0 0 1 1.03-.989 19.726 19.726 0 0 1 4.056-2.322 1.655 1.655 0 0 1 .686-.182c.424.02.888-.222 1.272.1.141.121.242.283.363.343a1.3 1.3 0 0 1 .424.121c.222.182 0 .343-.081.5a7.2 7.2 0 0 0-.807 2.745.121.121 0 0 0 .061.121c.1-.384.222-.747.323-1.13a4.627 4.627 0 0 0 .182-.888c.04-.323.283-.4.5-.484.081-.04.3.161.384.3a3.73 3.73 0 0 1 .3.787c.182.666.363 1.332.545 2.079.283-.141.626-.3.949-.5a.276.276 0 0 0 .04-.283 13.859 13.859 0 0 0-.484-1.554c-.2-.5-.444-.969-.686-1.453-.081-.182-.121-.323.141-.384a.134.134 0 0 0 .1-.081c.262-.343.283-.363.606-.1a7.208 7.208 0 0 1 .545.565.4.4 0 0 0 .242.121.219.219 0 0 0 .161-.161 7.558 7.558 0 0 0 0-1.171c-.02-.182-.1-.343.081-.484.182-.161.363-.283.585-.04a.062.062 0 0 0 .04.02 15.321 15.321 0 0 1 .929-1.312c.626-.686 1.252-1.373 1.938-2a21.888 21.888 0 0 1 2.328-1.751 10.242 10.242 0 0 1 1.918-1.009 3.35 3.35 0 0 1 2.039-.262 1.763 1.763 0 0 1 1.271 1.392 6.083 6.083 0 0 0 .182.828c.02.04.04.1.081.121a2.914 2.914 0 0 1 1.191 1.373 2.114 2.114 0 0 1 .2.565.353.353 0 0 1-.2.3c-.121.061-.363.081-.424 0-.3-.363-.727-.323-1.11-.363-.4-.061-.828.081-1.211.02-.606-.081-1.11.242-1.675.283a1.283 1.283 0 0 0-.363.121c-.706.283-1.393.565-2.1.848a1.885 1.885 0 0 0-.4.323h1.433a4.127 4.127 0 0 1 2.826 1.151 12.84 12.84 0 0 1 1.776 2c.182.262.363.525.525.787.222.4.02.727-.444.787-.222.02-.424.02-.464-.3-.02-.121-.182-.242-.3-.3a14.807 14.807 0 0 0-1.615-.767c-.5-.182-1.05-.283-1.7-.444.081.242.141.4.2.545.343.807.706 1.595 1.03 2.4.222.545.384 1.13.606 1.675a.416.416 0 0 1-.222.606c-.121.061-.2.2-.343.262-.141.04-.363.081-.424.02a2.3 2.3 0 0 1-.323-.626c-.182-.5-.343-1.029-.525-1.554-.121-.363-.262-.727-.4-1.09a1.851 1.851 0 0 0-.868-.929c-.182-.1-.343-.2-.545-.3a.951.951 0 0 0-.323.848 5.594 5.594 0 0 1 .02.828 6.23 6.23 0 0 1-.061 1.07c-.061.525-.161 1.029-.262 1.554a.475.475 0 0 1-.04.161c-.081.686-.162 1.373-.262 2.039-.1.646-.242 1.292-.4 1.918a3.032 3.032 0 0 1-.383.767c-.121.2-.262.081-.283-.061a3.437 3.437 0 0 1 .04-.787c.121-.868.283-1.736.384-2.6a33.052 33.052 0 0 0 .242-3.432 6 6 0 0 0-1.029-3.634c-.182-.262-.323-.283-.585-.121a.967.967 0 0 1-.4.141c-.323.061-.484.283-.363.585a1.3 1.3 0 0 1 .04.989c-.04.121-.222.222-.343.323-.2.141-.5.141-.545.464a.822.822 0 0 0 .02.444.66.66 0 0 1-.2.929c-.1.081-.121.262-.182.384a9.879 9.879 0 0 0-.626 2.382c-.04.182.2.424.283.646a3.647 3.647 0 0 1 .323.969 3.921 3.921 0 0 1-.081 1.534 2.758 2.758 0 0 1-.908 1.554 2.879 2.879 0 0 1-1.231.464.367.367 0 0 0-.222.2c-.121.727-.222 1.453-.343 2.18-.081.484-.182.969-.262 1.453a3.3 3.3 0 0 0-.04.444c0 .888.02 1.8.04 2.685 0 .242.02.464.02.707.04.606.061 1.211.141 1.817a.584.584 0 0 0 .4.545 10.027 10.027 0 0 1 1.029.545 8.262 8.262 0 0 0 .989.363 3.343 3.343 0 0 1 .929.3 1.419 1.419 0 0 0 1.05.222 1.1 1.1 0 0 1 .666.222c.424.222.848.444 1.292.646.343.161.727.262 1.05.444a17.114 17.114 0 0 1 1.635 1.029 1.439 1.439 0 0 1 .484 1.07 1.692 1.692 0 0 1-.141 1.211 1.3 1.3 0 0 0-.04.565 4.958 4.958 0 0 1-.222 1.716 5.054 5.054 0 0 0-.1 1.11c-.04.283-.1.565-.141.828-.04.3-.061.585-.1.888-.141.747-.3 1.494-.444 2.241-.081.5-.121 1.029-.2 1.534-.1.606-.2 1.211-.343 1.817a.268.268 0 0 1-.222.161.527.527 0 0 1-.343-.141c-.081-.081-.1-.242-.222-.363.04.363.081.707.121 1.07a5.48 5.48 0 0 1-.02.565c0 .343.02.686 0 1.029-.04.424-.141.848-.182 1.272-.02.262.02.545 0 .828-.1.767-.182 1.554-.323 2.321a6.873 6.873 0 0 1-.383 1.009 10.578 10.578 0 0 1-.484 1.413 9.132 9.132 0 0 1-1.009 1.776c-.4.484-.686 1.05-1.07 1.554-.4.5-.848.969-1.292 1.433-.5.545-1.05 1.05-1.575 1.575a4.674 4.674 0 0 0-.484.4 1.561 1.561 0 0 0-.424.747 6.64 6.64 0 0 0 .081 1.554c.121.787.3 1.575.484 2.342a9.022 9.022 0 0 0 .384.929c.242.626.444 1.252.686 1.857-.12.264-.14.284-.184.304zm-18.063-16.028c-.262.2-.484.384-.706.545-.384.262-.626.161-.828-.262a1.859 1.859 0 0 1-.02-1.433 1.168 1.168 0 0 0-.061-1.252c-.242-.323-.4-.727-.626-1.09a.31.31 0 0 0-.262-.1 3.185 3.185 0 0 0-.747.222c-.343.141-.666.343-1.009.464-.464.182-.484.161-.424.646a.435.435 0 0 1 0 .161 13.155 13.155 0 0 1-.363 1.272.994.994 0 0 0 .04.828c.3-.343.565-.666.848-.989a.5.5 0 0 1 .343-.161.424.424 0 0 1 .262.262 1.664 1.664 0 0 1-.081.525c-.1.444-.242.868-.323 1.312-.02.1.081.242.121.343a1.193 1.193 0 0 0 .283-.121c.262-.2.484-.424.747-.606a.287.287 0 0 1 .444.182 1.253 1.253 0 0 1-.2.929 3.055 3.055 0 0 0-.2 2.342.91.91 0 0 0 .2.283 7.765 7.765 0 0 1 .606.545c.3.363.585.747.888 1.11a.369.369 0 0 0 .3.121 4.614 4.614 0 0 0 .747-.242 10.11 10.11 0 0 0 2.059-1.231c.262-.2.182-.343.081-.545-.182-.343-.343-.686-.525-1.029-.343-.727-.686-1.453-1.029-2.16a16.311 16.311 0 0 0-.565-.871zm7.63 35.043a4.276 4.276 0 0 0 .222-.424c.081-.222.121-.444.2-.666.222-.5.5-.969.686-1.494.262-.747.464-1.494.686-2.261s.464-1.514.606-2.281c.2-1.11.343-2.22.464-3.331.1-.929.1-1.877.141-2.826l.061-1.352a2.99 2.99 0 0 1 .061-.384 6.162 6.162 0 0 1 .02-.868c.1-.343.04-.545-.3-.686a1.065 1.065 0 0 1-.3-.222c-.464-.323-.908-.646-1.373-.969-.242-.161-.646-.1-.666.1a3.982 3.982 0 0 0-.04.848c.02.424.121.848.141 1.252.061.646.081 1.312.141 1.958.04.444.1.888.1 1.332 0 .606-.04 1.211-.04 1.817 0 .141.061.262.061.4l-.061 1.534c-.02.363 0 .747 0 1.11a6.311 6.311 0 0 0-.081.868 13.555 13.555 0 0 1-.343 3.613l-.242 1.373a3.438 3.438 0 0 1-.161.929.626.626 0 0 0 .017.63zm5.814.929c.04.02.081.02.1.04.121-.283.222-.565.343-.828a18.049 18.049 0 0 0 .868-1.918c.323-1.09.545-2.22.787-3.351.262-1.11.545-2.2.747-3.331.182-1.03.3-2.079.4-3.109a.632.632 0 0 0-.141-.525c-.807-.626-1.655-1.231-2.483-1.837a.287.287 0 0 1-.121.04 1.967 1.967 0 0 0-.141.646c.04.565.141 1.13.222 1.7.081.606.161 1.191.2 1.8.04.464 0 .949.02 1.433.02.585.1 1.171.121 1.756a23.06 23.06 0 0 1 .04 2.362 13.209 13.209 0 0 1-.283 1.716c-.081.424-.141.848-.222 1.272a11.554 11.554 0 0 1-.222 1.151 7.857 7.857 0 0 1-.235.984zm8.236-84.923l.04.04c.646-.464 1.272-.969 1.958-1.373a42.57 42.57 0 0 1 2.967-1.615 4.058 4.058 0 0 1 1.877-.484c.323.02.646 0 .969 0-.161-.807-.3-.989-1.029-1.13a1.988 1.988 0 0 0-.969.081 6.286 6.286 0 0 0-2.039.868c-.464.343-.949.646-1.393 1.009a6.646 6.646 0 0 0-1.151 1.11 12.757 12.757 0 0 1-1.23 1.494zm6.984 3.25a3.949 3.949 0 0 0-1.635-1.474 3.572 3.572 0 0 0-2.7-.121c.323.222.606.424.888.606a1.462 1.462 0 0 0 .464.242c.565.141 1.151.262 1.716.4.419.105.843.221 1.266.347zm1.312-5.41a3.041 3.041 0 0 0-.444-.222 3.116 3.116 0 0 0-1.554-.02 9.117 9.117 0 0 0-2.18.807c-.4.222-.787.444-1.191.666a4.582 4.582 0 0 0-.5.363c.02.02.02.061.04.081a12.356 12.356 0 0 1 5.829-1.675zm-16.028 5.672c-.04-.04-.061-.081-.1-.1l-1.615 1.554.081.081c.549-.505 1.089-1.03 1.634-1.535z" class="cls-4" data-name="Path 685" transform="translate(-168.029 .82)"/>
                <path id="Path_686" d="M15.68 184.539c-.3-.141-.545-.222-.767-.343a1.311 1.311 0 0 1-.363-.384c-.242-.5-.464-1.029-.686-1.554a291.244 291.244 0 0 1-1.8-4.2c-.121-.262-.161-.565-.262-.848-.04-.081-.141-.141-.2-.222-.04.02-.384-.525-.424-.5a38.748 38.748 0 0 1-.061 4.4c-.081 0-.161-.182-.242-.283-.02-.02 0-.061-.02-.1l-.061-1.9-.182-3.331c-.02-.363.02-.706-.02-1.07-.1-1.009-.242-2.019-.363-3.028 0-.04-.02-.061-.02-.1a21.1 21.1 0 0 0-.565-3.533c-.081-.424-.081-.868-.141-1.292-.121-.868-.283-1.736-.4-2.6-.121-.727-.222-1.453-.363-2.18-.121-.686-.283-1.393-.4-2.079a16.15 16.15 0 0 1-.161-.989.5.5 0 0 0-.525-.5c-.525-.04-1.05-.1-1.554-.121-.424-.02-.828.02-1.252.02a3.259 3.259 0 0 1-1.09-.04c-.262-.1-.444-.444-.626-.707a12.331 12.331 0 0 1-1.352-3.189c-.222-.585-.323-1.231-.5-1.837a15.987 15.987 0 0 1-.525-1.575 36.53 36.53 0 0 1-.525-3.25 9.482 9.482 0 0 1-.02-2.14c.1-.908.343-1.8.525-2.7a10.522 10.522 0 0 1 .2-1.151 7.712 7.712 0 0 1 .626-1.373c.363-.646.727-1.292 1.151-1.9a18.01 18.01 0 0 1 1.292-1.494c.262-.283.565-.5.828-.787a11.893 11.893 0 0 0 1.09-1.171 16.681 16.681 0 0 0 1.278-1.847 9.788 9.788 0 0 0 .585-1.514.288.288 0 0 0-.121-.242 2.2 2.2 0 0 0-.626-.061c-.585 0-1.151.061-1.736.04-.464-.02-.949-.141-1.413-.2-.222-.04-.444-.04-.666-.081a10.157 10.157 0 0 1-1.13-.182 11.65 11.65 0 0 1-1.171-.444.359.359 0 0 1-.161-.222 5.913 5.913 0 0 1-.04-2.786c.1-.464.161-.929.283-1.393a8.357 8.357 0 0 1 .384-.989 22.267 22.267 0 0 1 .888-2.382c.384-.807.888-1.575 1.352-2.342.424-.707.848-1.433 1.312-2.12s.969-1.332 1.494-1.978a5.091 5.091 0 0 1 .989-1.09A7.054 7.054 0 0 1 9 113.908c.727-.283 1.474-.525 2.2-.767a1.143 1.143 0 0 1 .363-.061 4.972 4.972 0 0 1 .525.04 1.107 1.107 0 0 0-.161-.848c-.222-.4-.343-.848-.525-1.272-.262-.666-.545-1.312-.787-1.978a2.015 2.015 0 0 1-.161-.828c.02-.182.242-.384.424-.5.04-.04.323.162.4.3.141.3.222.666.343.969.3.747.626 1.474.949 2.2a10.524 10.524 0 0 1 .484 1.09c.081.242.04.525.1.787a6.625 6.625 0 0 0 1.171 2.281c.121.182.242.384.363.545.464.626.949 1.252 1.413 1.877.363.484.707.969 1.11 1.514a1.018 1.018 0 0 0 .2-.343c.283-1.453.606-2.907.828-4.38a17.393 17.393 0 0 0 .141-2.3 3.2 3.2 0 0 0-.121-.747.224.224 0 0 0-.2-.1c-.5.161-.989.343-1.494.5a4.881 4.881 0 0 1-.727.2.451.451 0 0 1-.525-.2 6.656 6.656 0 0 1-1.11-2.241 64.999 64.999 0 0 1-.5-2.12 4.7 4.7 0 0 1-.081-.767l-.061-.727c-.02-.262.02-.384.3-.747.606.384 1.373.565 1.837 1.191a1.553 1.553 0 0 0 .5.323c.626.363 1.272.706 1.9 1.05a.392.392 0 0 0 .323.061c.061-.02.1-.182.1-.3.081-1.191.121-2.362.2-3.553a.551.551 0 0 1 .3-.363.526.526 0 0 1 .363.262 8.116 8.116 0 0 1 .061 1.211c0 .646-.04 1.272-.02 1.918 0 .424.1.868.121 1.292s-.242.686-.646.585a10.737 10.737 0 0 1-1.332-.525c-.242-.1-.5-.222-.747-.343-.363-.2-.707-.444-1.07-.666a2.035 2.035 0 0 0-.464-.242c-.141-.061-.384.2-.384.4a5.027 5.027 0 0 0 .707 3.048c.04.061.04.121.081.161.141.222.283.363.585.262.707-.222 1.413-.4 2.12-.585a.491.491 0 0 1 .585.262 2.748 2.748 0 0 1 .323 1.958 4.606 4.606 0 0 0 0 .747 6.989 6.989 0 0 1 2.241 1.171 6.065 6.065 0 0 1 1.453 2.221c.242.706.565 1.393.848 2.079.182.464.343.929.5 1.373q.212.575.484 1.151a.364.364 0 0 0 .323.121c.3-.061.585-.182.888-.262a16.347 16.347 0 0 1-.2-1.009 1.977 1.977 0 0 1 .807-2.079 4.437 4.437 0 0 1 2.079-.828c1.09-.222 2.16-.464 3.25-.626.908-.141 1.837-.222 2.745-.343.3-.04.585-.141.888-.182.848-.141 1.7-.262 2.543-.384.807-.121 1.635-.283 2.443-.363a4.467 4.467 0 0 1 2.665.283 1.839 1.839 0 0 1 .787.929 11.947 11.947 0 0 1 .545 1.635c.384 1.272.727 2.564 1.11 3.835.262.908.626 1.8.848 2.7a4.706 4.706 0 0 1 .2 2.3A1.237 1.237 0 0 1 46 128.18a12.641 12.641 0 0 1-2.806.787c-.525.081-1.05.2-1.575.323-.081.02-.161.182-.2.283a3.489 3.489 0 0 1-.323.606c.061-1.05.4-2.1-.3-3.028h-.1c-.1.444-.161.908-.3 1.352a10.182 10.182 0 0 1-.626 1.534c-.081.161-.343.222-.525.323l-.081-.081a1.157 1.157 0 0 1 .081-.283c.222-.626.464-1.231.686-1.857.081-.242.121-.484.2-.727.242-.646.061-.929-.464-1.252-.1.242-.2.464-.323.707-.262.585-.545 1.151-.807 1.736-.161.363-.3.747-.484 1.09a3.326 3.326 0 0 1-.444.484c-.182.222-.323.444-.525.666a1.084 1.084 0 0 1-.323.2c-.02-.1-.04-.2-.061-.283a.287.287 0 0 0-.04-.121.914.914 0 0 1-.141-1.05 7.914 7.914 0 0 0 .424-1.938 5.455 5.455 0 0 0-.283-1.433.739.739 0 0 0-.4.727c-.04.828 0 1.655-.1 2.463-.061.464-.1.969-.787 1.151a2.232 2.232 0 0 0-1.231 1.171c.727 0 1.413.424 2.14-.02.02.04.02.081.04.1a4.226 4.226 0 0 1-.565.484c-.343.2-.606.525-1.05.565a2.97 2.97 0 0 1-2.4-.343c-.283-.222-.646-.343-.727-.767-.02-.061-.222-.1-.343-.081a2.35 2.35 0 0 1-1.877-.242c-.384.182-.747.363-1.11.545-.3.161-.585.363-.908.5a5.434 5.434 0 0 1-1.776.5 2.465 2.465 0 0 1-.525.121 4.07 4.07 0 0 1-1.635.081 1.553 1.553 0 0 1-.545-.283 5.878 5.878 0 0 1-.888-.989.583.583 0 0 1 .141-.929c.061-.04.081-.121.161-.222.3.3.626.585.908.888a2.3 2.3 0 0 0 2.5.727 6.317 6.317 0 0 0 2.3-.908c.222-.182.5-.323.747-.484 0-.04.02-.081.02-.121a1.447 1.447 0 0 0-.444-.2.8.8 0 0 1-.585-.424 9.131 9.131 0 0 0-.787-1.171 5.764 5.764 0 0 0-.666-.585.943.943 0 0 1 .787-.707c.363-.121.444-.363.323-.747a21.51 21.51 0 0 1-.444-1.534 11.509 11.509 0 0 1-.121-1.171 1.72 1.72 0 0 0-.081-.464c-.02-.061-.121-.1-.262-.2a3.861 3.861 0 0 1 .081.424 2.992 2.992 0 0 1-.222-.283l-1.393.424c-.182.061-.182.161-.081.3a6.411 6.411 0 0 1 .545.747 1.111 1.111 0 0 1-.141 1.211 7.1 7.1 0 0 1-1.655 1.9 1.226 1.226 0 0 1-.363.182.2.2 0 0 1-.2-.1.26.26 0 0 1 .02-.242c.5-.666 1.009-1.332 1.534-1.978a.247.247 0 0 0 0-.384 37.285 37.285 0 0 1-1.11-1.413 3.453 3.453 0 0 1-.262-.464c-.061-.162.242-.545.424-.525.182.04.424-.061.545.161a.216.216 0 0 0 .121.04 9.631 9.631 0 0 0 1.09-.3c.807-.3 1.635-.626 2.422-.969a13.444 13.444 0 0 0 1.231-.707 2.613 2.613 0 0 0-1.575 0c-.666.141-1.312.343-1.978.5a.53.53 0 0 0-.3.141c-.222.262-.464.2-.747.081a.435.435 0 0 0-.222-.04c-.525.182-1.05.363-1.575.585a14.357 14.357 0 0 0-1.615.686 8.278 8.278 0 0 0-1.151.929c-.686.585-1.11 1.413-1.817 2a8.431 8.431 0 0 1-1.393 1.009c-.161.081-.343.141-.525.222a.647.647 0 0 0-.424.787 2.918 2.918 0 0 0 .081.585.717.717 0 0 0 .222.323c.161.141.242.283.061.444-.2.182-.283.484-.626.5-.04 0-.081.081-.121.121-.182-.283-.464-.262-.767-.222-.262.04-.525.061-.787.1-.283.04-.585.1-.868.141l-1.029.135c-.262.04-.5.1-.767.141a8.544 8.544 0 0 1-1.009.1c-.4 0-.828-.081-1.171-.1q-.242.939-.484 1.817a1.851 1.851 0 0 1-.262.424c-.182.343-.4.666-.545 1.009a7.016 7.016 0 0 1-1.857 2.422c-.464.464-.868.989-1.312 1.474-.3.343-.606.707-.929 1.05a4.279 4.279 0 0 0-.747 1.231c-.2.444-.424.888-.585 1.352a12.874 12.874 0 0 0-.384 1.453c-.121.565-.2 1.11-.3 1.675a3.27 3.27 0 0 0-.02.444v.384c0 .3-.02.606 0 .908 0 .283.04.585.061.868.04.323.081.626.121.949.1.585.182 1.191.283 1.776.04.2.182.363.222.565.182.606.343 1.211.525 1.817.141.5.283 1.009.464 1.494.2.585.4 1.191.646 1.776a2.8 2.8 0 0 0 .4.666c.081.081.262.081.424.1.464.061.929.121 1.393.141 1.453.061 2.887.081 4.34.141.767.02 1.534.081 2.3.121.444.02.888.141 1.332.121.868-.04 1.736-.161 2.6-.242.484-.04.969-.081 1.453-.141.4-.04.807-.121 1.211-.2.707-.141 1.393-.3 2.1-.464a.361.361 0 0 0 .2-.182c.121-.727.242-1.453.323-2.2.02-.222-.061-.444-.061-.686.02-.444.121-.868.121-1.292 0-.666-.04-1.352-.081-2.019-.02-.363-.061-.727-.1-1.07-.121-.787-.283-1.575-.4-2.362-.081-.484-.1-.969-.222-1.433-.141-.565-.424-1.11-.565-1.675a41.455 41.455 0 0 0-1.918-5.067 21.873 21.873 0 0 1-.626-1.938 1.058 1.058 0 0 1 .081-.606 77.08 77.08 0 0 1 .989-2.261 17.073 17.073 0 0 1 .868-1.716 2.929 2.929 0 0 1 .585-.646c.121-.121.384.061.343.242a3.325 3.325 0 0 1-.283 1.191 7.128 7.128 0 0 0-.484 1.393c-.1.3-.2.606-.323.908a2 2 0 0 0-.1 1.373c.121.343.161.707.262 1.029.343 1.029.727 2.039 1.07 3.068.242.686.444 1.393.666 2.1.242.787.484 1.575.686 2.362.1.424.081.868.141 1.312.081.5.2.989.262 1.494a5.931 5.931 0 0 1 .1 1.332c-.04.606-.02 1.231-.061 1.837-.04.707-.121 1.413-.182 2.12l-.121 1.332a9.37 9.37 0 0 1-.222 1.312c-.081.262-.02.444.2.525.3.121.343.363.424.606a1.306 1.306 0 0 0-.283 0c-.525.161-1.029.343-1.554.484-.384.1-.767.2-1.171.283-.484.1-.5.161-.565.686a13.156 13.156 0 0 1-.323 2.019c-.182.767-.464 1.534-.707 2.3-.182.585-.384 1.191-.545 1.8-.222.888-.4 1.776-.626 2.665-.081.384-.2.767-.3 1.151-.081.343-.161.707-.222 1.05-.161 1.05-.343 2.1-.484 3.149a5.167 5.167 0 0 0 .1 1.11c0 .1.04.2.04.283a.91.91 0 0 0 .464.848 3.517 3.517 0 0 1 1.151.969c.424.747.929 1.453 1.393 2.18a1.158 1.158 0 0 0 .222.222c.182.141.363.3.545.424a8.876 8.876 0 0 1 .908.606c.565.484 1.11.989 1.635 1.494a6.931 6.931 0 0 1 .868 1.009 2.9 2.9 0 0 1 .323.666.32.32 0 0 1-.1.242c-.04.02-.161-.04-.222-.081a16.437 16.437 0 0 0-3.391-2.745 15.521 15.521 0 0 1-2.039-1.352 6.1 6.1 0 0 1-1.615-2.1 1.79 1.79 0 0 0-.161-.343c-.02.343-.061.686-.081 1.029-.04.363-.121 4.179-.323 4.138-.1-.02-.182-.242-.2-.384-.04-1.191-.061-2.4-.061-3.593 0-.464.061-.929.061-1.373 0-.4-.1-.828-.121-1.231-.04-.545-.04-1.07-.061-1.615 0-.1.061-.2.061-.3-.02-.585-.081-1.151-.1-1.716-.02-.646-.02-1.272-.02-1.918 0-.323-.04-.626-.061-.949l-.061-1.474c-.02-.606-.061-1.231-.061-1.837-.02-.767 0-1.534-.02-2.3-.02-.464-.061-.949-.1-1.413a4.85 4.85 0 0 1-.061-.565c-.02-.484 0-.969 0-1.453 0-.262-.04-.484-.424-.484-.464 0-.929-.1-1.393-.1-.262 0-.343.242-.363.444-.1.666-.182 1.312-.262 1.978-.1.747-.2 1.514-.323 2.261-.081.444-.222.888-.323 1.352l-.061.242c-.02.727-.02 1.474-.081 2.2-.061.606-.222 1.191-.262 1.776-.061.787-.081 1.575-.121 2.382a7.758 7.758 0 0 0 0 .969c.1.888.2 1.776.3 2.644.04.3.081.606.1.908.02.444.4.606.666.848a2.144 2.144 0 0 1 .727.908c.061.161.222.283.323.444a7.175 7.175 0 0 1 .565 2.241 7.083 7.083 0 0 0 .4 2.241c.283.787.5 1.595.767 2.382a2.51 2.51 0 0 1 .338.483zm8.357-62.759c-.04-.1-.061-.2-.1-.3-.3-.626-.606-1.252-.888-1.877a32.779 32.779 0 0 0-1.433-3.351 2.971 2.971 0 0 0-1.373-1.352 3.77 3.77 0 0 1-.626-.343c-.2-.121-.545 0-.565.182-.1.464-.182.949-.3 1.413-.141.545-.323 1.09-.464 1.635-.141.5-.3 1.009-.444 1.514a.584.584 0 0 0 0 .323c.182.384.4.767.606 1.151a.4.4 0 0 1-.02.3.577.577 0 0 1-.868 0c-.242-.283-.464-.545-.707-.828-.525-.626-1.029-1.272-1.534-1.9-.444-.565-.908-1.13-1.312-1.736-.525-.787-1.009-1.595-1.514-2.4-.1-.141-.061-.384-.343-.384a2.666 2.666 0 0 0-.565-.04 8.457 8.457 0 0 0-.929.323c-.222.081-.444.182-.666.242a5.973 5.973 0 0 0-2.1.848 6.273 6.273 0 0 0-1.332 1.575 35.028 35.028 0 0 0-1.272 1.736 31.545 31.545 0 0 0-1.07 1.776 7.758 7.758 0 0 1-.666 1.211 9.775 9.775 0 0 0-1.171 2.564 12.885 12.885 0 0 0-.525 1.776 6.233 6.233 0 0 0-.182 1.07 7.8 7.8 0 0 0 .04 1.534c.04.323.02.747.4.929a5.6 5.6 0 0 0 1.151.424 12.435 12.435 0 0 0 1.252.2 3.539 3.539 0 0 0 1.292.1 8.5 8.5 0 0 1 1.9.04 6.561 6.561 0 0 1 .888.061 19.286 19.286 0 0 0 2.4.1c1.11-.061 2.22-.242 3.331-.384.182-.02.484-.1.5-.2a4.178 4.178 0 0 0 .081-1.009c0-.384-.04-.767-.04-1.151a6.22 6.22 0 0 1 .081-.767c-.525.081-.989.161-1.453.242a3.263 3.263 0 0 1-1.07.1 2.847 2.847 0 0 0-1.312.182 5.991 5.991 0 0 1-.868.141c-.283.02-.545-.04-.828-.04-.343 0-.666 0-1.009-.02-.182-.02-.363-.1-.565-.121a7.885 7.885 0 0 1-2.16-.323.706.706 0 0 1-.585-.767 2.729 2.729 0 0 1 .1-.585 12.179 12.179 0 0 1 .989-2.584 13.807 13.807 0 0 1 .828-1.635 8.2 8.2 0 0 1 1.393-2.12c.061-.061.061-.222.1-.4a.713.713 0 0 0 .283-.141.263.263 0 0 1 .444.1.908.908 0 0 1-.02.565c-.04.161-.182.3-.242.484-.2.767-.4 1.534-.565 2.3a2.9 2.9 0 0 0-.081.929c.061.707.2 1.413.242 2.12a3.024 3.024 0 0 0 .262 1.332h1.517c.061 0 .121-.02.182-.02a6.342 6.342 0 0 1 1.857-.242 6.033 6.033 0 0 0 1.311-.182c.525-.081 1.07-.161 1.595-.262a.542.542 0 0 1 .666.464 1.222 1.222 0 0 1 0 .384c-.04.262.04.343.3.262a4.024 4.024 0 0 0 1.877-1.433 11.6 11.6 0 0 1 1.877-1.978 10.789 10.789 0 0 1 4.022-1.756zm17.5 6.783c.384-.061.747-.1 1.09-.161l1.575-.3c.5-.1 1.029-.2 1.534-.323a.5.5 0 0 0 .384-.646c-.141-.525-.283-1.029-.424-1.554-.242-.888-.464-1.776-.707-2.644-.222-.767-.464-1.514-.666-2.261-.323-1.171-.585-2.362-.929-3.533a1.475 1.475 0 0 0-1.151-1.11 2.331 2.331 0 0 0-.989-.081 10.689 10.689 0 0 1-1.615.182 7.384 7.384 0 0 0-1.13.2c-.384.081-.787.02-1.171.1a13.088 13.088 0 0 0-2.321.444c-.161.061-.384-.02-.585 0-.807.081-1.595.384-2.422.424a10.155 10.155 0 0 0-1.312.283c-.283.061-.585.02-.868.081-.585.121-1.171.283-1.756.424a1.921 1.921 0 0 0-1.554 1.191 4.153 4.153 0 0 0-.121 1.413c.02.4.161.444.545.363a8.492 8.492 0 0 1 2.261-.182.6.6 0 0 1 .545.767c-.182.646-.767.848-1.252 1.171-.283.182-.585.323-.868.484a.21.21 0 0 0-.081.162 7.147 7.147 0 0 0 .04.929c.1.707.222 1.433.363 2.14.1.484.262.949.363 1.413a3.621 3.621 0 0 0 .989 2.261 1.784 1.784 0 0 0 1.413.626 10.178 10.178 0 0 0 1.13-.141c1.009-.222 2.019-.484 3.028-.727a.452.452 0 0 0 .363-.545c-.02-.384 0-.787 0-1.171a3.143 3.143 0 0 1 .525-2.019c.444-.626.666-.787 1.413-.585a.566.566 0 0 1 .444.565c.04.444.1.908.161 1.352.02 0 .061.02.081.02a2.016 2.016 0 0 0 .161-.283c.141-.283.283-.565.424-.828.121-.222.222-.444.343-.666.061-.1.121-.222.2-.242a1.411 1.411 0 0 1 1.595.727.7.7 0 0 0 .161.182 1.281 1.281 0 0 1 .767 1.252c.025.283.025.543.025.846zm-25.454 40.615h.081c.141-.767.242-1.514.424-2.261.242-1.05.525-2.079.807-3.109.121-.464.323-.908.464-1.373.182-.606.323-1.211.484-1.817.121-.525.262-1.05.363-1.595a6.276 6.276 0 0 0 .121-.888c.02-.2.04-.424.061-.686-.767.061-1.453.121-2.14.182a2.378 2.378 0 0 0-.545.121.263.263 0 0 0-.182.2 14.346 14.346 0 0 0-.1 2.079 13.394 13.394 0 0 1 .1 1.554c-.02.868-.02 1.736.02 2.584a12.8 12.8 0 0 1 .121 2.16 21.119 21.119 0 0 0-.02 2.261c-.018.184-.042.386-.059.588zm-3.9-11.264c-.666-.04-1.252-.081-1.837-.1a1.528 1.528 0 0 1-.3.02c-.5-.081-.666.04-.646.565.02.5.081.989.121 1.494.02.262.04.525.081.787.081.666.161 1.352.242 2.019.061.424.121.848.182 1.292.141.908.262 1.817.4 2.725.081.585.182 1.171.283 1.756h.141a3.925 3.925 0 0 0 .1-.4 5.369 5.369 0 0 1 .061-.565c.081-.585.2-1.171.262-1.756.061-.525.04-1.05.081-1.575.02-.283.061-.545.1-.828.081-.585.141-1.151.222-1.736.061-.384.1-.767.161-1.171.108-.811.209-1.641.35-2.527z" class="cls-4" data-name="Path 686" transform="translate(-.145 -82.595)"/>
                <path id="Path_687" d="M38.314 44.449c-.1.081-.242.141-.3.262-.3.545-.585 1.09-.848 1.655a9.171 9.171 0 0 0-.525 1.413 107.437 107.437 0 0 0-.949 4.239c-.121.666-.141 1.352-.2 2.039-.081.949-.2 1.9-.242 2.846a20.763 20.763 0 0 0 .061 2.241c0 .1.141.2.242.283a.448.448 0 0 1 .141.626c-.182.2-.343.182-.606-.02a.966.966 0 0 1-.363-.828c-.02-.5-.121-.989-.121-1.494 0-.727.061-1.474.1-2.2.02-.343.04-.686.081-1.029.121-1.029.222-2.039.384-3.048a28.53 28.53 0 0 1 .525-2.866 16.365 16.365 0 0 1 1.877-4.461c.4-.666.828-1.312 1.292-1.958a2.332 2.332 0 0 1 .727-.606c.081-.061.3.081.444.161.161.121.04.222-.061.323-.262.262.121.323.161.5a13.926 13.926 0 0 0-.646 1.352c-.2.525-.343 1.07-.5 1.615-.061.2-.141.4-.182.606a215.802 215.802 0 0 0-.767 3.472 39.49 39.49 0 0 0-.424 2.14c-.121.787-.2 1.575-.3 2.362-.081.686-.182 1.373-.222 2.059a8.268 8.268 0 0 0 .04 1.413 9.946 9.946 0 0 0 .141 1.332 11.422 11.422 0 0 0 .262 1.13 1.151 1.151 0 0 1 .02.262c-.081 0-.222.02-.242-.04a2.605 2.605 0 0 1-.525-.828 7.47 7.47 0 0 1-.262-1.494 7.209 7.209 0 0 1-.061-1.474c.081-1.029.2-2.079.3-3.109.1-.868.2-1.756.323-2.624.081-.626.2-1.231.323-1.837.182-.929.363-1.857.585-2.786.121-.525.283-1.05.424-1.575a.139.139 0 0 1-.107-.054z" class="cls-4" data-name="Path 687" transform="translate(-27.645 -32.979)"/>
                <path id="Path_688" d="M18.754 29.672a2.342 2.342 0 0 0-.424.328c-.606.727-1.211 1.453-1.756 2.241-.525.747-.949 1.554-1.433 2.342a8.606 8.606 0 0 0-1.05 2.6c-.1.444-.283.848-.4 1.292-.182.727-.363 1.453-.484 2.2a14.687 14.687 0 0 0-.141 1.877c-.02.565.081 1.13.04 1.7a3.225 3.225 0 0 0 .686 2.079 1.429 1.429 0 0 1 .1.525.249.249 0 0 1-.1.161c-.182-.04-.444-.061-.545-.182a2.464 2.464 0 0 1-.484-1.009c-.161-.828-.222-1.675-.343-2.523a8.944 8.944 0 0 1 .3-3.189c.283-1.171.626-2.321.949-3.472a2.453 2.453 0 0 1 .444-.888c.141-.161.141-.4.242-.606.5-.908 1.009-1.8 1.534-2.685a25.85 25.85 0 0 1 1.11-1.7 14.143 14.143 0 0 1 .969-1.211c.424-.484.828-.969 1.292-1.413.283-.283.686-.444.969-.727.242-.242.565-.222.828-.343.081-.04.242.081.343.161.04.04 0 .182-.04.262a.363.363 0 0 1-.121.182c-.707.363-1.029 1.07-1.494 1.635a23.06 23.06 0 0 0-1.312 1.817 24.112 24.112 0 0 0-1.05 1.857c-.464.888-.929 1.776-1.373 2.7a6.658 6.658 0 0 0-.323 1.13c-.161.585-.384 1.171-.5 1.776a25.994 25.994 0 0 0-.444 2.5c-.061.606-.02 1.211-.02 1.837 0 .121-.061.222-.061.343a16.171 16.171 0 0 0 .182 2.2 6.911 6.911 0 0 0 .585 1.514c.061.121.242.2.363.3.061.061.161.141.161.2a.292.292 0 0 1-.161.182.955.955 0 0 1-.5-.2 4.278 4.278 0 0 1-1.05-2.362 14.131 14.131 0 0 1-.121-1.595 20 20 0 0 1 0-2.2 14.978 14.978 0 0 1 .686-3.654c.182-.545.283-1.11.5-1.635a21.822 21.822 0 0 1 1.151-2.4c.626-1.11 1.312-2.2 1.978-3.29a9.6 9.6 0 0 1 .384-.585.279.279 0 0 0-.066-.072z" class="cls-4" data-name="Path 688" transform="translate(-9.901 -21.432)"/>
                <path id="Path_689" d="M73.213 35a10.576 10.576 0 0 1 .04 1.13c-.02.525-.081 1.05-.121 1.595v.222a.384.384 0 0 1-.363.4c-.262-.02-.283-.2-.283-.384A14.721 14.721 0 0 0 72.244 35a8.67 8.67 0 0 0-.545-1.736.949.949 0 0 1 .04-.525c.04-.121.161-.2.283-.343a4.784 4.784 0 0 1 .707.384 1.3 1.3 0 0 0 .606.222 2.327 2.327 0 0 1 1.675 1.13 9.292 9.292 0 0 1 1.211 3.553 1.282 1.282 0 0 1 .1.464.7.7 0 0 1-.2.4c-.161.1-.283-.04-.323-.182-.081-.222-.141-.464-.2-.686a66.51 66.51 0 0 0-.646-1.9.288.288 0 0 0-.2-.161 2.434 2.434 0 0 0 0 .384 7.191 7.191 0 0 1-.081 2.18.35.35 0 0 1-.444.3c-.222-.04-.283-.242-.262-.484a5.729 5.729 0 0 0-.4-2.725 3.369 3.369 0 0 0-.242-.323c-.05.012-.07.032-.11.048z" class="cls-4" data-name="Path 689" transform="translate(-57.234 -25.694)"/>
                <path id="Path_690" d="M87.277 34.977a2.48 2.48 0 0 1 1.877.585 4.744 4.744 0 0 1 2.019 2.725 8.179 8.179 0 0 1 .343 2.321c-.02.686.081 1.393.04 2.079-.04.888-.222 1.756-.222 2.624a12.822 12.822 0 0 1-.283 2.483 6.845 6.845 0 0 1-.3.908c-.182.5-.343 1.009-.525 1.514-.121.283-.283.565-.424.848a.441.441 0 0 1-.1.061c-.02-.04-.04-.1-.061-.141-.141-.343.121-.585.2-.848.182-.585.444-1.151.585-1.736a14.131 14.131 0 0 0 .222-1.857c.061-.686.121-1.373.161-2.059.02-.262 0-.525.02-.787a10.263 10.263 0 0 0 .04-1.575 15.493 15.493 0 0 0-.343-2.362 8.521 8.521 0 0 0-.746-1.96 3.99 3.99 0 0 0-1.938-1.837 3.69 3.69 0 0 1-.565-.283c-.161-.121-.343-.262-.061-.464a1.41 1.41 0 0 1 .061-.239z" class="cls-4" data-name="Path 690" transform="translate(-69.522 -27.726)"/>
                <path id="Path_691" d="M86.59 65.2c.242.4.444.787.666 1.171.444.767.868 1.554 1.312 2.321.283.484.626.949.949 1.413.262.384.222.565-.161.828a13.313 13.313 0 0 1-2.665 1.373 1.918 1.918 0 0 1-.424.061.712.712 0 0 1 .1-.242c.626-.484 1.252-.969 1.9-1.433.283-.2.3-.3.121-.585-.464-.747-.949-1.453-1.393-2.22-.283-.5-.5-1.029-.747-1.554-.02-.04-.02-.081-.04-.121-.244-.548-.244-.612.382-1.012z" class="cls-4" data-name="Path 691" transform="translate(-68.714 -51.873)"/>
                <path id="Path_692" d="M100.3 85.425a3.67 3.67 0 0 1 .323-.626 5.984 5.984 0 0 0 1.07-2.261c.242-.848.5-1.7.747-2.543.262-.949.525-1.9.727-2.866a10.639 10.639 0 0 0 .081-1.151 3.257 3.257 0 0 1 .2-.727c.04-.081.2-.182.262-.162a.333.333 0 0 1 .222.242 9.252 9.252 0 0 1-.04 1.675c-.161.848-.424 1.655-.666 2.483-.283.929-.626 1.857-.929 2.786a8.47 8.47 0 0 1-1.11 2.463 5.011 5.011 0 0 1-.5.606 1.442 1.442 0 0 1-.3.161.158.158 0 0 1-.087-.08z" class="cls-4" data-name="Path 692" transform="translate(-80.083 -59.764)"/>
                <path id="Path_693" d="M303.28 207.409c.04.1.061.222-.121.363a3.482 3.482 0 0 1-1.655.646c-.2.02-.4.182-.606.222a5.4 5.4 0 0 1-2.2.141 1.328 1.328 0 0 1-1.151-1.292c-.081-.565-.2-1.151-.3-1.716a7.56 7.56 0 0 1-.081-.666c-.061-.383.182-.606.484-.807.04.484.061.908.1 1.352a2.633 2.633 0 0 0 .5 1.534 1.14 1.14 0 0 0 .424.343 4.5 4.5 0 0 0 2.463.323 14.44 14.44 0 0 0 2.143-.443z" class="cls-4" data-name="Path 693" transform="translate(-237.199 -162.894)"/>
                <path id="Path_694" d="M65.7 36.36c.1-.1.2-.3.384-.4.141-.081.5.3.545.545.161.727.363 1.433.5 2.16.121.666.2 1.332.262 2.019a6.311 6.311 0 0 1 0 1.07c0 .081-.161.2-.182.2-.161-.081-.4-.182-.444-.323-.141-.525-.242-1.07-.343-1.595-.141-.727-.283-1.474-.424-2.2-.076-.466-.177-.91-.298-1.476z" class="cls-4" data-name="Path 694" transform="translate(-52.467 -28.524)"/>
                <path id="Path_695" d="M305.615 78.379c-.141.646-.162 1.231-.707 1.554a1.044 1.044 0 0 1-.444.04 2.445 2.445 0 0 1 0-.384c.1-.384.222-.767.323-1.151a.551.551 0 0 1 .121-.242c.1-.1.3-.262.343-.222a3.113 3.113 0 0 1 .364.405z" class="cls-4" data-name="Path 695" transform="translate(-243.027 -62.064)"/>
                <path id="Path_696" d="M77.882 75.991c-.1.1-.182.242-.283.283a.4.4 0 0 1-.343-.04 2.2 2.2 0 0 1-.464-.585c-.222-.444-.161-.686.222-.949.242-.161.424.1.484.242a7.1 7.1 0 0 1 .384 1.049z" class="cls-4" data-name="Path 696" transform="translate(-61.217 -59.414)"/>
                <path id="Path_697" d="M225.085 255.257c.161.283.384.565.545.888.363.706.686 1.433 1.029 2.16.161.343.343.686.525 1.029.1.2.182.343-.081.545a10.692 10.692 0 0 1-2.059 1.231 4.614 4.614 0 0 1-.747.242.346.346 0 0 1-.3-.121c-.3-.363-.585-.747-.888-1.11a7.766 7.766 0 0 0-.606-.545.91.91 0 0 1-.2-.283 3.148 3.148 0 0 1 .2-2.342 1.233 1.233 0 0 0 .2-.929c-.081-.2-.262-.323-.444-.182-.262.182-.5.4-.747.606a1.191 1.191 0 0 1-.283.121c-.04-.121-.141-.242-.121-.343.081-.444.222-.868.323-1.312a1.663 1.663 0 0 0 .081-.525.326.326 0 0 0-.606-.1c-.283.3-.565.626-.848.989a1 1 0 0 1-.04-.828 13.151 13.151 0 0 0 .363-1.272c.02-.04 0-.1 0-.162-.061-.484-.061-.464.424-.646.343-.141.666-.323 1.009-.464a4.559 4.559 0 0 1 .747-.222.31.31 0 0 1 .262.1 9.571 9.571 0 0 0 .626 1.09 1.168 1.168 0 0 1 .061 1.252 1.955 1.955 0 0 0 .02 1.433c.2.424.444.525.828.262.263-.178.464-.36.727-.562z" class="cls-5" data-name="Path 697" transform="translate(-175.577 -200.71)"/>
                <path id="Path_698" d="M282.825 372.638a.522.522 0 0 1-.02-.565 2.713 2.713 0 0 0 .162-.929c.081-.464.161-.929.242-1.373a12.778 12.778 0 0 0 .343-3.613 6.324 6.324 0 0 1 .081-.868c.02-.363 0-.727 0-1.11l.061-1.534c0-.141-.061-.262-.061-.4 0-.606.061-1.211.04-1.817 0-.444-.081-.888-.1-1.332-.04-.646-.081-1.312-.141-1.958-.04-.424-.121-.848-.141-1.252a3.978 3.978 0 0 1 .04-.848c.04-.2.444-.262.666-.1.464.323.908.646 1.373.969a1.443 1.443 0 0 0 .3.222c.343.121.4.323.3.686a3.125 3.125 0 0 0-.02.868 2.981 2.981 0 0 1-.061.384l-.061 1.352c-.04.949-.04 1.877-.141 2.826a37.39 37.39 0 0 1-.464 3.331 22.334 22.334 0 0 1-.606 2.281c-.222.747-.424 1.514-.686 2.261-.182.5-.464.989-.686 1.494a6.42 6.42 0 0 0-.2.666c-.038.076-.139.221-.22.359z" class="cls-2" data-name="Path 698" transform="translate(-225.687 -283.048)"/>
                <path id="Path_699" d="M312 388.857c.1-.323.2-.646.283-.989.081-.383.141-.767.222-1.151.081-.424.141-.848.222-1.272a12.157 12.157 0 0 0 .283-1.716c.04-.787-.02-1.575-.04-2.362-.02-.585-.1-1.171-.121-1.756-.02-.484.02-.949-.02-1.433-.04-.606-.141-1.191-.2-1.8-.081-.565-.182-1.13-.222-1.7a2.656 2.656 0 0 1 .141-.646.286.286 0 0 1 .121-.041c.828.606 1.675 1.211 2.483 1.837a.654.654 0 0 1 .141.525c-.121 1.05-.222 2.079-.4 3.109-.2 1.11-.484 2.221-.747 3.331s-.464 2.241-.787 3.351a18.087 18.087 0 0 1-.868 1.918c-.121.283-.242.565-.343.828-.088-.013-.128-.033-.148-.033z" class="cls-2" data-name="Path 699" transform="translate(-249.049 -298.338)"/>
                <path id="Path_700" d="M352.8 8.924c.424-.484.868-.949 1.231-1.453a6 6 0 0 1 1.151-1.11c.444-.363.929-.686 1.393-1.009a6.48 6.48 0 0 1 2.039-.868 2.264 2.264 0 0 1 .969-.081c.747.141.868.323 1.029 1.13-.323 0-.646.02-.969 0a3.934 3.934 0 0 0-1.877.484c-1.009.484-2 1.029-2.967 1.615-.686.4-1.312.908-1.958 1.373a.1.1 0 0 0-.041-.081z" class="cls-6" data-name="Path 700" transform="translate(-281.613 -3.329)"/>
                <path id="Path_701" d="M370.32 35.8c-.424-.121-.828-.242-1.252-.363-.565-.141-1.151-.242-1.716-.4a1.46 1.46 0 0 1-.464-.242c-.283-.182-.565-.384-.888-.606a3.577 3.577 0 0 1 2.7.121 4.393 4.393 0 0 1 1.62 1.49z" class="cls-2" data-name="Path 701" transform="translate(-292.148 -26.956)"/>
                <path id="Path_702" d="M370.674 14.892a12.29 12.29 0 0 0-5.834 1.675c-.02-.02-.02-.061-.04-.081.162-.121.323-.242.5-.363.383-.222.787-.464 1.191-.666a9.116 9.116 0 0 1 2.18-.807 3.112 3.112 0 0 1 1.554.02 3.038 3.038 0 0 1 .449.222z" class="cls-6" data-name="Path 702" transform="translate(-291.19 -11.457)"/>
                <path id="Path_703" d="M307.636 43.9l-1.655 1.534-.081-.081 1.615-1.554a.637.637 0 0 1 .121.101z" class="cls-6" data-name="Path 703" transform="translate(-244.18 -34.793)"/>
                <path id="Path_704" d="M29.915 161.649a11.335 11.335 0 0 0-4.037 1.756A13.427 13.427 0 0 0 24 165.383a4.126 4.126 0 0 1-1.877 1.433c-.262.1-.343.02-.3-.262a1.222 1.222 0 0 0 0-.384.551.551 0 0 0-.666-.464c-.525.1-1.05.182-1.595.262a7.588 7.588 0 0 1-1.312.182 6.341 6.341 0 0 0-1.857.242.559.559 0 0 1-.182.02h-1.516a3.338 3.338 0 0 1-.262-1.332c-.04-.706-.182-1.413-.242-2.12a3.615 3.615 0 0 1 .081-.929c.182-.767.363-1.534.565-2.3.04-.161.182-.3.242-.484a1.082 1.082 0 0 0 .02-.565.257.257 0 0 0-.444-.1 1.191 1.191 0 0 1-.283.141 1.282 1.282 0 0 1-.1.4 8.2 8.2 0 0 0-1.393 2.12 11.285 11.285 0 0 0-.828 1.635 12.89 12.89 0 0 0-.989 2.584c-.02.2-.081.4-.1.585a.71.71 0 0 0 .585.767 7.885 7.885 0 0 0 2.16.323c.182 0 .363.1.565.121.343.02.666 0 1.009.02.283 0 .545.061.828.04a6.474 6.474 0 0 0 .868-.141 2.924 2.924 0 0 1 1.311-.177 3.923 3.923 0 0 0 1.07-.1c.464-.061.929-.141 1.453-.242a5.849 5.849 0 0 0-.081.767c0 .384.04.767.04 1.151a4.178 4.178 0 0 1-.081 1.009c-.02.1-.323.182-.5.2-1.11.141-2.22.323-3.331.384-.787.04-1.595-.061-2.4-.1a6.784 6.784 0 0 0-.888-.061 9.866 9.866 0 0 0-1.9-.04 4.043 4.043 0 0 1-1.292-.1 12.448 12.448 0 0 1-1.252-.2 5.6 5.6 0 0 1-1.151-.424c-.384-.182-.343-.606-.4-.929a7.8 7.8 0 0 1-.04-1.534 6.234 6.234 0 0 1 .182-1.07 12.885 12.885 0 0 1 .525-1.776 9.833 9.833 0 0 1 1.171-2.564 9.878 9.878 0 0 0 .666-1.211c.343-.606.686-1.211 1.07-1.776.4-.606.828-1.171 1.272-1.736a5.881 5.881 0 0 1 1.332-1.575 5.616 5.616 0 0 1 2.1-.848 4.416 4.416 0 0 0 .666-.242c.3-.1.606-.242.929-.323a2.664 2.664 0 0 1 .565.04c.283 0 .242.242.343.384.484.807.969 1.615 1.514 2.4.4.606.868 1.171 1.312 1.736.5.646 1.029 1.272 1.534 1.9.222.283.464.545.707.828a.576.576 0 0 0 .868 0 .324.324 0 0 0 .02-.3c-.182-.384-.4-.767-.606-1.151a.445.445 0 0 1 0-.323c.141-.5.3-1.009.444-1.514.161-.545.343-1.09.464-1.635.121-.464.2-.949.3-1.413.04-.182.363-.283.565-.182a3.774 3.774 0 0 0 .626.343 2.881 2.881 0 0 1 1.373 1.352 32.777 32.777 0 0 1 1.433 3.351c.283.626.606 1.252.888 1.877a1.9 1.9 0 0 1 .117.296z" class="cls-2" data-name="Path 704" transform="translate(-6.024 -122.464)"/>
                <path id="Path_705" d="M145.347 176.884v-.848a1.318 1.318 0 0 0-.767-1.252.477.477 0 0 1-.162-.182 1.408 1.408 0 0 0-1.595-.727c-.081.02-.141.161-.2.242-.121.222-.242.444-.343.666-.141.283-.283.565-.424.828a2.021 2.021 0 0 1-.161.283c-.02 0-.061-.02-.081-.02a29.638 29.638 0 0 1-.161-1.352.566.566 0 0 0-.444-.565c-.747-.2-.969-.061-1.413.585a3.144 3.144 0 0 0-.525 2.019c.02.383-.02.787 0 1.171a.461.461 0 0 1-.363.545l-3.028.727c-.363.081-.747.081-1.13.141a1.784 1.784 0 0 1-1.413-.626 3.785 3.785 0 0 1-.989-2.261c-.1-.484-.283-.929-.363-1.413a39.83 39.83 0 0 1-.363-2.14 7 7 0 0 1-.04-.929.21.21 0 0 1 .081-.162c.283-.161.606-.3.868-.484.484-.323 1.07-.525 1.252-1.171a.608.608 0 0 0-.545-.767 9.419 9.419 0 0 0-2.261.182c-.384.081-.525.04-.545-.363a3.7 3.7 0 0 1 .121-1.413 1.921 1.921 0 0 1 1.554-1.191q.878-.242 1.756-.424c.283-.061.585-.04.868-.081.444-.081.868-.242 1.312-.283.828-.061 1.615-.343 2.422-.424.2-.02.424.061.585 0a13.088 13.088 0 0 1 2.321-.444c.384-.081.807 0 1.171-.1a6.591 6.591 0 0 1 1.13-.2 10.7 10.7 0 0 0 1.615-.182 2.029 2.029 0 0 1 .989.081 1.475 1.475 0 0 1 1.151 1.11c.323 1.171.606 2.362.929 3.533.2.767.464 1.514.666 2.261.242.888.484 1.756.707 2.644.141.525.283 1.029.424 1.554a.516.516 0 0 1-.384.646c-.5.121-1.029.222-1.534.323l-1.575.3c-.366.062-.73.103-1.113.163z" class="cls-7" data-name="Path 705" transform="translate(-103.954 -130.916)"/>
                <path id="Path_706" d="M78.345 381.728c.02-.2.04-.4.04-.585a21.117 21.117 0 0 1 .02-2.261 12.925 12.925 0 0 0-.121-2.16c-.04-.868-.04-1.736-.02-2.584 0-.525-.081-1.05-.1-1.554a18.15 18.15 0 0 1 .1-2.079.263.263 0 0 1 .182-.2 2.639 2.639 0 0 1 .545-.121c.686-.061 1.373-.121 2.14-.182a6.2 6.2 0 0 1-.061.686c-.04.3-.061.585-.121.888-.121.525-.242 1.07-.363 1.595-.141.606-.3 1.231-.484 1.817-.141.464-.323.908-.464 1.373a76.927 76.927 0 0 0-.807 3.109c-.182.747-.283 1.514-.424 2.261z" class="cls-2" data-name="Path 706" transform="translate(-62.407 -295.146)"/>
                <path id="Path_707" d="M48.7 371.884c-.121.908-.242 1.716-.363 2.523-.061.384-.121.767-.161 1.171-.081.585-.141 1.151-.222 1.736-.04.262-.081.545-.1.828-.04.525-.02 1.05-.081 1.574-.061.585-.182 1.171-.262 1.756a5.371 5.371 0 0 1-.061.565 2.359 2.359 0 0 1-.1.4h-.141c-.1-.585-.2-1.171-.283-1.756-.141-.908-.262-1.817-.4-2.725a203.38 203.38 0 0 1-.182-1.292c-.081-.666-.161-1.332-.242-2.019-.04-.262-.061-.525-.081-.787-.04-.5-.1-.989-.121-1.494-.02-.525.141-.646.646-.565.1.02.2-.04.3-.02.602.021 1.167.065 1.854.105z" class="cls-2" data-name="Path 707" transform="translate(-36.657 -296.566)"/>
            </g>
        </g>
    </g>
</svg>
