<svg xmlns="http://www.w3.org/2000/svg" viewBox="6991.5 -5254.5 177 149">
    <defs>
        <style>
            .cls-1{fill:none;opacity:.87}.cls-2,.cls-5{fill:#fff}.cls-2,.cls-3,.cls-4,.cls-6,.cls-7,.cls-8,.cls-9{fill-rule:evenodd}.cls-3{fill:#facbb7}.cls-4{fill:#549dd6}.cls-7{fill:#e73b28}.cls-8{fill:#b5d6b8}.cls-9{fill:#d1e5d3}.cls-10{filter:url(#_2018-02-14_16-40-58)}
        </style>
        <filter id="_2018-02-14_16-40-58" width="177" height="149" x="6991.5" y="-5254.5" filterUnits="userSpaceOnUse">
            <feOffset dy="1"/>
            <feGaussianBlur result="blur" stdDeviation="1.5"/>
            <feFlood flood-opacity=".369"/>
            <feComposite in2="blur" operator="in"/>
            <feComposite in="SourceGraphic"/>
        </filter>
    </defs>
    <g id="Illustration01" transform="translate(6988 -5579)">
        <g id="Group_858" class="cls-10" data-name="Group 858" transform="translate(-6988 5579)">
            <rect id="_2018-02-14_16-40-58-2" width="168" height="140" class="cls-1" data-name="2018-02-14_16-40-58" rx="2" transform="translate(6996 -5251)"/>
        </g>
        <g id="Group_1015" data-name="Group 1015" transform="translate(79.572 334.605)">
            <path id="Path_874" d="M132.253 44.775s-2.33-5.622-.845-6.67a55.18 55.18 0 0 1 5.068-2.855 38.488 38.488 0 0 1 6.233-2.388c1.282-.2 5.651-.262 6.728-.262h1.107l-4.136 1.019v1.631l6.963 1.75a2.334 2.334 0 0 1-1.893.583l-3.554-.437-.641 6.262a6.737 6.737 0 0 1 3.029-2.1 8.949 8.949 0 0 1 4.4.408 3.5 3.5 0 0 1 1.282 3.029 6.2 6.2 0 0 1-2.185 3.67c-.99.641-2.01 1.544-3.612 1.369-1.573-.175-1.893-1.165-1.573-.175.291.99-.7 12.2-.7 12.2l-10.748 2.214-3.408-8.243a6.85 6.85 0 0 0-2.5.32c-1.369.437-.845 1.165-3.029 1.4s-3.845 1.34-4.165-.029-2.3-.35-.728-2.651a17.7 17.7 0 0 1 4.02-4.631 52.027 52.027 0 0 0 4.887-5.414z" class="cls-2" data-name="Path 874" transform="translate(-87.202 -23.104)"/>
            <path id="Path_875" d="M193.292 85a2.8 2.8 0 1 1-2.8-2.8 2.8 2.8 0 0 1 2.8 2.8z" class="cls-3" data-name="Path 875" transform="translate(-133.24 -58.257)"/>
            <path id="Path_876" d="M240.4 206.4c0-3.437 3.35-6.2 7.486-6.2s7.486 2.8 7.486 6.2-3.35 6.2-7.486 6.2c-4.136.037-7.486-2.759-7.486-6.2z" class="cls-2" data-name="Path 876" transform="translate(-170.59 -141.887)"/>
            <path id="Path_877" d="M12.808 153.367a6 6 0 0 1-6.2 5.767 5.783 5.783 0 1 1 0-11.535 6.016 6.016 0 0 1 6.2 5.768z" class="cls-2" data-name="Path 877" transform="translate(-.496 -104.608)"/>
            <path id="Path_878" d="M108.778 337.264l-2.418-.291-.2-1.252s-7.4 1.922-9.175.786-4.427-.379-5.126-2.33c-.728-1.952-1.748-1.952-.35-2.476s5.563-.233 6.554.029c.99.233 5.913.641 6.321.961s-.9-2.651-.9-2.651l-.67-6.525-1.4-9.816 5.185 2.854s.583 3.233.058 4.078c-.524.816 1.893 11.913 2.039 12.554.111.584.082 4.079.082 4.079z" class="cls-4" data-name="Path 878" transform="translate(-64.571 -222.327)"/>
            <path id="Path_879" d="M149.708 308.3s1.369 4.253.728 4.631c-.612.379.67 7.34 1.282 9.525s2.5 4.4 2.738 6.466l.233 2.068-5.418 2.388s-4.631 2.447-5.738 2.971-1.6 1.165-1.544 1.952a1.979 1.979 0 0 0 2.185 2.155 18.117 18.117 0 0 0 5.738-.874c.524-.262 4.631-2.534 4.748-3.262s.67-.7.67-.7-1.34.612 0 .466 4.486.7 4.6-.117a4.289 4.289 0 0 0-.146-1.922c-.2-.786-3.088-12.583-3.088-12.583s-.786-6.2-.786-8.039.117-6.525.117-6.525z" class="cls-4" data-name="Path 879" transform="translate(-100.84 -217.507)"/>
            <g id="Group_1014" data-name="Group 1014" transform="translate(-.3)">
                <path id="Path_880" d="M55.326 96.418h-.087v.35c.058 1.078.146 2.155.2 3.233.029.437-.029.874.029 1.282.175 1.311.408 2.621.612 3.9.117.786.262 1.6.408 2.388.233 1.165.466 2.33.7 3.524.175.932.32 1.864.5 2.767l.35 1.66.35 2.185a.48.48 0 0 1-.408.583c-.612.087-1.194.175-1.806.262-.087 0-.2-.029-.233-.087-.146-.262-.262-.553-.437-.816-.087-.175-.291-.408-.379-.408a.884.884 0 0 0-.5.379c-.146.175-.175.466-.35.612a27.242 27.242 0 0 1-1.689 1.486 9.226 9.226 0 0 1-2.8 1.486c-.67.262-1.4.379-2.068.641a5.721 5.721 0 0 1-2.418.408h-.4a2.458 2.458 0 0 1-1.748-.291 1.275 1.275 0 0 1-.379-1.689 17.273 17.273 0 0 1 1.252-1.631 1.254 1.254 0 0 1 .437-.437 53.667 53.667 0 0 1 2.243-1.194c.233-.117.408-.291.641-.408a37.406 37.406 0 0 1 1.893-.845 1.641 1.641 0 0 1 .35-.117 2.937 2.937 0 0 0 .728-.146 9.427 9.427 0 0 1 2.3-.67 14.078 14.078 0 0 0 1.864-.641.724.724 0 0 0 .291-1.107 2.637 2.637 0 0 1-.379-.757 1.26 1.26 0 0 0-.437-.816c-.058-.029-.058-.146-.087-.2-.058-.2-.087-.437-.175-.67l-.524-1.573a4.037 4.037 0 0 0-.35-1.049c-.35-.583-.262-1.282-.7-1.835a.742.742 0 0 1-.175-.379 8.043 8.043 0 0 0-.5-2.621c-.175-.728-.291-1.456-.437-2.214-.117-.5-.233-.99-.32-1.486-.087-.466-.175-.9-.233-1.369-.058-.408-.058-.786-.087-1.194-.029-.379-.117-.728-.146-1.078a11.694 11.694 0 0 0-.058-1.427.909.909 0 0 1 .379-.845 3.437 3.437 0 0 0 .379-.524c.029-.029.029-.058.058-.087.583-.408 1.165-.816 1.719-1.282 1.136-.99 2.418-1.777 3.612-2.709a7.045 7.045 0 0 1 2.942-1.282 2.336 2.336 0 0 1 .99-.087 13.856 13.856 0 0 1 1.893.845c.641.35 1.252.728 1.893 1.107.757.466 1.573.845 2.3 1.369a26.086 26.086 0 0 0 2.738 1.631c.408.233.786.5 1.194.728.291.175.583.35.874.5.466.233.961.437 1.427.7.379.233.7.553 1.078.757.553.291 1.165.524 1.748.786.32.146.524-.029.67-.35a1 1 0 0 0-.117-1.194c-.029-.029-.029-.117-.029-.175a19.6 19.6 0 0 0-.379-2.621 26.942 26.942 0 0 1-.35-2.68c-.117-.845-.2-1.689-.32-2.5a17.382 17.382 0 0 1-.233-2.447 2.2 2.2 0 0 1 .2-1.107 15.27 15.27 0 0 0 1.515-3.466 5.075 5.075 0 0 1 .146-.641c.233-.612.524-1.223.757-1.835.32-.874.612-1.748.9-2.621.262-.728.5-1.456.757-2.214a9.6 9.6 0 0 1 .466-1.282 1.071 1.071 0 0 1 .728-.641 10.111 10.111 0 0 0 1.34-.379 2.983 2.983 0 0 1 .99-.291.743.743 0 0 0 .379-.175.242.242 0 0 0-.058-.233.71.71 0 0 0-.437-.146c-.99.233-1.952.5-2.942.757-.553.146-1.136.35-1.689.524a2.272 2.272 0 0 1-.641.117.538.538 0 0 1-.437-.9 7.509 7.509 0 0 1 1.194-.961c.641-.408 1.311-.7 1.981-1.078a5.466 5.466 0 0 1 2.243-.7c.32-.029.379-.233.2-.5a.382.382 0 0 0-.5-.146c-.641.2-1.311.379-1.952.583-.874.291-1.719.641-2.592.932a3.934 3.934 0 0 1-1.019.175.729.729 0 0 1-.7-.466.592.592 0 0 1 .146-.728 6.33 6.33 0 0 1 .874-.67c.641-.35 1.311-.67 1.952-.99a3.467 3.467 0 0 1 .437-.262 12.289 12.289 0 0 1 1.311-.524 12.327 12.327 0 0 1 1.835-.612.316.316 0 0 0 .233-.233.461.461 0 0 0-.524-.35c-.379.117-.757.2-1.107.35-1.194.5-2.359 1.019-3.554 1.486a4.309 4.309 0 0 1-1.049.291.62.62 0 0 1-.728-.262c-.117-.291.146-.524.35-.7a19.707 19.707 0 0 1 1.922-1.252 9.076 9.076 0 0 1 1.427-.67 9.334 9.334 0 0 1 1.981-.67 5.6 5.6 0 0 1 .932-.146c.32 0 .641.175.932.175.35 0 .466.2.553.466.087.2.2.408.408.379a1.068 1.068 0 0 0 .612-.262c.437-.5.786-1.049 1.194-1.573.379-.5.379-.641.029-1.194a2.408 2.408 0 0 1-.2-.379c-.233-.437-.408-.9-.67-1.311a19.555 19.555 0 0 0-2.563-3.058c-.553-.553-1.107-1.078-1.689-1.631.175-.524.32-1.078.5-1.631.117-.32.2-.67.32-.99.262-.67.524-1.34.757-2.039.175-.553.058-.786-.408-1.136a1.463 1.463 0 0 1-.35-.379 1.4 1.4 0 0 0-.262-.32c-.35-.262-.728-.5-1.078-.757-.437-.35-.845-.757-1.311-1.078a9.7 9.7 0 0 1-1.427-.845c-.583-.583-1.369-.845-1.981-1.369a9.567 9.567 0 0 0-.9-.583c-.233-.175-.437-.408-.67-.553-.932-.67-1.864-1.369-2.8-2.039-1.719-1.223-3.408-2.447-5.126-3.67a4.4 4.4 0 0 0-1.835-.932.739.739 0 0 0-.35.058c-.087.029-.146.087-.233.087-.32.087-.641.175-.99.262a8.482 8.482 0 0 1-.146-2.1c.117-.786.146-1.6.233-2.388.029-.5.058-.99.117-1.486.058-.524.146-1.019.175-1.544.029-.35.262-.845.5-.874a6.2 6.2 0 0 0 .728-.087 5.884 5.884 0 0 0 1.282-.291 18.242 18.242 0 0 0 1.6-.99c.262-.175.583-.262.757-.5a5.779 5.779 0 0 0 1.311-2.243 10.2 10.2 0 0 0 .175-2.1.218.218 0 0 0-.029-.146c-.408-.466-.553-1.049-1.019-1.515a4.135 4.135 0 0 0-3.029-1.019 5.66 5.66 0 0 0-2.825.961c-.233.146-.524.262-.845.437.058-1.66.087-3.233.117-4.748a9.173 9.173 0 0 0 3.437.262.966.966 0 0 0-.408-.291c-.67-.146-1.34-.262-2.01-.408-1.078-.262-2.155-.524-3.262-.757a1.463 1.463 0 0 0-.612.058c-.087.029-.146.175-.146.291 0 .058.117.175.2.2a6.6 6.6 0 0 0 .728.175.773.773 0 0 1 .7.7 10.8 10.8 0 0 1 .029 4.427 1.482 1.482 0 0 0 .175 1.165c.233.35.437.408.757.175a11.258 11.258 0 0 1 3.408-1.806 3.207 3.207 0 0 1 2.33.262 2.359 2.359 0 0 1 1.311 1.922 4.183 4.183 0 0 1-.641 2.709 4.689 4.689 0 0 1-1.952 1.573 8.667 8.667 0 0 1-1.515.612 2.738 2.738 0 0 1-1.981.117c-.291-.146-.408.117-.524.233-.058.058 0 .379.058.437.466.233.32.641.291.99-.058 1.078-.175 2.155-.262 3.233-.058.816-.146 1.6-.2 2.418-.058.67-.146 1.34-.2 2.039a2.151 2.151 0 0 0 .058.35c-.816.262-1.6.524-2.418.757-1.136.35-2.272.67-3.379 1.019-.99.32-1.952.641-2.942 1.019-.553.2-1.049.466-1.6.67a5.871 5.871 0 0 1-.67.2.306.306 0 0 1-.262-.146 16.36 16.36 0 0 1-.728-1.631 9.541 9.541 0 0 0-.67-1.719 22.888 22.888 0 0 1-1.194-2.738c-.058-.175-.262-.466.029-.641.2-.117.175-.233.087-.379s-.175-.262-.379-.146a3.139 3.139 0 0 1-.7.35c-.583.233-1.136.5-1.719.7a15.059 15.059 0 0 1-1.835.612 16.81 16.81 0 0 1-1.689.233 8.4 8.4 0 0 1-3.408.058 1.362 1.362 0 0 1-1.019-.728A1.758 1.758 0 0 1 37 31.609a10.148 10.148 0 0 1 .816-1.136 6.084 6.084 0 0 1 .583-.641c.757-.845 1.427-1.777 2.243-2.563.466-.437.874-.932 1.311-1.4.291-.32.583-.67.9-.99.524-.5 1.078-.99 1.6-1.486.612-.612 1.223-1.223 1.806-1.835a1.2 1.2 0 0 0 .2-.437.3.3 0 0 0-.117-.2c-.058-.029-.2-.029-.233.029-.437.408-.9.816-1.34 1.252-.5.5-.961 1.019-1.456 1.515-.583.553-1.223 1.078-1.777 1.66-.932.99-1.864 2.01-2.767 3.029-.32.35-.612.7-.9 1.078-.35.466-.67.99-1.019 1.456a4.733 4.733 0 0 0-.874 1.806 1.356 1.356 0 0 0 1.078 1.689c.437.087.845.175 1.282.233a12.144 12.144 0 0 0 1.456 0 12.506 12.506 0 0 1 1.456-.2c1.165.087 2.155-.524 3.262-.757a8.236 8.236 0 0 0 1.573-.67c.233-.087.437-.2.7-.291.612 1.4 1.252 2.825 1.893 4.282-.2.262-.35.291-.728.233a2.361 2.361 0 0 0-.641 0 10.7 10.7 0 0 1-2.534.408 8.673 8.673 0 0 0-1.486.2c-.5.058-.961.117-1.456.146-.408.029-.786 0-1.194 0a3.981 3.981 0 0 0-.553.058c-.466.058-.932.117-1.427.175a5.894 5.894 0 0 0-1.252.146 1.105 1.105 0 0 1-1.049-.117c-.816-.5-1.573-1.049-2.359-1.573-.874-.583-1.748-1.194-2.651-1.777-1.019-.67-2.039-1.34-3.058-2.039-.961-.67-1.893-1.34-2.855-2.01-.146-.117-.35-.175-.437-.32-.408-.641-.553-.728-1.282-.67-1.136.087-2.3.087-3.437.146-1.049.058-2.068.058-3.117.146-.786.058-1.6.175-2.388.262-.612.087-1.252.146-1.864.233-.786.117-1.573.2-2.359.32-.612.087-1.194.146-1.806.262-.786.117-1.573.262-2.359.379a8.946 8.946 0 0 0-1.544.175 6.3 6.3 0 0 0-2.272.728c-.35.262-.757.728-.379 1.282a1.261 1.261 0 0 1 .146.35c.058.408.058.816.146 1.194.058.32.146.612.233.932l.262 1.311c.087.437.175.874.233 1.311.029.146 0 .291.029.408.087.5.175.961.262 1.427.058.35.146.7.175 1.049.058.466.146.961-.233 1.311A8.723 8.723 0 0 0 1.7 44.8a18.348 18.348 0 0 0-1.076 1.548A5.083 5.083 0 0 0 .1 48.707a4.21 4.21 0 0 0 .117.845c.408-.262.408-.35.466-.786a5.391 5.391 0 0 1 .2-1.194 4.9 4.9 0 0 1 .437-.874 5.251 5.251 0 0 1 1.864-2.272 13.042 13.042 0 0 1 1.631-.932.749.749 0 0 1 .612.029c.2.117.146.35.087.553a5.909 5.909 0 0 1-.608 1.024 22.612 22.612 0 0 1-2.155 2.825 7.106 7.106 0 0 0-.932 1.369 9.4 9.4 0 0 0-.408 1.369.221.221 0 0 0 .117.058c.7-.408 1.4-.845 2.1-1.252.029.029.029.058.058.087a7.291 7.291 0 0 0-.7.641 6.815 6.815 0 0 0-.7.9c-.117.2-.175.466.087.612s.35-.146.437-.32a4.917 4.917 0 0 1 1.486-1.515c.612-.5 1.252-.9 1.893-1.369.087-.058.146-.2.233-.233.553-.291 1.136-.553 1.689-.816.5-.233.7-.2.874.146.175.32-.029.524-.2.7-.32.291-.67.553-.99.816-.961.728-1.952 1.427-2.884 2.185a2.532 2.532 0 0 0-.821 1.307c.7-.437 1.4-.845 2.068-1.252.612-.379 1.223-.816 1.835-1.194a6.723 6.723 0 0 0 .816-.553c.175-.146.612-.087.9-.029.262.058.262.583.029.7-.408.175-.553.524-.845.786-.932.9-1.864 1.777-2.8 2.651a3.758 3.758 0 0 1-1.107.816.926.926 0 0 0-.291.291c-.058.058-.117.175-.087.2a.3.3 0 0 0 .2.117c.408.058.845.087 1.252.117.058 0 .175.058.175.117.029.32.058.67.058 1.019 0 .641-.058 1.252-.029 1.893a2.382 2.382 0 0 1-.146 1.194 1.379 1.379 0 0 0-.029.5c0 .35.029.7 0 1.049-.058.583-.175 1.165-.233 1.777-.058.408-.117.786-.175 1.194-.087.612-.233 1.223-.32 1.835-.087.641-.175 1.282-.262 1.893-.087.67-.2 1.311-.291 1.952-.117.786-.2 1.6-.291 2.388a3.54 3.54 0 0 0 .087 2.126c.262.5.408 1.019.641 1.515.175.408.437.757.641 1.165a23.508 23.508 0 0 1 1.34 2.534 2.725 2.725 0 0 0 .2.641c.408.786.874 1.573 1.282 2.388a4.814 4.814 0 0 1 .641 1.544.949.949 0 0 0 .233.553 5.532 5.532 0 0 1 .99 2.039c.087.262.146.291.408.233.553-.175 1.107-.291 1.66-.5a2.437 2.437 0 0 1 1.34-.291c.058 0 .117-.058.2-.058l1.4-.35a7.921 7.921 0 0 0 .874-.117c.961-.233 1.922-.5 2.913-.728.35-.087.7-.146 1.078-.2.612-.087 1.194-.146 1.806-.262.67-.117 1.311-.262 1.981-.379a6.69 6.69 0 0 0 1.835-.408c.058-.029.175 0 .233 0h.5a3.987 3.987 0 0 1 1.2.084 6.39 6.39 0 0 1 1.223.816c.874.612 1.719 1.252 2.563 1.864.5.35 1.019.67 1.486 1.019.5.379.961.757 1.456 1.136.408.32.816.612 1.223.9a.972.972 0 0 1 .466.932 16.339 16.339 0 0 0 0 1.689v.291c.087.757.2 1.486.262 2.243.058.5.029.99.087 1.486.058.612.175 1.223.262 1.835a7.342 7.342 0 0 0 .466 2.5c.029.058 0 .146 0 .2a12.162 12.162 0 0 0 .2 1.486 9.393 9.393 0 0 1 .5 1.981 3.343 3.343 0 0 0 .175 1.078 17.879 17.879 0 0 1 .845 2.767l.612 1.835a.605.605 0 0 1-.029.32.394.394 0 0 1-.262 0c-.117-.029-.233-.087-.35-.117-.9-.2-1.835-.437-2.738-.641a4.623 4.623 0 0 0-.583-.2c-.757-.146-1.515-.291-2.3-.379a11.269 11.269 0 0 0-2.214-.087 27.091 27.091 0 0 0-2.68.466 3.159 3.159 0 0 0-1.4.524c-.2.146-.35.262-.35.524-.029.233-.175.466-.146.7a2.743 2.743 0 0 0 1.252 1.922 10.435 10.435 0 0 0 1.4.7c.175.087.35.262.524.35.262.087.524.146.757.2-.553.262-1.136.5-1.689.786-.087.029-.2.262-.146.32.175.262.35.583.612.7a3.047 3.047 0 0 0 1.049.175 10.192 10.192 0 0 0 2.3-.146 20.457 20.457 0 0 1 2.3-.2c.32-.029.67-.058.99-.117.845-.117 1.689-.291 2.563-.35a2.963 2.963 0 0 1 .961.262c.612.117 1.223.233 1.806.35a1.835 1.835 0 0 0 1.049 0 3.8 3.8 0 0 1 .99-.087h1.544a4.465 4.465 0 0 0 .175-1.952 4.551 4.551 0 0 0-.291-1.165c-.087-.291-.233-.553-.291-.845-.146-.583-.262-1.136-.408-1.719-.029-.117-.058-.2-.087-.32-.2-1.019-.437-2.039-.641-3.088a8.933 8.933 0 0 1-.2-1.223c-.117-.961-.2-1.952-.291-2.913-.058-.7-.146-1.4-.2-2.1-.029-.379 0-.757-.029-1.165 0-.35-.058-.7-.058-1.049 0-.32-.175-.612-.466-.612-.379-.029-.35.291-.35.524v1.223a7.1 7.1 0 0 0-.029.786c.087 1.078.146 2.126.262 3.2.058.612.146 1.252.262 1.864.117.757.291 1.515.437 2.272.233 1.165.408 2.33.67 3.5.175.816.466 1.573.7 2.388.117.5.175.99.291 1.573h-2.274a12.525 12.525 0 0 0-.2-1.252c-.117-.35-.379-.408-.641-.146a1.046 1.046 0 0 1-.291.2 9.533 9.533 0 0 1-3.233.641H36.8c-.612 0-1.223.058-1.835 0a20.344 20.344 0 0 1-3.9-1.049c-.5-.175-.961-.437-1.456-.67-.5-.262-1.194-.233-1.4-.932 0-.029-.058-.058-.058-.087a4.392 4.392 0 0 1-.35-.757.662.662 0 0 1 .524-.845 2.725 2.725 0 0 1 .641-.2c.641-.146 1.282-.291 1.952-.379.437-.058.874.087 1.311.058a9.022 9.022 0 0 1 2.651.437 16.48 16.48 0 0 0 1.631.379 17.378 17.378 0 0 1 3.2.874c.32.117.641.2 1.019.32-.233-1.252-.408-2.418-.641-3.583-.117-.67-.32-1.311-.5-1.952-.175-.728-.379-1.427-.553-2.155a14.326 14.326 0 0 1-.2-1.165c-.058-.408-.117-.786-.175-1.194-.087-.67-.146-1.311-.262-1.981a9.017 9.017 0 0 1-.2-2.33c0-.058-.058-.087-.058-.146l-.175-1.298c-.058-.379.117-.728-.029-1.107a4.893 4.893 0 0 1-.146-1.311.205.205 0 0 1 .117-.146c.2.029.379.058.583.087.583.175 1.165.35 1.777.524.728.233 1.456.466 2.185.728.35.117.7.408 1.019.408s.67-.32.99-.5l.175-.087c.437-.233.874-.5 1.311-.728.291-.175.553-.35.845-.5.641-.32 1.282-.641 1.922-.932a.642.642 0 0 1 .466 0 .489.489 0 0 1 .175.408c.029.437.029.9.058 1.369.058.524.146 1.049.2 1.6.117 1.136.2 2.243.35 3.379.2 1.34.466 2.68.757 4.02.175.874.437 1.748.67 2.651.291 1.019.553 2.068.874 3.058.437 1.311.932 2.621 1.427 3.932.146.408.379.786.553 1.194-1.078.233-2.1.408-3.088.7-1.252.379-2.5.816-3.728 1.311-.7.291-1.369.728-2.068 1.049a8.557 8.557 0 0 0-3.408 2.854 3.129 3.129 0 0 0-.408 2.039.223.223 0 0 0 .058.146c.32.35.67.728 1.019 1.049a.83.83 0 0 0 .408.233c.641.087 1.252.175 1.893.2a10.311 10.311 0 0 0 1.34-.058 3.317 3.317 0 0 0 1.66-.466 1.4 1.4 0 0 1 .466-.233 2.714 2.714 0 0 0 1.486-.466.218.218 0 0 1 .146-.029c.553-.233 1.107-.466 1.66-.728a6 6 0 0 1 .961-.5 12.4 12.4 0 0 1 1.427-.291c.786-.146 1.544-.233 2.33-.408.67-.146 1.34-.35 1.981-.5.437-.117.9-.175 1.34-.291.262-.058.5-.146.757-.2.816-.146 1.66-.262 2.5-.437a.332.332 0 0 0 .291-.466 1.04 1.04 0 0 0-1.019-.786c-.845-.058-1.689-.087-2.534-.146a.421.421 0 0 1-.291-.2l-.424-1.73c-.2-.816-.408-1.66-.612-2.476a7.294 7.294 0 0 1-.2-.757c-.058-.553-.087-1.107-.146-1.66-.058-.466-.087-.9-.146-1.369-.146-.757-.291-1.515-.466-2.272-.087-.379-.233-.757-.35-1.136a1.719 1.719 0 0 1-.058-.408c-.058-.466-.117-.9-.175-1.369-.087-.524-.2-1.019-.291-1.544-.146-.961-.262-1.952-.437-2.913-.146-.845-.379-1.689-.583-2.534a.607.607 0 0 1-.21-.437zM23.373.239V.181a7.215 7.215 0 0 0-.786.087 13.707 13.707 0 0 0-1.573.35 3.8 3.8 0 0 0-.757.408c-.379.233-.786.408-1.165.67a5.188 5.188 0 0 0-1.252 1.6c-.291.5-.466 1.049-.786 1.544a5.837 5.837 0 0 0-.612 2.068 12.82 12.82 0 0 0-.146 1.486 6.657 6.657 0 0 0 0 1.078c.058.437.146.9.233 1.34a4.264 4.264 0 0 0 .35 1.456 10 10 0 0 1 .553 1.282c.32.932 1.194 1.4 1.719 2.185a17.589 17.589 0 0 0 1.4 1.544c.5.583.932 1.194 1.369 1.777.2.262.437.466.612.728a9.41 9.41 0 0 1 .583 1.223c.146.379.291.757.408 1.165a3.746 3.746 0 0 1 .117.553 4.419 4.419 0 0 1 .087.612 12.234 12.234 0 0 0 .175 1.777 7.333 7.333 0 0 1 .233 1.6 1.028 1.028 0 0 0 1.282 1.019c.058-.029.175-.087.175-.175.087-.32.117-.641.175-.961.117-.67.2-1.369.379-2.039.291-1.107.583-2.185.932-3.262a12.319 12.319 0 0 1 .786-1.66c.67-1.194 1.34-2.388 2.039-3.583.379-.641.786-1.252 1.194-1.893a12.031 12.031 0 0 0 1.078-1.719 8.749 8.749 0 0 0 .816-3.437 16.336 16.336 0 0 0-.029-2.068 10.828 10.828 0 0 0-.728-2.855 6.848 6.848 0 0 0-1.689-2.068 6.3 6.3 0 0 0-1.019-.7A4.531 4.531 0 0 0 27.247.53c-.262-.03-.524 0-.757-.03-.175-.029-.379-.087-.553-.117C25.616.326 25.3.3 25 .239a1.982 1.982 0 0 0-.583-.058 6.159 6.159 0 0 0-1.044.058zm37.808 8.622V8.8c-1.107.058-2.243.117-3.35.2-.466.029-.9.087-1.369.146-.786.117-1.573.233-2.33.408a40.6 40.6 0 0 0-3.2.9c-.757.262-1.515.641-2.243.961-.32.146-.67.262-1.019.408-.553.262-1.078.553-1.6.845a12.374 12.374 0 0 0-2.155 1.282 1.6 1.6 0 0 0-.35 1.311 1.647 1.647 0 0 0 .641.874 2.248 2.248 0 0 0 .99.612 2.037 2.037 0 0 0 1.631-.583 1.508 1.508 0 0 0 .408-.612 6.78 6.78 0 0 0 .233-1.107 2.356 2.356 0 0 1 1.508-1.945 5.967 5.967 0 0 0 1.049-.553 8.838 8.838 0 0 1 2.534-1.34 15 15 0 0 1 2.563-.641 15.027 15.027 0 0 1 2.592-.379c.9 0 1.806-.2 2.709-.233a8.851 8.851 0 0 1 1.748.146 1.42 1.42 0 0 1 .641.291c.32.2.7.117.786-.175a.652.652 0 0 0-.612-.757zm.583 2.185c-.175.058-.233.087-.32.117-.5.087-1.019.175-1.515.291a7.921 7.921 0 0 0-2.126.7.351.351 0 0 0-.175.466c.087.32.7.524.932.5.32-.058.612-.117.932-.175a2.181 2.181 0 0 1 .612-.058q1.136.131 2.272.35c.874.175 1.748.408 2.621.641.35.087.7.233 1.078.32.117.029.262-.087.379-.146a1.309 1.309 0 0 0-.175-.35 2.407 2.407 0 0 0-.379-.2c-1.049-.32-2.126-.7-3.2-.961-.7-.175-1.427-.233-2.155-.379-.058 0-.117-.058-.2-.087a16.124 16.124 0 0 1 1.631-.32c.583-.087 1.165-.087 1.748-.146a7.961 7.961 0 0 0 1.165-.146.616.616 0 0 0 .408-.35.48.48 0 0 0-.379-.553c-.35-.058-.67-.117-1.019-.146-1.194-.029-2.388-.058-3.554 0-1.049.058-2.126.2-3.175.35a6.971 6.971 0 0 0-1.34.35.274.274 0 0 0-.233.35c.058.2.175.2.32.2h.146c.757-.117 1.515-.262 2.3-.379.583-.087 1.136-.233 1.719-.291a11.537 11.537 0 0 1 1.681.051zm-5.71 17.942c-.117.641.35.816.728 1.019s.408.35.146.7a7.752 7.752 0 0 1-1.922 1.719 5.576 5.576 0 0 1-2.621.932 6 6 0 0 1-1.252 0c-.408-.029-.816-.117-1.223-.117-.117 0-.32.058-.35.117a.526.526 0 0 0 .408.7 4.94 4.94 0 0 0 .641.117 2.98 2.98 0 0 0 2.01-.058.221.221 0 0 1 .117-.058 5.434 5.434 0 0 0 1.835-.7 6.682 6.682 0 0 0 1.716-1.259 10.794 10.794 0 0 0 .786-.845c.175-.233.32-.466.524-.757.262.379.524.757.786 1.107a.473.473 0 0 0 .262.146v-.437a.806.806 0 0 0-.029-.262l-.786-1.311a.151.151 0 0 0-.117-.058c-.437-.291-.874-.553-1.369-.874a.6.6 0 0 1-.29.179zm9.263-7.981c-.9.087-1.689.146-2.447.233a1.038 1.038 0 0 0-.786.553.246.246 0 0 0 0 .2c.291.2.553.379.845.583.233.146.553.233.7.437a.976.976 0 0 1 0 .757.693.693 0 0 1-.816.32.514.514 0 0 1-.262-.233 1.74 1.74 0 0 1-.175-.32c-.087-.117-.2-.291-.262-.262a.566.566 0 0 0-.32.262.935.935 0 0 0 .67 1.223 1.716 1.716 0 0 0 1.719-.466 1.231 1.231 0 0 0 .146-1.544.427.427 0 0 1-.058-.32 1.193 1.193 0 0 1 1.107-.786 4.7 4.7 0 0 0 .641 0c.117-.029.233-.175.35-.262-.087-.087-.175-.262-.291-.291-.324-.055-.616-.055-.761-.084zm-15.933 2.651a3.382 3.382 0 0 0 .175.466.666.666 0 0 0 .757.32.626.626 0 0 0 .583-.583.587.587 0 0 1 .087-.32 1.618 1.618 0 0 0-.262-1.689.643.643 0 0 0-.583-.175.787.787 0 0 0-.553.728 10.231 10.231 0 0 0-.204 1.253zM42.6 19.7c-.058.058-.146.117-.233.2a1.33 1.33 0 0 0-.291 1.515 6.545 6.545 0 0 1 .35.612.435.435 0 0 0 .583.291.572.572 0 0 0 .466-.583c.029-.35-.2-.67-.029-.99.029-.029-.029-.117-.029-.175a1.177 1.177 0 0 0-.817-.87z" class="cls-5" data-name="Path 880" transform="translate(.017 -.122)"/>
                <path id="Path_881" d="M55.042 128.272l.087.437c.2.845.437 1.66.583 2.534.175.961.291 1.952.437 2.913.087.524.2 1.019.291 1.544.087.437.117.9.175 1.369.029.146.029.262.058.408.117.379.262.757.35 1.136.175.757.35 1.515.466 2.272a10.366 10.366 0 0 1 .146 1.369c.058.553.087 1.107.146 1.66a7.294 7.294 0 0 0 .2.757c.2.816.408 1.66.612 2.476.146.583.262 1.165.437 1.748a.368.368 0 0 0 .291.2c.845.058 1.689.087 2.534.146a1.04 1.04 0 0 1 1.019.786.366.366 0 0 1-.291.466c-.816.146-1.66.291-2.5.437-.262.058-.5.146-.757.2-.437.087-.9.175-1.34.291-.67.146-1.311.35-1.981.5-.757.146-1.544.262-2.33.408a11.252 11.252 0 0 0-1.427.291 9.94 9.94 0 0 0-.961.5c-.553.262-1.107.5-1.66.728-.029.029-.087 0-.146.029a2.714 2.714 0 0 1-1.486.466 1.169 1.169 0 0 0-.466.233 3.317 3.317 0 0 1-1.66.466 6.884 6.884 0 0 1-1.34.058c-.641-.029-1.252-.117-1.893-.2a.83.83 0 0 1-.408-.233c-.35-.35-.67-.7-1.019-1.049a.223.223 0 0 1-.058-.146 3.093 3.093 0 0 1 .408-2.039 8.112 8.112 0 0 1 3.408-2.854c.7-.32 1.34-.757 2.068-1.049 1.223-.5 2.476-.932 3.728-1.311.99-.291 2.01-.466 3.088-.7a10.933 10.933 0 0 1-.553-1.194c-.5-1.311-.99-2.621-1.427-3.932-.35-1.019-.612-2.039-.874-3.058-.233-.874-.5-1.748-.67-2.651a65.255 65.255 0 0 1-.757-4.02c-.175-1.107-.233-2.243-.35-3.379-.058-.524-.175-1.049-.2-1.6-.058-.437-.029-.9-.058-1.369a.489.489 0 0 0-.175-.408.642.642 0 0 0-.466 0c-.641.291-1.282.612-1.922.932-.291.146-.553.32-.845.5-.437.233-.874.5-1.311.728l-.175.087a2.877 2.877 0 0 1-.99.5c-.35 0-.67-.291-1.019-.408-.728-.262-1.456-.5-2.185-.728-.583-.175-1.165-.35-1.777-.524a1.878 1.878 0 0 0-.583-.087.205.205 0 0 0-.117.146 4.893 4.893 0 0 0 .146 1.311c.117.379-.029.728.029 1.107l.175 1.311c0 .058.058.117.058.146a10.508 10.508 0 0 0 .2 2.33c.117.641.175 1.311.262 1.981.058.408.117.786.175 1.194.058.379.117.786.2 1.165.175.728.379 1.427.553 2.155.175.641.35 1.282.5 1.952.233 1.165.408 2.33.641 3.583-.379-.117-.7-.2-1.019-.32a17.377 17.377 0 0 0-3.2-.874c-.553-.058-1.078-.291-1.631-.379a8.159 8.159 0 0 0-2.651-.437c-.437.058-.874-.087-1.311-.058-.641.087-1.282.233-1.952.379-.233.058-.437.146-.641.2-.437.175-.612.408-.524.845a4.393 4.393 0 0 0 .35.757c.029.029.058.058.058.087.233.67.9.67 1.4.932a8.277 8.277 0 0 0 1.456.67 20.343 20.343 0 0 0 3.9 1.049c.612.058 1.223 0 1.835 0h1.049a9.4 9.4 0 0 0 3.233-.641.666.666 0 0 0 .291-.2c.291-.233.553-.2.641.146a7.5 7.5 0 0 1 .2 1.252h2.27a12.571 12.571 0 0 0-.291-1.573c-.2-.816-.5-1.573-.7-2.388-.262-1.165-.437-2.33-.67-3.5-.146-.757-.32-1.515-.437-2.272-.117-.612-.2-1.252-.262-1.864-.117-1.078-.175-2.126-.262-3.2a7.1 7.1 0 0 1 .029-.786v-1.223c0-.262-.029-.553.35-.524a.505.505 0 0 1 .466.612c0 .35.029.7.058 1.049 0 .379 0 .786.029 1.165.058.7.146 1.4.2 2.1.087.961.175 1.952.291 2.913.058.408.146.816.2 1.223.2 1.019.408 2.039.641 3.088.029.117.058.2.087.32.146.583.262 1.136.408 1.719.087.291.2.583.291.845a4.026 4.026 0 0 1 .291 1.165 4.465 4.465 0 0 1-.175 1.952H43.1a3.693 3.693 0 0 0-.99.087 2.129 2.129 0 0 1-1.049 0c-.612-.146-1.194-.233-1.806-.35-.32-.058-.67-.291-.961-.262-.845.058-1.719.233-2.563.35-.32.058-.67.087-.99.117a20.459 20.459 0 0 0-2.3.2 10.192 10.192 0 0 1-2.3.146 2.159 2.159 0 0 1-1.049-.175c-.262-.117-.437-.437-.612-.7a.405.405 0 0 1 .146-.32c.553-.291 1.136-.524 1.689-.786-.233-.058-.5-.117-.757-.2a3.284 3.284 0 0 1-.524-.35 12.517 12.517 0 0 1-1.4-.7 2.6 2.6 0 0 1-1.252-1.922c-.029-.233.117-.466.146-.7a.67.67 0 0 1 .35-.524 3.555 3.555 0 0 1 1.4-.524c.9-.146 1.777-.379 2.68-.466a11.27 11.27 0 0 1 2.214.087c.757.087 1.544.233 2.3.379a4.625 4.625 0 0 1 .583.2c.9.233 1.835.437 2.738.641.117.029.233.087.35.117.087.029.262.058.262 0a.413.413 0 0 0 .029-.32l-.612-1.835a25.058 25.058 0 0 0-.845-2.767 2.623 2.623 0 0 1-.175-1.078 8.968 8.968 0 0 0-.5-1.981 13 13 0 0 1-.2-1.486c0-.058.029-.146 0-.2a7.342 7.342 0 0 1-.466-2.5c-.087-.612-.2-1.223-.262-1.835-.058-.5-.029-.99-.087-1.486-.087-.757-.175-1.515-.262-2.243v-.291c0-.553-.029-1.136 0-1.689a.923.923 0 0 0-.466-.932 35.694 35.694 0 0 1-1.223-.9c-.5-.379-.961-.786-1.456-1.136s-1.019-.67-1.486-1.019c-.874-.612-1.719-1.252-2.563-1.864a5.6 5.6 0 0 0-1.223-.816 3.222 3.222 0 0 0-1.194-.087h-.5c-.087 0-.175-.029-.233 0a7.96 7.96 0 0 1-1.835.408c-.67.117-1.311.262-1.981.379-.583.117-1.194.175-1.806.262-.35.058-.728.117-1.078.2-.961.233-1.922.5-2.913.728-.291.058-.583.058-.874.117-.466.087-.932.233-1.4.35a.54.54 0 0 1-.2.058 3 3 0 0 0-1.34.291c-.524.2-1.107.32-1.66.5-.233.087-.32.058-.408-.233a6.623 6.623 0 0 0-.99-2.039 1.034 1.034 0 0 1-.233-.553 3.791 3.791 0 0 0-.641-1.544c-.408-.816-.845-1.573-1.282-2.388-.087-.2-.117-.437-.2-.641a23.214 23.214 0 0 0-1.34-2.534c-.2-.408-.437-.757-.641-1.165-.233-.5-.379-1.049-.641-1.515a3.54 3.54 0 0 1-.087-2.126c.087-.786.175-1.6.291-2.388.087-.67.2-1.311.291-1.952s.175-1.282.262-1.893.2-1.223.32-1.835c.058-.408.117-.786.175-1.194.087-.583.175-1.165.233-1.777.029-.35 0-.7 0-1.049 0-.175-.058-.379.029-.5a2.1 2.1 0 0 0 .146-1.194c-.029-.612.029-1.252.029-1.893 0-.35-.029-.67-.058-1.019 0-.058-.117-.117-.175-.117-.408-.058-.845-.087-1.252-.117a.245.245 0 0 1-.2-.117c-.029-.029.029-.146.087-.2a.926.926 0 0 1 .291-.291 3.416 3.416 0 0 0 1.1-.846c.932-.874 1.864-1.777 2.8-2.651.262-.262.437-.612.845-.786.262-.087.233-.612-.029-.7-.291-.087-.728-.146-.9.029a5.027 5.027 0 0 1-.816.553c-.612.379-1.223.816-1.835 1.194-.67.437-1.369.845-2.068 1.252a2.361 2.361 0 0 1 .816-1.311c.932-.786 1.922-1.456 2.884-2.185a9.225 9.225 0 0 0 .99-.816c.175-.175.379-.379.2-.7s-.408-.379-.874-.146c-.583.262-1.136.553-1.689.816-.087.058-.146.175-.233.233-.612.466-1.282.874-1.893 1.369a5.257 5.257 0 0 0-1.489 1.518c-.087.175-.175.437-.437.32-.262-.146-.2-.408-.087-.612a6.814 6.814 0 0 1 .7-.9 7.293 7.293 0 0 1 .7-.641c-.029-.029-.029-.058-.058-.087-.7.408-1.4.845-2.1 1.252a.221.221 0 0 0-.117-.058 6.793 6.793 0 0 1 .408-1.369 7.107 7.107 0 0 1 .932-1.369 20.121 20.121 0 0 0 2.155-2.825c.2-.35.524-.612.612-1.019.058-.2.117-.437-.087-.553a.749.749 0 0 0-.612-.029c-.553.291-1.107.612-1.631.932a5.251 5.251 0 0 0-1.864 2.269 4.9 4.9 0 0 0-.437.874 5.391 5.391 0 0 0-.2 1.194.749.749 0 0 1-.466.786c-.029-.291-.117-.583-.117-.845a5.083 5.083 0 0 1 .521-2.36c.32-.553.757-1.019 1.078-1.544a8.723 8.723 0 0 1 1.748-1.688c.379-.35.291-.845.233-1.311-.029-.35-.117-.7-.175-1.049-.087-.466-.175-.961-.262-1.427-.029-.146 0-.291-.029-.408-.087-.437-.146-.874-.233-1.311l-.262-1.311c-.058-.32-.175-.612-.233-.932-.059-.407-.089-.819-.146-1.193a.9.9 0 0 0-.146-.35c-.379-.553 0-1.019.379-1.282a5.936 5.936 0 0 1 2.272-.728c.5-.117 1.049-.087 1.544-.175.786-.117 1.573-.262 2.359-.379.612-.087 1.194-.175 1.806-.262.786-.117 1.573-.2 2.359-.32a40.882 40.882 0 0 1 1.864-.233c.786-.087 1.6-.2 2.388-.262 1.049-.087 2.068-.117 3.117-.146 1.136-.058 2.3-.058 3.437-.146.757-.058.9.029 1.282.67a1.217 1.217 0 0 0 .437.32c.961.67 1.893 1.34 2.855 2.01 1.019.7 2.039 1.34 3.058 2.039.874.583 1.748 1.194 2.651 1.777l2.359 1.573a1.105 1.105 0 0 0 1.049.117 4.472 4.472 0 0 1 1.252-.146c.466-.058.932-.117 1.427-.175a3.227 3.227 0 0 1 .553-.058h1.195c.5-.029.961-.087 1.456-.146a13 13 0 0 1 1.486-.2 10.7 10.7 0 0 0 2.534-.408 1.2 1.2 0 0 1 .641 0c.408.058.524.029.728-.233C47.644 67.424 47 66 46.392 64.6a7.115 7.115 0 0 1-.7.291 8.236 8.236 0 0 1-1.573.67c-1.078.233-2.1.845-3.262.757a13.444 13.444 0 0 0-1.456.2 12.144 12.144 0 0 1-1.456 0 9.878 9.878 0 0 1-1.282-.233 1.321 1.321 0 0 1-1.078-1.685 4.962 4.962 0 0 1 .874-1.806c.35-.466.67-.99 1.019-1.456.291-.379.583-.728.9-1.078.9-1.019 1.835-2.039 2.767-3.029.553-.583 1.194-1.107 1.777-1.66.5-.5.961-1.019 1.456-1.515.437-.437.874-.845 1.34-1.252a.228.228 0 0 1 .233-.029c.058.029.146.146.117.2a.864.864 0 0 1-.2.437 53.887 53.887 0 0 1-1.806 1.835c-.524.524-1.078.99-1.6 1.486-.32.32-.612.67-.9.99-.437.466-.816.961-1.311 1.4A26.654 26.654 0 0 0 38 61.686c-.2.2-.408.437-.583.641a7.426 7.426 0 0 0-.816 1.136 1.978 1.978 0 0 0-.262 1.456 1.3 1.3 0 0 0 1.019.728 8.4 8.4 0 0 0 3.408-.058 16.809 16.809 0 0 0 1.689-.233 15.058 15.058 0 0 0 1.835-.612c.583-.2 1.165-.466 1.719-.7.233-.087.466-.233.7-.35.2-.117.291 0 .379.146s.117.262-.087.379c-.291.175-.087.466-.029.641a17.69 17.69 0 0 0 1.196 2.74 9.541 9.541 0 0 1 .67 1.719 16.359 16.359 0 0 0 .728 1.631.306.306 0 0 0 .262.146 2.558 2.558 0 0 0 .67-.2 15.479 15.479 0 0 1 1.6-.67c.961-.35 1.952-.7 2.942-1.019 1.136-.35 2.272-.7 3.379-1.019.816-.262 1.631-.524 2.418-.757a1.744 1.744 0 0 1-.058-.35c.058-.67.146-1.34.2-2.039.087-.816.146-1.6.2-2.418.087-1.078.2-2.155.262-3.233.029-.35.175-.757-.291-.99-.087-.029-.146-.35-.058-.437.117-.117.233-.379.524-.233a2.472 2.472 0 0 0 1.981-.117A8.667 8.667 0 0 0 65.121 57a4.878 4.878 0 0 0 1.952-1.573 4.141 4.141 0 0 0 .641-2.709 2.359 2.359 0 0 0-1.314-1.926 3.36 3.36 0 0 0-2.33-.262 11.61 11.61 0 0 0-3.408 1.806c-.32.233-.553.175-.757-.175A1.5 1.5 0 0 1 59.732 51a11.326 11.326 0 0 0-.029-4.427.773.773 0 0 0-.7-.7 6.606 6.606 0 0 1-.728-.175c-.087-.029-.2-.117-.2-.2a.465.465 0 0 1 .146-.291 1.107 1.107 0 0 1 .612-.058c1.078.233 2.155.524 3.262.757.67.146 1.34.262 2.01.408a.767.767 0 0 1 .408.291 9.173 9.173 0 0 1-3.437-.262c-.029 1.515-.087 3.088-.117 4.748a7.489 7.489 0 0 0 .845-.437 5.958 5.958 0 0 1 2.825-.961 3.869 3.869 0 0 1 3.026 1.007c.5.437.612 1.049 1.019 1.515a.218.218 0 0 1 .029.146 12.735 12.735 0 0 1-.175 2.1 5.443 5.443 0 0 1-1.311 2.243 2.278 2.278 0 0 1-.757.5 13.207 13.207 0 0 1-1.6.99 5.884 5.884 0 0 1-1.282.291c-.233.058-.5.029-.728.087-.233.029-.466.524-.5.874-.058.524-.146 1.019-.175 1.544-.058.5-.087.99-.117 1.486-.058.816-.117 1.6-.233 2.388a7.21 7.21 0 0 0 .146 2.1c.35-.087.67-.175.99-.262.087-.029.146-.087.233-.087a.8.8 0 0 1 .35-.058 5.21 5.21 0 0 1 1.835.932 758.595 758.595 0 0 1 5.126 3.67c.932.67 1.864 1.34 2.8 2.039.233.175.437.408.67.553a9.567 9.567 0 0 1 .9.583c.583.553 1.4.786 1.981 1.369a9.7 9.7 0 0 0 1.427.845c.466.32.874.728 1.311 1.078.35.262.728.5 1.078.757a1.4 1.4 0 0 1 .262.32 4.137 4.137 0 0 0 .35.379c.466.32.612.583.408 1.136-.233.67-.524 1.34-.757 2.039-.117.32-.2.67-.32.99a62.97 62.97 0 0 0-.5 1.631 88.18 88.18 0 0 1 1.689 1.631 20.085 20.085 0 0 1 2.563 3.058c.262.408.437.874.67 1.311a1.57 1.57 0 0 0 .2.379c.379.553.379.67-.029 1.194s-.757 1.078-1.194 1.573a1.16 1.16 0 0 1-.612.262c-.233.029-.35-.146-.408-.379-.087-.262-.2-.466-.553-.466-.32 0-.612-.175-.932-.175a4.791 4.791 0 0 0-.932.146 9.333 9.333 0 0 0-1.981.67c-.5.2-.961.437-1.427.67A21.785 21.785 0 0 0 75.257 96c-.233.146-.466.379-.35.7.117.291.437.32.728.262a7.041 7.041 0 0 0 1.049-.291c1.194-.5 2.359-.99 3.554-1.486.35-.146.728-.233 1.107-.35.2-.058.553.146.524.35a.316.316 0 0 1-.233.233 15.058 15.058 0 0 0-1.835.612 10.247 10.247 0 0 0-1.311.524c-.146.058-.291.2-.437.262-.641.32-1.311.641-1.952.99a6.33 6.33 0 0 0-.874.67.592.592 0 0 0-.146.728.729.729 0 0 0 .7.466 3.933 3.933 0 0 0 1.019-.175c.874-.291 1.719-.641 2.592-.932.641-.233 1.311-.408 1.952-.583.2-.058.379-.058.5.146.2.291.146.5-.2.5a5.063 5.063 0 0 0-2.243.7c-.67.35-1.34.67-1.981 1.078a7.509 7.509 0 0 0-1.194.961.544.544 0 0 0 .437.9 2.478 2.478 0 0 0 .641-.117c.553-.175 1.136-.35 1.689-.524a87.118 87.118 0 0 1 2.942-.757.613.613 0 0 1 .437.146.242.242 0 0 1 .058.233.742.742 0 0 1-.379.175 2.3 2.3 0 0 0-.99.291 11.536 11.536 0 0 1-1.34.379 1.078 1.078 0 0 0-.728.641c-.175.408-.32.845-.466 1.282-.262.728-.5 1.456-.757 2.214-.291.874-.583 1.748-.9 2.621-.233.612-.5 1.223-.757 1.835a4.136 4.136 0 0 0-.146.641 16.031 16.031 0 0 1-1.515 3.466 2.142 2.142 0 0 0-.2 1.107 17.381 17.381 0 0 0 .233 2.447c.117.845.2 1.689.32 2.5.146.874.117 1.777.35 2.68a19.6 19.6 0 0 1 .379 2.621c0 .058 0 .146.029.175a.929.929 0 0 1 .117 1.194c-.146.32-.35.5-.67.35-.583-.262-1.165-.5-1.748-.786-.379-.2-.7-.524-1.078-.757-.466-.262-.961-.466-1.427-.7-.291-.146-.583-.32-.874-.5-.408-.233-.786-.5-1.194-.728-.9-.553-1.893-1.019-2.738-1.631-.728-.524-1.544-.9-2.3-1.369a40.411 40.411 0 0 0-1.893-1.107 12.135 12.135 0 0 0-1.893-.845 1.951 1.951 0 0 0-.99.087 7.046 7.046 0 0 0-2.942 1.282c-1.194.9-2.476 1.719-3.612 2.709-.524.466-1.136.845-1.719 1.282-.029.029-.029.058-.058.087a5.906 5.906 0 0 1-.379.524.909.909 0 0 0-.379.845 11.7 11.7 0 0 1 .058 1.427c.029.379.087.728.146 1.078.029.408.029.786.087 1.194.058.466.146.932.233 1.369.087.5.233.99.32 1.486.146.728.262 1.486.437 2.214a8.043 8.043 0 0 1 .5 2.621.65.65 0 0 0 .175.379c.437.524.35 1.253.7 1.835a4.037 4.037 0 0 1 .35 1.049l.524 1.573c.058.2.117.437.175.67.029.087.029.175.087.2a1.332 1.332 0 0 1 .437.816 2.638 2.638 0 0 0 .379.757.719.719 0 0 1-.291 1.107 10.85 10.85 0 0 1-1.864.641 7.762 7.762 0 0 0-2.3.67 2.937 2.937 0 0 1-.728.146 1.643 1.643 0 0 0-.35.117c-.641.291-1.252.553-1.893.845-.233.117-.408.291-.641.408-.757.408-1.515.786-2.243 1.194a1.254 1.254 0 0 0-.437.437c-.408.553-.9 1.049-1.252 1.631a1.305 1.305 0 0 0 .379 1.689 2.458 2.458 0 0 0 1.748.291.96.96 0 0 1 .408 0 5.721 5.721 0 0 0 2.418-.408c.67-.262 1.4-.408 2.068-.641a11.2 11.2 0 0 0 2.8-1.486 20.533 20.533 0 0 0 1.689-1.486c.175-.146.2-.437.35-.612a.884.884 0 0 1 .5-.379c.117-.029.291.233.379.408.175.262.291.553.437.816a.22.22 0 0 0 .233.087c.612-.087 1.194-.175 1.806-.262a.468.468 0 0 0 .408-.583l-.35-2.185c-.087-.553-.233-1.107-.35-1.66-.175-.932-.32-1.864-.5-2.767-.233-1.165-.466-2.33-.7-3.524-.146-.786-.291-1.6-.408-2.388-.2-1.311-.437-2.621-.612-3.9-.058-.437 0-.874-.029-1.282-.058-1.078-.146-2.155-.2-3.233v-.35zM75.17 97.833a3.585 3.585 0 0 0-.641-.437.775.775 0 0 1-.408-1.194 9.3 9.3 0 0 1 1.34-1.282 6.884 6.884 0 0 1 2.155-1.22c.2-.058.175-.233.117-.379a68.07 68.07 0 0 1-.728-2.476.956.956 0 0 1 .029-.5 27.919 27.919 0 0 0 1.427-3.466c.175-.553.466-1.078.641-1.6l1.223-3.5c.146-.379.262-.786.379-1.165a1.267 1.267 0 0 1-.35-.32c-.058-.117-.029-.32-.117-.408a54.053 54.053 0 0 0-1.282-1.311c-.466-.408-1.165-.524-1.369-1.252-.029-.058-.117-.087-.175-.146-.728-.5-1.456-.961-2.185-1.486-1.165-.816-2.3-1.631-3.5-2.418-.845-.583-1.748-1.107-2.592-1.719-.816-.583-1.6-1.194-2.418-1.777a86.15 86.15 0 0 0-2.738-1.893c-.262-.175-.612-.437-.874-.379-1.078.233-2.126.553-3.175.845l-2.359.7c-.67.2-1.34.379-1.981.612-.816.291-1.6.612-2.418.932-.9.35-1.806.7-2.68 1.049-.786.32-1.573.612-2.388.9-.437.175-.874.291-1.311.466-.728.291-1.456.612-2.185.932-.5.2-.99.408-1.486.641-.379.175-.728.379-1.078.583a.246.246 0 0 1-.2 0c-.466-.32-.961-.67-1.427-.99a4.59 4.59 0 0 0-.437-.35c-.583-.437-1.165-.845-1.748-1.282-.845-.612-1.66-1.223-2.5-1.806-.9-.612-1.835-1.136-2.738-1.748-.845-.553-1.689-1.136-2.534-1.719-.9-.612-1.835-1.194-2.767-1.806-.816-.524-1.631-1.078-2.447-1.6a4.523 4.523 0 0 0-2.126-1.019c-.466-.029-.9-.029-1.369-.029-.437 0-.874.058-1.311.058-.641 0-1.282-.029-1.922 0-1.049.058-2.126.175-3.175.262-.2.029-.408.029-.641.058-1.369.2-2.709.408-4.078.641-.99.146-2.01.32-3 .5-.845.146-1.689.35-2.534.524a6.485 6.485 0 0 1-1.049.146.564.564 0 0 0-.5.291 1.6 1.6 0 0 0-.175 1.019c.087.757.233 1.486.35 2.243a9.188 9.188 0 0 1 .32 2.155.686.686 0 0 0 .058.233c.117.728.291 1.456.35 2.185a.858.858 0 0 0 .408.728 1.817 1.817 0 0 1 .99 1.427 2.223 2.223 0 0 1-.291 1.486c-.2.32-.5.7-.117 1.107a.312.312 0 0 1 .058.175c.058.379.146.786.2 1.223.117-.058.262-.087.379-.146a17.29 17.29 0 0 1 1.66-.786 2.24 2.24 0 0 1 1.078-.029c.32.058.583.553.612 1.019a1.193 1.193 0 0 1-.379.961q-.218.262.087.35a.864.864 0 0 0 .466.058c.583-.029 1.252.757.757 1.311-.5.524-.961 1.049-1.486 1.544-.7.67-1.427 1.311-2.126 1.952v1.107c-.029 1.223-.087 2.418-.146 3.641a.867.867 0 0 0 .175.641.778.778 0 0 1 .087.524c-.117.67-.291 1.369-.408 2.039-.2 1.049-.379 2.068-.553 3.117-.2 1.282-.35 2.563-.583 3.816a23.117 23.117 0 0 0-.408 4.253c0 .175-.117.35-.058.466.379.961.786 1.952 1.223 2.884.35.786.786 1.573 1.165 2.359.35.728.641 1.515.99 2.243.291.583.641 1.107.932 1.66.5.961.961 1.952 1.4 2.942a.445.445 0 0 0 .67.262 3.182 3.182 0 0 1 .5-.146c1.223-.233 2.418-.466 3.641-.728.786-.146 1.573-.32 2.33-.466 1.34-.262 2.68-.524 3.99-.757 1.049-.2 2.1-.379 3.117-.583.7-.146 1.369-.35 2.039-.466a1.473 1.473 0 0 1 .874.029 13 13 0 0 1 1.456 1.019c.7.524 1.4 1.049 2.1 1.544.728.524 1.456 1.019 2.185 1.544a63.294 63.294 0 0 1 2.243 1.631c.466.35.845.757 1.311 1.078a26.655 26.655 0 0 1 2.33 1.719c.757.583 1.544 1.107 2.33 1.66a14.4 14.4 0 0 0 1.223.786.413.413 0 0 0 .32.029 6.543 6.543 0 0 0 .612-.35l3.146-1.66c.146-.087.291-.146.466-.233.437-.2.9-.35 1.34-.583.728-.35 1.4-.757 2.155-1.049 1.573-.641 3.175-1.252 4.777-1.864 1.311-.5 2.621-.932 3.9-1.427a.868.868 0 0 1 .845.087c.291.175.553.408.845.553.437.233.874.437 1.311.67.67.379 1.282.816 1.952 1.165a6.36 6.36 0 0 1 1.427.845 7.379 7.379 0 0 0 .786.524c.67.379 1.369.757 2.039 1.165.786.437 1.544.9 2.33 1.369.932.553 1.835 1.107 2.767 1.631a6.482 6.482 0 0 0 .786.408 9.537 9.537 0 0 0-.087-1.019c-.146-.9-.35-1.777-.466-2.68-.2-1.282-.379-2.592-.553-3.874-.117-.728-.233-1.427-.35-2.155l-.175-1.486a.35.35 0 0 1 .058-.233c.437-.932.932-1.835 1.369-2.8.262-.583.5-1.165.728-1.777.2-.583.408-1.165.612-1.719.291-.786.612-1.573.9-2.388.291-.786.553-1.6.816-2.418.175-.524.35-1.078.553-1.66l-.874.291a2.43 2.43 0 0 1-1.573-.117c-.35-.117-.233-.5-.379-.728a.288.288 0 0 1 .058-.408 14.379 14.379 0 0 0 .99-1.194c-.437-.058-.845-.087-1.252-.117a1.066 1.066 0 0 1-.9-.757.951.951 0 0 1 .233-1.136c.294.066.531-.134.764-.401zm8.53-4.311c.262-.408.466-.7.641-1.019.117-.2.262-.466.2-.612a10.594 10.594 0 0 0-.932-1.806 17.231 17.231 0 0 0-1.311-1.66 7.292 7.292 0 0 0-.641-.7c-.35-.379-.728-.728-1.107-1.107-.2-.2-.437-.437-.7-.67-.117.233-.2.379-.262.524-.146.466-.262.932-.408 1.4-.262.816-.553 1.631-.845 2.476a1.319 1.319 0 0 0-.087.466c.087.845.2 1.66.32 2.5a23.593 23.593 0 0 1 2.3-.524 4.936 4.936 0 0 1 1.311 0 3.732 3.732 0 0 1 1.049.466 1.261 1.261 0 0 1 .472.266zM48.634 70.89c-.087-.233-.233-.5-.35-.786a.578.578 0 0 0-.816-.32 2.022 2.022 0 0 1-.379.146c-.757.146-1.515.262-2.272.437-.612.117-1.223.291-1.864.408-.9.146-1.806.262-2.709.437a.849.849 0 0 0-.466.437.51.51 0 0 0 .262.612c.35.2.67.437 1.019.641.466.291.9.553 1.369.816a.732.732 0 0 0 .437.058c.583-.175 1.194-.408 1.777-.612a5.251 5.251 0 0 0 .612-.233c.961-.408 1.922-.845 2.855-1.252a.8.8 0 0 0 .525-.789z" class="cls-6" data-name="Path 881" transform="translate(.3 -31.976)"/>
                <path id="Path_882" d="M62.583.117c.32-.029.67-.087.99-.117a3.948 3.948 0 0 1 .583.058 8.918 8.918 0 0 1 .932.142c.175.029.379.087.553.117.262.029.524 0 .757.029a4.531 4.531 0 0 1 2.272.786 7.906 7.906 0 0 1 1.019.7A6.848 6.848 0 0 1 71.38 3.9a9.578 9.578 0 0 1 .728 2.855 16.335 16.335 0 0 1 .029 2.068 8.749 8.749 0 0 1-.816 3.437 17.1 17.1 0 0 1-1.078 1.719 40.886 40.886 0 0 0-1.194 1.893c-.7 1.194-1.369 2.388-2.039 3.583a10.845 10.845 0 0 0-.786 1.66 41.456 41.456 0 0 0-.932 3.262c-.175.67-.262 1.369-.379 2.039l-.175.961a.5.5 0 0 1-.175.175 1.028 1.028 0 0 1-1.282-1.019 10.629 10.629 0 0 0-.233-1.6 12.234 12.234 0 0 1-.175-1.777l-.087-.612a3.093 3.093 0 0 0-.117-.553 18.561 18.561 0 0 0-.408-1.165 9.409 9.409 0 0 0-.581-1.226 6.761 6.761 0 0 0-.612-.728c-.466-.583-.9-1.223-1.369-1.777-.437-.524-1.019-.99-1.4-1.544-.5-.786-1.4-1.252-1.719-2.185a10 10 0 0 0-.553-1.282 5.066 5.066 0 0 1-.35-1.456c-.058-.437-.175-.9-.233-1.34a6.657 6.657 0 0 1 0-1.078 12.82 12.82 0 0 1 .146-1.486 4.848 4.848 0 0 1 .61-2.064c.32-.466.5-1.049.786-1.544a5.188 5.188 0 0 1 1.252-1.6 11.1 11.1 0 0 1 1.165-.67 3.215 3.215 0 0 1 .757-.408C60.69.291 61.214.2 61.738.087A7.215 7.215 0 0 1 62.525 0c.058.087.058.087.058.117zm1.427 25.166h.146c.087-.583.146-1.165.233-1.777a.85.85 0 0 1 .058-.262l.7-2.01a4.047 4.047 0 0 1 .175-.553c.379-.786.728-1.6 1.107-2.388.379-.757.816-1.515 1.252-2.272.029-.058.087-.087.117-.117a3.284 3.284 0 0 0 .35-.524c.291-.5.524-.99.816-1.486a7.726 7.726 0 0 0 .9-1.34 6.9 6.9 0 0 0 .728-1.864c.058-.553.146-1.078.2-1.6.058-.67.117-1.369.117-2.039a8.346 8.346 0 0 0-.32-2.243 3.5 3.5 0 0 0-.932-1.544 5.38 5.38 0 0 0-1.136-1.019c-.437-.2-.728-.612-1.252-.786a14.9 14.9 0 0 0-1.569-.294A9.312 9.312 0 0 0 63.894.9a4.908 4.908 0 0 0-1.457.09c-.2.029-.379.146-.553 0a.218.218 0 0 0-.146-.029 5.515 5.515 0 0 0-1.515.262 4.912 4.912 0 0 0-1.543 1.02 7.106 7.106 0 0 0-1.369 2.068c-.2.524-.524 1.049-.67 1.573a10.1 10.1 0 0 0-.291 3.379 3.925 3.925 0 0 0 .379 1.922c.291.553.291 1.223.757 1.689.029.029.029.117.058.146a2.755 2.755 0 0 0 .32.583c.612.7 1.252 1.4 1.864 2.1.524.583 1.078 1.136 1.6 1.748a13.041 13.041 0 0 1 .932 1.282 8.342 8.342 0 0 1 1.369 2.8 7.678 7.678 0 0 1 .233 1.806c0 .379.087.728.117 1.107a8.185 8.185 0 0 1 .031.837z" class="cls-6" data-name="Path 882" transform="translate(-39.194)"/>
                <path id="Path_883" d="M166.861 29.858h1.806a.669.669 0 0 1 .612.757c-.058.291-.466.35-.786.175a1.82 1.82 0 0 0-.641-.291 8.851 8.851 0 0 0-1.748-.146c-.9.029-1.806.233-2.709.233a15.9 15.9 0 0 0-2.592.379 15 15 0 0 0-2.563.641 8.474 8.474 0 0 0-2.534 1.34 4.5 4.5 0 0 1-1.049.553 2.492 2.492 0 0 0-1.515 1.952 6.779 6.779 0 0 1-.233 1.107 1.508 1.508 0 0 1-.408.612 2.037 2.037 0 0 1-1.631.583 2.551 2.551 0 0 1-.99-.612 1.647 1.647 0 0 1-.641-.874 1.624 1.624 0 0 1 .35-1.311 12.374 12.374 0 0 1 2.155-1.282c.524-.291 1.049-.583 1.6-.845a10.62 10.62 0 0 1 1.019-.408c.757-.32 1.486-.7 2.243-.961a39.049 39.049 0 0 1 3.2-.9c.757-.175 1.544-.291 2.33-.408.466-.058.9-.117 1.369-.146 1.107-.087 2.243-.117 3.35-.2z" class="cls-6" data-name="Path 883" transform="translate(-105.664 -21.12)"/>
                <path id="Path_884" d="M196.667 35.788c-.641-.029-1.194-.117-1.719-.087a11.771 11.771 0 0 0-1.719.291c-.757.146-1.515.262-2.3.379h-.146c-.146 0-.291 0-.32-.2-.058-.233.058-.291.233-.35a11.348 11.348 0 0 1 1.34-.35c1.049-.146 2.126-.291 3.175-.35 1.194-.058 2.388-.029 3.554 0a6.141 6.141 0 0 1 1.019.146.48.48 0 0 1 .379.553c0 .146-.233.32-.408.35a7.492 7.492 0 0 1-1.165.146c-.583.058-1.165.058-1.748.146-.553.087-1.078.2-1.631.32a1.419 1.419 0 0 0 .2.087 17.541 17.541 0 0 1 2.155.379c1.078.291 2.126.641 3.2.961a.8.8 0 0 1 .379.2 1.309 1.309 0 0 1 .175.35c-.117.058-.262.175-.379.146-.379-.087-.728-.233-1.078-.32-.874-.233-1.748-.466-2.621-.641q-1.136-.218-2.272-.35a2.181 2.181 0 0 0-.612.058c-.32.058-.612.117-.932.175-.233.029-.845-.175-.932-.5a.351.351 0 0 1 .175-.466 7.921 7.921 0 0 1 2.126-.7c.5-.087 1.019-.175 1.515-.291a1.18 1.18 0 0 0 .357-.082z" class="cls-6" data-name="Path 884" transform="translate(-134.888 -24.865)"/>
                <path id="Path_885" d="M176.27 98.817a1.141 1.141 0 0 0 .262-.117c.5.32.932.583 1.369.874.029.029.087.029.117.058l.786 1.311a.723.723 0 0 1 .029.262v.437a2.113 2.113 0 0 1-.262-.146c-.262-.35-.524-.728-.786-1.107-.2.291-.35.524-.524.757a7.116 7.116 0 0 1-.786.845 7.222 7.222 0 0 1-1.719 1.252 5.006 5.006 0 0 1-1.835.7.221.221 0 0 0-.117.058c-.67.379-1.34.117-2.01.058a4.938 4.938 0 0 1-.641-.117.565.565 0 0 1-.408-.7c.029-.087.233-.117.35-.117.408.029.816.117 1.223.117a8.987 8.987 0 0 0 1.253 0 6.175 6.175 0 0 0 2.621-.932 7.217 7.217 0 0 0 1.922-1.719c.262-.35.2-.5-.146-.7-.348-.259-.814-.434-.698-1.074z" class="cls-6" data-name="Path 885" transform="translate(-120.199 -69.951)"/>
                <path id="Path_886" d="M215.175 71.7c.175.029.466.029.728.087.117.029.2.175.291.291-.117.087-.2.233-.35.262a4.7 4.7 0 0 1-.641 0 1.236 1.236 0 0 0-1.107.786.427.427 0 0 0 .058.32 1.318 1.318 0 0 1-.146 1.544 1.672 1.672 0 0 1-1.719.466.935.935 0 0 1-.67-1.223.566.566 0 0 1 .32-.262c.058-.029.2.146.262.262a1.74 1.74 0 0 1 .175.32c.058.087.175.233.262.233a.754.754 0 0 0 .816-.32.863.863 0 0 0 0-.757c-.117-.2-.466-.291-.7-.437a8.671 8.671 0 0 1-.845-.583.246.246 0 0 1 0-.2 1.175 1.175 0 0 1 .786-.553c.791-.09 1.577-.149 2.48-.236z" class="cls-6" data-name="Path 886" transform="translate(-149.842 -50.816)"/>
                <path id="Path_887" d="M169.3 75.8c.058-.5.117-.9.175-1.311a.914.914 0 0 1 .553-.728.7.7 0 0 1 .583.175 1.682 1.682 0 0 1 .262 1.689 4.639 4.639 0 0 1-.087.32.626.626 0 0 1-.583.583.682.682 0 0 1-.757-.32 3.535 3.535 0 0 1-.146-.408z" class="cls-6" data-name="Path 887" transform="translate(-119.9 -52.266)"/>
                <path id="Path_888" d="M144.4 67.2a1.177 1.177 0 0 1 .816.874.193.193 0 0 1 .029.175c-.175.35.029.67.029.99a.6.6 0 0 1-.466.583.445.445 0 0 1-.583-.291l-.35-.612a1.33 1.33 0 0 1 .291-1.515c.092-.087.179-.146.234-.204z" class="cls-6" data-name="Path 888" transform="translate(-101.79 -47.626)"/>
                <path id="Path_889" d="M84.194 141.549c-.262.233-.466.466-.7.67a1 1 0 0 0-.233 1.136 1.1 1.1 0 0 0 .9.757c.408.058.786.087 1.252.117a14.382 14.382 0 0 1-.99 1.194.288.288 0 0 0-.058.408c.146.233 0 .583.379.728a2.43 2.43 0 0 0 1.573.117c.262-.087.5-.175.874-.291-.2.583-.379 1.136-.553 1.66-.262.816-.524 1.6-.816 2.418-.291.786-.612 1.6-.9 2.388-.2.583-.408 1.165-.612 1.719-.233.583-.466 1.194-.728 1.777-.437.932-.9 1.864-1.369 2.8a.549.549 0 0 0-.058.233c.058.5.087.99.175 1.486.117.728.233 1.427.35 2.155.2 1.282.35 2.592.553 3.874.146.9.32 1.806.466 2.68a8.9 8.9 0 0 1 .087 1.019c-.291-.146-.553-.262-.786-.408-.932-.553-1.835-1.078-2.767-1.631-.786-.466-1.544-.9-2.33-1.369-.67-.379-1.369-.757-2.039-1.165a2.855 2.855 0 0 1-.786-.524 5.431 5.431 0 0 0-1.427-.845c-.67-.35-1.311-.786-1.952-1.165-.437-.233-.874-.437-1.311-.67-.291-.175-.553-.379-.845-.553a.868.868 0 0 0-.845-.087c-1.282.5-2.621.932-3.9 1.427-1.6.612-3.2 1.223-4.777 1.864-.728.291-1.427.728-2.155 1.049-.437.2-.9.379-1.34.583-.146.058-.291.146-.466.233l-3.146 1.66-.612.35a.413.413 0 0 1-.32-.029c-.408-.262-.845-.524-1.223-.786-.786-.553-1.6-1.078-2.33-1.66a26.654 26.654 0 0 0-2.33-1.719c-.466-.32-.874-.728-1.311-1.078-.728-.553-1.486-1.078-2.243-1.631-.728-.524-1.456-1.019-2.185-1.544-.7-.5-1.4-1.019-2.1-1.544a13 13 0 0 0-1.456-1.019 1.473 1.473 0 0 0-.874-.029c-.7.146-1.369.32-2.039.466-1.049.2-2.1.379-3.117.583-1.34.262-2.68.5-3.99.757-.786.146-1.573.32-2.33.466-1.223.233-2.418.466-3.641.728a3.181 3.181 0 0 0-.5.146c-.32.117-.524.087-.67-.262a62.21 62.21 0 0 0-1.4-2.942c-.291-.583-.641-1.107-.932-1.66-.35-.728-.641-1.515-.99-2.243-.379-.786-.816-1.544-1.165-2.359-.437-.961-.816-1.922-1.223-2.884-.058-.117.058-.32.058-.466a23.117 23.117 0 0 1 .408-4.253c.233-1.282.379-2.563.583-3.816.175-1.049.35-2.068.553-3.117.117-.67.291-1.369.408-2.039a.778.778 0 0 0-.087-.524.867.867 0 0 1-.175-.641c.058-1.223.087-2.418.146-3.641v-1.113c.7-.641 1.427-1.282 2.126-1.952.524-.5.99-1.019 1.486-1.544s-.175-1.34-.757-1.311a2.55 2.55 0 0 1-.466-.058c-.2-.058-.233-.2-.087-.35a1.157 1.157 0 0 0 .379-.961c-.058-.466-.291-.99-.612-1.019a2.24 2.24 0 0 0-1.078.029 17.288 17.288 0 0 0-1.66.786 2.022 2.022 0 0 1-.379.146 22.184 22.184 0 0 1-.2-1.223.312.312 0 0 0-.058-.175c-.408-.408-.087-.786.117-1.107a2.407 2.407 0 0 0 .291-1.486 1.773 1.773 0 0 0-.99-1.427.929.929 0 0 1-.408-.728c-.087-.728-.233-1.456-.35-2.185 0-.087-.058-.146-.058-.233a8.757 8.757 0 0 0-.32-2.155c-.117-.757-.262-1.486-.35-2.243a1.4 1.4 0 0 1 .175-1.019.564.564 0 0 1 .5-.291c.35-.029.7-.087 1.049-.146.845-.175 1.689-.379 2.534-.524.99-.175 2.01-.35 3-.5 1.369-.2 2.709-.437 4.078-.641a4.364 4.364 0 0 1 .641-.058c1.049-.087 2.126-.2 3.175-.262.641-.029 1.282 0 1.922 0 .437 0 .874-.058 1.311-.058.466 0 .9 0 1.369.029a4.151 4.151 0 0 1 2.126 1.019c.816.524 1.631 1.078 2.447 1.6.932.612 1.835 1.194 2.767 1.806.845.553 1.689 1.165 2.534 1.719.9.583 1.835 1.136 2.738 1.748.845.583 1.66 1.194 2.5 1.806.583.437 1.165.845 1.748 1.282a4.591 4.591 0 0 0 .437.35c.466.35.932.67 1.427.99a.249.249 0 0 0 .2 0c.35-.175.7-.408 1.078-.583.5-.233.99-.437 1.486-.641.728-.32 1.456-.641 2.185-.932.437-.175.874-.291 1.311-.466.786-.291 1.573-.612 2.388-.9.9-.35 1.806-.7 2.68-1.049.816-.32 1.6-.641 2.418-.932.641-.233 1.311-.408 1.981-.612l2.359-.7c1.049-.291 2.1-.641 3.175-.845.262-.058.583.2.874.379a91.55 91.55 0 0 1 2.738 1.893c.816.583 1.6 1.194 2.418 1.777.845.583 1.748 1.136 2.592 1.719 1.165.786 2.33 1.631 3.5 2.418l2.186 1.49c.058.058.175.087.175.146.2.7.932.816 1.369 1.252a18.208 18.208 0 0 1 1.282 1.311c.087.087.029.291.117.408.058.117.2.175.35.32-.117.379-.233.757-.379 1.165l-1.223 3.5c-.2.553-.5 1.049-.641 1.6a29.894 29.894 0 0 1-1.427 3.466.937.937 0 0 0-.029.5c.233.845.5 1.66.728 2.476.058.175.087.32-.117.379a6.884 6.884 0 0 0-2.155 1.223 7.952 7.952 0 0 0-1.34 1.282.775.775 0 0 0 .408 1.194c.168-.182.343.018.576.167z" class="cls-2" data-name="Path 889" transform="translate(-8.724 -75.692)"/>
                <path id="Path_890" d="M274.97 192.731a3.914 3.914 0 0 0-.408-.32 3.731 3.731 0 0 0-1.049-.466 6.571 6.571 0 0 0-1.311 0 23.592 23.592 0 0 0-2.3.524c-.117-.816-.2-1.66-.32-2.5a.888.888 0 0 1 .087-.466c.262-.816.583-1.631.845-2.476.146-.466.262-.932.408-1.4.058-.146.146-.291.262-.524.262.262.466.466.7.67.379.379.757.728 1.107 1.107.233.233.437.466.641.7.437.553.932 1.078 1.311 1.66a10.6 10.6 0 0 1 .932 1.806c.058.146-.087.437-.2.612-.239.374-.475.666-.705 1.073z" class="cls-4" data-name="Path 890" transform="translate(-190.966 -131.185)"/>
                <path id="Path_891" d="M146.013 130.758a.788.788 0 0 1-.553.786c-.961.408-1.922.845-2.855 1.253-.2.087-.408.146-.612.233-.583.2-1.165.408-1.777.612a.764.764 0 0 1-.437-.058c-.466-.262-.9-.553-1.369-.816-.35-.2-.67-.437-1.019-.641a.51.51 0 0 1-.262-.612.967.967 0 0 1 .466-.437c.9-.175 1.806-.291 2.709-.437.612-.117 1.252-.291 1.864-.408l2.272-.437a1.464 1.464 0 0 0 .379-.146.578.578 0 0 1 .816.32c.145.292.291.584.378.788z" class="cls-4" data-name="Path 891" transform="translate(-97.079 -91.843)"/>
                <path id="Path_892" d="M66.282 27.453a8.17 8.17 0 0 0 0-.845c-.029-.379-.117-.728-.117-1.107a9.586 9.586 0 0 0-.233-1.806 8.341 8.341 0 0 0-1.369-2.8 13.041 13.041 0 0 0-.932-1.282c-.524-.612-1.078-1.165-1.6-1.748a62.187 62.187 0 0 1-1.864-2.1 3.732 3.732 0 0 1-.32-.583c-.029-.058-.029-.117-.058-.146-.466-.466-.466-1.136-.757-1.689a4.817 4.817 0 0 1-.379-1.922 11 11 0 0 1 .291-3.379 15 15 0 0 1 .67-1.573 7.516 7.516 0 0 1 1.369-2.068 4.755 4.755 0 0 1 1.544-1.019 5.333 5.333 0 0 1 1.515-.262.317.317 0 0 1 .146.029c.2.146.35.058.553 0a6.032 6.032 0 0 1 1.456-.087 9.312 9.312 0 0 1 1.803.27 14.9 14.9 0 0 1 1.573.291c.5.175.786.583 1.252.786a4.254 4.254 0 0 1 1.136 1.019 3.5 3.5 0 0 1 .932 1.544 7.331 7.331 0 0 1 .32 2.243c0 .67-.058 1.369-.117 2.039-.058.553-.146 1.078-.2 1.6a9.156 9.156 0 0 1-.728 1.864 9.822 9.822 0 0 1-.9 1.34c-.291.466-.524.99-.816 1.486l-.35.524c-.029.058-.087.087-.117.117-.408.757-.845 1.486-1.252 2.272s-.757 1.573-1.107 2.388a4.045 4.045 0 0 0-.175.553l-.7 2.01c-.029.087-.029.175-.058.262-.087.583-.146 1.165-.233 1.777zm-2.5-17.1c.029.175.029.35.058.466a2.01 2.01 0 0 0 1.019 1.369 2.3 2.3 0 0 0 1.515.175 4.069 4.069 0 0 0 .845-.262 2.108 2.108 0 0 0 .932-1.486 1.85 1.85 0 0 0-1.311-2.126 2.628 2.628 0 0 0-1.981.233 2.14 2.14 0 0 0-1.082 1.633z" class="cls-7" data-name="Path 892" transform="translate(-41.465 -2.17)"/>
                <path id="Path_893" d="M76.3 23.274a2.2 2.2 0 0 1 1.107-1.66 2.628 2.628 0 0 1 1.981-.233 1.9 1.9 0 0 1 1.312 2.126 2.108 2.108 0 0 1-.932 1.486 2.2 2.2 0 0 1-.845.262 2.3 2.3 0 0 1-1.515-.175 1.95 1.95 0 0 1-1.019-1.369 1.43 1.43 0 0 1-.089-.437z" class="cls-6" data-name="Path 893" transform="translate(-53.988 -15.089)"/>
            </g>
            <path id="Path_894" d="M11.9 108.9l19.865-2.5-1.107 11.564s-16.049 2.767-15.933 2.243c.641-2.621-1.194-3.117-1.194-3.117-.553-1.107-.408-2.884-1.631-8.19z" class="cls-8" data-name="Path 894" transform="translate(-8.646 -75.408)"/>
            <path id="Path_895" d="M81.149 112.6L80.1 123.086l18.554 11.651s-.262-9.379-.262-10.136c0-.787-17.243-12.001-17.243-12.001z" class="cls-9" data-name="Path 895" transform="translate(-56.981 -79.802)"/>
            <path id="Path_896" d="M146.662 130.543l20.448-8.243-1.777 13.486-18.933 4.078z" class="cls-8" data-name="Path 896" transform="translate(-103.97 -86.677)"/>
            <path id="Path_897" d="M217.211 123.6l-1.311 13.107L230.26 146l4.369-11.156z" class="cls-9" data-name="Path 897" transform="translate(-153.226 -87.598)"/>
            <path id="Path_898" d="M215.9 170.6l14.36 9.2.728 2.476a54.235 54.235 0 0 0-4.544 3.117c-.816.932 1.4 1.719 1.4 1.719l-.786 1.806s4.078.7 2.214 1.019.466 2.68.466 2.68l-13.807-8.331V170.6z" class="cls-9" data-name="Path 898" transform="translate(-153.226 -120.908)"/>
            <path id="Path_899" d="M165.164 168.6l1.311 14.273-18.467 4.227s-2.825-11.942-1.486-12.671c1.311-.729 18.642-5.829 18.642-5.829z" class="cls-8" data-name="Path 899" transform="translate(-103.801 -119.491)"/>
            <path id="Path_900" d="M77.407 154.9l18.554 9.816 1.6 12.67-21.261-9.874z" class="cls-9" data-name="Path 900" transform="translate(-54.288 -109.781)"/>
            <path id="Path_901" d="M37.391 156.6v12.117l-13.952 1.952-2.039-5.505 5.389-4.486-2.214-2.913z" class="cls-8" data-name="Path 901" transform="translate(-15.379 -110.986)"/>
            <path id="Path_902" d="M21.274 203.575l15.408-3.175 2.155 15.2H20.4z" class="cls-8" data-name="Path 902" transform="translate(-14.671 -142.028)"/>
            <path id="Path_903" d="M23.9 252.269l17.04-1.369 3.99 9.5-16.515 3.146z" class="cls-8" data-name="Path 903" transform="translate(-17.151 -177.819)"/>
            <path id="Path_904" d="M80.1 202.6l19.312 6.554.262 14.564L80.1 215.3z" class="cls-9" data-name="Path 904" transform="translate(-56.981 -143.587)"/>
            <path id="Path_905" d="M82.4 250.9l18.554 6.554.35 12.437-15.175-10.02z" class="cls-9" data-name="Path 905" transform="translate(-58.611 -177.819)"/>
            <path id="Path_906" d="M150.09 223.824l17.884-4.223-.728 10.282-18.146 6.261z" class="cls-8" data-name="Path 906" transform="translate(-105.883 -155.636)"/>
            <path id="Path_907" d="M149.3 263.288c.553-.583 18.088-6.088 18.088-6.088l-1.66 11.535-16.4 7.457v-12.9z" class="cls-8" data-name="Path 907" transform="translate(-106.025 -182.284)"/>
            <path id="Path_908" d="M214.483 219.6l14.942 8.389-4.69 10.69-10.835-6.263z" class="cls-9" data-name="Path 908" transform="translate(-151.809 -155.636)"/>
            <path id="Path_909" d="M210.144 266.1l10.835 5.534 1.573 11.68-13.952-8.184z" class="cls-9" data-name="Path 909" transform="translate(-148.052 -188.591)"/>
        </g>
    </g>
</svg>
