<svg xmlns="http://www.w3.org/2000/svg" viewBox="8076 -5321 24 23.952">
    <defs>
        <style>
            .cls-1{fill:#fff}
        </style>
    </defs>
    <g id="on_off_button" transform="translate(7940 -5388)">
        <path id="Path_712" d="M19.762 2.857A11.6 11.6 0 0 1 24 12a11.684 11.684 0 0 1-3.476 8.476 11.5 11.5 0 0 1-8.476 3.476 11.5 11.5 0 0 1-8.476-3.476A11.23 11.23 0 0 1 0 12a11.6 11.6 0 0 1 4.238-9.143L6.1 4.714A9.067 9.067 0 0 0 2.667 12a8.951 8.951 0 0 0 2.714 6.571 8.951 8.951 0 0 0 6.571 2.714 8.951 8.951 0 0 0 6.571-2.714A8.951 8.951 0 0 0 21.238 12a8.821 8.821 0 0 0-3.428-7.19zM13.286 0v13.286h-2.619V0z" class="cls-1" data-name="Path 712" transform="translate(136 67)"/>
    </g>
</svg>
