<svg xmlns="http://www.w3.org/2000/svg" viewBox="7008 -4367 24 24">
	<g id="pointing-right" transform="translate(6988 -4516)">
		<g id="pointing-right-2" style="opacity:.56" data-name="pointing-right" transform="translate(20 149)">
			<g id="box">
				<path id="Rectangle_574" d="M0 0h24v24H0z" style="fill:none" data-name="Rectangle 574"/>
			</g>
			<g id="icon" transform="translate(1.127 1.893)">
				<g id="Group_573" data-name="Group 573">
					<path id="Path_572" d="M22.315 11.779H13.89c-.514 0-1.128-.179-1.17-.68a3.025 3.025 0 0 1 .522-1.653 3.869 3.869 0 0 0 .62-2.038 2.513 2.513 0 0 0-2.621-2.361 3.058 3.058 0 0 0-1.489.39c-.978.547-5.152 3.7-6.358 8.07a8.954 8.954 0 0 0 1.34 7.993 8.727 8.727 0 0 0 7.047 3.4H12a8.99 8.99 0 0 0 3.1-.516 3.194 3.194 0 0 0 1.792-2.277 2.288 2.288 0 0 1 .2-.516c.127-.187.271-.366.423-.554a4.907 4.907 0 0 0 1.014-1.724 3.756 3.756 0 0 0 .1-1.674c-.012-.1-.021-.233-.026-.233h3.713a2.813 2.813 0 1 0 0-5.625zm0 3.75h-4.984l-.266.489a2.758 2.758 0 0 0-.3 1.85 1.94 1.94 0 0 1-.04.911 3.251 3.251 0 0 1-.675 1.078c-.17.21-.345.427-.516.679a3.651 3.651 0 0 0-.434 1.014c-.168.541-.269.868-.839 1.136a6.751 6.751 0 0 1-2.341.338h-.12a6.877 6.877 0 0 1-5.577-2.661A7.119 7.119 0 0 1 5.2 14c1.04-3.765 4.767-6.541 5.466-6.932a1.177 1.177 0 0 1 .573-.151c.119 0 .717.029.749.594a2.576 2.576 0 0 1-.4 1.052 4.7 4.7 0 0 0-.734 2.687 2.793 2.793 0 0 0 3.038 2.4h8.425a.938.938 0 0 1 0 1.875z" data-name="Path 572" transform="translate(-3.005 -5.047)"/>
				</g>
			</g>
		</g>
	</g>
</svg>