<svg xmlns="http://www.w3.org/2000/svg" viewBox="9108 -5593 24 24">
    <defs>
        <style>
            .cls-1{fill:none}.cls-2{fill:#fff}
        </style>
    </defs>
    <g id="navbar_search_" data-name="navbar_search" transform="translate(8828 -5633)">
        <path id="square" d="M0 0h24v24H0z" class="cls-1" transform="translate(280 40)"/>
        <path id="path" d="M46.9 61.7h-.8l-.3-.3a6.259 6.259 0 0 0 1.6-4.2 6.5 6.5 0 1 0-6.5 6.5 6.259 6.259 0 0 0 4.2-1.6l.3.3v.8l5 5 1.5-1.5zm-6 0a4.5 4.5 0 1 1 4.5-4.5 4.481 4.481 0 0 1-4.5 4.5z" class="cls-2" transform="translate(248.6 -7.7)"/>
    </g>
</svg>
