<svg xmlns="http://www.w3.org/2000/svg" viewBox="7768 -5593 24 24">
    <defs>
        <style>
            .cls-1{fill:none}.cls-2{fill:#fff}
        </style>
    </defs>
    <g id="Settings-icon" transform="translate(7448 -5633)">
        <g id="_x36_4px_boxes" transform="translate(320 40)">
            <path id="Rectangle_392" d="M0 0h24v24H0z" class="cls-1" data-name="Rectangle 392"/>
        </g>
        <g id="Production" transform="translate(320.826 41.125)">
            <g id="Group_391" data-name="Group 391">
                <path id="Path_390" d="M22.013 12.457l-.345-1.5 1.288-2.226L20.2 5.3l-2.468.75-1.4-.667L15.38 3h-4.412l-.948 2.381-1.4.669-2.472-.75-2.756 3.431 1.288 2.226-.345 1.5-2.135 1.45.985 4.286 2.553.387.968 1.206-.188 2.56 3.977 1.9 1.9-1.744h1.56l1.9 1.744 3.977-1.9-.188-2.559.968-1.205 2.553-.387.985-4.286zm-.394 4.074l-2.016.306-1.888 2.351.148 2.019-1.679.8-1.5-1.381h-3.02l-1.5 1.381-1.679-.8.148-2.018-1.888-2.353-2.016-.306-.412-1.794L6 13.593l.675-2.936L5.658 8.9l1.158-1.439 1.951.594 2.724-1.3.749-1.881h1.867l.749 1.881 2.724 1.3 1.951-.595L20.69 8.9l-1.015 1.754.675 2.936 1.681 1.143zM13.21 9.75a3.938 3.938 0 1 0 3.938 3.938A3.941 3.941 0 0 0 13.21 9.75zm0 6a2.063 2.063 0 1 1 2.063-2.062 2.065 2.065 0 0 1-2.063 2.062z" class="cls-2" data-name="Path 390" transform="translate(-2.203 -3)"/>
            </g>
        </g>
    </g>
</svg>
