<svg xmlns="http://www.w3.org/2000/svg" viewBox="7067 -5061 16 16">
    <defs>
        <style>
            .cls-1{opacity:.56}.cls-2{fill:none}.cls-3{fill:#fff}
        </style>
    </defs>
    <g id="share_footer" transform="translate(6988 -5669)">
        <g id="share_footer-2" class="cls-1" data-name="share_footer" transform="translate(79 608)">
            <g id="_x36_4px_boxes">
                <path id="Rectangle_17" d="M0 0h16v16H0z" class="cls-2" data-name="Rectangle 17"/>
            </g>
            <g id="Production" transform="translate(.992 .75)">
                <g id="Group_17" data-name="Group 17">
                    <path id="Path_17" d="M15.094 11.5a2.869 2.869 0 0 0-2.2 1.029l-3.267-1.69a2.777 2.777 0 0 0 0-1.427l3.267-1.69a2.875 2.875 0 1 0-.575-1.11L9.061 8.3a2.875 2.875 0 1 0 0 3.657l3.258 1.685a2.873 2.873 0 1 0 2.775-2.142zm0-7.25a1.625 1.625 0 1 1-1.618 1.762 1.627 1.627 0 0 1 1.618-1.762zM7.9 11.355a1.624 1.624 0 1 1 0-2.46 1.625 1.625 0 0 1 0 2.46zM15.094 16a1.625 1.625 0 1 1 1.625-1.625A1.626 1.626 0 0 1 15.094 16z" class="cls-3" data-name="Path 17" transform="translate(-3.969 -3)"/>
                </g>
            </g>
        </g>
    </g>
</svg>
