<svg xmlns="http://www.w3.org/2000/svg" viewBox="7008 -4319 24 24">
    <defs>
        <style>
            .cls-1{opacity:.56}.cls-2{fill:none}
        </style>
    </defs>
    <g id="share_drawer" transform="translate(6988 -4468)">
        <g id="share_drawer-2" class="cls-1" data-name="share_drawer" transform="translate(20 149)">
            <g id="_x36_4px_boxes">
                <path id="Rectangle_17" d="M0 0h24v24H0z" class="cls-2" data-name="Rectangle 17"/>
            </g>
            <g id="Production" transform="translate(1.488 1.125)">
                <g id="Group_17" data-name="Group 17">
                    <path id="Path_17" d="M20.657 15.75a4.3 4.3 0 0 0-3.3 1.543l-4.9-2.535a4.166 4.166 0 0 0 0-2.141l4.9-2.535a4.313 4.313 0 1 0-.863-1.665l-4.886 2.527a4.313 4.313 0 1 0 0 5.486l4.886 2.527a4.31 4.31 0 1 0 4.164-3.208zm0-10.875a2.437 2.437 0 1 1-2.427 2.644 2.44 2.44 0 0 1 2.427-2.644zM9.87 15.532a2.436 2.436 0 1 1 0-3.689 2.438 2.438 0 0 1 0 3.689zM20.657 22.5a2.437 2.437 0 1 1 2.438-2.438 2.44 2.44 0 0 1-2.438 2.438z" data-name="Path 17" transform="translate(-3.969 -3)"/>
                </g>
            </g>
        </g>
    </g>
</svg>
