<svg xmlns="http://www.w3.org/2000/svg" viewBox="7472.342 -5363.933 37.511 37.511">
	<g id="Shield_controller" transform="translate(-1825 -2172)">
		<g id="_x36_4px_boxes" transform="translate(9297.342 -3191.933)">
			<path id="Rectangle_414" d="M0 0h37.511v37.511H0z" style="fill:none" data-name="Rectangle 414"/>
		</g>
		<g id="Production" transform="translate(9301.503 -3189.365)">
			<g id="Group_413" data-name="Group 413">
				<path id="Path_412" d="M34.895 6.372c-5.545 1.709-8.707 1.653-13.227-1.991l-.919.741a10.931 10.931 0 0 1-6.855 2.332 13.291 13.291 0 0 1-3.911-.608l-1.542-.475C5.367 21.282 6.72 30.466 21.668 36.19 36.815 30.39 37.9 20.953 34.895 6.372zM21.668 33.055c-10.989-4.4-13.094-11.508-10.978-23a14.519 14.519 0 0 0 10.978-1.974 14.517 14.517 0 0 0 10.978 1.978 37.834 37.834 0 0 1 .639 4.649H12.4a25.634 25.634 0 0 0-.119 2.925h21.105c-.129 7.033-3.095 11.967-11.718 15.422z" style="fill:#fff" data-name="Path 412" transform="translate(-7.1 -4.381)"/>
			</g>
		</g>
	</g>
</svg>