<svg xmlns="http://www.w3.org/2000/svg" viewBox="7008 -4491 24 24">
	<g id="stop_button" transform="translate(6988 -4640)">
		<g id="_x36_4px_boxes" transform="translate(20 149)">
			<path id="Rectangle_14" d="M0 0h24v24H0z" style="fill:none" data-name="Rectangle 14"/>
		</g>
		<g id="Group_980" style="opacity:.56" data-name="Group 980" transform="translate(22.313 151.303)">
			<g id="Group_981" data-name="Group 981">
				<g id="Group_980-2" data-name="Group 980">
					<path id="Path_713" d="M16.534 2.851A9.635 9.635 0 0 0 9.692 0a9.675 9.675 0 0 0-6.841 16.534 9.635 9.635 0 0 0 6.842 2.851 9.675 9.675 0 0 0 6.841-16.534zM15.2 15.2a7.7 7.7 0 0 1-5.511 2.281A7.786 7.786 0 0 1 1.9 9.692 7.786 7.786 0 0 1 9.692 1.9a7.786 7.786 0 0 1 7.792 7.792A7.7 7.7 0 0 1 15.2 15.2z" data-name="Path 713"/>
				</g>
			</g>
			<g id="Group_983" data-name="Group 983" transform="translate(6.081 6.271)">
				<g id="Group_982" data-name="Group 982">
					<path id="Path_714" d="M16 16.5v7.222h7.222V16.5zm5.663 5.663h-4.1v-4.1h4.067v4.1z" data-name="Path 714" transform="translate(-16 -16.5)"/>
				</g>
			</g>
		</g>
	</g>
</svg>