<svg xmlns="http://www.w3.org/2000/svg" viewBox="7167.5 -5402.5 177 177">
    <defs>
        <style>
            .cls-1{fill:none;opacity:.87}.cls-2{fill:#62aad2}.cls-2,.cls-3{fill-rule:evenodd}.cls-4{filter:url(#_2018-02-14_16-40-58)}
        </style>
        <filter id="_2018-02-14_16-40-58" width="177" height="177" x="7167.5" y="-5402.5" filterUnits="userSpaceOnUse">
            <feOffset dy="1"/>
            <feGaussianBlur result="blur" stdDeviation="1.5"/>
            <feFlood flood-opacity=".369"/>
            <feComposite in2="blur" operator="in"/>
            <feComposite in="SourceGraphic"/>
        </filter>
    </defs>
    <g id="Illustration01" transform="translate(7164 -5727)">
        <g id="Group_858" class="cls-4" data-name="Group 858" transform="translate(-7164 5727)">
            <rect id="_2018-02-14_16-40-58-2" width="168" height="168" class="cls-1" data-name="2018-02-14_16-40-58" rx="2" transform="translate(7172 -5399)"/>
        </g>
        <g id="Group_984" data-name="Group 984" transform="translate(92.448 354.5)">
            <path id="Path_673" d="M64.888 309.3l.4 2.408 10.146-6.593-9.679 8.136-.678 6.008s.117 5.073-1.87 7.458c-1.987 2.361-6.429 5.961-7.808 8.533s-2.595 3.086-1.333 4.138c1.239 1.052-.561.187 3.32 1.987 2.969 1.379 3.063 3.343 11.268 4.465 4.956.678 4.185-.865.935-2.992-7.6-5-12.04-1.8-10.193-3.927 1.824-2.1 6.639-8.159 9.164-10.871a25.2 25.2 0 0 0 5.985-12.835c.631-4.98-.117-5.681.631-4.98s4.161 7.551 5.354 10.123 3.25 4.115.678 5.143-5.821 4.442-6.85 5.307-5.821 3.25-6.148 5.471c-.351 2.221 2.385 4.278 2.735 2.572s.327-1.286.935-.771c2.9 2.385 10.17 2.314 12.227 2.127 2.057-.164 1.029-1.707 1.029-1.707s-5.658-2.221-8.393-2.572 3.226-6.429 5.541-8.79c2.314-2.338 4.208-6.1 3.857-9.188s-5.987-16.25-5.987-16.25z" class="cls-2" data-name="Path 673" transform="translate(-41.019 -231.25)"/>
            <path id="Path_674" d="M3.39 9.407l14.728-3.53-.795 11.409 4.793-.584L23.588 5.2l17.581-2.83.117-.023L40.023 31.2l3.46-28.9 9.866 2.665-1.005 8.884 3.764.468 1.239-8.323L65.9 7.583 63.963 31.2l-1.356 25.9-8 3.3.795-10.614-6.5.468 1.379 11.409-10.608 3.057-16.085-2.829.468-10.731-5.821-1.823-2.1 11.572L1.8 59.6z" class="cls-2" data-name="Path 674" transform="translate(-1.379 -1.845)"/>
            <path id="Path_675" d="M23.869 78.047a23.761 23.761 0 0 1 2.174-1.1c1.566-.631 3.156-1.216 4.722-1.824a15.431 15.431 0 0 0 2.525-1.146 16.042 16.042 0 0 1 2.455-1.029c.818-.351 1.777-.3 2.478-.982a.355.355 0 0 1 .3-.07c1.239.07 2.291-.631 3.46-.818a.821.821 0 0 0 .678-1.075 2.286 2.286 0 0 0-.3-.842c-1.005-1.566-2.034-3.109-3.039-4.652-.14-.21-.281-.444-.491-.771a31.237 31.237 0 0 1 1.73-.725 4.644 4.644 0 0 0 .608-.21c.842-.374 1.66-.795 2.548-1.1 1.894-.655 3.834-1.239 5.751-1.823 1.613-.491 3.226-.959 4.839-1.473.912-.281 1.8-.584 2.712-.912 1.309-.444 2.618-.912 3.928-1.333.678-.21.748-.234.748-.935.023-1.309.023-2.618.047-3.928 0-.584-.07-1.192-.023-1.777.117-1.636.3-3.3.421-4.933.117-1.777.14-3.577.3-5.354a56.042 56.042 0 0 0 .444-6.265 11.518 11.518 0 0 1 .164-1.543 4.6 4.6 0 0 0 .07-.561 7.032 7.032 0 0 1 .561-3.109c-.3-.257-.631-.514-.935-.771a2.614 2.614 0 0 1-.631-.608c-.281-.444-.14-.725.374-.795a2.529 2.529 0 0 1 .421 0 .6.6 0 0 0 .584-.444c-1.356-1.473-1.356-1.473-1.216-2.268.421-.07.818-.257 1.239.023.444.281.7.094.959-.4-.374-.468-.771-.959-1.146-1.449a2.461 2.461 0 0 1-.444-.935c-.094-.725.14-.865.818-.584.3.14.608.444 1.005.117-.023-.094 0-.234-.07-.3a1.914 1.914 0 0 1-.421-1.52 27.249 27.249 0 0 1 .14-2.759 62.324 62.324 0 0 1 1.169-8.814 2.058 2.058 0 0 1 .047-.4c.117-.468-.094-.678-.514-.748-.3-.047-.608-.07-.888-.14a295.717 295.717 0 0 1-4.418-1.146c-1.309-.327-2.642-.655-3.951-1.005-1.146-.3-2.291-.678-3.46-1.005C50.754 1.3 49.094 1.087 47.5.619 47.388.6 47.154.6 47.13.666c-.14.3-.327.187-.538.14-.584-.164-1.169-.281-1.73-.444a6.687 6.687 0 0 0-2.454-.047c-.14.374-.14.631.21.748.3.094.608.257.912.327 2.361.538 4.746 1.075 7.107 1.59 4.442.982 8.907 1.987 13.349 2.969.281.07.538.164.678.21-.257 2.057-.491 4.021-.748 5.985-.257 1.987-.514 4-.771 5.985-.234 0-.421.023-.608.023a1.261 1.261 0 0 0-1.146 1.894c.21.4.4.818.584 1.239-.14.444-.444.3-.748.257-.631-.094-1.309.608-1.052 1.192a6.98 6.98 0 0 0 .468.935 4.1 4.1 0 0 0 .538.561c-.047.468-.444.538-.748.7-.491.3-.584.561-.234.982.584.678 1.216 1.309 1.94 2.057-.047.842-.117 1.847-.164 2.852-.047 1.262-.468 2.525-.14 3.811a1.565 1.565 0 0 1-.047.561c-.187 2.011-.374 4.021-.538 6.032-.117 1.73-.187 3.483-.281 5.213l-.21 4.325c-.023.514.023 1.029.023 1.543 0 .818-.023 1.636-.047 2.455-.023.491-.14.888-.725 1.029a13.779 13.779 0 0 0-1.379.491c-1.8.608-3.624 1.216-5.447 1.8-1.122.351-2.244.678-3.366 1.029-1.262.4-2.525.865-3.811 1.239a26.255 26.255 0 0 0-4.769 1.683 15.47 15.47 0 0 1-1.449.584 15.479 15.479 0 0 1-.351-1.823c-.117-1.029-.164-2.057-.234-3.086-.117-1.917-.257-3.811-.351-5.728-.047-.725.023-1.473.023-2.2 0-1.847-.023-3.717.023-5.564.047-1.753.187-3.483.257-5.213s.07-3.46.164-5.19c.047-1.005.187-2.011.257-3.016.047-.795.07-1.566.094-2.361.023-.584-.023-1.192 0-1.777.117-1.59.257-3.2.4-4.793.187-2.151.351-4.3.561-6.429.187-1.894.421-3.787.631-5.681.023-.21.094-.444-.257-.514-.3 2.1-.631 4.208-.935 6.312a101.012 101.012 0 0 0-1.333 11.857c-.047 1.707-.21 3.437-.327 5.143-.14 2.057-.3 4.138-.421 6.2-.094 1.52-.094 3.063-.187 4.582-.187 2.665-.187 5.354-.14 8.019l.14 10.567c0 .7-.281.959-.959.842a150.086 150.086 0 0 0-3.226-.514l-3.718-.636c-.4-.07-.748-.187-.725-.795.374-.023.748-.07 1.122-.094.351-.023.7.023 1.029-.023.608-.094.818-.3.865-.795.047-.725-.047-.842-.725-1.052a4.725 4.725 0 0 0-.795-.14.545.545 0 0 1-.514-.444c-.117-.468-.281-.935-.444-1.4-.14-.4-.374-.795-.818-.818a3.551 3.551 0 0 0-2.525.4 3.459 3.459 0 0 0-1.59 2.361 1.449 1.449 0 0 1-1.122 1.309 2.247 2.247 0 0 1-.795.07c-.491-.047-.982-.117-1.473-.187-2.244-.3-4.489-.584-6.733-.912-3.25-.491-6.5-.771-9.772-.958-1.052-.07-2.127-.117-3.179-.164-.281-.023-.514-.047-.538-.374-.047-.865-.117-1.73-.117-2.595 0-1.122.07-2.244.047-3.343C1.075 50.7.958 49.76.912 48.8a11.5 11.5 0 0 1 .023-2.2 10.554 10.554 0 0 0 .047-2.1c-.023-1.216-.14-2.455-.187-3.67-.047-1.169-.024-2.338-.024-3.507 0-.561-.047-1.146-.047-1.707 0-1.309.047-2.642.047-3.951 0-.444-.07-.865-.07-1.309 0-1.356.047-2.688.07-4.044 0-.4.047-.818.023-1.216a17.467 17.467 0 0 1 .047-4.278 4.6 4.6 0 0 0-.023-.982 6.582 6.582 0 0 1-.047-.959A11.409 11.409 0 0 0 .888 16.7a13.747 13.747 0 0 1-.093-2.4c0-1.122.07-2.221.047-3.32a20.968 20.968 0 0 1 .234-3.226c.187-.935.164-.935 1.146-1.005a.4.4 0 0 0 .164-.023C4 6.37 5.611 6 7.247 5.669c1.473-.281 2.946-.514 4.418-.748.748-.117 1.5-.234 2.244-.374 1.5-.257 2.992-.584 4.489-.795 1.52-.234 3.039-.351 4.535-.561 1.333-.187 2.642-.421 3.951-.631C30.6 1.952 34.3 1.32 38.013.689c.561-.094 1.146-.21 1.73-.327-.257-.584-.678-.468-1.029-.444-.561.047-1.146.117-1.707.164-1.566.14-3.156.21-4.722.421-2.735.374-5.447.818-8.159 1.239-.982.164-1.987.281-2.992.4-.912.117-1.823.281-2.759.421-1.777.281-3.577.468-5.33.865-2.829.631-5.7.912-8.533 1.473-1.169.234-2.408.117-3.46.959a1.66 1.66 0 0 0-.725 1.235 58.616 58.616 0 0 0-.257 7.013c.047 2.081.023 4.161.023 6.219C.094 21.94 0 23.553 0 25.166c0 1.987.023 4 .047 5.985.023 2.431.07 4.863.094 7.294.023 2.385.047 4.746.094 7.13.023 1.473.07 2.946.094 4.442.023 1.824.07 3.67.07 5.494 0 1.029-.047 2.057-.07 3.156 1.029.023 2.127.047 3.156.094-.047.655-.07 1.262-.14 1.847-.14 1.192-.281 2.385-.514 3.553a7.1 7.1 0 0 0 .161 2.339.516.516 0 0 0 .234.3 6.111 6.111 0 0 0 1.262.561 6.783 6.783 0 0 0 1.543.164c1.707.023 3.413.023 5.143-.023 1.5-.023 2.992-.094 4.606-.164a3.183 3.183 0 0 1 .281.421c.3.771.631 1.566.888 2.361.187.584.281 1.216.468 1.824.374 1.169.818 2.314 1.216 3.483s.725 2.338 1.122 3.507c.257.725.584.795 1.239.421a6.012 6.012 0 0 1 1.707-.795 18.769 18.769 0 0 1 1.333 5.564 36.619 36.619 0 0 1 .047 3.928 18.039 18.039 0 0 1-1.262 6.382 3.636 3.636 0 0 1-.608 1.052c-.281.351-.631.631-.935.982-.468.514-.935 1.075-1.426 1.566-.538.538-1.146 1.005-1.66 1.543q-1.473 1.473-2.876 3.016a14.468 14.468 0 0 0-1.66 2.127c-.584 1.005-1.029 2.081-1.543 3.133a.743.743 0 0 0-.047.327c.047.561.117 1.146.187 1.707a1.145 1.145 0 0 0 .865.982c.514.164 1.005.4 1.543.561.655.21 1.356.374 2.034.538.14-.327.257-.584.374-.888.234.117.4.234.584.327.725.4 1.449.818 2.2 1.192a17.889 17.889 0 0 0 3.764 1.286c1.4.374 2.782.842 4.185 1.1a9.273 9.273 0 0 0 2.665-.047c.725-.094.888-.655.374-1.146a18.3 18.3 0 0 0-2.057-1.73 22.712 22.712 0 0 0-4.746-2.572c-1.333-.514-2.735-.935-4.115-1.379-.468-.164-.655-.374-.514-.818a7.49 7.49 0 0 1 .771-1.707 13.255 13.255 0 0 1 1.707-2.081 17.118 17.118 0 0 1 2.572-2.455 37.148 37.148 0 0 0 4.021-3.2 15.788 15.788 0 0 0 2.011-2.127c.538-.7.935-1.543 1.426-2.291a12.8 12.8 0 0 0 1.753-4.442 30.58 30.58 0 0 0 .561-6.008 3.965 3.965 0 0 1 .094-.514c.047-.023.117-.023.164-.047.374.631.725 1.262 1.122 1.87a19.769 19.769 0 0 1 2.876 6.639 4.052 4.052 0 0 1-.491 3.063 5.79 5.79 0 0 1-1.66 1.543 26.213 26.213 0 0 1-2.665 1.753 25.377 25.377 0 0 0-3.974 3.25A25.849 25.849 0 0 0 26.558 104a4.882 4.882 0 0 0-1.005 2.805.864.864 0 0 0 .444.888 3.422 3.422 0 0 0 1.052.421c.912.14 1.823.257 2.759.327a1.975 1.975 0 0 0 .678-.187c0-.327.023-.608.023-.888.7.234 1.379.468 2.057.631a42.9 42.9 0 0 0 5.7 1.029c.865.094 1.73.281 2.595.374 1.005.094 2.011.07 3.016.164a3.369 3.369 0 0 0 1.8-.351c.234-.117.4-.4.655-.631a10.643 10.643 0 0 0-3.741-2.431 15.957 15.957 0 0 0-4.231-1.473c-1.473-.281-2.922.117-4.442.094a1.236 1.236 0 0 1 .164-.351c.842-.888 1.66-1.777 2.525-2.665.795-.818 1.613-1.613 2.408-2.455.748-.771 1.52-1.543 2.221-2.338.631-.7 1.216-1.449 1.777-2.2.468-.608.912-1.216 1.333-1.847a13.345 13.345 0 0 0 1.5-3.787 7.943 7.943 0 0 0 .327-3.32 31.212 31.212 0 0 0-1.73-6.2 41.232 41.232 0 0 0-2.805-5.891c-.234-.421-.468-.865-.725-1.333-.444.117-.865.21-1.309.3.655 1.379 1.216 2.665 1.87 3.928a32.834 32.834 0 0 1 1.94 4.582c.374 1.146.771 2.268 1.1 3.413a7.97 7.97 0 0 1 .4 3.226A13.729 13.729 0 0 1 43.2 93.5a11.907 11.907 0 0 1-1.87 2.338c-1.777 1.777-3.483 3.6-5.213 5.424a165.318 165.318 0 0 0-3.32 3.624 4.452 4.452 0 0 0-.444.888c.4-.023.631 0 .888-.023.865-.094 1.707-.234 2.572-.281a18.38 18.38 0 0 1 1.964.07 9.428 9.428 0 0 1 3.226.748 21.183 21.183 0 0 1 2.572 1.426 1.8 1.8 0 0 1 .912.865 4.465 4.465 0 0 1-.468.047c-1.169 0-2.338.047-3.507-.023a22.724 22.724 0 0 1-5.751-.771c-1.473-.468-2.969-.958-4.442-1.4a3.311 3.311 0 0 0-.7-.047c0 .468 0 .795-.023 1.239a9.925 9.925 0 0 1-3.2-.561 4.45 4.45 0 0 1 .187-1.075 10.237 10.237 0 0 1 1.1-1.894 17.776 17.776 0 0 1 2.151-2.431 20.467 20.467 0 0 1 2.127-1.52c.257-.187.538-.374.795-.561a19.246 19.246 0 0 1 1.894-1.52 20.892 20.892 0 0 0 3.741-2.969 4.747 4.747 0 0 0 1.333-4.3 15.611 15.611 0 0 0-1.683-4.863c-1.052-1.894-2.291-3.717-3.437-5.564-.281-.444-.608-.865-.4-1.426a1.287 1.287 0 0 0-.491-1.5.871.871 0 0 0-.655.865c-.023.888-.023 1.8-.094 2.688-.117 1.987-.21 3.974-.4 5.938a23.777 23.777 0 0 1-.655 3.366 14.917 14.917 0 0 1-1.8 3.741 15 15 0 0 1-3.039 3.694c-.257.234-.584.374-.865.584-.468.327-.912.678-1.379 1.005a17.144 17.144 0 0 0-1.94 1.5q-1.543 1.578-2.946 3.3a6.212 6.212 0 0 0-1.543 3.53 1.253 1.253 0 0 0 1.122 1.5 14.6 14.6 0 0 1 2.057.444 46.628 46.628 0 0 1 4.606 1.917 19.563 19.563 0 0 1 3.577 2.408c.047.047.047.14.07.234a4.952 4.952 0 0 1-2.2-.07c-2.057-.561-4.115-1.1-6.148-1.707a9.852 9.852 0 0 1-3.624-1.917 7.621 7.621 0 0 1-.725-.771.452.452 0 0 0-.655-.14.725.725 0 0 0-.117.561c.047.351.14.7-.327.935-.935-.351-1.894-.7-2.829-1.052a2.957 2.957 0 0 1-.164-1.894 9.465 9.465 0 0 1 1.66-3.413c.725-.795 1.309-1.707 2.034-2.5.935-1.005 1.94-1.894 2.9-2.852a36 36 0 0 0 2.922-3.063 13.711 13.711 0 0 0 2.268-5 20.268 20.268 0 0 0 .491-5.026 23.786 23.786 0 0 0-.608-5.47 25.287 25.287 0 0 0-.838-2.728z" data-name="Path 675"/>
            <path id="Path_676" d="M23.869 78.107c.3.959.655 1.847.865 2.759a22.694 22.694 0 0 1 .608 5.47 21.445 21.445 0 0 1-.491 5.026 13.676 13.676 0 0 1-2.268 5c-.888 1.1-1.94 2.057-2.922 3.063-.959.959-1.987 1.87-2.9 2.852-.725.795-1.333 1.707-2.034 2.5a9.465 9.465 0 0 0-1.66 3.413 2.957 2.957 0 0 0 .164 1.894c.935.351 1.894.7 2.829 1.052.468-.234.374-.584.327-.935a.725.725 0 0 1 .117-.561.452.452 0 0 1 .655.14 7.622 7.622 0 0 0 .725.771 9.852 9.852 0 0 0 3.624 1.917c2.034.631 4.091 1.146 6.148 1.707a4.976 4.976 0 0 0 2.2.07c-.023-.094-.023-.21-.07-.234a19.563 19.563 0 0 0-3.577-2.408 46.626 46.626 0 0 0-4.606-1.917 12.411 12.411 0 0 0-2.057-.444 1.253 1.253 0 0 1-1.122-1.5 6.212 6.212 0 0 1 1.543-3.53q1.4-1.718 2.946-3.3a15.283 15.283 0 0 1 1.94-1.5c.444-.351.912-.678 1.379-1.005.281-.21.608-.351.865-.584a14.026 14.026 0 0 0 3.039-3.694 13.466 13.466 0 0 0 1.8-3.74 23.153 23.153 0 0 0 .655-3.366c.187-1.964.281-3.951.4-5.938.047-.888.07-1.8.094-2.689a.824.824 0 0 1 .655-.865 1.287 1.287 0 0 1 .491 1.5c-.187.561.14.982.4 1.426 1.169 1.847 2.385 3.67 3.437 5.564a15.406 15.406 0 0 1 1.683 4.863 4.747 4.747 0 0 1-1.333 4.3 19.361 19.361 0 0 1-3.741 2.969 19.244 19.244 0 0 0-1.894 1.52c-.257.21-.538.374-.795.561a17.49 17.49 0 0 0-2.127 1.52A21.061 21.061 0 0 0 27.7 104.2c-2.5 3.25-2.361 4.535-1.1 1.894a4.668 4.668 0 0 0-.187 1.075 9.925 9.925 0 0 0 3.2.561c0-.444 0-.795.023-1.239a3.311 3.311 0 0 1 .7.047c1.5.468 2.969.935 4.442 1.4a22.724 22.724 0 0 0 5.751.771c1.169.07 2.338.023 3.507.023.117 0 .257-.023.468-.047a1.909 1.909 0 0 0-.912-.865 23.1 23.1 0 0 0-2.572-1.426 9.687 9.687 0 0 0-3.226-.748 13.791 13.791 0 0 0-1.964-.07c-.865.047-1.707.187-2.572.281-.234.023-.468.023-.888.023a3.885 3.885 0 0 1 .444-.888c1.1-1.216 2.2-2.431 3.32-3.624 1.73-1.823 3.437-3.647 5.213-5.424a12.633 12.633 0 0 0 1.87-2.338 13.73 13.73 0 0 0 1.707-5.658 8.4 8.4 0 0 0-.4-3.226c-.327-1.146-.725-2.291-1.1-3.413a29.282 29.282 0 0 0-1.94-4.582c-.655-1.262-1.216-2.548-1.87-3.928.444-.117.842-.21 1.309-.3.257.491.491.912.725 1.333a39.955 39.955 0 0 1 2.805 5.891 31.212 31.212 0 0 1 1.73 6.2 7.982 7.982 0 0 1-.327 3.32 13.913 13.913 0 0 1-1.5 3.787 33.544 33.544 0 0 1-1.333 1.847c-.584.748-1.146 1.5-1.777 2.2-.725.795-1.473 1.566-2.221 2.338-.795.818-1.613 1.613-2.408 2.455-.842.865-1.683 1.777-2.525 2.665a1.236 1.236 0 0 0-.164.351c1.52.023 2.969-.351 4.442-.094a15.956 15.956 0 0 1 4.231 1.473 10.642 10.642 0 0 1 3.741 2.431c-.234.234-.4.514-.655.631a3.655 3.655 0 0 1-1.8.351c-1.005-.094-2.011-.07-3.016-.164-.865-.07-1.73-.257-2.595-.374a39.434 39.434 0 0 1-5.7-1.029c-.678-.187-1.356-.421-2.057-.631 0 .281-.023.538-.023.888a1.729 1.729 0 0 1-.678.187 37.027 37.027 0 0 1-2.759-.327 4.127 4.127 0 0 1-1.052-.421.883.883 0 0 1-.444-.888 4.882 4.882 0 0 1 1.005-2.805 24.491 24.491 0 0 1 3.133-3.46 25.139 25.139 0 0 1 3.974-3.25 24.931 24.931 0 0 0 2.665-1.753A6.5 6.5 0 0 0 38 94.108a4.052 4.052 0 0 0 .491-3.063 20.249 20.249 0 0 0-2.863-6.645c-.4-.608-.748-1.239-1.122-1.87-.047.023-.117.023-.164.047a3.963 3.963 0 0 0-.094.514 30.581 30.581 0 0 1-.561 6.008 12.359 12.359 0 0 1-1.753 4.442c-.491.748-.865 1.566-1.426 2.291a14.441 14.441 0 0 1-2.008 2.123 35.531 35.531 0 0 1-4.021 3.2 17.068 17.068 0 0 0-2.572 2.455 13.255 13.255 0 0 0-1.707 2.081 7.491 7.491 0 0 0-.771 1.707c-.14.444.047.678.514.818 1.379.468 2.759.865 4.115 1.379a23.314 23.314 0 0 1 4.746 2.572 17.919 17.919 0 0 1 2.057 1.73c.514.491.351 1.075-.374 1.146a8.507 8.507 0 0 1-2.665.047c-1.426-.257-2.782-.725-4.185-1.1a19.326 19.326 0 0 1-3.764-1.286c-.748-.374-1.473-.795-2.2-1.192-.187-.094-.374-.21-.584-.327-.14.3-.234.538-.374.888-.7-.187-1.379-.351-2.034-.538-.514-.164-1.005-.4-1.543-.561a1.119 1.119 0 0 1-.865-.982c-.07-.561-.117-1.146-.187-1.707a.743.743 0 0 1 .047-.327 32.407 32.407 0 0 1 1.543-3.133 13.045 13.045 0 0 1 1.66-2.127q1.4-1.543 2.876-3.016c.538-.538 1.146-1.005 1.66-1.543.491-.491.935-1.052 1.426-1.566a12.471 12.471 0 0 0 .935-.982 3.972 3.972 0 0 0 .608-1.052 18.04 18.04 0 0 0 1.259-6.38c-.023-1.309.094-2.618-.047-3.928a18.6 18.6 0 0 0-1.333-5.564 4.966 4.966 0 0 0-1.707.795c-.655.374-.982.3-1.239-.421-.4-1.146-.725-2.338-1.122-3.507s-.818-2.314-1.216-3.483c-.187-.584-.281-1.216-.468-1.824-.257-.795-.584-1.59-.888-2.361a1.837 1.837 0 0 0-.281-.421c-1.59.047-3.086.14-4.606.164-1.707.023-3.413.023-5.143.023a6.783 6.783 0 0 1-1.543-.164 6.718 6.718 0 0 1-1.262-.561.387.387 0 0 1-.234-.3 6.519 6.519 0 0 1-.164-2.338c.234-1.169.351-2.361.514-3.553.07-.584.094-1.192.14-1.847-1.052-.023-2.151-.047-3.156-.094.023-1.1.07-2.127.07-3.156 0-1.823-.047-3.67-.07-5.494-.018-1.475-.064-2.948-.088-4.444a704.72 704.72 0 0 1-.093-7.13C.14 36.12.094 33.688.07 31.257.023 29.2 0 27.213 0 25.225c0-1.613.094-3.225.094-4.816.023-2.081.023-4.161-.023-6.219a58.438 58.438 0 0 1 .256-7.013 1.593 1.593 0 0 1 .725-1.239c1.048-.818 2.291-.724 3.46-.958 2.852-.561 5.728-.865 8.556-1.5 1.753-.4 3.553-.584 5.33-.865.912-.14 1.824-.3 2.759-.421 1.005-.14 2.011-.234 2.992-.374 2.712-.4 5.447-.865 8.159-1.239C33.875.374 35.465.3 37.031.164 37.592.117 38.177.047 38.738 0c.374-.023.795-.164 1.029.444-.584.117-1.146.234-1.73.327-3.717.631-7.411 1.239-11.128 1.87-1.309.21-2.618.468-3.951.631-1.52.21-3.039.327-4.535.561s-2.992.538-4.489.795c-.748.14-1.5.234-2.244.374-1.473.234-2.946.468-4.418.748-1.636.3-3.25.7-4.863 1.052-.047 0-.117.023-.164.023-.982.07-.959.07-1.146 1.005a14.441 14.441 0 0 0-.164 3.179c.023 1.1-.023 2.221-.047 3.32a16.722 16.722 0 0 0 .094 2.408 13.706 13.706 0 0 1-.117 2.174c-.023.327.047.631.047.959a4.6 4.6 0 0 1 .023.982 17.467 17.467 0 0 0-.047 4.278c.023.4-.023.818-.023 1.216l-.07 4.046c0 .444.07.865.07 1.309 0 1.309-.047 2.642-.047 3.951 0 .561.023 1.146.047 1.707.023 1.169 0 2.338.023 3.507.047 1.216.164 2.455.187 3.67a9.083 9.083 0 0 1-.047 2.1 11.461 11.461 0 0 0-.023 2.2c.047.959.164 1.894.187 2.852.023 1.122-.047 2.244-.047 3.343 0 .865.07 1.73.117 2.595.023.327.257.351.538.374 1.052.047 2.127.094 3.179.164 3.273.187 6.523.468 9.772.959 2.244.327 4.489.608 6.733.912.491.07.982.14 1.473.187a2.3 2.3 0 0 0 .795-.07 1.422 1.422 0 0 0 1.122-1.309 3.41 3.41 0 0 1 1.59-2.361 3.311 3.311 0 0 1 2.525-.4c.444.047.678.444.818.818.164.468.327.935.444 1.4a.508.508 0 0 0 .514.444 4.342 4.342 0 0 1 .795.14c.7.21.771.327.725 1.052-.023.491-.257.7-.865.795-.351.047-.7 0-1.029.023-.374.023-.748.047-1.122.094 0 .608.327.725.725.795l3.717.631c1.075.187 2.151.351 3.226.514.678.117.959-.14.959-.842l-.14-10.567c-.047-2.665-.047-5.354.14-8.019.117-1.52.117-3.063.187-4.582.117-2.057.281-4.138.421-6.2.117-1.707.281-3.437.327-5.143a100.456 100.456 0 0 1 1.333-11.853c.3-2.1.631-4.208.935-6.312.374.07.281.3.257.514-.21 1.894-.444 3.787-.631 5.681-.21 2.151-.374 4.278-.561 6.429-.14 1.59-.281 3.179-.4 4.793-.047.584 0 1.192 0 1.777-.023.795-.047 1.59-.094 2.361-.07 1.005-.21 2.011-.257 3.016-.07 1.73-.094 3.46-.164 5.19-.07 1.753-.21 3.483-.257 5.213-.047 1.847 0 3.694-.023 5.564 0 .725-.07 1.473-.023 2.2.094 1.917.234 3.811.351 5.728.07 1.029.117 2.057.234 3.086.07.584.234 1.146.351 1.823.561-.234 1.029-.374 1.449-.584a26.9 26.9 0 0 1 4.769-1.675c1.286-.374 2.548-.842 3.811-1.239 1.122-.351 2.244-.678 3.366-1.029 1.823-.584 3.624-1.192 5.447-1.8.468-.164.912-.374 1.379-.491.584-.14.7-.538.725-1.029.023-.818.047-1.636.047-2.455 0-.514-.047-1.029-.023-1.543.047-1.449.117-2.876.21-4.325.094-1.73.164-3.483.281-5.213.14-2.011.351-4.021.538-6.032a1.565 1.565 0 0 0 .047-.561c-.3-1.286.094-2.548.14-3.811.047-1.005.117-2.011.164-2.852-.725-.771-1.379-1.379-1.94-2.057-.374-.421-.257-.678.234-.982.3-.187.7-.234.748-.7a4.04 4.04 0 0 1-.538-.561 5.818 5.818 0 0 1-.468-.935c-.257-.584.421-1.286 1.052-1.192.3.047.608.164.748-.257-.187-.4-.374-.818-.584-1.239a1.25 1.25 0 0 1 1.146-1.894c.187 0 .374-.023.608-.023.257-2.011.514-4 .771-5.985.257-1.964.491-3.928.748-5.985-.14-.047-.4-.14-.678-.21C59.638 5 55.173 4 50.731 3.016c-2.361-.538-4.746-1.052-7.107-1.59-.3-.07-.608-.234-.912-.327-.374-.117-.351-.374-.21-.748A7.237 7.237 0 0 1 44.956.4c.561.187 1.169.3 1.73.444.21.07.4.164.538-.14.023-.07.257-.07.374-.047 1.59.491 3.226.7 4.839 1.146 1.146.327 2.291.678 3.46 1.005 1.309.351 2.618.678 3.951 1.005 1.473.374 2.946.771 4.418 1.146.281.07.584.094.888.14.421.07.631.281.514.748-.047.14 0 .281-.047.4a62.325 62.325 0 0 0-1.169 8.814 21.8 21.8 0 0 0-.14 2.759 1.914 1.914 0 0 0 .421 1.52c.07.07.047.21.07.3-.4.327-.7.023-1.005-.117-.655-.281-.912-.14-.818.584a2.159 2.159 0 0 0 .444.935c.351.514.771.982 1.146 1.449-.257.468-.514.678-.959.4-.421-.281-.842-.094-1.239-.023-.117.795-.117.795 1.216 2.268a.583.583 0 0 1-.584.444 2.529 2.529 0 0 0-.421 0c-.514.07-.655.351-.374.795a3.883 3.883 0 0 0 .631.608c.3.257.608.514.935.771a7.032 7.032 0 0 0-.561 3.109 4.6 4.6 0 0 1-.07.561c-.047.514-.164 1.029-.164 1.543a62.208 62.208 0 0 1-.444 6.265c-.164 1.777-.187 3.577-.3 5.354-.117 1.636-.3 3.3-.421 4.933-.047.584.023 1.192.023 1.777 0 1.309-.023 2.618-.047 3.928-.023.725-.07.725-.748.935-1.309.421-2.618.888-3.928 1.333-.888.3-1.8.631-2.712.912-1.613.491-3.226.959-4.839 1.473-1.917.608-3.857 1.192-5.751 1.823-.865.3-1.683.725-2.548 1.1-.187.094-.421.117-.608.21-.538.234-1.075.468-1.73.725.21.327.351.561.491.771 1.005 1.543 2.034 3.086 3.039 4.652a2.407 2.407 0 0 1 .3.842.834.834 0 0 1-.678 1.075c-1.169.187-2.221.888-3.46.818a.647.647 0 0 0-.3.07c-.678.678-1.66.631-2.478.982a16.04 16.04 0 0 0-2.455 1.029 16.381 16.381 0 0 1-2.525 1.146c-1.566.631-3.156 1.192-4.722 1.823-.82.369-1.498.79-2.27 1.164zm-2.992-.14c1.683-.7 3.343-1.426 5.026-2.1 1.87-.771 3.787-1.426 5.611-2.268a50.635 50.635 0 0 1 8.159-2.922c.491-.117.982-.257 1.52-.4a2.108 2.108 0 0 0-.14-.631c-.7-1.052-1.449-2.1-2.174-3.156-.561-.795-1.192-1.543-1.683-2.385a1.315 1.315 0 0 0-1.216-.748c-.514-.023-1.052-.187-1.543.234a15.1 15.1 0 0 1-2.221 1.636 7.92 7.92 0 0 1-3.367 1.373 5.867 5.867 0 0 1-1.426.047 26.936 26.936 0 0 1-2.665-.818 1.233 1.233 0 0 1-.912-1.005c.888-.047 1.613.538 2.478.444-.374-.631-.7-1.216-1.052-1.823-.725.421-1.426.865-2.174 1.286a1.87 1.87 0 0 0-1.192 1.823c-1.543.187-3.039.374-4.512.538a68.772 68.772 0 0 0 3.483 10.875zm.234-12.3c-.047-.374-.07-.631-.117-.842-.094-.421-.257-.842-.327-1.262a1.584 1.584 0 0 0-1.94-1.4 10.818 10.818 0 0 0-1.94.3 65.516 65.516 0 0 1-7.691 1.426.846.846 0 0 1-.608-.117 3.214 3.214 0 0 1-.82-1.072c-.094-.281.14-.678.257-.982.3-.795.631-1.59 1.005-2.5a19.006 19.006 0 0 0-4.138-.094 6.378 6.378 0 0 0-.514 2.011c-.07 1.122-.351 2.244-.514 3.366a5.308 5.308 0 0 0-.07 1.052c.023.584.187.771.771.888a14.349 14.349 0 0 0 2.011.281c.608.047 1.239-.047 1.87-.047 1.333-.023 2.665.023 4-.047 1.823-.117 3.647-.281 5.447-.468 1.05-.14 2.102-.327 3.317-.49zm9.8-5.891a2.147 2.147 0 0 1-.421-.023c-.795-.094-1.075-.4-1.356-1.379-.117-.468-.281-.912-.4-1.356a3.434 3.434 0 0 0-2.992 2.735 1.035 1.035 0 0 1-.514.771 6.039 6.039 0 0 1-.865.444 16.024 16.024 0 0 0-2.688 1.146c.094.631.187 1.216.281 1.87.818-.491 1.59-.935 2.361-1.379.912-.514 1.449-.234 1.59.771a1.155 1.155 0 0 0 .187.584 9.867 9.867 0 0 0 1.165 1.24 1.56 1.56 0 0 0 1.753.327l3.226-1.543c.094-.047.14-.164.281-.327-.351-.187-.655-.351-.959-.491a6.041 6.041 0 0 1-1.122-.491 1.6 1.6 0 0 0-1.613-.117c-.094.514-.047 1.052-.444 1.449-.959-.421-1.473-2.876-1.029-5.307a.86.86 0 0 1 .982.164c.327.281.7.514 1.005.818.561.564.749.587 1.567.096zM8.814 62.514a1.626 1.626 0 0 0 1.4.327c.959-.234 1.917-.327 2.9-.468a.451.451 0 0 0 .421-.584c-.21-.748-.491-1.473-.725-2.221-.982 0-1.87-.4-2.829-.164a108.013 108.013 0 0 0-1.167 3.11zM27.8 60.737c.538-.21.491-.608.538-.959 0-.07-.14-.187-.351-.421-.097.585-.144.982-.187 1.38z" class="cls-3" data-name="Path 676" transform="translate(0 -.059)"/>
            <path id="Path_677" d="M77.96 285.545c-.538-.608-3.483-9.8-3.46-10.871 1.473-.187 2.969-.351 4.512-.538a1.87 1.87 0 0 1 1.192-1.823c.748-.4 1.449-.842 2.174-1.286.351.608.678 1.169 1.052 1.824-.865.094-1.59-.491-2.478-.444a1.266 1.266 0 0 0 .912 1.005 25.15 25.15 0 0 0 2.665.818 4.893 4.893 0 0 0 1.426-.047 8.362 8.362 0 0 0 3.366-1.379 15.1 15.1 0 0 0 2.221-1.636c.491-.421 1.005-.257 1.543-.234a1.331 1.331 0 0 1 1.216.748c.491.842 1.122 1.59 1.683 2.385l2.174 3.156a1.809 1.809 0 0 1 .14.631c-.538.14-1.029.28-1.52.4a50.631 50.631 0 0 0-8.159 2.922c-1.847.818-3.741 1.5-5.611 2.268-1.682.675-3.365 1.4-5.048 2.101z" class="cls-2" data-name="Path 677" transform="translate(-57.083 -207.638)"/>
            <path id="Path_678" d="M33.111 259.223c-1.216.164-2.268.374-3.343.468-1.823.187-3.624.351-5.447.468-1.333.07-2.665.023-4 .047-.631 0-1.239.094-1.87.047a14.364 14.364 0 0 1-2.011-.281c-.584-.117-.725-.3-.771-.888a3.989 3.989 0 0 1 .07-1.052c.164-1.122.444-2.244.514-3.366a6.378 6.378 0 0 1 .514-2.011 19.009 19.009 0 0 1 4.138.094c-.351.888-.678 1.683-1.005 2.5-.117.327-.351.725-.257.982a3 3 0 0 0 .818 1.075.872.872 0 0 0 .608.117A57.808 57.808 0 0 0 28.763 256a10.822 10.822 0 0 1 1.94-.3 1.613 1.613 0 0 1 1.94 1.4c.07.421.234.842.327 1.262a5.11 5.11 0 0 1 .141.861z" class="cls-2" data-name="Path 678" transform="translate(-12.001 -193.613)"/>
            <path id="Path_679" d="M101.934 246.912c-.795.491-1.005.468-1.566-.047-.327-.3-.678-.538-1.005-.818a.9.9 0 0 0-.982-.164c-.468 2.431.07 4.886 1.029 5.307.4-.4.351-.935.444-1.449a1.548 1.548 0 0 1 1.613.117 6.043 6.043 0 0 0 1.122.491c.3.14.608.3.958.491-.14.164-.187.281-.281.327l-3.226 1.543a1.567 1.567 0 0 1-1.753-.327 7.342 7.342 0 0 1-1.169-1.239 1.234 1.234 0 0 1-.187-.584c-.164-1.005-.678-1.286-1.59-.771-.771.421-1.543.888-2.361 1.379-.094-.655-.187-1.216-.281-1.87a14.3 14.3 0 0 1 2.688-1.146 6.04 6.04 0 0 0 .865-.444 1.035 1.035 0 0 0 .514-.771 3.434 3.434 0 0 1 2.994-2.737c.14.444.281.888.4 1.356.257 1.005.538 1.309 1.356 1.379a2.024 2.024 0 0 1 .418-.023z" class="cls-2" data-name="Path 679" transform="translate(-71.028 -187.193)"/>
        </g>
    </g>
</svg>
