<svg xmlns="http://www.w3.org/2000/svg" viewBox="7167.5 -5402.5 177 149">
    <defs>
        <style>
            .cls-1{fill:none;opacity:.87}.cls-2{fill:#549dd6}.cls-10,.cls-2,.cls-3,.cls-4,.cls-5,.cls-6,.cls-8,.cls-9{fill-rule:evenodd}.cls-4,.cls-7{fill:#fff}.cls-5{fill:#96c59a}.cls-6{fill:#e73b28}.cls-8{fill:#2590d0}.cls-9{fill:#6aad70}.cls-10{fill:#facbb7}.cls-11{filter:url(#_2018-02-14_16-40-58)}
        </style>
        <filter id="_2018-02-14_16-40-58" width="177" height="149" x="7167.5" y="-5402.5" filterUnits="userSpaceOnUse">
            <feOffset dy="1"/>
            <feGaussianBlur result="blur" stdDeviation="1.5"/>
            <feFlood flood-opacity=".369"/>
            <feComposite in2="blur" operator="in"/>
            <feComposite in="SourceGraphic"/>
        </filter>
    </defs>
    <g id="Illustration01" transform="translate(7164 -5727)">
        <g id="Group_858" class="cls-11" data-name="Group 858" transform="translate(-7164 5727)">
            <rect id="_2018-02-14_16-40-58-2" width="168" height="140" class="cls-1" data-name="2018-02-14_16-40-58" rx="2" transform="translate(7172 -5399)"/>
        </g>
        <g id="Group_1030" data-name="Group 1030" transform="translate(77.579 339.339)">
            <path id="Path_1050" d="M105.607 278.057c-.684-2.392-1.367-4.66-1.957-6.96a38.874 38.874 0 0 1-.777-4.225 8.041 8.041 0 0 1 .466-3.728 23.565 23.565 0 0 1 3.635-6.587c1.118-1.46 2.206-2.952 3.324-4.381.684-.87 1.4-1.647 2.113-2.486.031-.031.031-.093.062-.217-.249.093-.466.186-.715.28-.062-.155-.093-.311-.155-.466a.413.413 0 0 1 .217-.093 3.574 3.574 0 0 0 1.833-.528 2.122 2.122 0 0 1 .994-.217c2.051-.031 4.07-.031 6.121 0l5.717.093c.777 0 1.522-.062 2.3-.093.155 0 .342.031.621.062-.59.5-.28 1.056-.28 1.553 0 .373-.031.715-.031 1.087a2.7 2.7 0 0 0 .031.715 11.084 11.084 0 0 1-.342 4.629 2 2 0 0 1-.839 1.181 3.327 3.327 0 0 0-.5.435c-.155.155-.249.4-.435.5-.87.373-.777 1.15-.9 1.864-.28 1.74-.559 3.48-.839 5.189a145.018 145.018 0 0 1-.684 3.635 1.627 1.627 0 0 0 .715 1.8 21.717 21.717 0 0 1 2.082 1.709A22.7 22.7 0 0 1 129 274.64c.5.59.994 1.181 1.429 1.8.4.559.746 1.15 1.118 1.771.4.684.746 1.4 1.15 2.082a1.3 1.3 0 0 0 .466.342c.559.217 1.118.435 1.678.59.435.124.684.466 1.087.808-.59.249-1.056.5-1.553.715-1.087.435-2.175.9-3.293 1.3a28.492 28.492 0 0 1-3.635 1.429c-.777.186-1.522.559-2.3.808-.777.217-1.585.373-2.361.528-.124.031-.249.031-.373.062-.963.249-1.9.528-2.858.777-.342.093-.684.062-1.025.124-.932.217-1.864.5-2.8.684a15.2 15.2 0 0 1-3.759.186 2.466 2.466 0 0 1-1.678-1.181.527.527 0 0 1 .062-.684c.217-.217.4-.435.59-.652.249-.249.466-.5.808-.839a18.845 18.845 0 0 0-2.672.062 8.529 8.529 0 0 1-2.517.031c-.715-.124-1.429-.062-2.144-.186a6.557 6.557 0 0 1-2.3-.435 2.7 2.7 0 0 0-.87-.155c-.994-.186-2.02-.249-2.983-.528a24.962 24.962 0 0 1-3.666-1.118c-.9-.4-1.771-.839-2.7-1.212a2.975 2.975 0 0 1-1.056-.9.644.644 0 0 1 .249-1.087 16.441 16.441 0 0 1 2.361-.839c1.056-.249 2.144-.435 3.2-.621A23.161 23.161 0 0 1 99.61 278c1.367-.062 2.734-.031 4.07 0a5.624 5.624 0 0 1 1.927.057zm9.911-15.721c-.186.062-.373.062-.466.155a15.377 15.377 0 0 0-1.15 1.336 16.749 16.749 0 0 1-1.336 1.864 6.2 6.2 0 0 0-1.4 2.486 2.439 2.439 0 0 0-.124 1.15 13.363 13.363 0 0 0 1.025 3.449c.652 1.3 1.243 2.641 1.833 3.977a6.688 6.688 0 0 0 1.15 2.051.515.515 0 0 1 .155.4c-.124.59.28.963.559 1.4.342.5.715.994 1.087 1.491a779.047 779.047 0 0 1 4.816-1.926c-.435-.652-.839-1.3-1.274-1.864a25.93 25.93 0 0 1-3.387-6.338 1.629 1.629 0 0 0-.311-.559 1.2 1.2 0 0 1-.435-.9 4.353 4.353 0 0 0-.186-.87 14.947 14.947 0 0 1-.559-4.691zm.559 21.314a6.994 6.994 0 0 0-1.926.963c-.746.684-1.585 1.243-2.392 1.864a2.011 2.011 0 0 0-.28.249c-.249.311-.186.684.217.746.5.093.994.124 1.522.186.56-1.678 1.803-2.765 2.859-4.008zm-24.234-3.231c.59.311.994.528 1.46.746a.556.556 0 0 0 .4-.124 92.44 92.44 0 0 0 2.051-1.647c-1.177.496-2.575.248-3.911 1.025z" class="cls-2" data-name="Path 1050" transform="translate(-62.808 -171.266)"/>
            <g id="Group_1029" data-name="Group 1029" transform="translate(-.472 -.036)">
                <path id="Path_1051" d="M62.9 85.385c.621 0 .59.528.746.994a2.574 2.574 0 0 0 1.3-1.709 15.256 15.256 0 0 0 .435-2.61c.062-1.087.031-2.175 0-3.262 0-.155-.031-.28-.031-.466a7.8 7.8 0 0 0-2.361-.621 57.677 57.677 0 0 0-4.008-.124c-1.181 0-2.361.062-3.573.093a8.376 8.376 0 0 0-.87.124 10.353 10.353 0 0 1-2.952.217 2.243 2.243 0 0 0-.466 0c-1.274 1.647-2.454 3.231-3.728 4.723-.684.808-1.274 1.678-1.9 2.548a38.325 38.325 0 0 0-2.392 3.48 11.838 11.838 0 0 0-1.957 4.847 8.027 8.027 0 0 0 .311 3.542c.186.59.28 1.243.435 1.864.373 1.522.746 3.014 1.118 4.536.186.746.4 1.46.621 2.206.155.5.373.963.59 1.522-.249.746-.4.839-1.243.684-.746-.124-1.491-.28-2.237-.4h-.217c-1.15.062-2.268.093-3.418.186a4.007 4.007 0 0 0-2.051.5c-.932.621-1.9 1.15-2.858 1.709a2.585 2.585 0 0 0-.466.59 12.455 12.455 0 0 0 1.522.652c1.9.59 3.822 1.056 5.748 1.46a24.677 24.677 0 0 0 5 .559 1.165 1.165 0 0 1 .311.031c.062 0 .124.062.249.093v.746a29.292 29.292 0 0 1-3.759-.28c-.994-.186-1.988-.311-2.952-.5-1.429-.28-2.827-.652-4.225-1.025a21.358 21.358 0 0 1-4.742-1.994 2.588 2.588 0 0 1-.87-.87.615.615 0 0 1 .311-.963 17.18 17.18 0 0 1 2.517-.87c.994-.249 1.988-.4 2.983-.559s2.02-.28 3.014-.342c.9-.062 1.771 0 2.672-.031a14.392 14.392 0 0 1 3.045.249.961.961 0 0 0 .249-.062 33.295 33.295 0 0 1-.5-1.553c-.528-1.771-1.056-3.573-1.491-5.375a38.87 38.87 0 0 1-.777-4.225 8.041 8.041 0 0 1 .466-3.728 23.139 23.139 0 0 1 3.635-6.587c1.118-1.46 2.206-2.952 3.324-4.381.684-.9 1.46-1.74 2.144-2.7-.217.062-.435.124-.746.217-.217-.621.093-1.212.093-1.8a13.1 13.1 0 0 1 .186-1.833c-1.212.124-2.3.217-3.573.342a8.128 8.128 0 0 1-.621-3.511c0-1.212.186-2.454.28-3.759a6.4 6.4 0 0 1-4.039 1.212c-.5-1.025-1.025-2.144-1.585-3.293-.684.559-1.336 1.056-1.957 1.616-.528.466-1.025.994-1.585 1.46-.435.373-.839.342-1.087-.155a14.14 14.14 0 0 1-.652-1.585c-.186-.5-.342-.559-.839-.466a9.188 9.188 0 0 1-3.324.062 5.012 5.012 0 0 0-.684 0c-.062.311.217.373.342.528.217.249.621.4.528.839-.124.59-.155 1.243-.777 1.616a3.5 3.5 0 0 1-4.785-1.46 1.138 1.138 0 0 1-.124-.559 2.228 2.228 0 0 0-.746-1.46c-.155-.155-.342-.342-.342-.528-.093-.9-.155-1.8-.249-2.7-.031-.28.031-.59 0-.87a4.216 4.216 0 0 0-.217-.777c-.093.031-.186 0-.217.031-.5.4-1.025.777-1.491 1.181-1.367 1.243-2.7 2.548-4.132 3.728a14.031 14.031 0 0 1-2.3 1.367 16.2 16.2 0 0 1-1.678.746 3.206 3.206 0 0 1-1.212.342 1.581 1.581 0 0 1-.963-.28 10.168 10.168 0 0 1-2.082-2.082c-.59-.746-1.243-1.46-1.833-2.206a38.32 38.32 0 0 1-1.056-1.4 2.01 2.01 0 0 0-.249-.28 30.381 30.381 0 0 1-2.576-3.113 14.147 14.147 0 0 0-1.522-1.8c-.062-.062-.186-.155-.186-.217-.124-.839-.87-1.3-1.181-2.02-.217-.5-.466-.963-.684-1.491a3.876 3.876 0 0 1 .186-2.889 2.487 2.487 0 0 1 .715-.9c.249-.217.621-.311.684-.715 0-.031.062-.093.093-.124 1.056-.311 1.553-1.3 2.33-1.957 1.118-.963 2.144-2.051 3.293-3.014a120.009 120.009 0 0 1 5.406-4.412c1.678-1.3 3.449-2.517 5.189-3.759.652-.466 1.3-.994 1.988-1.4a11.979 11.979 0 0 1 2.237-.994 2.253 2.253 0 0 1 1.709.311 9.573 9.573 0 0 1 1.553 1.15c.684.621 1.3 1.274 1.926 1.957a10.741 10.741 0 0 1 .684.963c.528.715 1.056 1.429 1.553 2.113 2.672-1.367 2.672-1.367 3.107-1.118-.155.5-.652.621-.994.808a10.8 10.8 0 0 0-2.3 1.585c-.5.5-1.025 1.025-1.491 1.553-.311.342-.311.435-.311.963a1.524 1.524 0 0 0 1.274-.093 10.763 10.763 0 0 0 3.732-2.085c.466-.435.621-.373.777.217a5.5 5.5 0 0 1-.186 3.977c-.217.435.28.621.373 1.056.373-.093.652-.186.963-.249a3.567 3.567 0 0 1 2.175.621c1.056.5 2.082 1.025 3.138 1.522a28.546 28.546 0 0 0 2.641 1.181 14.936 14.936 0 0 0 2.579.652 23.06 23.06 0 0 0 5.1.311 34.016 34.016 0 0 1 3.84-5.125 37.03 37.03 0 0 1 4.629-4.474 11.16 11.16 0 0 0-.652-3.853 10.633 10.633 0 0 0-1.056.4 20.862 20.862 0 0 1-2.579 1.118 6.468 6.468 0 0 1-3.169.342 1.581 1.581 0 0 1-1.118-.87 8.208 8.208 0 0 1-.746-4.381 18.361 18.361 0 0 1 .5-2.858c.124-.559.062-.652-.59-.994a29.468 29.468 0 0 0 2.581-7.173c-.217 0-.342-.031-.435-.031-1.025.217-2.02.5-3.045.621-1.4.155-2.827.342-4.1-.466a2.355 2.355 0 0 0-.5-.186 2.243 2.243 0 0 1-1.678-1.429 2.97 2.97 0 0 1 .062-2.361 19.312 19.312 0 0 1 1.087-1.678 2.8 2.8 0 0 1 .311-.373c-.808-.217-1.678.062-2.33-.466a4.153 4.153 0 0 1-1.553-1.647 11.406 11.406 0 0 1-.342-2.454c-.093 0-.311-.124-.5-.062a12.133 12.133 0 0 1-2.8.217 11.936 11.936 0 0 1-2.579-.062 23.7 23.7 0 0 1-2.579-.528c-.559-.155-.808-.746-1.087-1.181a3.751 3.751 0 0 1-.124-3.355 1.725 1.725 0 0 1 .559-.777 11.877 11.877 0 0 1 2.082-1.522 8.191 8.191 0 0 1 2.423-.621 9.356 9.356 0 0 1 4.319.5 16.083 16.083 0 0 0 2.765.5c2.113.311 4.225.59 6.307.87.994.124 1.957.186 2.952.311.249-.528.559-.994.746-1.522a7.75 7.75 0 0 1 2.361-3.014A11.476 11.476 0 0 1 56.811.814 10.215 10.215 0 0 1 61.6-.025a8.688 8.688 0 0 1 6.054 2.455 6.665 6.665 0 0 1 1.46 2.486 6.274 6.274 0 0 1 .217 3.915c-.062.217-.155.4-.217.621a15.82 15.82 0 0 1-.4 1.025c-.155.311-.373.559-.559.87-.4.621-.839 1.243-1.181 1.9a4.389 4.389 0 0 0-.249 1.243 12.96 12.96 0 0 1 1.709-.528c1.367-.217 2.734-.373 3.884.59a2.84 2.84 0 0 1 1.212 2.423 3.519 3.519 0 0 0 .031.808c.062.839-.528 1.46-.715 2.206a3.464 3.464 0 0 1-1.212 1.8 6.334 6.334 0 0 1-4.383 1.611.578.578 0 0 0-.559.4c-.155.435-.311.9-.466 1.336a17.654 17.654 0 0 0-.684 2.175c-.155.652-.155 1.367-.249 2.051-.186 1.553-.435 3.076-.559 4.629-.062.777-.217 1.522-.311 2.268-.155 1.181-.217 2.33-.311 3.511-.031.249-.031.5-.062.808.373-.031.777-.031 1.15-.093a58.289 58.289 0 0 1 9.88-.373c1.181.031 2.361.186 3.542.28a.771.771 0 0 1 .684.746 4.266 4.266 0 0 1 .155.87 2.244 2.244 0 0 1-.186 1.118 20.852 20.852 0 0 1-1.15 1.74 1.82 1.82 0 0 0 .342.28c.59.466 1.212.9 1.8 1.4a1.655 1.655 0 0 1 .4.621c.186.373.062.559-.342.59a2.031 2.031 0 0 0-1.087.4 4.279 4.279 0 0 1-1.118.373c.217.28.342.5.5.715a7.7 7.7 0 0 1 .9 1.15 4.44 4.44 0 0 1 .217 1.15.765.765 0 0 1-.031.373 17.736 17.736 0 0 0-.559 2.548 11.311 11.311 0 0 1-1.429 3.853 5 5 0 0 1-2.579 2.144 2.171 2.171 0 0 1-2.548-.652c-.062-.062-.124-.155-.186-.217-.031-.062-.093-.093-.217-.186-.093 1.056-.186 2.051-.28 3.076a17.388 17.388 0 0 1-.217 1.833c-.186 1.056-.342 2.082-.59 3.138a21.285 21.285 0 0 1-.87 3.138 20.986 20.986 0 0 1-1.647 3.076c-.217.373-.746.559-1.056.87a7.027 7.027 0 0 0-.87 1.087 1.2 1.2 0 0 0-.186.994c.093.4.155.87-.28 1.056 0 .839.342 1.585.031 2.33-.062.124 0 .28.031.435a10.618 10.618 0 0 1-.311 4.629 3.171 3.171 0 0 1-.746 1.243c-.5.528-1.087.963-1.647 1.46a.424.424 0 0 0-.124.342c-.217 1.553-.4 3.076-.652 4.629-.217 1.3-.528 2.61-.777 3.915-.124.59-.155 1.212-.28 1.833a1.168 1.168 0 0 0 .5 1.15c.715.59 1.429 1.15 2.113 1.74a16.714 16.714 0 0 1 1.616 1.709c.621.715 1.181 1.46 1.74 2.206a14.2 14.2 0 0 1 .9 1.46c.4.715.777 1.429 1.181 2.144a1.265 1.265 0 0 0 .435.373 10.752 10.752 0 0 0 1.678.59c.5.124.684.528 1.181.839-.59.249-1.025.466-1.491.652-1.15.466-2.268.963-3.449 1.367a35.488 35.488 0 0 1-3.573 1.4c-.808.186-1.585.59-2.361.808-.808.217-1.616.373-2.423.559-.093.031-.186.031-.28.062-.932.249-1.864.528-2.8.777-.5.124-.994.124-1.491.249-.373.062-.715.249-1.056.311a17.813 17.813 0 0 1-2.175.4c-.9.062-1.833.031-2.765.031-.87 0-1.3-.621-1.771-1.212a.492.492 0 0 1 .062-.684 12.124 12.124 0 0 1 1.429-1.4 40.2 40.2 0 0 1 3.387-2.268 40.745 40.745 0 0 1 5.717-2.486c.217-.093.466-.186.746-.311-.466-.684-.839-1.336-1.3-1.926a18.807 18.807 0 0 1-2.3-3.884c-.373-.87-.746-1.74-1.118-2.579-.031-.062-.062-.155-.124-.186-.559-.4-.559-1.056-.715-1.647a21.227 21.227 0 0 1-.559-7.146c0-.155-.031-.28-.031-.5-.186.062-.4.062-.5.155a7.991 7.991 0 0 0-1.057 1.255c-.5.839-1.181 1.553-1.74 2.361a4.544 4.544 0 0 0-1.056 3.79 19.1 19.1 0 0 0 1.74 4.474c.435.9.777 1.833 1.181 2.7a15.239 15.239 0 0 0 .87 1.553c.186.28.466.528.249.87a.772.772 0 0 1-.5.342.855.855 0 0 1-.9-.5c-.249-.652-.5-1.274-.808-1.926-.435-.963-.9-1.926-1.367-2.889A17.338 17.338 0 0 1 47.3 99.77a5.744 5.744 0 0 1-.249-2.983 3.742 3.742 0 0 1 .249-.839 8.894 8.894 0 0 1 1.833-2.672 8.235 8.235 0 0 0 .652-.808c.808-1.087 1.616-2.206 2.423-3.293a4.145 4.145 0 0 0 .746-2.144c.093-.87.249-1.709.4-2.579.155-1.025.342-2.051.5-3.076a10.485 10.485 0 0 1 .28-1.056c.684.155.932.373.715.87a6.093 6.093 0 0 0-.186 1.647c-.124.715-.062 1.491-.217 2.206a24.382 24.382 0 0 0-.342 3.666c-.062 1.025-.155 2.082-.186 3.107-.031.652.062 1.336.062 1.988 0 .435 0 .87-.031 1.336a13.212 13.212 0 0 0 .4 2.7.788.788 0 0 1 .062.373.729.729 0 0 0 .5 1.056c.093.031.124.249.186.373.217.621.373 1.274.621 1.9.5 1.087 1.056 2.113 1.616 3.169a8.651 8.651 0 0 0 .808 1.056c.777 1.025 1.522 2.082 2.3 3.107.311.4.217.746-.28.9-.249.062-.528.093-.808.155a5.16 5.16 0 0 0-1.74.777c-.746.5-1.553.9-2.3 1.367a8.778 8.778 0 0 0-2.268 1.9 7.284 7.284 0 0 0-1.46 2.144 1.748 1.748 0 0 0-.062.311c.839-.124 1.647-.249 2.454-.373 1.243-.217 2.486-.466 3.728-.715.528-.093 1.056-.28 1.585-.4a.6.6 0 0 0 .342-.28 1.469 1.469 0 0 1 .777-.311 15.749 15.749 0 0 0 4.381-1.585 6.762 6.762 0 0 1 .839-.342 14.4 14.4 0 0 0 3.511-2.051c-.5-.932-.9-1.833-1.4-2.672-.59-.994-1.181-1.957-1.833-2.858s-1.4-1.74-2.113-2.579a8.666 8.666 0 0 0-.994-.87c-.528-.5-1.025-.994-1.585-1.46a1.11 1.11 0 0 1-.373-1.118c.373-1.833.746-3.7 1.056-5.53a40.02 40.02 0 0 0 .59-4.723c.031-.932.311-1.8.28-2.7-.055-.161.07-.321.131-.476zm-.217-27.807c1.025-.715 1.025-.715 1.553.466-.435 1.025-1.118 2.33-2.175 2.734-.9.373-2.858.684-3.728 1.025-1.212.5-2.392 1.056-3.635 1.491-1.429.528-6.8 3.2-7.705 3.7-.559.311-.963.652-.9 1.367a2.646 2.646 0 0 1-.124.715 11.179 11.179 0 0 0-.093 3.666c.093.684.342.839 1.056 1.025a5.207 5.207 0 0 0 1.553 0c.932 0 1.864 0 2.8-.062.684-.031 1.367-.155 2.051-.217 1.212-.124 2.454-.217 3.666-.342.124 0 .249.031.528.062-.249.217-.373.373-.559.435a19.525 19.525 0 0 1-1.926.528c-.963.155-1.957.186-2.952.311-.621.062-1.274.217-1.9.311a5.764 5.764 0 0 0-.155 2.517c.373 0 .715.031 1.056 0 1.553-.217 3.107-.155 4.66-.373a37.952 37.952 0 0 1 4.971-.124 18.558 18.558 0 0 0 4.878-.59c.249-.87.5-1.709.746-2.548.4-.124.808-.28 1.212-.4a1.1 1.1 0 0 0 .808-.559c.311-.59.684-1.15.963-1.74a6.775 6.775 0 0 0 .5-1.4 36.414 36.414 0 0 0 1.243-6.556c.124-1.212.28-2.423.342-3.6a16.243 16.243 0 0 0-.124-2.454 19.345 19.345 0 0 0-.559-2.921 26.837 26.837 0 0 0-.963-2.641c-.435-1.15-.9-2.3-1.367-3.449a1.617 1.617 0 0 0-.559-.652c-.963-.652-1.957-1.243-2.921-1.864a3.029 3.029 0 0 0-.684-.249 2.728 2.728 0 0 1-.715-.217 20.417 20.417 0 0 0-4.785-1.522 2.11 2.11 0 0 0-1.988.5c-.249.217-.466.528-.715.746a27.25 27.25 0 0 0-3.511 3.822 41.031 41.031 0 0 0-2.517 3.573c-.435.684-.808 1.4-1.243 2.206.28-.062.466-.062.652-.124a71.707 71.707 0 0 0 8.264-3.138c1.243-.528 2.486-.994 3.728-1.522a.576.576 0 0 1 .217-.062.478.478 0 0 1 .466.466c-.031.28-.217.342-.435.28a1.872 1.872 0 0 0-1.087.155c-1.118.435-2.237.839-3.324 1.274-1.9.777-3.759 1.585-5.655 2.361-.621.249-1.212.59-1.833.808a4.446 4.446 0 0 0-2.144 1.429c-.435-.4-.87-.249-1.3-.031a8 8 0 0 1-1.4.621 13.147 13.147 0 0 0-2.579 1.243 4.571 4.571 0 0 1-1.367.652 12.466 12.466 0 0 0-2.206.777c.062.311.093.621.155.87.249.715.5 1.429.746 2.175.093.249.124.5-.28.59-.466-.621-.59-1.491-1.491-1.74a2.587 2.587 0 0 0-2.268.435 16.3 16.3 0 0 1 .932 5.126c1.367-.715 2.392-1.8 3.728-2.423.186.186.5.342.528.559a9.667 9.667 0 0 0 .839 2.113 1.055 1.055 0 0 0 1.585.652 63.416 63.416 0 0 0 6.928-3.573c1.709-.963 3.387-1.957 5.126-2.889 1.025-.559 2.082-1.056 3.107-1.616a34.673 34.673 0 0 0 4.285-2.188zM27.016 56.49c.342-.249.559-.4.777-.559.249-.186.5-.435.746-.621.715-.59 1.429-1.15 2.113-1.74.559-.5 1.056-1.056 1.616-1.553s.621-.652.311-1.367c-.342-.808-.684-1.585-1.025-2.361a6.981 6.981 0 0 0-1.491-2.3 1.576 1.576 0 0 1-.28-.5c-.311-.684-.5-.777-1.243-.684a3.777 3.777 0 0 1-1.181.062c-.684-.124-1.274-.466-.746-1.429.311-.528.652-1.056.994-1.616a11.641 11.641 0 0 0-1.522-2.206c-.528-.528-.932-1.181-1.46-1.678-.777-.715-1.647-1.336-2.454-2.02-.621-.528-1.243-.839-1.957-.249l-.186.093a10.253 10.253 0 0 0-1.4.808 6.723 6.723 0 0 1-2.02 1.46 1.638 1.638 0 0 0-.466.342c-.435.373-.839.746-1.3 1.087l-1.585 1.212c-.435.342-.87.684-1.274.994-.249.186-.5.342-.715.528C9.866 43.379 8.5 44.591 7.1 45.771c-.093.093-.217.124-.311.217-.59.435-1.181.87-1.74 1.367-.4.342-.746.715-1.118 1.087l-1.584 1.866a1.068 1.068 0 0 0-.186 1.118 23.03 23.03 0 0 0 .87 2.454 17.786 17.786 0 0 0 2.641 4.1c.4.5.839.994 1.212 1.491.684.87 1.3 1.771 1.988 2.61 1.056 1.274 2.144 2.517 3.231 3.759.435.5.932.932 1.367 1.367 1.678-.746 10.812-7.8 11.465-8.855-.652-.031-.87-.559-1.243-.932a15.521 15.521 0 0 1-3.138-4.381 7.768 7.768 0 0 1-.59-2.051 1.122 1.122 0 0 1 .093-.559 1.654 1.654 0 0 1 2.486-.715 3.644 3.644 0 0 1 1.3 1.678 5 5 0 0 0 .528.87c.4.652.808 1.3 1.243 1.926a26.8 26.8 0 0 0 1.402 2.302zM59.39 41.484c1.367-.249 2.641-.5 4.008-.746a1.79 1.79 0 0 1-.155-1.429 7.21 7.21 0 0 0 .155-1.181c.124-1.429.249-2.858.342-4.288a.576.576 0 0 1 .062-.217c.186-1.336.373-2.7.559-4.039.155-1.274.28-2.548.4-3.822l.186-1.926a.951.951 0 0 0-.342-.994.446.446 0 0 1-.093-.435.615.615 0 0 1 .435-.155 2.42 2.42 0 0 1 .652.124 5.543 5.543 0 0 0 4.691-.621 7.22 7.22 0 0 0 1.553-1.367c.249-.311.249-.808.5-1.15a4.4 4.4 0 0 0 .466-2.734 2.505 2.505 0 0 0-1.926-1.9 6.726 6.726 0 0 0-3.573.621c-.311.186-.59.435-.9.621a.7.7 0 0 1-.559.062c-.217-.062-.186-.28-.155-.5a2.344 2.344 0 0 0-.9-1.491.338.338 0 0 1-.155-.031c-.839-.062-1.678-.062-2.517-.186a16.585 16.585 0 0 0-4.474-.186 16.118 16.118 0 0 0-2.983.746c-.684.217-1.336.5-2.02.746-.5.186-.963.342-1.46.528-.124.031-.217.093-.342.124a4.555 4.555 0 0 0-1.678.5 5.289 5.289 0 0 1-1.212.28 1.809 1.809 0 0 0-.59.093 5.026 5.026 0 0 1-2.392.652c-1.212.124-1.553.621-1.864 1.678a5.422 5.422 0 0 0 .062 2.641 2.751 2.751 0 0 0 .5 1.056 2.786 2.786 0 0 0 2.423 1.056 17.2 17.2 0 0 0 2.517-.217 12.588 12.588 0 0 0 3.014-.746 2.566 2.566 0 0 1 .746-.093 9.677 9.677 0 0 1-.062 1.056 19.865 19.865 0 0 1-1.771 5.158c-.217.435-.373.963-.59 1.522a2.948 2.948 0 0 0 .746 0 14.225 14.225 0 0 0 2.827-.87 13.423 13.423 0 0 0 5.064-3.418.624.624 0 0 1 .528-.124 3.364 3.364 0 0 1 .621.4c-.311.311-.59.559-.839.808-.155.155-.342.28-.5.435a8.806 8.806 0 0 1-.746.777c-.528.373-1.118.715-1.678 1.056a6.138 6.138 0 0 1-1.181.621c-1.087.28-1.988 1.15-3.169 1.212-.031 0-.093.062-.124.062-.342.124-.652.28-1.118.466-.031.28-.093.621-.124.994-.031.342-.031.684-.031 1.025a11.81 11.81 0 0 0 .466 4.039 1.154 1.154 0 0 0 1.243.932 7.146 7.146 0 0 0 .808-.093 15.6 15.6 0 0 0 4.008-1.336 5.918 5.918 0 0 0 1.9-1.367 5.989 5.989 0 0 1 .932-.839.617.617 0 0 1 .466.031.36.36 0 0 1 .124.311 15.73 15.73 0 0 1-.652 2.051 5.9 5.9 0 0 0-.129 4.017zM39.816 6.251c0 .155-.031.217 0 .249a6.19 6.19 0 0 1 .715 3.573c-.062.621-.124 1.212-.155 1.833a9.851 9.851 0 0 0 .155 3.169 1.256 1.256 0 0 0 .963 1.087 9.324 9.324 0 0 0 4.039.155 33.041 33.041 0 0 0 3.853-1.3c1.274-.373 2.517-.9 3.79-1.3.994-.311 2.02-.466 3.014-.746a12.353 12.353 0 0 1 5.437-.062 15.6 15.6 0 0 0 2.921.217c.249-.311.5-.59.746-.9a10.2 10.2 0 0 0 2.144-3.946c.186-.715.466-1.429.59-2.144a2.852 2.852 0 0 0-.28-2.3c-.373-.466-.59-1.087-1.243-1.336a.374.374 0 0 1-.155-.155 3.182 3.182 0 0 0-1.55-1.034 7.2 7.2 0 0 0-4.043-.652 7.326 7.326 0 0 1-1.181.062 2.42 2.42 0 0 0-.652.124 12.1 12.1 0 0 0-3.293 1.46 16.168 16.168 0 0 0-1.771 1.43c-.528.5-1.212.963-1.336 1.771-.031.093-.124.155-.155.249-.28.59-.87 1.056-.808 1.833.031.249-.186.373-.466.249a3.935 3.935 0 0 0-.559-.186c-1.274-.217-2.548-.4-3.853-.59-.559-.093-1.15-.062-1.709-.155-1.74-.158-3.449-.406-5.158-.655zm8.855 45.579a18.567 18.567 0 0 0-2.144-.217 9.717 9.717 0 0 1-3.759-.684c-.124-.031-.249-.031-.373-.062-.28-.093-.559-.155-.839-.28-.684-.28-1.336-.621-2.02-.932-1.025-.466-2.051-.963-3.107-1.4a4.627 4.627 0 0 0-2.144-.5c-.373.031-.466.155-.373.559.155.59.311 1.212.435 1.8a1.134 1.134 0 0 1 0 .559 9.651 9.651 0 0 1-.621 1.274 5.432 5.432 0 0 0-.59 2.765 14.505 14.505 0 0 1 1.553.715 6.8 6.8 0 0 0 2.889.777 6.87 6.87 0 0 1 .777.155 12.224 12.224 0 0 0 2.983.5 3.138 3.138 0 0 0 1.3-.093c1.616-.684 3.262-1.274 4.909-1.926a.68.68 0 0 0 .373-.4c.316-.87.503-1.709.751-2.61zM34.814 62.86a2.326 2.326 0 0 0-.652-.062 2.709 2.709 0 0 1-1.8-.559 30.164 30.164 0 0 1-3.977-3.169 17.3 17.3 0 0 1-3.418-4.225 3.852 3.852 0 0 0-.373-.715 13.133 13.133 0 0 1-1.678-2.765 1.782 1.782 0 0 0-.994-.963c-.684-.311-1.15-.062-1.181.684a3.49 3.49 0 0 0 .528 2.206c.621.932 1.212 1.957 1.926 2.827a8.273 8.273 0 0 0 2.144 2.144c.87.528.839.559.124 1.3a6.139 6.139 0 0 0-1.3 1.988 1.123 1.123 0 0 0-.031.994c.59-.311 1.118-.621 1.678-.9.342-.155.342-.155.715.155a6.292 6.292 0 0 0-1.926 2.02 1.675 1.675 0 0 0 .249 2.392c.59-.59 1.181-1.212 1.74-1.8a.762.762 0 0 1 1.025-.217 2.45 2.45 0 0 1-.559 1.181c-.342.373-.652.746-.963 1.15a2.572 2.572 0 0 0-.124 2.33c.031.062.093.124.124.186a3.18 3.18 0 0 0 3.138.5c.435-.217.5-.373.4-.839a1.389 1.389 0 0 0-.839-1.056c-.435.311-.839.715-1.491.59a.931.931 0 0 1 .4-.994 2.376 2.376 0 0 0 .963-1.181 2.99 2.99 0 0 1 .4-.528 3.124 3.124 0 0 0 .777.528 5.68 5.68 0 0 0 2.8 0c.435-.093.9-.217 1.336-.311a8.691 8.691 0 0 0 .87-.186c.217-.062.435-.217.373-.466-.155-.779.031-1.587-.404-2.239zm-.5-1.678c1.087-.249 2.02-.466 3.076-.684-.186-.217-.311-.4-.435-.559-.5-.59-.466-.777.249-1.056.217-.093.466-.186.684-.28.59-.249 1.181-.5 1.771-.777a31.607 31.607 0 0 1-3.573-.9 28.194 28.194 0 0 0-4.534-1.026c-.435-.093-.839-.249-1.274-.373-.217.155-.5.373-.746.559-.466.342-.715.9-1.274 1.118-.249.093-.217.4 0 .621.311.311.621.652.963.932 1.118.932 2.268 1.833 3.418 2.734a2.39 2.39 0 0 0 1.771.559c-.062-.309-.062-.589-.093-.868zM53.176 112.6a1.4 1.4 0 0 0-.373 0c-.466.342-1.056.435-1.491.87a28.86 28.86 0 0 1-2.392 1.864.734.734 0 0 0-.249.28c-.249.342-.155.652.249.715.466.093.963.124 1.491.186.466-1.615 1.678-2.671 2.765-3.915zm-22.65-2.548c.87-.652 1.647-1.274 2.423-1.864-1.212.559-2.641.217-3.884 1.056.53.313.996.561 1.462.81zm1.9-64.624a4.258 4.258 0 0 0 .124-2.7c-.466.311-.839.59-1.274.9.4.59.742 1.118 1.146 1.802zm-4.443-5.313a1.093 1.093 0 0 0 .559 1.025c.058-.464-.252-.65-.563-1.023z" class="cls-3" data-name="Path 1051" transform="translate(.472 .036)"/>
                <path id="Path_1052" d="M16.16 188.6a6.91 6.91 0 0 1 2.051 2.392c.155.249-.031.715-.093 1.181a6.328 6.328 0 0 1-.9-.621 11.2 11.2 0 0 1-1.15-1.274c-.591-.653-.56-.901.092-1.678z" class="cls-4" data-name="Path 1052" transform="translate(-10.638 -129.992)"/>
                <path id="Path_1053" d="M142.83 154.293c-1.4.777-2.8 1.585-4.257 2.361-1.025.559-2.082 1.025-3.107 1.616-1.709.932-3.418 1.926-5.126 2.889a58.383 58.383 0 0 1-6.928 3.573 1.055 1.055 0 0 1-1.585-.652 10.324 10.324 0 0 1-.839-2.113c-.031-.217-.342-.373-.528-.559-1.367.621-2.361 1.678-3.728 2.423a16.3 16.3 0 0 0-.932-5.126 2.494 2.494 0 0 1 2.268-.435c.932.249 1.025 1.118 1.491 1.74.373-.124.342-.373.28-.59-.249-.715-.5-1.429-.746-2.175a7.223 7.223 0 0 1-.155-.87 12.465 12.465 0 0 1 2.206-.777 4.612 4.612 0 0 0 1.367-.652 10.977 10.977 0 0 1 2.579-1.243 8 8 0 0 0 1.4-.621c.435-.217.87-.373 1.3.031a4.446 4.446 0 0 1 2.144-1.429c.621-.217 1.212-.559 1.833-.808a447.25 447.25 0 0 1 5.655-2.361c1.087-.435 2.206-.839 3.324-1.274a1.836 1.836 0 0 1 1.087-.155.314.314 0 0 0 .435-.28.478.478 0 0 0-.466-.466.576.576 0 0 0-.217.062c-1.243.5-2.486.994-3.728 1.522a77.919 77.919 0 0 1-8.264 3.138c-.186.062-.373.062-.652.124.435-.808.808-1.522 1.243-2.206a41.024 41.024 0 0 1 2.517-3.573 25.625 25.625 0 0 1 3.511-3.822 8.107 8.107 0 0 0 .715-.746 2.11 2.11 0 0 1 1.988-.5 21.458 21.458 0 0 1 4.785 1.522 4.8 4.8 0 0 0 .715.217 3.028 3.028 0 0 1 .684.249c.994.621 1.957 1.212 2.921 1.864a1.617 1.617 0 0 1 .559.652c.5 1.15.932 2.3 1.367 3.449a26.835 26.835 0 0 1 .963 2.641c.249.963.4 1.926.559 2.921a13.006 13.006 0 0 1 .124 2.454c-.062 1.212-.217 2.423-.342 3.6a36.411 36.411 0 0 1-1.243 6.556 8.37 8.37 0 0 1-.5 1.4c-.28.59-.652 1.15-.963 1.74a1.154 1.154 0 0 1-.808.559c-.4.124-.808.28-1.212.4-.249.839-.5 1.678-.746 2.548a18.558 18.558 0 0 1-4.878.59 37.813 37.813 0 0 0-4.971.124c-1.553.217-3.107.155-4.66.373a6 6 0 0 1-1.056 0 5.765 5.765 0 0 1 .155-2.517c.621-.093 1.274-.217 1.9-.311.994-.124 1.988-.155 2.952-.311a10.41 10.41 0 0 0 1.926-.528 3.471 3.471 0 0 0 .559-.435c-.28-.031-.4-.062-.528-.062-1.212.093-2.454.217-3.666.342-.684.062-1.367.186-2.051.217-.932.062-1.864.062-2.8.062a6.5 6.5 0 0 1-1.553 0c-.715-.186-.963-.342-1.056-1.025a10.392 10.392 0 0 1 .093-3.666 2.039 2.039 0 0 0 .124-.715c-.062-.715.311-1.056.9-1.367.9-.466 6.276-3.169 7.705-3.7 1.243-.435 2.423-1.025 3.635-1.491.9-.373 1.8-.652 2.7-1.025a6.114 6.114 0 0 0 2.921-2.672c.099-.453-.149-1.136-1.299-.701z" class="cls-5" data-name="Path 1053" transform="translate(-79.675 -96.679)"/>
                <g id="Group_1028" data-name="Group 1028" transform="translate(2.554 35.399)">
                    <path id="Path_1054" d="M20.165 146.134c-.311-.311-.621-.621-.9-.932a136.563 136.563 0 0 1-3.231-3.759c-.4-.5-.808-1.056-1.212-1.553-.249-.342-.5-.684-.777-1.025-.28-.373-.59-.715-.87-1.056-.124-.155-.249-.28-.373-.435a16.634 16.634 0 0 1-2.579-4.008 18.792 18.792 0 0 1-.839-2.392.653.653 0 0 1 .093-.684c.311-.342.59-.684.87-.994.249-.28.466-.559.715-.839a11.265 11.265 0 0 1 1.056-1.056c.4-.342.839-.652 1.243-.963.155-.124.342-.249.5-.373.031-.031.062-.031.093-.062a1.314 1.314 0 0 0 .217-.155c.528-.466 1.056-.9 1.585-1.367.87-.746 1.709-1.491 2.579-2.206l.373-.28c.093-.062.217-.155.311-.217.249-.186.466-.373.715-.559a6.821 6.821 0 0 1 .559-.435c.186-.155.373-.28.559-.435.342-.249.684-.528 1.025-.777.28-.217.559-.466.839-.715.155-.124.311-.28.466-.4a.429.429 0 0 1 .124-.093c.093-.062.155-.155.217-.186a6.3 6.3 0 0 0 1.8-1.274c.124-.093.217-.186.342-.28a3.417 3.417 0 0 1 .87-.528c.155-.093.311-.155.466-.249h.031a.779.779 0 0 0 .217-.124.839.839 0 0 1 .528-.217 1.351 1.351 0 0 1 .839.435c.342.311.715.59 1.056.87.466.373.932.746 1.4 1.15a10.17 10.17 0 0 1 .746.839 5.788 5.788 0 0 0 .715.808 7.593 7.593 0 0 1 1.15 1.616c.062.093.093.186.155.28l-.186.28c-.249.373-.466.746-.684 1.118a1.417 1.417 0 0 0-.155 1.336 1.54 1.54 0 0 0 1.212.777 2.351 2.351 0 0 0 .466.031 3.931 3.931 0 0 0 .87-.093 1.524 1.524 0 0 1 .342-.031c.124 0 .186 0 .373.435l.031.062a2.2 2.2 0 0 0 .373.621 5.866 5.866 0 0 1 1.367 2.144c.373.87.715 1.647 1.025 2.361.186.466.186.466-.217.839l-.746.746c-.28.28-.559.559-.839.808-.435.4-.932.777-1.367 1.15-.249.186-.5.4-.715.59a3.093 3.093 0 0 0-.342.311c-.124.124-.249.217-.373.342a3.257 3.257 0 0 1-.342.249l-.217-.311c-.342-.528-.684-1.025-.994-1.522-.4-.652-.808-1.3-1.243-1.926-.062-.062-.093-.155-.155-.217-.124-.217-.249-.4-.342-.59a3.778 3.778 0 0 0-1.46-1.864 2.217 2.217 0 0 0-1.212-.373 2.021 2.021 0 0 0-1.926 1.3 1.3 1.3 0 0 0-.124.87l.093.466a6.577 6.577 0 0 0 .528 1.678 16.551 16.551 0 0 0 3.262 4.505c.093.093.155.186.249.28a3.749 3.749 0 0 0 .5.5 96.1 96.1 0 0 1-10.564 8.078 1.348 1.348 0 0 0-.161-.32z" class="cls-6" data-name="Path 1054" transform="translate(-8.84 -115.003)"/>
                    <path id="Path_1055" d="M26.687 114.832c.031 0 .186.031.559.342.342.311.715.59 1.087.87.466.373.932.746 1.367 1.118a5.552 5.552 0 0 1 .684.777 9.277 9.277 0 0 0 .746.87 7.9 7.9 0 0 1 1.087 1.522v.031a.03.03 0 0 1-.031.031c-.249.373-.5.746-.715 1.15a1.882 1.882 0 0 0-.186 1.771 2.016 2.016 0 0 0 1.553 1.025 3.424 3.424 0 0 0 .559.062 4.3 4.3 0 0 0 .932-.093 1.346 1.346 0 0 0 .155-.031c.031.031.031.093.062.155l.031.062a2.026 2.026 0 0 0 .5.777 5.882 5.882 0 0 1 1.274 1.988c.373.87.715 1.647.994 2.361a.525.525 0 0 1 .062.155l-.155.155c-.28.249-.528.5-.777.746a9.346 9.346 0 0 1-.808.777c-.435.373-.9.777-1.367 1.15-.249.186-.5.4-.715.59a3.4 3.4 0 0 0-.342.311c-.093.093-.217.186-.311.28-.311-.5-.621-.963-.932-1.429-.4-.652-.839-1.3-1.212-1.926-.062-.093-.093-.155-.155-.249a3.3 3.3 0 0 1-.311-.528 4.473 4.473 0 0 0-1.647-2.082 2.762 2.762 0 0 0-1.46-.435 2.535 2.535 0 0 0-2.361 1.585 1.95 1.95 0 0 0-.155 1.15l.093.466a6.112 6.112 0 0 0 .59 1.8 17.291 17.291 0 0 0 3.355 4.629c.062.062.124.155.217.249l.186.186a110.755 110.755 0 0 1-9.787 7.488c-.28-.28-.559-.559-.808-.839a101.319 101.319 0 0 1-3.231-3.759c-.4-.5-.777-.994-1.181-1.553-.249-.342-.5-.684-.777-1.025-.28-.373-.59-.746-.87-1.087-.124-.155-.249-.28-.373-.435a17.357 17.357 0 0 1-2.513-3.883c-.28-.652-.528-1.367-.839-2.33-.062-.186-.031-.217 0-.217.311-.342.59-.684.87-1.025.249-.28.466-.559.715-.839a9.772 9.772 0 0 1 1.025-.994c.4-.342.808-.621 1.212-.963.155-.124.342-.249.5-.373.031-.031.031-.031.062-.031.062-.062.186-.124.28-.217.528-.466 1.056-.9 1.585-1.367.87-.746 1.709-1.491 2.579-2.206a3.254 3.254 0 0 1 .342-.249c.093-.062.217-.155.342-.249.249-.186.466-.373.715-.559a6.821 6.821 0 0 1 .559-.435c.186-.155.373-.28.559-.435.342-.249.684-.528 1.025-.777.28-.249.59-.466.839-.715.155-.124.311-.28.466-.4.031-.031.093-.062.124-.124.031-.031.093-.093.124-.093a7.546 7.546 0 0 0 1.926-1.336c.093-.093.217-.186.311-.28a4.256 4.256 0 0 1 .777-.466 3.4 3.4 0 0 0 .466-.249 1.989 1.989 0 0 0 .342-.186.25.25 0 0 1 .186-.155m0-.932a1.211 1.211 0 0 0-.808.342l-.186.093a10.253 10.253 0 0 0-1.4.808 6.722 6.722 0 0 1-2.02 1.46 1.638 1.638 0 0 0-.466.342c-.435.373-.839.746-1.3 1.087l-1.585 1.212c-.435.342-.87.684-1.274.994-.249.186-.5.342-.715.528-1.4 1.181-2.765 2.392-4.163 3.573-.093.093-.217.124-.311.217-.59.435-1.181.87-1.74 1.367-.4.342-.746.715-1.118 1.087l-1.585 1.864a1.068 1.068 0 0 0-.186 1.118 23.027 23.027 0 0 0 .87 2.454 17.786 17.786 0 0 0 2.641 4.1c.4.5.839.994 1.212 1.491.684.87 1.3 1.771 1.988 2.61 1.056 1.274 2.144 2.517 3.231 3.759.435.5.932.932 1.367 1.367 1.678-.746 10.812-7.8 11.465-8.855-.652-.031-.87-.559-1.243-.932a15.52 15.52 0 0 1-3.138-4.381 7.767 7.767 0 0 1-.59-2.051 1.122 1.122 0 0 1 .093-.559 1.638 1.638 0 0 1 1.522-1.025 1.9 1.9 0 0 1 .963.28 3.644 3.644 0 0 1 1.3 1.678 5 5 0 0 0 .528.87c.4.652.808 1.3 1.243 1.926l1.46 2.237c.342-.249.559-.4.777-.559.249-.186.5-.435.746-.621.715-.59 1.429-1.15 2.113-1.74.559-.5 1.056-1.056 1.616-1.553s.621-.652.311-1.367c-.342-.808-.684-1.585-1.025-2.361a6.981 6.981 0 0 0-1.491-2.3 1.576 1.576 0 0 1-.28-.5c-.249-.528-.4-.715-.808-.715a1.911 1.911 0 0 0-.4.031 6.4 6.4 0 0 1-.808.093 1.912 1.912 0 0 1-.4-.031c-.684-.124-1.274-.466-.746-1.429.311-.528.652-1.056.994-1.616a11.641 11.641 0 0 0-1.522-2.206c-.528-.528-.932-1.181-1.46-1.678-.777-.715-1.647-1.336-2.454-2.02a2.349 2.349 0 0 0-1.212-.5z" class="cls-7" data-name="Path 1055" transform="translate(-7.75 -113.9)"/>
                </g>
                <path id="Path_1056" d="M155.877 71.347a5.394 5.394 0 0 1 .186-4.008 15.733 15.733 0 0 0 .652-2.051.36.36 0 0 0-.124-.311.622.622 0 0 0-.466-.031 5.989 5.989 0 0 0-.932.839 5.789 5.789 0 0 1-1.9 1.367 14.845 14.845 0 0 1-4.008 1.336 7.148 7.148 0 0 1-.808.093 1.16 1.16 0 0 1-1.243-.932 12.729 12.729 0 0 1-.466-4.039c.031-.342 0-.684.031-1.025.031-.373.093-.715.124-.994.435-.186.777-.311 1.118-.466a.236.236 0 0 1 .124-.062c1.181-.062 2.051-.9 3.169-1.212a4.79 4.79 0 0 0 1.181-.621c.559-.342 1.15-.684 1.678-1.056a8.809 8.809 0 0 0 .746-.777c.155-.155.342-.28.5-.435.249-.249.528-.5.839-.808a1.882 1.882 0 0 0-.621-.4.624.624 0 0 0-.528.124 9.507 9.507 0 0 1-1.118 1.118 17.455 17.455 0 0 1-3.977 2.3 21.306 21.306 0 0 1-2.827.87 2.948 2.948 0 0 1-.746 0 10.415 10.415 0 0 1 .59-1.522 20.27 20.27 0 0 0 1.771-5.158 9.673 9.673 0 0 0 .062-1.056 4.413 4.413 0 0 0-.746.093 14.256 14.256 0 0 1-3.014.746 17.2 17.2 0 0 1-2.517.217 2.71 2.71 0 0 1-2.423-1.056 2.751 2.751 0 0 1-.5-1.056 6.3 6.3 0 0 1-.062-2.641c.311-1.056.652-1.522 1.864-1.678a4.932 4.932 0 0 0 2.392-.652 1.681 1.681 0 0 1 .59-.093 3.84 3.84 0 0 0 1.212-.28 5.234 5.234 0 0 1 1.678-.5.764.764 0 0 0 .342-.124c.5-.186.963-.342 1.46-.528.684-.249 1.336-.5 2.02-.746a13.98 13.98 0 0 1 2.983-.746 15.415 15.415 0 0 1 4.474.186c.839.124 1.678.124 2.517.186a.28.28 0 0 1 .155.031 2.344 2.344 0 0 1 .9 1.491c-.031.217-.062.435.155.5a.712.712 0 0 0 .559-.062c.311-.186.59-.435.9-.621a6.18 6.18 0 0 1 3.573-.621 2.505 2.505 0 0 1 1.926 1.9 4.439 4.439 0 0 1-.466 2.734c-.217.342-.217.839-.5 1.15a6.552 6.552 0 0 1-1.553 1.367 5.347 5.347 0 0 1-4.691.621 2.42 2.42 0 0 0-.652-.124c-.155 0-.373.031-.435.155a.446.446 0 0 0 .093.435.97.97 0 0 1 .342.994l-.186 1.926a183.318 183.318 0 0 1-.4 3.822c-.155 1.336-.373 2.7-.559 4.039a.576.576 0 0 1-.062.217c-.124 1.429-.217 2.858-.342 4.288a7.209 7.209 0 0 1-.155 1.181 1.8 1.8 0 0 0 .155 1.429c-1.362.24-2.667.49-4.034.737zM167.311 46.8c0-.124.031-.311 0-.342a1.25 1.25 0 0 0-.621-.342 5.373 5.373 0 0 0-1.74.28c-1.46.59-1.4.839-.684 2.051.186.311.342.59.5.9a.434.434 0 0 1-.217.621 1.975 1.975 0 0 1-.559.186c-.559.031-.808-.249-.808-.808a3.5 3.5 0 0 0-.093-.559c-.5.062-.59.342-.621.684a1.614 1.614 0 0 0 .932 1.4 1.928 1.928 0 0 0 2.02-.87 1.529 1.529 0 0 0 .062-.839c-.031-.217-.249-.435-.342-.652a.906.906 0 0 1-.124-.621 1.64 1.64 0 0 1 2.295-1.089z" class="cls-4" data-name="Path 1056" transform="translate(-96.016 -29.828)"/>
                <path id="Path_1057" d="M129.131 7.777l5.126.746c.559.062 1.15.062 1.709.155 1.274.186 2.579.373 3.853.59a1.975 1.975 0 0 1 .559.186c.28.124.5 0 .466-.249-.062-.777.528-1.243.808-1.833.031-.093.155-.155.155-.249.155-.808.808-1.243 1.336-1.771a18.77 18.77 0 0 1 1.771-1.429 13 13 0 0 1 3.293-1.46 4.051 4.051 0 0 1 .652-.124 7.326 7.326 0 0 0 1.181-.062 6.94 6.94 0 0 1 4.039.652 3.412 3.412 0 0 1 1.553 1.025.374.374 0 0 0 .155.155c.621.249.87.839 1.243 1.336a2.722 2.722 0 0 1 .28 2.3c-.124.715-.4 1.429-.59 2.144a10.2 10.2 0 0 1-2.144 3.946c-.249.28-.466.559-.746.9a15.6 15.6 0 0 1-2.921-.217 12.353 12.353 0 0 0-5.437.062c-.994.28-2.02.435-3.014.746-1.274.4-2.517.932-3.79 1.3a33.04 33.04 0 0 1-3.853 1.3 8.87 8.87 0 0 1-4.039-.155 1.292 1.292 0 0 1-.963-1.087 9.9 9.9 0 0 1-.155-3.169c.062-.621.124-1.212.155-1.833a6.19 6.19 0 0 0-.715-3.573c.002-.115.033-.177.033-.332z" class="cls-8" data-name="Path 1057" transform="translate(-88.843 -1.49)"/>
                <path id="Path_1058" d="M123.373 157.782c-.249.932-.435 1.771-.684 2.579a.789.789 0 0 1-.373.4c-1.616.652-3.262 1.274-4.909 1.926a3.1 3.1 0 0 1-1.3.093 10.708 10.708 0 0 1-2.983-.5 5.723 5.723 0 0 0-.777-.155 6.682 6.682 0 0 1-2.889-.777 8.032 8.032 0 0 0-1.553-.715 5.432 5.432 0 0 1 .59-2.765 9.651 9.651 0 0 0 .621-1.274 1.136 1.136 0 0 0 0-.559c-.124-.59-.311-1.212-.435-1.8-.093-.373 0-.5.373-.559a4.627 4.627 0 0 1 2.144.5c1.025.466 2.051.932 3.107 1.4.684.311 1.336.621 2.02.932.28.124.559.186.839.28.124.031.249.031.373.062a10.33 10.33 0 0 0 3.759.684c.616.03 1.304.155 2.077.248z" class="cls-5" data-name="Path 1058" transform="translate(-74.23 -105.916)"/>
                <path id="Path_1059" d="M81.933 174.331c.435.684.249 1.46.435 2.175.062.28-.155.4-.373.466a8.691 8.691 0 0 1-.87.186c-.466.093-.9.249-1.336.311a6.528 6.528 0 0 1-2.8 0 3.124 3.124 0 0 1-.777-.528 2.99 2.99 0 0 0-.4.528 2.224 2.224 0 0 1-.963 1.181.931.931 0 0 0-.4.994 1.8 1.8 0 0 0 1.491-.59 1.286 1.286 0 0 1 .839 1.056c.093.466 0 .621-.4.839a3.18 3.18 0 0 1-3.138-.5.65.65 0 0 1-.124-.186 2.781 2.781 0 0 1 .124-2.33c.311-.373.621-.777.963-1.15a2.1 2.1 0 0 0 .559-1.181c-.435-.28-.746-.062-1.025.217-.59.59-1.181 1.212-1.74 1.8a1.673 1.673 0 0 1-.249-2.392 6.292 6.292 0 0 1 1.926-2.02c-.4-.28-.4-.311-.715-.155-.559.28-1.087.59-1.678.9a1.122 1.122 0 0 1 .031-.994 5.276 5.276 0 0 1 1.3-1.988c.715-.777.746-.777-.124-1.3a8.781 8.781 0 0 1-2.144-2.144c-.715-.87-1.274-1.9-1.926-2.827a3.7 3.7 0 0 1-.528-2.206c.031-.746.5-.994 1.181-.684a1.782 1.782 0 0 1 .994.963 11.953 11.953 0 0 0 1.678 2.765c.155.217.217.5.373.715a17.3 17.3 0 0 0 3.418 4.225 32.345 32.345 0 0 0 3.977 3.169 2.658 2.658 0 0 0 1.8.559 5.487 5.487 0 0 1 .621.126z" class="cls-4" data-name="Path 1059" transform="translate(-46.647 -111.435)"/>
                <path id="Path_1060" d="M226.535 157.479c-.9 1.553-2.61 1.864-2.8 1.522-1.3-1.585-3.355-8.451-3.355-8.575a3.375 3.375 0 0 0-.994-2.113 19.061 19.061 0 0 1-2.886-3.013c.28.093 2.7.839 2.889.9a31.215 31.215 0 0 1 5.064 2.61c.5.311 1.056.528 1.553.87a24.387 24.387 0 0 1 2.051 1.46c.217.186.28.559.435.839a2.08 2.08 0 0 1-.031 1.15 11.531 11.531 0 0 1-1.336 3.666c-.186.249-.403.467-.59.684z" class="cls-9" data-name="Path 1060" transform="translate(-149.088 -100.145)"/>
                <path id="Path_1061" d="M97.559 184.524c0 .28.031.559.031.9a2.433 2.433 0 0 1-1.771-.559c-1.15-.9-2.3-1.8-3.418-2.734-.342-.28-.621-.621-.963-.932-.217-.217-.217-.528 0-.621.59-.217.839-.777 1.274-1.118.249-.186.528-.373.746-.559.466.124.87.28 1.274.373a25.222 25.222 0 0 1 4.536 1.025 33.368 33.368 0 0 0 3.573.9c-.59.249-1.181.528-1.771.777-.217.093-.466.186-.684.28-.684.311-.715.466-.249 1.056.124.155.249.342.435.559-.963.186-1.926.404-3.013.653z" class="cls-4" data-name="Path 1061" transform="translate(-62.77 -123.306)"/>
                <path id="Path_1062" d="M215.8 135.757a19.255 19.255 0 0 0-4.754-1.3c-1.585-.311-3.79-.249-5.5-.559.186-.062-4.909-.808-4.754-.808.808-.093 6.338-1.025 8.482-1.025.994-.062 2.579.062 3.542 0 1.585-.124 2.486.528 4.07.5a.724.724 0 0 1 .777 1.025 3.138 3.138 0 0 1-.684 1.212c-.31.298-.779.614-1.179.955z" class="cls-9" data-name="Path 1062" transform="translate(-138.259 -91.006)"/>
                <path id="Path_1063" d="M219.771 143.494a5.683 5.683 0 0 1-.808.342 2.334 2.334 0 0 0-1.3.621.887.887 0 0 1-1.025.093c-.808-.4-1.585-.808-2.392-1.181-1.46-.652-2.952-1.274-4.443-1.9-.124-.062-6.773-1.74-6.9-1.8.746-.311 8.948.715 11.806 1.3 3.322.692 4.565 1.873 5.062 2.525z" class="cls-9" data-name="Path 1063" transform="translate(-139.714 -96.227)"/>
                <path id="Path_1064" d="M161.9 362.455c-1.087 1.243-2.3 2.3-2.765 3.946-.528-.062-.994-.093-1.491-.186-.4-.093-.5-.373-.249-.715a2.008 2.008 0 0 1 .249-.28c.808-.621 1.647-1.181 2.392-1.864.435-.435 1.025-.528 1.491-.87.063-.093.187-.031.373-.031z" class="cls-4" data-name="Path 1064" transform="translate(-108.253 -249.818)"/>
                <path id="Path_1065" d="M95.991 350.164c-.466-.249-.932-.5-1.491-.808 1.243-.839 2.7-.5 3.884-1.056a59.233 59.233 0 0 1-2.393 1.864z" class="cls-4" data-name="Path 1065" transform="translate(-64.993 -240.074)"/>
                <path id="Path_1066" d="M102.918 140.3c-.4-.652-.746-1.212-1.118-1.8.4-.28.808-.559 1.274-.9a4.267 4.267 0 0 1-.156 2.7z" class="cls-4" data-name="Path 1066" transform="translate(-70.025 -94.838)"/>
                <path id="Path_1067" d="M91.1 129.2c.311.373.621.559.559 1.025a1.093 1.093 0 0 1-.559-1.025z" class="cls-4" data-name="Path 1067" transform="translate(-62.649 -89.047)"/>
                <path id="Path_1068" d="M218.236 52.946a1.66 1.66 0 0 0-2.3 1.025 1.481 1.481 0 0 0 .124.621 6.575 6.575 0 0 1 .342.652 1.288 1.288 0 0 1-.062.839 1.928 1.928 0 0 1-2.02.87 1.577 1.577 0 0 1-.932-1.4.652.652 0 0 1 .621-.684 4.191 4.191 0 0 1 .093.559c0 .59.249.87.808.808a1.325 1.325 0 0 0 .559-.186.4.4 0 0 0 .217-.621c-.155-.311-.342-.621-.5-.9-.715-1.212-.777-1.46.684-2.051a6.37 6.37 0 0 1 1.74-.28 1.135 1.135 0 0 1 .621.342 1.75 1.75 0 0 1 .005.406z" class="cls-3" data-name="Path 1068" transform="translate(-146.94 -35.971)"/>
            </g>
            <path id="Path_1069" d="M49.983 155.91c-1.15.031-3.48.124-4.629.186-1.087.062-2.175.093-3.262.155-.466.031-.9.062-1.491.124.4-1.118.715-2.175 1.118-3.2.311-.839.684-1.647 1.056-2.486.373-.87 2.082-5.437 2.268-5.53.249-.124.652.435.777.621 1.056 1.491 1.74 1.771 2.8 3.262-.4.311-1.647 1.709-1.087 2.921.182.219 2.45 3.947 2.45 3.947z" class="cls-4" data-name="Path 1069" transform="translate(-28.311 -100.072)"/>
            <path id="Path_1070" d="M189.665 73.183a2.983 2.983 0 1 1-2.983-2.983 2.983 2.983 0 0 1 2.983 2.983z" class="cls-10" data-name="Path 1070" transform="translate(-126.951 -48.414)"/>
            <path id="Path_1071" d="M187.447 82.6l.684.466-1.431 1.647-.9-.4z" class="cls-3" data-name="Path 1071" transform="translate(-128.398 -56.961)"/>
        </g>
    </g>
</svg>
