<svg xmlns="http://www.w3.org/2000/svg" viewBox="7062 -5384 36 36">
    <defs>
        <style>
            .cls-1{fill:none}.cls-2{fill:#fff}
        </style>
    </defs>
    <g id="weather" transform="translate(6812 -5897)">
        <g id="_x36_4px_boxes" transform="translate(250 513)">
            <path id="Rectangle_289" d="M0 0h36v36H0z" class="cls-1" data-name="Rectangle 289"/>
        </g>
        <g id="Production" transform="translate(250 515.25)">
            <g id="Group_289" data-name="Group 289">
                <path id="Path_289" d="M23.063 9.609V4H20.25v5.608a8.131 8.131 0 0 1 2.813.001zm-6.605 1.563L12.484 7.2 10.5 9.187l3.973 3.973a8.916 8.916 0 0 1 1.984-1.988zM28.8 13.16l3.973-3.973L30.781 7.2l-3.973 3.973A8.916 8.916 0 0 1 28.8 13.16zm1.563 3.777a8.131 8.131 0 0 1 0 2.813H36v-2.812zM26.807 25.5l3.973 3.973 1.989-1.989L28.8 23.51a8.914 8.914 0 0 1-1.993 1.99zm-7.7-3.529c-2.578-8.3-15.269-7.126-15.611 1.989-5.731 2.465-4.014 10.979 2.2 10.979h12.455a6.516 6.516 0 0 0 .959-12.97zm-.959 10.156H5.694a2.928 2.928 0 0 1-.427-5.82l1.149-.288c-.105-1.384-.445-3.542 1.173-5.281 2.591-2.788 8.21-1.822 8.994 2.721l.186 1.077 1.094.083c5.837.44 4.881 7.506.288 7.506zM21.63 11.88a6.468 6.468 0 0 0-5.605 3.254 10.169 10.169 0 0 1 2.249 1.517 3.763 3.763 0 1 1 5.336 4.9 8.748 8.748 0 0 1 1.879 1.982 6.468 6.468 0 0 0-3.856-11.655z" class="cls-2" data-name="Path 289" transform="translate(0 -4)"/>
            </g>
        </g>
    </g>
</svg>
