<svg xmlns="http://www.w3.org/2000/svg" viewBox="0 0 121.715 160.556">
  <defs>
    <style>
      .cls-1 {
        fill: #e73b28;
      }

      .cls-1, .cls-3, .cls-4, .cls-5, .cls-6, .cls-7, .cls-8 {
        fill-rule: evenodd;
      }

      .cls-2, .cls-3 {
        fill: #fff;
      }

      .cls-5 {
        fill: #549dd6;
      }

      .cls-6 {
        fill: #ffdd27;
      }

      .cls-7 {
        fill: #c4dcf4;
      }

      .cls-8 {
        fill: #facbb7;
      }
    </style>
  </defs>
  <g id="Group_1389" data-name="Group 1389" transform="translate(-0.2 0.009)">
    <path id="Path_1141" data-name="Path 1141" class="cls-1" d="M162,336.095l5.718-1.195-2.432,4.267a11.217,11.217,0,0,1,4.353,2.176c1.451,1.451,3.627,1.579,4.182,2.475a11.184,11.184,0,0,0,1.408,1.664l-1.408,2.987a4.216,4.216,0,0,1-2.262.427c-.811-.256-8.108-1.835-8.364-4.139-.256-2.347-.811-2.859-.384-4.054C163.28,339.509,162,336.095,162,336.095Z" transform="translate(-92.752 -191.988)"/>
    <path id="Path_1142" data-name="Path 1142" class="cls-2" d="M177.458,24.012c0-1.067-.085-1.195-.939-1.238s-1.707,0-2.561,0a44.248,44.248,0,0,0-7.511.64,16.052,16.052,0,0,0-6.871,3.286,1.612,1.612,0,0,0,1.707,2.731c1.195-.427,2.39-.725,3.585-1.11.085-.043.213.043.427.085-.469.341-.854.6-1.195.853a6.231,6.231,0,0,0-2.048,2.518,4.222,4.222,0,0,0-.256,1.494.834.834,0,0,0,.341.555A2.5,2.5,0,0,0,163.8,33.7c1.024-.64,2.091-1.28,3.2-1.835,1.75-.853,3.585-1.664,5.377-2.518a2.08,2.08,0,0,1,.469-.171,6.176,6.176,0,0,1-1.494,1.11,25.683,25.683,0,0,0-4.822,3.755,6.337,6.337,0,0,0-1.579,2.689c-.469,1.579-.9,3.243-2.3,4.438a13.792,13.792,0,0,1-3.585,2.475,48.1,48.1,0,0,1-8.791,2.859,6.056,6.056,0,0,0-1.238.427.988.988,0,0,0-.555,1.366,1.922,1.922,0,0,0,.6.811c.811.555,1.664,1.024,2.518,1.494.683.384,1.451.725,2.176,1.11-.6,1.28-1.11,2.432-1.664,3.627-.6-.171-1.024-.341-1.494-.427a.475.475,0,0,0-.427.128c-.043.171-.085.427.043.555a2.059,2.059,0,0,0,.6.384c.213.128.469.213.64.3-.256,1.792-.555,3.457-.725,5.121a9.733,9.733,0,0,0,.171,2.219.884.884,0,0,0,.384.555,2.666,2.666,0,0,0,2.048.341c.854-.3,1.707-.64,2.56-.939.341-.128.64-.3,1.067-.469a5.079,5.079,0,0,1,.085,1.323,2.962,2.962,0,0,0,.128,2.006c.3.725.512,1.451.811,2.176.213.512.427.6.939.384a3.868,3.868,0,0,0,.683-.469c.6-.427,1.195-.9,1.792-1.323,1.11-.725,2.262-1.366,3.414-2.048a13.492,13.492,0,0,1,.213-3.713,45.378,45.378,0,0,1,1.792-5.633c.555-1.494,1.664-2.6,2.475-3.969.171-.256.555-.384.939-.64.256,1.024.725,1.835,1.536,2.048a8.618,8.618,0,0,0,3.286.3,3.485,3.485,0,0,0,3.073-2.945,3.273,3.273,0,0,0-.469-2.731,3.578,3.578,0,0,1-.384-.811c.213,0,.341-.043.512-.043a6.774,6.774,0,0,0,4.865-2.006c.213-.171.469-.384.512-.6a19.876,19.876,0,0,0,.512-2.689c.171-2.347-.384-4.652-.683-7.127-.555.982-1.195,1.792-.811,2.859.043.085-.085.256-.128.384a7.737,7.737,0,0,1-.512,1.195,6.841,6.841,0,0,1-1.067,1.579,14.681,14.681,0,0,1-1.536,1.195c-.768.725-1.664.512-2.6.384,1.152-.939,2.262-1.792,3.286-2.731A6.468,6.468,0,0,0,181,37.967a4.59,4.59,0,0,0-.939-5.42c-.427.043-.555.384-.555.725a5.689,5.689,0,0,0,.128,1.195,3.41,3.41,0,0,1-.043,1.963c-2.006.768-3.969,1.622-6.23.725.427-.811.853-1.622,1.323-2.432.512-.811,1.067-1.536,1.622-2.347a2.058,2.058,0,0,0,.256-1.92.791.791,0,0,0-1.024.256,11.557,11.557,0,0,1-3.627,2.6,23.712,23.712,0,0,1-2.6,1.067.582.582,0,0,1,.213-.512,27.361,27.361,0,0,1,6.871-4.822c1.067-.555,1.152-.683.64-1.792a2.518,2.518,0,0,0-.6-.085,28.273,28.273,0,0,0-3.755.9c-1.963.683-3.841,1.536-5.761,2.3-.469.171-.982.3-1.707.512a7.657,7.657,0,0,1,2.9-1.878,25.217,25.217,0,0,1,3.158-1.152,33.843,33.843,0,0,1,3.371-.469c-.128-.555-.256-.939-.384-1.451-2.048.171-3.969.256-5.889.469s-3.841.512-5.8.6a6.17,6.17,0,0,1,1.707-1.11A13.592,13.592,0,0,1,167,24.78a59.22,59.22,0,0,1,7.767-.853C175.794,24.012,176.6,24.012,177.458,24.012Z" transform="translate(-84.952 -13.05)"/>
    <path id="Path_1143" data-name="Path 1143" class="cls-3" d="M177.662,24.212c-.811,0-1.664,0-2.518.085a52.735,52.735,0,0,0-7.767.853,13.591,13.591,0,0,0-2.731,1.11,8.332,8.332,0,0,0-1.707,1.11c1.963-.085,3.883-.384,5.8-.6s3.841-.3,5.889-.469c.128.469.213.9.384,1.451-1.238.171-2.3.213-3.371.469a23.515,23.515,0,0,0-3.158,1.152,7.349,7.349,0,0,0-2.9,1.878c.725-.213,1.195-.341,1.707-.512,1.92-.768,3.841-1.622,5.761-2.3a36.987,36.987,0,0,1,3.755-.9,1.555,1.555,0,0,1,.6.085c.512,1.11.427,1.238-.64,1.792a24.967,24.967,0,0,0-6.871,4.822.815.815,0,0,0-.213.512c.854-.341,1.75-.64,2.6-1.067a11.557,11.557,0,0,0,3.627-2.6.778.778,0,0,1,1.024-.256,2.058,2.058,0,0,1-.256,1.92c-.555.768-1.152,1.536-1.622,2.347-.469.768-.9,1.622-1.323,2.432,2.262.9,4.225,0,6.231-.725a3.819,3.819,0,0,0,.043-1.963,5.688,5.688,0,0,1-.128-1.195c0-.341.128-.683.555-.725a4.59,4.59,0,0,1,.939,5.42,6.469,6.469,0,0,1-1.366,1.494c-1.024.9-2.134,1.75-3.286,2.731.939.085,1.792.3,2.6-.384.469-.427,1.067-.725,1.536-1.195A10.236,10.236,0,0,0,181.93,39.4c.213-.384.341-.811.512-1.195a1.356,1.356,0,0,0,.128-.384c-.341-1.067.256-1.878.811-2.859.3,2.475.854,4.737.683,7.127a19.879,19.879,0,0,1-.512,2.689c-.043.213-.3.427-.512.6a6.634,6.634,0,0,1-4.865,2.006,2.665,2.665,0,0,0-.512.043,7.322,7.322,0,0,0,.384.811,3.273,3.273,0,0,1,.469,2.731,3.485,3.485,0,0,1-3.073,2.945,8.618,8.618,0,0,1-3.286-.3,2.571,2.571,0,0,1-1.536-2.048c-.384.256-.768.384-.939.64-.768,1.366-1.92,2.475-2.475,3.969a41.237,41.237,0,0,0-1.792,5.633,12.019,12.019,0,0,0-.213,3.713c-1.152.683-2.3,1.366-3.414,2.048A17.61,17.61,0,0,0,160,68.893a3.868,3.868,0,0,1-.683.469c-.512.256-.768.128-.939-.384-.3-.725-.512-1.494-.811-2.176a3.584,3.584,0,0,1-.128-2.006,4.989,4.989,0,0,0-.085-1.323c-.427.171-.768.341-1.067.469-.854.341-1.707.64-2.561.939a2.666,2.666,0,0,1-2.048-.341.884.884,0,0,1-.384-.555,9.733,9.733,0,0,1-.171-2.219c.171-1.664.469-3.371.725-5.121-.171-.085-.427-.171-.64-.3a1.447,1.447,0,0,1-.6-.384.811.811,0,0,1-.043-.555.475.475,0,0,1,.427-.128c.469.128.9.256,1.494.427.555-1.195,1.067-2.39,1.664-3.627-.768-.384-1.494-.725-2.176-1.11-.854-.469-1.707-.939-2.518-1.494a1.922,1.922,0,0,1-.6-.811.971.971,0,0,1,.555-1.366,6.056,6.056,0,0,1,1.238-.427,48.1,48.1,0,0,0,8.791-2.859,14.914,14.914,0,0,0,3.585-2.475c1.366-1.195,1.792-2.859,2.3-4.438a6.805,6.805,0,0,1,1.579-2.689,24.033,24.033,0,0,1,4.822-3.755,9.021,9.021,0,0,0,1.494-1.11,1.529,1.529,0,0,0-.469.171c-1.792.811-3.585,1.622-5.377,2.518a34.317,34.317,0,0,0-3.2,1.835,2.5,2.5,0,0,1-1.664.128c-.128,0-.341-.341-.341-.555a3.56,3.56,0,0,1,.256-1.494,6.167,6.167,0,0,1,2.048-2.518c.341-.256.725-.512,1.195-.853-.256-.043-.341-.085-.427-.085-1.195.341-2.432.683-3.585,1.11a1.692,1.692,0,0,1-2.219-.64,1.618,1.618,0,0,1,.512-2.091,15.821,15.821,0,0,1,6.871-3.286,44.248,44.248,0,0,1,7.511-.64h2.56C177.577,23.017,177.662,23.145,177.662,24.212Z" transform="translate(-85.157 -13.25)"/>
    <path id="Path_1144" data-name="Path 1144" class="cls-3" d="M208.321,83.7c.128-.64-.3-.768-.683-.9a1.623,1.623,0,0,0-2.006.512c.043.171.128.3.171.469l.3.6a2.38,2.38,0,0,0-.555,0c-.128.085-.3.3-.256.427a1.153,1.153,0,0,0,1.323.6.865.865,0,0,0,.512-1.195c-.085-.213-.171-.469-.341-.9C207.467,83.491,207.852,83.577,208.321,83.7Z" transform="translate(-117.565 -47.394)"/>
    <path id="Path_1145" data-name="Path 1145" class="cls-4" d="M121.866,73.822a11.943,11.943,0,0,1-3.243-.3,1.557,1.557,0,0,1,.768-.725c.768-.256,1.494-.512,2.262-.768-.043-.6-.128-1.152-.128-1.75a3.905,3.905,0,0,0-.043-.683,3.23,3.23,0,0,1-.64-.043c-.811-.043-1.622-.043-2.432-.085-.213,0-.384-.171-.768-.341a12.342,12.342,0,0,1,1.792-.939c.683-.213,1.366-.384,2.048-.6,0-.725,0-1.451-.043-2.176h-2.987c-.384,0-.768-.085-1.28-.128a4.614,4.614,0,0,1,2.475-1.75c.512-.213,1.024-.384,1.579-.555a11.71,11.71,0,0,0-.384-1.664,5.737,5.737,0,0,1-1.707.3c-.555,0-.811-.341-.811-.9-.085-2.006.085-4.011-.085-6.017-.085-1.366-.256-2.731-.384-4.1-.085.043-.128.043-.213.085-3.713,1.024-7.6.9-11.351,1.494-.213.213-.128.512.085,1.11l-4.054-.085c-.341-1.323-.64-1.451-1.963-1.238-1.536.213-3.115.768-4.652-.128a.32.32,0,0,0-.213-.043c-2.475-.128-4.865-.982-7.3-1.366-2.56-.427-5.078-1.28-7.724-1.366a.767.767,0,0,1-.384-.171,6.233,6.233,0,0,1,.128-.939c.555-1.664,1.11-3.286,1.664-4.908.469-1.366,1.536-2.39,2.219-3.627a2.1,2.1,0,0,1,1.11-.9,1.937,1.937,0,0,0,.256.6,4.566,4.566,0,0,0,1.28,1.408,6.46,6.46,0,0,0,3.371.341,3.2,3.2,0,0,0,2.347-1.451,3.736,3.736,0,0,0,.256-4.267,4.741,4.741,0,0,1-.3-.683l.341-.171a3.023,3.023,0,0,1,.6-.043c1.878.043,3.243-.982,4.524-2.219a.65.65,0,0,0,.256-.427c.043-1.195.768-2.262.512-3.457a2.217,2.217,0,0,0,.213-.128c.085.3.213.64.3.939a3.384,3.384,0,0,0,3.755,2.6,8.683,8.683,0,0,0,5.548-2.689,5.532,5.532,0,0,0,1.366-2.432c.256-.939.384-1.92.6-2.859a2.368,2.368,0,0,1,.256.341c.9,1.067,1.75,2.176,2.646,3.243.469.555.469.512,1.11.128a2.19,2.19,0,0,0-.768-2.262,29.629,29.629,0,0,1-2.091-2.432c.982-.213,1.878-.64,2.9-.171.128-.341.256-.6.427-1.024-1.451-.128-2.731.469-4.054.043a9.807,9.807,0,0,1,1.92-2.6c.213-.213.384-.341.085-.725-.768.982-1.536,1.963-2.347,2.987a12.134,12.134,0,0,1-.768-2.3,2.924,2.924,0,0,0-1.323-2.262,10.177,10.177,0,0,0-3.67-1.451,2.436,2.436,0,0,0-1.11,0,7.281,7.281,0,0,0-5.164,4.78c-.384,1.067-.811,2.091-1.152,3.158-.171.469-.171.982-.3,1.494a7.432,7.432,0,0,1-.213.939c-.085.3-.213.555-.3.853a3.533,3.533,0,0,1-1.366,1.963c-1.024.725-2.048,1.494-3.03,2.219-.128.085-.213.3-.427.555,1.408.427,2.219-.683,3.243-.982a15.407,15.407,0,0,1-4.4,3.883c-.3-.043-.811-.213-1.152.3.128.512.469.341.768.384a2.286,2.286,0,0,1,2.134,1.878,2.911,2.911,0,0,1-1.451,2.9,4.742,4.742,0,0,1-3.585.085,1.3,1.3,0,0,1-.683-1.835c.341-.555.213-.853-.256-1.152a3.052,3.052,0,0,0-1.963,1.366c-1.238,2.091-2.731,3.969-3.627,6.273a24.028,24.028,0,0,0-1.878,7.468,2.085,2.085,0,0,1-.9,1.707A18.882,18.882,0,0,1,73.6,55.514c-.213-1.963-.427-3.883-.683-5.846.427-.469,1.366-.469,1.622-1.494a5.228,5.228,0,0,0-.683.171c-.555.341-1.067.725-1.622,1.024a29.745,29.745,0,0,1-3.329,1.579c-1.323.512-1.792.171-2.006-1.238a2.021,2.021,0,0,1-.043-.725c.085-1.067.171-2.091.256-3.158.043-.64.128-1.238.213-1.92.64.043,1.195.128,1.707.128a23.656,23.656,0,0,0,5.206-.213,3.441,3.441,0,0,0,1.28-.555.887.887,0,0,0,.213-.811c-.085-.341-.427-.171-.683-.085a14.154,14.154,0,0,1-5.334.555,16.42,16.42,0,0,1-1.792-.256A9.863,9.863,0,0,1,70.1,38.829a3.414,3.414,0,0,0-.982-.683,14.77,14.77,0,0,1-4.1-2.262,2.445,2.445,0,0,1-.469-.469c.128-.128.171-.256.256-.3,1.28-.384,2.518-.768,3.8-1.152h.085c.64-.171,1.323-.341,1.92-.555.555-.213,1.11-.512,1.707-.725A13.451,13.451,0,0,0,76.8,30.422a5.889,5.889,0,0,0,1.878-2.091,2.519,2.519,0,0,0,.085-.6c-.085-.043-.128-.085-.213-.128-.3.256-.6.469-.9.725a9.822,9.822,0,0,1-1.579,1.408,27.559,27.559,0,0,1-3.542,1.792,25.44,25.44,0,0,1-4.908,1.622,19.45,19.45,0,0,0-3.329.939c-1.152.427-1.323,1.366-.384,2.176a9.623,9.623,0,0,0,1.536,1.024q1.6.832,3.329,1.664c-.555,1.28-1.11,2.432-1.664,3.67-.6-.171-1.024-.384-1.494-.469a.574.574,0,0,0-.512.213.485.485,0,0,0,.128.512,3.049,3.049,0,0,0,.64.341c.213.128.469.256.555.3-.256,2.091-.555,4.054-.725,6.017-.128,1.323.469,2.176,1.622,2.219a5.583,5.583,0,0,0,1.878-.3c.9-.3,1.792-.725,2.817-1.11.043.469.128.811.171,1.195a1.666,1.666,0,0,1-.768,1.707c-2.134,1.536-4.182,3.158-6.273,4.737-.811.6-1.664,1.152-2.518,1.75-1.11-1.536-2.176-3.03-4.054-3.5a10.331,10.331,0,0,0-5.249.256,4.951,4.951,0,0,0-1.024-.853c-.811-.555-1.622-1.11-2.39-1.664-.683-.469-.725-.683-.256-1.323a3.9,3.9,0,0,1,2.987-2.006c-.213-.725-.256-.854-.725-.768a2.73,2.73,0,0,0-1.11.427c-.555.3-1.067.683-1.75,1.11.085-.64.128-1.11.171-1.536.043-.6.085-1.238.085-1.835,0-.213-.256-.384-.384-.6a2.287,2.287,0,0,0-1.024,1.622c-.085.725-.213,1.408-.3,2.134-.085.427-.171.811-.341,1.451-.811-1.067-1.579-1.878-.9-3.115-1.408-.085-1.963.512-1.536,1.792a18.138,18.138,0,0,0,.9,1.835c.128.213.256.427.469.811-1.323-.469-2.39-.853-3.414-1.195-.512.811-.427,1.152.341,1.579.427.213.854.341,1.494.6-.6.171-1.024.256-1.451.384-.427.085-.939.085-.811.768.469.341.939.128,1.366,0,.469-.128.939-.213,1.408-.3.043.085.043.128.085.213-.555.341-1.067.683-1.622,1.024a11.12,11.12,0,0,0-1.28.854.549.549,0,0,0-.043.512.539.539,0,0,0,.512.043c.725-.469,1.451-.982,2.219-1.451a4.625,4.625,0,0,1,.811-.341,22.169,22.169,0,0,0,2.006,4.993c-.384,1.152-.768,2.219-1.152,3.329a7.3,7.3,0,0,1-.853-.768c-.64-.768-1.238-1.579-1.878-2.347q-1.28-1.536-2.689-3.073c-.427-.469-.939-.939-1.451-1.408a6.372,6.372,0,0,0-.085-.725c-.085-1.195-.213-2.432-.256-3.627a2.348,2.348,0,0,1,1.622-2.432,11.548,11.548,0,0,0,1.579-.9,4.007,4.007,0,0,0,1.579-1.792,1.657,1.657,0,0,0,0-1.664,11.114,11.114,0,0,1-.683-2.006,1.046,1.046,0,0,1,.256-.683,2.855,2.855,0,0,1,.811-.6c1.408-.768,2.859-1.579,4.267-2.3a8.3,8.3,0,0,1,.939-.341c.555-.213,1.067-.427,1.494-.64-.853-3.457-1.707-6.743-2.518-10.071.9-.128,1.707-.256,2.475-.384.725-.128,1.451-.256,2.219-.341.469-.043.939,0,1.408-.043.9-.085,1.792-.3,2.731-.384.982-.043,1.92,0,2.9.043.683.043.768,0,.811-.683a15.723,15.723,0,0,1,0-2.006,8.979,8.979,0,0,0,.085-2.39c-.043-.64-.128-1.28-.128-1.92,0-1.408,0-2.774-.043-4.182-.043-1.067-.128-2.091-.128-3.158-.043-1.536,0-3.073-.085-4.609-.128-2.347-.341-4.694-.555-7A7.206,7.206,0,0,0,60.158.891a1.236,1.236,0,0,0-1.323-.9c-2.6.256-5.206.512-7.809.853-1.878.256-3.755.64-5.633.939-2.432.427-4.908.768-7.34,1.238-2.006.384-3.969.9-5.974,1.323-1.75.384-3.542.64-5.292.982-.768.128-.768.3-.683,1.11.171,1.28.213,2.56.341,3.841-.9.341-1.622.683-2.39.982-1.707.683-3.371,1.494-5.078,2.091a82.877,82.877,0,0,0-9.3,4.225C7.625,18.643,5.62,19.8,3.486,20.735A20.623,20.623,0,0,0,.2,22.868C.541,23.978.84,25,1.224,25.984c.64,1.664,1.323,3.243,1.963,4.908.9,2.39,1.75,4.78,2.6,7.169.171.512.3,1.067.512,1.536.64,1.494,1.366,2.945,2.006,4.438.9,2.048,1.75,4.139,2.689,6.188a1.236,1.236,0,0,0,1.963.64c1.323-.683,2.646-1.451,4.011-2.134a5.141,5.141,0,0,1,1.152-.341c.512-.128.768.085.939.64.512,2.091,1.152,4.139,1.707,6.188.3,1.067.982,1.28,1.878.555.512-.384,1.067-.725,1.622-1.067a7.017,7.017,0,0,0,.939-.6,10.693,10.693,0,0,1,2.347-1.792c.555-.3,1.024-.768,1.536-1.11.6-.384,1.28-.768,2.006-1.195a10.307,10.307,0,0,0,0,1.152c.085.341.128.811.384,1.024a12.723,12.723,0,0,0,1.707,1.28c.384.213.811.341,1.238.555.128,1.878.256,3.67.384,5.505-.683.469-1.408.9-2.091,1.408-.853.683-.853.725-.128,1.579.043.085.128.171.171.256.982,1.323,1.92,2.646,2.9,3.926.768,1.024,1.707,1.963,2.39,3.073a26.6,26.6,0,0,0,3.8,4.652,6.965,6.965,0,0,1,.725.853,1.845,1.845,0,0,0,2.3.512c.3-.128.6-.256.982-.427,1.664,2.176,3.8,2.219,6.1,1.323,2.262,2.134,3.969,7.425,4.353,10.071A19.354,19.354,0,0,1,50.129,87.9a10.639,10.639,0,0,0-1.664.427c.213.768.384,1.451.555,2.134-.725.3-1.366.64-2.006.853-2.475.9-4.993,1.792-7.511,2.646-.939.341-1.067.555-.512,1.366a1.122,1.122,0,0,1,.171,1.152c-.256.768-.427,1.579-.725,2.347-.171.469-.427.9-.64,1.366-2.006-1.792-3.158-1.366-4.566-.384a3.2,3.2,0,0,0-.9,4.054c-.64.043-1.195.043-1.75.128-.939.171-1.878.384-2.774.6-.427.085-.725.043-.853-.427a2.537,2.537,0,0,0-1.707-1.707,3.3,3.3,0,0,0-2.475.043,4.311,4.311,0,0,0-2.6,2.432,4.947,4.947,0,0,0,.085,3.5,2.969,2.969,0,0,0,2.176,2.176,3.6,3.6,0,0,0,2.945-.256,5.99,5.99,0,0,0,.469,3.8c-1.238,1.024-2.39,2.006-3.585,2.987a13.554,13.554,0,0,0-3.115,3.841,3.112,3.112,0,0,0-.213,1.664,1.54,1.54,0,0,0,1.28,1.323c1.323-.043,2.646,0,3.713-1.067a5.676,5.676,0,0,1,.811-.6c.811-.683,1.664-1.366,2.475-2.091a14.552,14.552,0,0,0,1.195-1.408c.213.512.384.939.555,1.323.469,1.152.725,2.39,1.75,3.286a1.868,1.868,0,0,1,.469,1.792c-.213.982-.341,1.92-.555,2.9a14.439,14.439,0,0,1-.341,1.451,15.416,15.416,0,0,0-1.75-.811,2.061,2.061,0,0,0-2.219.853,4.219,4.219,0,0,0-.384,2.945c.853,2.689,2.3,4.908,5.078,5.974a2.441,2.441,0,0,0,2.945-.939c.427-.9.725-1.835,1.067-2.774a14.5,14.5,0,0,0,.469-2.987,16.832,16.832,0,0,0,.128-3.883c-.085-.683-.3-1.622.9-2.091a3.55,3.55,0,0,1,.555.768c.555,1.152,1.152,2.3,1.622,3.5a18.116,18.116,0,0,0,1.408,3.371,1.6,1.6,0,0,0,1.792.853,7.038,7.038,0,0,0,2.518-.982,16.392,16.392,0,0,0,2.39-2.134,5.088,5.088,0,0,0,1.451-4.31c-.128-1.494-.939-2.176-2.3-1.963a4.062,4.062,0,0,0-1.579.725c-.6.384-1.152.853-1.707,1.28l-.128-.128a33.948,33.948,0,0,0-3.457-5.036,1.116,1.116,0,0,1-.171-.853,4.467,4.467,0,0,0-.256-2.475,1.814,1.814,0,0,1-.043-.725c.469.3.768.512,1.11.725.683.384.982.213,1.152-.512q.064-.384.128-.9c.768.427,1.451.768,2.091,1.195a2.225,2.225,0,0,0,2.134.128,3.283,3.283,0,0,0,1.792-2.432,2.288,2.288,0,0,0,.043-1.195,3.092,3.092,0,0,0-1.323-1.622c-1.92-.982-3.457-2.6-5.548-3.115a66.126,66.126,0,0,1,2.3-7.127,1.9,1.9,0,0,1,1.323-1.28c.427-.128.854-.256,1.238-.384,1.28-.427,2.475-1.323,3.926-1.152.171.043.384-.128.6-.171.555-.128,1.11-.213,1.75-.3-.683,4.1-1.366,8.108-1.963,12.12s-1.067,8.066-1.622,12.077c.982.512,1.792.939,2.646,1.366s1.92,0,2.646.725a31.079,31.079,0,0,1-1.92,5.932c-.768,2.3-1.622,4.609-2.347,6.956a6.151,6.151,0,0,1-1.408,2.9,4.329,4.329,0,0,1-1.024-.085c-.9-.128-1.792-.3-2.731-.469-.555-.085-1.11-.043-1.366.469a1.826,1.826,0,0,0,.085,1.152c.341.9.768,1.75,1.11,2.6.213.512.384,1.024.555,1.536a4.456,4.456,0,0,1-1.28.512,4.189,4.189,0,0,1-1.238-.213c-.043.171-.128.256-.085.3a.861.861,0,0,1-.6.939c-.341.171-.64.555-1.067.128-.256-.213-.469,0-.6.3a8.8,8.8,0,0,1-.469.768c-.555-.085-.9-.128-1.11-.171a5.131,5.131,0,0,1-.6,1.195,18.006,18.006,0,0,1-1.963,1.622,9.717,9.717,0,0,0-2.091,2.091,3.338,3.338,0,0,0-.3,3.115l1.792,2.176c1.024,1.195,1.366,1.067,2.987.427a34.318,34.318,0,0,0,4.1-2.219,24.673,24.673,0,0,0,2.731-1.707c1.494-1.195,2.987-2.475,4.4-3.8a2.612,2.612,0,0,0,.939-2.56,3.448,3.448,0,0,0-1.408-2.475c.213-.341.384-.64.555-.982.427-.768.811-1.579,1.238-2.3.341-.6.725-1.152.213-1.707.341-.469.6-.811.9-1.195a16.545,16.545,0,0,1,.982-1.408,22.292,22.292,0,0,0,2.646-4.566c.64-1.195,1.152-2.475,1.707-3.713.555-1.152,1.11-2.3,1.622-3.5.384-.9.6-1.024,1.579-.768a13.089,13.089,0,0,0,1.792.3c.341.043.683.043,1.024.085a.817.817,0,0,1,.725.725c.256,2.176.6,4.353.853,6.572.085.555,0,1.152.043,1.75.128,1.75.256,3.542.384,5.292a.943.943,0,0,1-.469,1.024,16.362,16.362,0,0,0-1.238,1.195c-.64.64-1.28,1.323-1.963,1.92-1.152.982-2.39,1.92-3.585,2.859a30.021,30.021,0,0,0-4.1,3.969,20.192,20.192,0,0,0-1.323,1.835.561.561,0,0,0,.085.9.593.593,0,0,0,.811.043c.469-.3,1.024-.469,1.536-.768a16.875,16.875,0,0,0,1.451-.939c1.067-.811,2.048-1.664,3.115-2.432a27.729,27.729,0,0,0,4.1-3.371A20.634,20.634,0,0,1,64.6,146.54a.933.933,0,0,1,.213.128,13.349,13.349,0,0,1-.171,1.878c-.256,1.238-.64,2.432-.982,3.627-.085.3-.085.555.213.683s.6.213.811-.128a3.9,3.9,0,0,0,.384-.725,14.563,14.563,0,0,0,1.11-3.243,4.174,4.174,0,0,1,.384-1.238,11.981,11.981,0,0,0,.982-4.225.893.893,0,0,0-.555-.982,1.877,1.877,0,0,1-.512-.256c.085-4.822-.341-9.559.982-14.253a4.928,4.928,0,0,1,.683.085,26.019,26.019,0,0,1,.341,3.073,49.539,49.539,0,0,0,.939,7.084c.256,1.579.64,3.115.982,4.737-.725.128-1.323.3-2.006.427a16.373,16.373,0,0,0,1.579,4.054c.043.085.213.085.427.171a1.544,1.544,0,0,0,.043-.6c-.171-.6-.384-1.152-.6-1.75-.3-.768-.3-.854.469-1.11,1.152-.384,2.347-.683,3.5-.982a6.208,6.208,0,0,1,1.067-.171,2.4,2.4,0,0,1-.085.427c-.768,1.28-1.536,2.56-2.347,3.841-.213.341-.512.64-.341,1.024.64.427,1.238.854,1.75,1.238-.256.683-.512,1.238-.725,1.835a.547.547,0,0,0,.3.768c.341.128.512-.085.64-.341a11.415,11.415,0,0,0,.768-1.195c.256-.512.6-.725,1.152-.469.213.085.427.128.768.256-.341.469-.6.939-.9,1.323-.256.341-.469.64-.128.982s.64.128.939-.213c.469-.555,1.024-1.067,1.536-1.579.3.171.555.341.9.512-.3.384-.6.683-.811.982-.085.171-.128.512-.043.6a.6.6,0,0,0,.6.085,2.25,2.25,0,0,0,.64-.469c.854-.768,1.11-.725,2.048.213a6.179,6.179,0,0,0-3.457,2.945c-.853-.341-1.579-.555-2.262-.9a10.884,10.884,0,0,1-2.945-1.579,1.054,1.054,0,0,0-.384-.171,5.448,5.448,0,0,1-2.432-2.56,2.957,2.957,0,0,1-.128-.853c.683-.512,1.536-.854,1.195-2.048-.683.256-1.28.469-1.878.725a.98.98,0,0,0-.512.939,3.219,3.219,0,0,1-.811,2.262,2.778,2.778,0,0,0-.6,2.3,1.149,1.149,0,0,0,.427.768c1.195.64,2.39,1.28,3.67,1.835,1.664.683,3.371,1.28,5.078,1.92l.768.256c1.92.512,3.841.982,5.8,1.494a1.621,1.621,0,0,0,1.792-.6,8.143,8.143,0,0,0,1.494-2.646,1.742,1.742,0,0,0-.555-2.262,14.636,14.636,0,0,1-2.006-1.536c-.6-.725-1.494-.854-2.134-1.408-.256-.213-.555-.341-.853-.555q.128-.64.256-1.152c-.768-.256-1.024.427-1.579.6-.256-.128-.555-.3-.854-.427.085-.171.085-.256.128-.341.256-.256.384-.555.085-.768a1.023,1.023,0,0,0-.853.085,4.472,4.472,0,0,0-.725.6c-.469-.213-.854-.427-1.28-.64.128-.384.256-.64.341-.939a.791.791,0,0,0-1.11.128.764.764,0,0,1-1.11.085c-.213-.128-.427-.3-.683-.427a2.652,2.652,0,0,1,.128-.427c.6-.939,1.195-1.92,1.75-2.859a6.093,6.093,0,0,0,.64-1.152.937.937,0,0,0-1.024-1.323,11.7,11.7,0,0,1-1.195.213c-.427.085-.853.128-1.28.171.171-1.579.341-3.03.512-4.524a1.6,1.6,0,0,0-.043-.427c-.043-.683-.128-1.366-.128-2.048,0-2.176.128-4.353,0-6.529a3.592,3.592,0,0,1,.427-1.792,7.381,7.381,0,0,0,.512-1.963c.128-1.707.213-3.414.3-5.078a.978.978,0,0,1,.64-1.024c1.878-.9,3.755-1.792,5.59-2.689.768-.384,1.451-.853,2.219-1.238a5.581,5.581,0,0,1,.64-.213c.469.982.854,1.963,1.323,2.9a3.879,3.879,0,0,1,.469,2.176,29.9,29.9,0,0,1-.512,3.329,19.34,19.34,0,0,0-.256,7.34,15.92,15.92,0,0,0,1.536,4.822,14.494,14.494,0,0,1,1.408,4.225,2.679,2.679,0,0,0-.6,3.371,5.086,5.086,0,0,1,.3,3.371,23.509,23.509,0,0,0-.256,2.432c.384.256.683.512,1.024.768.128-.085.341-.128.341-.213.384-1.579.725-3.115,1.11-4.95.384.64.683,1.11.982,1.579a11.838,11.838,0,0,0,.939,1.579c1.451,1.664,2.945,3.286,4.4,4.95,1.024,1.195,2.39,2.048,3.2,3.414a.537.537,0,0,0,.9.085c.469-.384.555-.683.3-1.366a27.062,27.062,0,0,0-2.774-5.121c-.341-.555-.683-1.11-.982-1.664-.256-.469-.427-.982-.725-1.451-1.067-1.878-2.6-3.414-3.627-5.377-.683-1.323-1.024-2.731-1.622-4.054-.683-1.536-.555-3.243-.939-4.822-.043-.085.043-.213.043-.3.043-2.091.128-4.139.085-6.231a13.426,13.426,0,0,1,.811-5.8,2.792,2.792,0,0,0,.085-1.195,18.589,18.589,0,0,0-.982-4.865c-.341-1.195-.171-1.536.939-2.006,1.238-.555,1.579-1.067,1.366-2.262-.256-1.536-.64-3.073-.853-4.609a24.95,24.95,0,0,1-.384-3.926,17.263,17.263,0,0,0-.384-3.926,12.414,12.414,0,0,1-.171-1.323c-.085-.768-.085-1.579-.171-2.347s.043-.9.811-.939c.512-.043,1.024-.085,1.579-.085a4.969,4.969,0,0,1,1.92-1.792,1.228,1.228,0,0,1,.853-.3,3.671,3.671,0,0,1,.683.043c.085-.085.128-.213.213-.3a12.556,12.556,0,0,1-2.56-.683c-.939-.341-1.92-.725-2.817-1.152a4.331,4.331,0,0,1-1.152-.811c-.982-.939-2.3-1.408-3.2-2.432a16.641,16.641,0,0,1-3.457-6.529,5.941,5.941,0,0,1-.085-2.6,40.349,40.349,0,0,0,.3-4.566,8.051,8.051,0,0,1,1.11-3.969,9.94,9.94,0,0,1,2.134-2.3c.982-.853,2.091-1.536,3.03-2.432a12.2,12.2,0,0,1,6.188-2.774,1.82,1.82,0,0,0,.768-.256,4.544,4.544,0,0,1,2.6-.384,28.374,28.374,0,0,1,3.329.427,21.9,21.9,0,0,1,2.945,1.067,11.7,11.7,0,0,1,4.267,3.329c.725.853,1.494,1.707,2.176,2.56a6.507,6.507,0,0,1,1.451,3.329c.256,1.963.555,3.883.683,5.846a12.6,12.6,0,0,1-1.408,6.7,12.036,12.036,0,0,1-2.091,3.371c-.384.384-.768.768-1.11,1.152a.719.719,0,0,1,.256.469c2.774-.683,5.59-1.323,8.407-1.792.043-.128.043-.3.085-.427a14.332,14.332,0,0,1,.341-3.286,8.125,8.125,0,0,1,1.067-3.67,9.3,9.3,0,0,1,1.579-2.39,3.019,3.019,0,0,1,1.536-.939A2.986,2.986,0,0,0,121.866,73.822ZM107.655,28.331a7.052,7.052,0,0,1-3.585,1.835,3.2,3.2,0,0,1-3.585-3.03,7.531,7.531,0,0,0,4.225.683,8.538,8.538,0,0,0,3.841-1.75A2.189,2.189,0,0,1,107.655,28.331ZM100.7,24.618a2.013,2.013,0,0,1,1.366-.512c1.579-.128,3.158-.213,4.737-.384a.79.79,0,0,1,.939.512C105.948,25.856,103.217,26.026,100.7,24.618Zm1.024-6.913a19.3,19.3,0,0,1,2.134-.982,2.034,2.034,0,0,1,2.134.171,8.883,8.883,0,0,1,2.518,1.835,3.686,3.686,0,0,1,.427.683c-1.152-.213-2.176-.427-3.2-.64a3.635,3.635,0,0,1-.982-.171,5.694,5.694,0,0,0-3.67.171c-.128.043-.256,0-.469-.128A5.877,5.877,0,0,1,101.723,17.7Zm5.548,3.414c-2.347.427-4.652.853-7,1.238C101.894,20.35,105.265,19.241,107.271,21.119ZM84.44,158.745a.892.892,0,0,1-.982.341,20.27,20.27,0,0,1-3.5-.683c-1.408-.555-2.945-.854-4.353-1.408-2.091-.854-4.1-1.792-6.145-2.774-1.238-.6-1.28-1.195-.3-2.134a2.717,2.717,0,0,1,.427-.256c.427.469.853,1.024,1.323,1.451a3.524,3.524,0,0,0,.939.6c.213.128.469.085.683.213a21.553,21.553,0,0,0,6.231,2.817,20.588,20.588,0,0,0,3.67.6h.213c.811.128,1.622.256,2.6.384C84.952,158.19,84.7,158.446,84.44,158.745ZM82.52,153.5a1.46,1.46,0,0,1,.853.043c1.024.341,1.579,1.238,2.3,1.963a.664.664,0,0,1-.213,1.024.617.617,0,0,1-.3.085,12.9,12.9,0,0,1-5.548-.512,2.735,2.735,0,0,1,1.195-1.75A6.4,6.4,0,0,1,82.52,153.5ZM52.05,56.923c-1.323,1.024-2.347,2.432-3.841,3.329-.427-.683-.3-1.067.128-1.451.9-.768,1.75-1.579,2.646-2.3C51.5,56.112,51.666,56.24,52.05,56.923ZM47.7,57.9c-.341-.3-.512-.64-.128-.939a27.691,27.691,0,0,1,2.347-1.536c.085-.043.256.043.64.085A11.365,11.365,0,0,1,47.7,57.9ZM27.512,6.439c1.323-.3,2.646-.64,3.969-.939l2.176-.512a.791.791,0,0,1,.3-.085,11.753,11.753,0,0,0,4.182-.811,26.324,26.324,0,0,1,3.2-.512.385.385,0,0,0,.213-.043,19.507,19.507,0,0,1,3.883-.725c2.006-.341,4.011-.64,5.974-1.067a36.644,36.644,0,0,1,6.444-.64c1.195-.043,1.408.213,1.451,1.408.085,1.835.256,3.627.341,5.462.128,2.646.171,5.292.3,7.938.085,1.878.256,3.713.3,5.59.043,1.963,0,3.926-.043,5.8-4.011.3-7.809.811-11.65,1.195a2.868,2.868,0,0,1-.256-.512c-.64-2.518-1.28-5.078-1.963-7.6-.512-1.835-1.195-3.585-1.622-5.42a30.984,30.984,0,0,0-1.152-2.987.78.78,0,0,0-.64-.555,3.854,3.854,0,0,0-2.3.256,70.181,70.181,0,0,0-7.468,3.542c-1.451.853-2.945,1.536-4.524,2.347a4.314,4.314,0,0,1-.384-2.262,6.629,6.629,0,0,0-.171-1.579,29.928,29.928,0,0,1-.512-3.926C27.469,8.7,27.512,7.591,27.512,6.439ZM13.344,48.857c-1.024.6-1.28.512-1.75-.6-.64-1.622-1.28-3.286-1.963-4.908a30.791,30.791,0,0,1-1.622-4.139,50.806,50.806,0,0,0-2.091-6.06c-1.11-2.817-2.347-5.548-3.542-8.322a2.287,2.287,0,0,1-.213-.469c-.469-1.195-.341-1.92.853-2.39,2.219-.939,4.182-2.432,6.487-3.2,1.323-.427,2.518-1.195,3.8-1.75,2.219-.982,4.4-1.963,6.657-2.817,1.494-.6,3.115-1.024,4.609-1.579a15.49,15.49,0,0,0,1.75-.982,56.541,56.541,0,0,1,.3,7.127c-1.622.982-3.243,2.006-4.908,2.987-2.39,1.408-5.292,1.878-7.468,3.627a7.444,7.444,0,0,1-2.262,1.11c-.725.043.6.555.725,1.28l.128.512c1.067,3.8,2.134,7.6,3.2,11.351.555,1.963,1.152,3.926,1.707,5.846a4.81,4.81,0,0,1,.128.768C16.331,47.15,14.837,48,13.344,48.857Zm17.71.043a50.252,50.252,0,0,0-6.145,4.182c-.725.6-1.494,1.024-2.262,1.579a2.687,2.687,0,0,1-1.323-1.92c-.256-.9-.384-1.835-.683-2.731-.427-1.28-.939-2.56-1.366-3.841-.171-.469-.128-.982-.256-1.494-.3-1.067-.683-2.134-.982-3.2-.469-1.75-.811-3.5-1.28-5.206-.3-1.152-.811-2.3-1.11-3.5-.341-1.323-.6-2.731-.9-4.054a1.045,1.045,0,0,1,.555-1.28c1.238-.768,2.347-1.664,3.585-2.432,1.494-.939,3.073-1.792,4.609-2.731.768-.427,1.494-.9,2.262-1.323,1.536-.939,3.03-1.92,4.609-2.774,1.28-.725,2.6-1.28,3.883-1.963.555-.3,1.067-.683,1.664-.982.341-.171.725-.256,1.11-.427a9.03,9.03,0,0,0,.9-.469,10.34,10.34,0,0,1,1.963-.9c.512-.213,1.067-.427,1.579-.6.341-.128.683-.256,1.067-.427A7.9,7.9,0,0,1,43.686,15.1c.512,1.664,1.024,3.286,1.536,4.95.3,1.024.555,2.048.811,3.03.427,1.536.811,3.073,1.238,4.609.64,2.39,1.366,4.78,1.963,7.169.341,1.366.469,2.731.683,4.1-3.329,1.835-6.487,3.627-9.73,5.462a11.059,11.059,0,0,1-.9-5.846v-.3c-.043-.341.128-.811-.3-.982a1.121,1.121,0,0,0-1.323.512,13.585,13.585,0,0,0-1.536,4.822c-.043,1.067,0,2.091,0,3.243C34.51,46.852,32.761,47.876,31.054,48.9ZM32.5,51.46a2.626,2.626,0,0,1-.384-1.622c.043-.341.512-.683.811-.939a10.371,10.371,0,0,1,1.494-.853c.64-.341,1.28-.6,1.92-.939.683.469.256,1.579,1.238,1.835a1.356,1.356,0,0,0,.085-.555,21.044,21.044,0,0,1-.555-5.164,7.558,7.558,0,0,1,.982-3.371,29.958,29.958,0,0,0,.555,3.414,7.505,7.505,0,0,0,1.536,3.414,1.356,1.356,0,0,0,.427.427c.3.171.6.427.9.085.3-.3.043-.555-.128-.811a3.691,3.691,0,0,1-.3-.427c1.195-.427,1.878,0,2.091,1.11a1.452,1.452,0,0,1-.939,1.835A28.118,28.118,0,0,0,39.8,50.351a3.414,3.414,0,0,0-1.494,2.475,8.712,8.712,0,0,0,0,3.926c.043.213.085.469.128.683-.811.512-1.579.982-2.475,1.536-.085-.64-.171-1.195-.213-1.707-.085-.982-.128-1.963-.213-2.9a1.078,1.078,0,0,0-.683-.939A4.659,4.659,0,0,1,32.5,51.46ZM45.563,70.835a5.285,5.285,0,0,0-.384,3.542,2.946,2.946,0,0,1-2.39-.811,24.4,24.4,0,0,1-4.182-4.694c-.853-1.238-1.835-2.432-2.774-3.627-.085-.128-.171-.3-.256-.427-.512-.768-.982-1.536-1.494-2.3-.469-.683-.341-.982.384-1.366a8.436,8.436,0,0,0,1.792-1.11,8.616,8.616,0,0,1,2.39-1.28.733.733,0,0,1,.9.256c.64.725,1.28,1.408,1.92,2.091.9.939,1.792,1.878,2.646,2.859.469.512.9,1.11,1.323,1.664A1.5,1.5,0,0,0,46.8,66.4c.427.768.811,1.451,1.238,2.3A5.849,5.849,0,0,0,45.563,70.835ZM54.4,77.449a7.371,7.371,0,0,0-1.11-1.195c-.3-.3-.555-.64-.9-1.024a3.229,3.229,0,0,1-3.542,1.024A4.125,4.125,0,0,1,46.118,72.8a2.7,2.7,0,0,1,1.366-2.56,3.274,3.274,0,0,1,2.176-.725c.128,0,.3-.085.683-.171a9.9,9.9,0,0,1-.9-.768,7.017,7.017,0,0,0-.6-.939c-1.28-1.323-1.451-2.817-.384-4.694.3.854.555,1.664.853,2.475a3.085,3.085,0,0,0,1.622,1.878,3.316,3.316,0,0,0,.939,0c-1.28-1.75-2.3-3.371-2.347-5.633.512.6.939,1.067,1.366,1.494.6.64,1.238,1.238,1.878,1.835.213.171.469.341.768-.085a9.258,9.258,0,0,0-.811-1.408c-.555-.768-1.195-1.494-1.792-2.219a1.011,1.011,0,0,1-.171-1.195,1.434,1.434,0,0,1,.6.213,31.462,31.462,0,0,1,2.6,2.134c.555.469.512.512,1.366.469a1.931,1.931,0,0,0-.9-1.707c-1.11-.725-2.176-1.494-3.371-2.3.213-.128.512-.341.982-.64a5.646,5.646,0,0,1,3.457,2.091c.171.213.384.384.555.6.256.3.6.341.768.085a.892.892,0,0,0,.128-.811,1.234,1.234,0,0,0-.512-.64c-.811-.6-1.622-1.152-2.347-1.664.811-.043.853-.043,1.792.64.555.427,1.11.9,1.707,1.408.213-.341.384-.555.555-.853a5.7,5.7,0,0,0-3.585-2.048,4.57,4.57,0,0,1,4.737.6,9.125,9.125,0,0,1,3.2,5.42c.256,1.28.512,2.518.768,3.8.043.128-.043.256-.043.384-.427.384-1.408-.171-1.494.982,1.11.128,2.219.256,3.329.427,1.152.171,2.262.427,3.371.64,1.067.171,2.176.341,3.457.555a9.82,9.82,0,0,1-1.067.982,27,27,0,0,1-4.908,2.9,10.51,10.51,0,0,0-1.152.725c.512.982.512.982,2.006.512l.555,1.11a6.571,6.571,0,0,1-2.945.555c-1.408.043-2.774-.085-4.182-.171a9.419,9.419,0,0,1-1.494-.341c-.427-.128-.555.043-.64.469.725.3.811.939.811,1.664a12.338,12.338,0,0,0,.341,2.518,16.1,16.1,0,0,0,1.11,2.817,1.3,1.3,0,0,0,1.238.725,8.137,8.137,0,0,0,4.993-.982c.427-.213.683-.085.811.3a7.818,7.818,0,0,1,.384,1.664c.085,1.11.085,2.219.128,3.329a4.664,4.664,0,0,1-3.542.213,8.307,8.307,0,0,1-1.622-.6c-.427-.171-.853-.427-1.408-.085.341.725,1.11.768,1.664.982a17.012,17.012,0,0,0,1.75.6c.256,1.536.469,2.945.725,4.4.043.341.085.768-.3.853a1.093,1.093,0,0,1-.811-.171c-1.11-.64-2.176-1.28-3.243-1.92a5.561,5.561,0,0,1-2.176-1.92,3.182,3.182,0,0,0-.6-.725,2.044,2.044,0,0,1-.64-1.92,3.164,3.164,0,0,0-.256-1.536,17.08,17.08,0,0,1-.555-2.56A17.849,17.849,0,0,0,54.4,77.449Zm11.565.427c-.085,1.622-.256,3.243-.427,4.865a.616.616,0,0,1-.3.469,5.513,5.513,0,0,1-2.987.427,1.8,1.8,0,0,1-1.067-.725A9.556,9.556,0,0,1,59.6,78c-.043-.427.213-.512.555-.512h2.048v.171c1.024-.128,2.006-.213,3.03-.341C65.876,77.193,66,77.236,65.962,77.876ZM26.4,119.655a24.361,24.361,0,0,1-3.243,2.646,6.318,6.318,0,0,1-1.75.725,1.043,1.043,0,0,1-1.323-1.451,6.647,6.647,0,0,1,1.067-1.835,24.214,24.214,0,0,1,2.475-2.646c.768-.683,1.664-1.28,2.6-1.963.725.555,1.451,1.11,2.219,1.707A9.555,9.555,0,0,1,26.4,119.655Zm-.128-7.639c-.043-.512-.171-1.024-.171-1.536,0-.64-.64-.725-.811-1.195-.384.171-.64.3-.939.427a1.92,1.92,0,0,1-2.689-.853,4.277,4.277,0,0,1-.555-3.243,1.529,1.529,0,0,1,.171-.469,5.127,5.127,0,0,1,2.817-1.707,1.236,1.236,0,0,1,1.579.939c.213.683.3,1.366.469,2.134a1.072,1.072,0,0,0,1.451-.384,1.749,1.749,0,0,1,1.195-.725,5.222,5.222,0,0,0,1.152-.384,2.7,2.7,0,0,1,2.6-.171c.341-.256.6-.469.9-.683,0-.085,0-.213-.043-.213-.768-.512-.683-1.238-.427-1.963l.256-.768a1.4,1.4,0,0,1,1.024-.853c1.792-.3,2.176-.512,3.03,1.494a6.17,6.17,0,0,1,.384.939,2.246,2.246,0,0,1-2.134,3.115c-.6.043-.811.427-.982.939a3.761,3.761,0,0,1,1.152,2.774,10.751,10.751,0,0,1-.341,3.883,2.287,2.287,0,0,1-.213.469c-.128-.043-.256-.043-.3-.128-.768-.939-1.494-1.835-2.219-2.774a1.813,1.813,0,0,1-.213-.725c-.043-.6,0-1.195,0-1.963a6.769,6.769,0,0,0-2.731.6c-.512.256-.555.469-.085.9.384.384.811.725,1.195,1.11a.936.936,0,0,1,.256,1.024c-.555,1.28-1.11,2.56-1.707,3.926C27.811,114.96,26.488,113.936,26.274,112.016Zm5.676-.341c.939,1.11,1.835,2.134,2.774,3.243a4.8,4.8,0,0,1-4.267,1.323c-.3-.939.384-1.579.6-2.347A10.517,10.517,0,0,1,31.95,111.674Zm-1.664-2.219c.64-.171,1.067-.3,1.494-.427C32.035,109.583,30.883,109.925,30.286,109.455Zm4.182,24.41a9.513,9.513,0,0,1-1.366,3.5,1.547,1.547,0,0,1-2.176.384,10,10,0,0,1-3.158-3.115c-.3-.512-.555-1.024-.811-1.536a3.029,3.029,0,0,1,.171-2.646c.213-.512,1.067-.64,1.579-.469a3.777,3.777,0,0,1,2.3,2.646c.171.427.3.9.469,1.323a2.572,2.572,0,0,0,.469.6,1.117,1.117,0,0,0,.128-1.28,10.926,10.926,0,0,1-.683-4.4c.128-1.11.469-2.219.683-3.329.9.3,1.664.555,2.56.811.043,1.067.171,2.219.171,3.414A22.125,22.125,0,0,1,34.468,133.865Zm3.03-11.65A3.439,3.439,0,0,1,36,124.434c-.128.085-.3.171-.427.256a2.129,2.129,0,0,1-3.073-.555,15.747,15.747,0,0,1-2.9-5.633,1.212,1.212,0,0,1,.341-1.366,4.556,4.556,0,0,0,3.2-.3,18.352,18.352,0,0,0,2.731-1.622,6.056,6.056,0,0,1,.469.768c.341.768.683,1.536.982,2.347A8,8,0,0,1,37.5,122.215Zm1.622.982c.939,1.579,1.835,2.9,2.518,4.31.213.469-.085,1.238-.171,1.878-.085.512-.171,1.024-.3,1.579.6.171.725-.085.853-.469a10.2,10.2,0,0,1,.939-2.219,4.586,4.586,0,0,1,2.432-2.219,4.64,4.64,0,0,1,1.11-.171.652.652,0,0,1,.768.512,3.486,3.486,0,0,1,.256,2.176,5.274,5.274,0,0,1-1.238,2.3,13.307,13.307,0,0,1-2.817,2.3l-.256.128c-1.92.811-2.3.427-2.987-1.024-.171-.384-.3-.853-.469-1.238-.512-1.238-1.024-2.432-1.494-3.67a1.587,1.587,0,0,1-.213-.853A9.389,9.389,0,0,1,39.119,123.2Zm3.8-10.413c.085,0,.171-.043.213,0a7.658,7.658,0,0,1,2.859,2.048,2.338,2.338,0,0,1-.427,2.475,1.664,1.664,0,0,1-2.3.3c-.6-.384-1.238-.683-1.835-1.11a2.034,2.034,0,0,1-.085-3.158,6.544,6.544,0,0,1,1.579-.683Q42.917,112.72,42.917,112.784Zm-.982-11.565c-.6,1.664-1.152,3.329-1.707,4.993-.469,1.408-.939,2.859-1.366,4.267-.213.64.043,1.024.683.853a2.613,2.613,0,0,1,2.518.768,4.522,4.522,0,0,1-.853.512,1.661,1.661,0,0,0-1.323,1.835,18.676,18.676,0,0,1-.3,3.03c-.555-.3-1.195-.6-1.835-.939a1.043,1.043,0,0,1-.384-.469c-.341-.6-.725-1.195-1.024-1.835a.938.938,0,0,1-.043-.6c.128-1.067.3-2.134.469-3.286a.955.955,0,0,0,.768-1.067c.043-.725.085-1.494.128-2.219a1.522,1.522,0,0,1,.256-.811,2.569,2.569,0,0,0,.811-3.115c-.6-1.451-.171-2.689.3-4.011.256-.64.469-1.323.768-2.176.256.384.384.6.512.811.512.9.982,1.75,1.494,2.646A.654.654,0,0,1,41.936,101.219Zm-8.407,55.52a2.643,2.643,0,0,1,.341-1.536,13.612,13.612,0,0,1,1.92-1.92c.171-.128.64,0,.939.043a.86.86,0,0,1,.384.3c.555.512,1.11,1.067,1.664,1.622,0,.043,0,.171-.085.213a12.473,12.473,0,0,1-3.457,2.091,1.356,1.356,0,0,1-.6.085C33.87,157.721,33.529,157.465,33.529,156.739Zm14.765-7.6c.768,1.408.683,2.091-.384,3.158a25.971,25.971,0,0,1-7.169,5.334c-.853.384-1.664.939-2.518,1.323-.512.256-1.067.384-1.622.6a1.411,1.411,0,0,1-1.878-.683,4.861,4.861,0,0,0,.939-.3,11.1,11.1,0,0,0,2.091-1.195,8.318,8.318,0,0,1,2.176-.982,22.175,22.175,0,0,0,4.78-3.414,32.691,32.691,0,0,0,3.073-3.371A1.357,1.357,0,0,1,48.294,149.143Zm-1.536-1.75c.085.085.128.256.256.384.427.427.3.768-.043,1.238a21.9,21.9,0,0,1-4.694,4.822,18.167,18.167,0,0,1-2.134,1.366c-.982-.939-1.963-1.835-2.987-2.859.341-.3.6-.555.939-.853.384.427.683.853,1.024,1.195.427.427.555.427,1.024-.043-.939-1.323-.939-1.878.128-2.347.171.3.341.64.512.939.171.341.384.64.555.982l.9-.256c.043-.9-.853-1.28-1.11-2.091.341-.213.64-.384,1.11-.64.3.725.555,1.366.853,2.091,1.323-.9.341-1.707-.128-2.56.725-.171,1.366-.384,2.006-.512.555-.128.725-.384.469-.982-.384-.982-.853-1.92-1.28-2.859-.3-.725-.64-1.408-.939-2.134a14.36,14.36,0,0,1,5.846.9Q47.974,145.281,46.758,147.393Zm8.919-15.96c-.512,1.024-.982,2.091-1.451,3.115a27.1,27.1,0,0,1-3.329,5.676,11.581,11.581,0,0,1-1.664,1.451,3.012,3.012,0,0,1,.043-2.134c.384-1.195.811-2.39,1.238-3.542s.853-2.3,1.238-3.457c.683-1.878,1.323-3.755,2.048-5.846,1.024.768,2.048,1.536,3.158,2.39C56.573,129.811,56.061,130.622,55.677,131.433ZM71.936,142.1c0,.3-.085.555-.555.555-.6-2.731-1.238-5.505-1.75-8.279a22.339,22.339,0,0,1-.128-2.945c-.043-1.067-.128-2.176-.213-3.329.469-.427.469-.427,2.219-.512.469.469.384,1.152.427,1.707.171,2.262.171,4.524.341,6.785C72.406,138.133,71.979,140.1,71.936,142.1Zm1.92-42.888a55.841,55.841,0,0,1-.171,8.023c-.043,1.835-.213,3.67-.341,5.462-.085,1.238-.341,2.432-.427,3.627l-.512,5.889c-.128,1.238-.3,2.475-.427,3.755-.043.512-.427.683-.853.768a21.137,21.137,0,0,1-2.817.341c-1.408,0-2.859-.043-4.267-.171-1.75-.171-3.5-.427-5.249-.683-.811-.128-1.622-.171-2.432-.341-.982-.213-1.963-.512-2.945-.811l-1.92-.64a1.529,1.529,0,0,1-.469-.171c-1.323-.555-1.451-.725-1.195-2.134.341-1.835.469-3.67.64-5.505.213-2.56.683-5.121,1.024-7.681.171-1.366.341-2.731.555-4.139.3-2.091.64-4.225,1.024-6.316.171-.854-.171-1.238-1.067-.982a22.725,22.725,0,0,0-4.31,1.579,33.434,33.434,0,0,1-3.627,1.366.838.838,0,0,1-1.11-.427c-.853-1.451-1.75-2.9-2.646-4.353a1.253,1.253,0,0,1-.128-.427,7.3,7.3,0,0,1,2.347-1.238c1.024-.3,2.091-.555,3.115-.9.725-.213,1.408-.512,2.091-.725.555-.171,1.11-.3,1.664-.469.768-.256.9-.469.853-1.28a4.312,4.312,0,0,0-.128-.725c-.085-.6.128-.939.725-.939a10.025,10.025,0,0,0,1.11.043c1.067-.128,2.134-.3,3.2-.469.427-.043.853-.085,1.323-.128.085.341.256.6.213.853-.213.725.256,1.11.555,1.622a8.547,8.547,0,0,0,3.329,3.2,13.414,13.414,0,0,0,6.06,2.518c.213,0,.427.043.6.043.427.043.811-.128.853-.555.043-.213-.213-.512-.427-.725-.384-.427-.811-.768-1.195-1.195a.947.947,0,0,1-.213-.469c-.213-1.238-.427-2.475-.64-3.755.768-.128,1.408-.256,2.091-.384a.822.822,0,0,0,.725-.768c.043-.213.085-.384.128-.6.128-.683.341-1.28,1.238-1.11,1.28-.683,2.731-.341,4.054-.725.64-.213,1.238-.469,2.048-.811.043.555.171,1.067.171,1.579a38.842,38.842,0,0,0,.64,5.889,5.22,5.22,0,0,0,.512,1.323c-.171.128-.427.3-.683.469l-.768.512A3.55,3.55,0,0,0,73.857,99.213Zm.768,18.606v-2.262a49.948,49.948,0,0,1,12.93-3.713C86.915,112.528,76.417,117.35,74.625,117.82ZM88.366,92.94c.128,1.238.256,2.39.384,3.585.171,1.494.341,2.945.469,4.438.213,2.347.427,4.652.6,7,.043.512.469,1.11-.341,1.451.213.3.384.512.6.854-5.078,1.323-10.071,2.646-15.235,4.011.213-2.774.384-5.377.555-7.98v-.512c.085-2.39.213-4.78.256-7.127a2.917,2.917,0,0,1,1.366-2.475,21.648,21.648,0,0,0,1.963-1.494,2.441,2.441,0,0,0,.427-.768C82.221,93.623,85.251,93.282,88.366,92.94Zm4.4-39.816c-1.366.341-2.774.768-4.139,1.067a27.906,27.906,0,0,1-3.2.555c-.256.043-.555-.128-.811-.085a.716.716,0,0,0-.6.256c-.085.213-3.926,1.152-3.841,1.366.043.171-6.444.811-6.316.939a7.59,7.59,0,0,1,.427,1.536l.555,1.878a14.24,14.24,0,0,1-.555-1.878l-.427-1.536c-.341-.043.128,2.006.085,2.39-.043.3.341,3.286.341,3.585.085,1.11.213,2.219.3,3.371.213,3.286.384,6.572.6,9.858.128,2.006.256,3.969.427,5.974.043.555.128,1.067.213,1.664a7.57,7.57,0,0,1-2.6.683,4.047,4.047,0,0,0-.982.213c-1.152.256-2.3.555-3.5.811l-.9-3.457c-.427-.043-.854-.085-1.408-.128,0-.427-.043-.853,0-1.28.128-.9.3-1.792.384-2.731.043-.725.128-1.28,1.024-1.323.128,0,.213-.128.469-.256-.128-.341-.3-.64-.427-.982a1.039,1.039,0,0,1,.469-1.536c.683-.469,1.451-.9,2.134-1.366.9-.64,1.75-1.28,2.56-1.963.512-.427.427-.853-.085-1.366-.768-.725-1.792-.555-2.689-.725-1.707-.3-3.414-.555-5.121-.854-.555-.085-.811-.469-.9-1.067l-.64-4.1a2.023,2.023,0,0,1,.64-2.134c1.152-.9,2.3-1.792,3.414-2.689a8.032,8.032,0,0,1,.982-.683c1.195-.854,2.432-1.75,3.713-2.56-.768,1.152-2.134,1.707-2.817,3.158a2.8,2.8,0,0,0,.854,0c1.195-.512,2.347-1.024,3.542-1.579,1.152-.555,2.347-1.11,3.5-1.664.341-.171.725-.341,1.152-.555a4.757,4.757,0,0,1,.384.427c.3-.256.6-.512.9-.811.555-.555,1.067-1.152,1.664-1.664.427-.341.171-.683.085-1.11-.512.085-1.067.128-1.579.213-.256-.853-.213-.982.512-.939a32.773,32.773,0,0,1,4.054.469c3.286.6,6.615,1.28,9.9,1.92.128.043.256.128.6.3A13.418,13.418,0,0,0,92.762,53.125Z" transform="translate(0 0)"/>
    <path id="Path_1146" data-name="Path 1146" class="cls-4" d="M175.1,134.1" transform="translate(-100.262 -76.879)"/>
    <path id="Path_1147" data-name="Path 1147" class="cls-4" d="M188.211,26.914c.085.469.171.9.3,1.451.427-.085.982-.213,1.536-.3.768-.171,1.11.085,1.195.811.043.427-.213.6-.512.768-.6.341-1.195.64-1.792.982-1.28.811-2.6,1.622-3.841,2.518-.768.555-1.366,1.28-2.091,1.92.043.085.085.128.128.213.939-.427,1.92-.768,2.817-1.238a10.611,10.611,0,0,0,3.457-2.518.864.864,0,0,1,.811-.256c.171.043.3.469.3.768a1.206,1.206,0,0,1-.171.768,14.336,14.336,0,0,1-1.366,2.176,9.073,9.073,0,0,0-1.536,2.518c-.085.171-.171.384-.256.555-.384.683-.768.939-1.238.768-.811-.341-1.195-.9-.939-1.664.256-.725.64-1.408.982-2.219-.64.341-1.238.6-1.835.939-.811.469-1.622,1.024-2.432,1.536-.128.085-.256.128-.3.256-.341.683-.768.853-1.494.427-.213-.128-.64.043-.982.128a1.586,1.586,0,0,1,.171-2.006,15.052,15.052,0,0,1,2.518-2.689c1.366-1.11,2.859-2.048,4.31-3.073a.97.97,0,0,0,.469-.6c-2.347,1.11-4.694,2.219-7.041,3.371a4.364,4.364,0,0,0-1.28.811,2.668,2.668,0,0,1-2.39.555,1.868,1.868,0,0,1,0-2.091,6.762,6.762,0,0,1,2.475-2.774,3.6,3.6,0,0,0,.768-.64,16.685,16.685,0,0,0-4.1,1.152,1.35,1.35,0,0,1-1.536-.043,1.554,1.554,0,0,1-.128-2.731,15.47,15.47,0,0,1,7.34-3.371,35.19,35.19,0,0,1,5.164-.469c1.408,0,2.859-.128,4.267-.128.982,0,1.152.256.982,1.366-.768,0-1.579-.043-2.39,0-2.3.171-4.609.341-6.913.64a9.92,9.92,0,0,0-3.883,1.408,13.9,13.9,0,0,0-1.451.939C180.359,27.6,184.2,26.829,188.211,26.914Zm-.384,1.451a15.585,15.585,0,0,0-8.62,3.115c.043.085.043.128.085.213C182.109,30.627,184.925,29.517,187.827,28.365Z" transform="translate(-98.735 -13.477)"/>
    <path id="Path_1148" data-name="Path 1148" class="cls-4" d="M206.1,56.471c.171-.128.256-.3.384-.341a19.921,19.921,0,0,0,4.78-3.414,4.36,4.36,0,0,0,1.366-4.694,1.325,1.325,0,0,1,.427-1.622,4.385,4.385,0,0,1,.384,6.273,18.38,18.38,0,0,1-5.633,4.1A1.322,1.322,0,0,1,206.1,56.471Z" transform="translate(-118.033 -26.604)"/>
    <path id="Path_1149" data-name="Path 1149" class="cls-4" d="M172.66,63.178a1.257,1.257,0,0,1-1.067,1.366,1.183,1.183,0,0,1-1.195-1.152,1.565,1.565,0,0,1,1.536-1.408C172.4,62.068,172.66,62.495,172.66,63.178Z" transform="translate(-97.566 -35.53)"/>
    <path id="Path_1150" data-name="Path 1150" class="cls-4" d="M205.987,85.182c-.171-.3-.256-.469-.341-.64a5.007,5.007,0,0,1-.213-.469,1.442,1.442,0,0,1,1.707-.6c.469.171,1.024.128,1.067.9-.512-.085-.982-.128-1.579-.213a7.823,7.823,0,0,0,.3.725.869.869,0,0,1-.384,1.28,1.2,1.2,0,0,1-1.408-.555c-.128-.3,0-.469.3-.512A4.482,4.482,0,0,1,205.987,85.182Z" transform="translate(-117.45 -47.805)"/>
    <path id="Path_1151" data-name="Path 1151" class="cls-4" d="M188.6,72.017c-.982-.341-1.451-.811-1.408-1.451a.832.832,0,0,1,.811-.768c.384-.043.939-.256,1.152.3a2.258,2.258,0,0,1,.043,1.195C189.117,71.59,188.818,71.8,188.6,72.017Z" transform="translate(-107.195 -39.974)"/>
    <path id="Path_1152" data-name="Path 1152" class="cls-1" d="M110.359,203.359c.085.341.256.6.213.854-.213.725.256,1.11.555,1.622a8.547,8.547,0,0,0,3.329,3.2,13.414,13.414,0,0,0,6.06,2.518c.213,0,.427.043.6.043.427.043.811-.128.853-.555.043-.213-.213-.512-.427-.725-.384-.427-.811-.768-1.195-1.195a.947.947,0,0,1-.213-.469c-.213-1.238-.427-2.475-.64-3.755.768-.128,1.408-.256,2.091-.384a.822.822,0,0,0,.725-.768c.043-.213.085-.384.128-.6.128-.683.341-1.28,1.238-1.11,1.28-.683,2.731-.341,4.054-.725.64-.213,1.238-.469,2.048-.811.043.555.171,1.067.171,1.579a38.842,38.842,0,0,0,.64,5.889,5.22,5.22,0,0,0,.512,1.323c-.171.128-.427.3-.683.469l-.768.512a3.549,3.549,0,0,0-1.878,3.926,55.84,55.84,0,0,1-.171,8.023c-.043,1.835-.213,3.67-.341,5.462-.085,1.238-.341,2.432-.427,3.627l-.512,5.889c-.128,1.238-.3,2.475-.427,3.755-.043.512-.427.683-.853.768a21.135,21.135,0,0,1-2.817.341c-1.408,0-2.859-.043-4.267-.171-1.75-.171-3.5-.427-5.249-.683-.811-.128-1.622-.171-2.432-.341-.982-.213-1.963-.512-2.945-.811l-1.92-.64a1.528,1.528,0,0,1-.469-.171c-1.323-.555-1.451-.725-1.195-2.134.341-1.835.469-3.67.64-5.505.213-2.561.683-5.121,1.024-7.681.171-1.366.341-2.731.555-4.139.3-2.091.64-4.225,1.024-6.316.171-.854-.171-1.238-1.067-.982a22.726,22.726,0,0,0-4.31,1.579,33.437,33.437,0,0,1-3.627,1.366.838.838,0,0,1-1.11-.427c-.854-1.451-1.75-2.9-2.646-4.353a1.253,1.253,0,0,1-.128-.427,7.3,7.3,0,0,1,2.347-1.238c1.024-.3,2.091-.555,3.115-.9.725-.213,1.408-.512,2.091-.725.555-.171,1.11-.3,1.664-.469.768-.256.9-.469.854-1.28a4.311,4.311,0,0,0-.128-.725c-.085-.6.128-.939.725-.939a10.024,10.024,0,0,0,1.11.043c1.067-.128,2.134-.3,3.2-.469A10.369,10.369,0,0,1,110.359,203.359Z" transform="translate(-53.828 -114.942)"/>
    <path id="Path_1153" data-name="Path 1153" class="cls-3" d="M42.134,71.291a2.687,2.687,0,0,1-1.323-1.92c-.256-.9-.384-1.835-.683-2.731-.427-1.28-.939-2.56-1.366-3.841-.171-.469-.128-.982-.256-1.494-.3-1.067-.683-2.134-.982-3.2-.469-1.75-.811-3.5-1.28-5.206-.3-1.152-.811-2.3-1.11-3.5-.341-1.323-.6-2.731-.9-4.054a1.045,1.045,0,0,1,.555-1.28c1.238-.768,2.347-1.664,3.585-2.432,1.494-.939,3.073-1.792,4.609-2.731.768-.427,1.494-.9,2.262-1.323,1.536-.939,3.03-1.92,4.609-2.774,1.28-.725,2.6-1.28,3.883-1.963.555-.3,1.067-.683,1.664-.982.341-.171.725-.256,1.11-.427.3-.128,3.926-1.792,4.438-2.006.341-.128.683-.256,1.067-.427a7.9,7.9,0,0,1,1.152,2.689c.512,1.664,1.024,3.286,1.536,4.95.3,1.024.555,2.048.811,3.03.427,1.536.811,3.073,1.238,4.609.64,2.39,1.366,4.78,1.963,7.169.341,1.366.469,2.731.683,4.1-3.329,1.835-6.487,3.627-9.73,5.462a11.06,11.06,0,0,1-.9-5.846v-.3c-.043-.341.128-.811-.3-.982a1.121,1.121,0,0,0-1.323.512,13.585,13.585,0,0,0-1.536,4.822c-.043,1.067,0,2.091,0,3.243-1.664.982-3.371,2.006-5.078,3.073A50.252,50.252,0,0,0,44.4,69.712,21.364,21.364,0,0,1,42.134,71.291Z" transform="translate(-19.487 -16.63)"/>
    <path id="Path_1154" data-name="Path 1154" class="cls-3" d="M96.9,28.854c-4.011.3-7.809.811-11.65,1.195a2.868,2.868,0,0,1-.256-.512c-.64-2.518-1.28-5.078-1.963-7.6-.512-1.835-1.195-3.585-1.622-5.42a30.985,30.985,0,0,0-1.152-2.987.78.78,0,0,0-.64-.555,3.854,3.854,0,0,0-2.3.256,70.18,70.18,0,0,0-7.468,3.542c-1.451.853-2.945,1.536-4.524,2.347a4.314,4.314,0,0,1-.384-2.262,6.629,6.629,0,0,0-.171-1.579,29.93,29.93,0,0,1-.512-3.926c-.085-1.067,0-2.176,0-3.329,1.323-.3,2.646-.64,3.969-.939l2.176-.512a.791.791,0,0,1,.3-.085,11.753,11.753,0,0,0,4.182-.811,26.324,26.324,0,0,1,3.2-.512.385.385,0,0,0,.213-.043A19.507,19.507,0,0,1,82.172,4.4c2.006-.341,4.011-.64,5.974-1.067a36.644,36.644,0,0,1,6.444-.64C95.786,2.651,96,2.908,96.042,4.1c.085,1.835.256,3.627.341,5.462.128,2.646.171,5.292.3,7.938.085,1.878.256,3.713.3,5.59C96.938,25.013,96.9,26.976,96.9,28.854Z" transform="translate(-36.695 -1.547)"/>
    <path id="Path_1155" data-name="Path 1155" class="cls-3" d="M114.062,151.317a3.229,3.229,0,0,1-3.542,1.024,4.125,4.125,0,0,1-2.731-3.457,2.7,2.7,0,0,1,1.366-2.56,3.274,3.274,0,0,1,2.176-.725c.128,0,.3-.085.683-.171a9.9,9.9,0,0,1-.9-.768,7.016,7.016,0,0,0-.6-.939c-1.28-1.323-1.451-2.817-.384-4.694.3.853.555,1.664.853,2.475a3.085,3.085,0,0,0,1.622,1.878,3.316,3.316,0,0,0,.939,0c-1.28-1.75-2.3-3.371-2.347-5.633.512.6.939,1.067,1.366,1.494.6.64,1.238,1.238,1.878,1.835.213.171.469.341.768-.085a9.257,9.257,0,0,0-.811-1.408c-.555-.768-1.195-1.494-1.792-2.219a1.011,1.011,0,0,1-.171-1.195,1.434,1.434,0,0,1,.6.213,31.465,31.465,0,0,1,2.6,2.134c.555.469.512.512,1.366.469a1.93,1.93,0,0,0-.9-1.707c-1.11-.725-2.176-1.494-3.371-2.3.213-.128.512-.341.982-.64a5.646,5.646,0,0,1,3.457,2.091c.171.213.384.384.555.6.256.3.6.341.768.085a.892.892,0,0,0,.128-.811,1.234,1.234,0,0,0-.512-.64c-.811-.6-1.622-1.152-2.347-1.664.811-.043.853-.043,1.792.64.555.427,1.11.9,1.707,1.408.213-.341.384-.555.555-.854a5.7,5.7,0,0,0-3.585-2.048,4.57,4.57,0,0,1,4.737.6,9.125,9.125,0,0,1,3.2,5.42c.256,1.28.512,2.518.768,3.8.043.128-.043.256-.043.384-.427.384-1.408-.171-1.494.982,1.11.128,2.219.256,3.329.427,1.152.171,2.262.427,3.371.64,1.067.171,2.176.341,3.457.555a9.822,9.822,0,0,1-1.067.982,27,27,0,0,1-4.908,2.9,10.508,10.508,0,0,0-1.152.725c.512.982.512.982,2.006.512l.555,1.11a6.571,6.571,0,0,1-2.945.555c-1.408.043-2.774-.085-4.182-.171a9.42,9.42,0,0,1-1.494-.341c-.427-.128-.555.043-.64.469.725.3.811.939.811,1.664a12.337,12.337,0,0,0,.341,2.518,16.1,16.1,0,0,0,1.11,2.817,1.3,1.3,0,0,0,1.238.725,8.137,8.137,0,0,0,4.993-.982c.427-.213.683-.085.811.3a7.818,7.818,0,0,1,.384,1.664c.085,1.11.085,2.219.128,3.329a4.664,4.664,0,0,1-3.542.213,8.307,8.307,0,0,1-1.622-.6c-.427-.171-.853-.427-1.408-.085.341.725,1.11.768,1.664.982a17.009,17.009,0,0,0,1.75.6c.256,1.536.469,2.945.725,4.4.043.341.085.768-.3.853a1.093,1.093,0,0,1-.811-.171c-1.11-.64-2.176-1.28-3.243-1.92a5.561,5.561,0,0,1-2.176-1.92,3.182,3.182,0,0,0-.6-.725,2.044,2.044,0,0,1-.64-1.92,3.164,3.164,0,0,0-.256-1.536,17.079,17.079,0,0,1-.555-2.56,19.036,19.036,0,0,0-2.6-6.828,7.371,7.371,0,0,0-1.11-1.195A5.714,5.714,0,0,0,114.062,151.317Zm-1.664-2.689a11.967,11.967,0,0,0-1.11.9,1.239,1.239,0,0,0-.469,1.024c.683.171,1.323.341,1.963.469a.535.535,0,0,0,.469-.256c.043-.128-.128-.341-.213-.469a1.633,1.633,0,0,0-.469-.341c.341-.64.683-1.195.982-1.75a.929.929,0,0,0-.256-1.195,1.375,1.375,0,0,0-1.408-.341c-.854.64-1.707,1.323-2.518,2.048-.3.3-.085.555.341.6.512-.469.853-1.152,1.835-1.494C111.757,147.989,112.013,148.245,112.4,148.629ZM119.652,143c-.64.982-.683,1.28-.171,1.835a.6.6,0,0,0,.811.128,1.28,1.28,0,0,0,.64-1.195C120.847,143.038,120.249,143.124,119.652,143Zm3.329-1.878c-.64,0-.853.171-.853.725a.923.923,0,0,0,.9.982c.384,0,.768-.085.768-.6C123.791,141.459,123.535,141.118,122.981,141.118Z" transform="translate(-61.67 -76.087)"/>
    <path id="Path_1156" data-name="Path 1156" class="cls-3" d="M28.714,27.3a56.541,56.541,0,0,1,.3,7.127c-1.622.982-11.266,5.846-13.4,7.553a1.357,1.357,0,0,0-.469,1.408l.128.512c1.067,3.8,2.134,7.6,3.2,11.351.555,1.963,1.152,3.926,1.707,5.846a4.81,4.81,0,0,1,.128.768c-1.579.9-3.073,1.75-4.566,2.6-1.024.6-1.28.512-1.75-.6-.64-1.622-1.28-3.286-1.963-4.908a30.791,30.791,0,0,1-1.622-4.139,50.805,50.805,0,0,0-2.091-6.06c-1.11-2.817-2.347-5.548-3.542-8.322a2.287,2.287,0,0,1-.213-.469c-.469-1.195-.341-1.92.853-2.39,2.219-.939,4.182-2.432,6.487-3.2,1.323-.427,2.518-1.195,3.8-1.75,2.219-.982,4.4-1.963,6.657-2.817,1.494-.6,3.115-1.024,4.609-1.579C27.519,28.025,28.031,27.641,28.714,27.3Z" transform="translate(-2.354 -15.655)"/>
    <path id="Path_1157" data-name="Path 1157" class="cls-5" d="M159.792,128.386c-.341-.043-.3.768-.341,1.152a3.163,3.163,0,0,0,.043.9c.085,1.11.213,2.219.3,3.371.213,3.286.384,6.572.6,9.858.128,2.006.256,3.969.427,5.974.043.555.128,1.067.213,1.664a7.57,7.57,0,0,1-2.6.683,4.048,4.048,0,0,0-.982.213c-1.152.256-2.3.555-3.5.811l-.9-3.457c-.427-.043-.854-.085-1.408-.128,0-.427-.043-.853,0-1.28.128-.9.3-1.792.384-2.731.043-.725.128-1.28,1.024-1.323.128,0,.213-.128.469-.256-.128-.341-.3-.64-.427-.982a1.039,1.039,0,0,1,.469-1.536c.683-.469,1.451-.9,2.134-1.366.9-.64,1.75-1.28,2.56-1.963.512-.427.427-.853-.085-1.366-.768-.725-1.792-.555-2.689-.725-1.707-.3-3.414-.555-5.121-.854-.555-.085-.811-.469-.9-1.067l-.64-4.1a2.024,2.024,0,0,1,.64-2.134c1.152-.9,2.3-1.792,3.414-2.689a8.031,8.031,0,0,1,.982-.683c1.195-.854,2.432-1.75,3.713-2.56-.768,1.152-2.134,1.707-2.817,3.158a2.8,2.8,0,0,0,.854,0c1.195-.512,2.347-1.024,3.542-1.579,1.152-.555,2.347-1.11,3.5-1.664.341-.171.725-.341,1.152-.555a4.757,4.757,0,0,1,.384.427c.3-.256.6-.512.9-.811.555-.555,1.067-1.152,1.664-1.664.427-.341.171-.683.085-1.11-.512.085-1.067.128-1.579.213-.256-.854-.213-.982.512-.939a32.774,32.774,0,0,1,4.054.469c3.286.6,6.615,1.28,9.9,1.92.128.043.256.128.6.3-.9.171-1.579.256-2.262.427-1.366.341-2.774.768-4.139,1.067a27.906,27.906,0,0,1-3.2.555c-.256.043-.555-.128-.811-.085a.716.716,0,0,0-.6.256,1.182,1.182,0,0,0,0,.768c.043.171-11.223,2.048-10.242,2.048" transform="translate(-85.167 -67.238)"/>
    <path id="Path_1158" data-name="Path 1158" class="cls-5" d="M175.1,239.037c.213-2.774.384-5.377.555-7.98v-.512c.085-2.39.213-4.78.256-7.127a2.917,2.917,0,0,1,1.366-2.475,21.648,21.648,0,0,0,1.963-1.494,2.441,2.441,0,0,0,.427-.768c2.817-.3,5.846-.64,8.962-.982.128,1.238.256,2.39.384,3.585.171,1.494.341,2.945.469,4.438.213,2.347.427,4.652.6,7,.043.512.469,1.11-.341,1.451.213.3.384.512.6.854C185.257,236.392,180.264,237.714,175.1,239.037Z" transform="translate(-100.262 -124.802)"/>
    <path id="Path_1159" data-name="Path 1159" class="cls-6" d="M60.361,242.951a6.769,6.769,0,0,0-2.731.6c-.512.256-.555.469-.085.9.384.384.811.725,1.195,1.11A.936.936,0,0,1,59,246.579c-.555,1.28-1.11,2.56-1.707,3.926-1.579-1.024-2.9-2.048-3.115-4.011-.043-.512-.171-1.024-.171-1.536,0-.64-.64-.725-.811-1.195-.384.171-.64.3-.939.427a1.92,1.92,0,0,1-2.689-.854,4.277,4.277,0,0,1-.555-3.243,1.529,1.529,0,0,1,.171-.469A5.127,5.127,0,0,1,52,237.916a1.236,1.236,0,0,1,1.579.939c.213.683.3,1.366.469,2.134A1.072,1.072,0,0,0,55.5,240.6a1.749,1.749,0,0,1,1.195-.725,5.223,5.223,0,0,0,1.152-.384,2.7,2.7,0,0,1,2.6-.171c.341-.256.6-.469.9-.683,0-.085,0-.213-.043-.213-.768-.512-.683-1.238-.427-1.963l.256-.768a1.4,1.4,0,0,1,1.024-.854c1.792-.3,2.176-.512,3.03,1.494a6.172,6.172,0,0,1,.384.939,2.246,2.246,0,0,1-2.134,3.115c-.6.043-.811.427-.982.939A3.761,3.761,0,0,1,63.6,244.1a10.751,10.751,0,0,1-.341,3.883,2.287,2.287,0,0,1-.213.469c-.128-.043-.256-.043-.3-.128a24.242,24.242,0,0,1-2.432-3.542C60.361,244.317,60.361,243.719,60.361,242.951Zm.128-2.6c-.6.427-.341.9-.256,1.408.085.683.427.854.982.469a1.292,1.292,0,0,0,.512-1.238c0-.469-.427-.427-.768-.512A2.623,2.623,0,0,0,60.489,240.348ZM55.5,241.586c-.213.341-.384.6-.555.9-.213.341-.3.683.128.939a.724.724,0,0,0,1.11-.3C56.649,242.482,56.478,242.055,55.5,241.586Z" transform="translate(-27.899 -134.52)"/>
    <path id="Path_1160" data-name="Path 1160" class="cls-5" d="M91.988,145.346c.427.768.811,1.451,1.238,2.3a5.027,5.027,0,0,0-2.518,2.134,5.285,5.285,0,0,0-.384,3.542,2.946,2.946,0,0,1-2.39-.811,24.4,24.4,0,0,1-4.182-4.694c-.853-1.238-1.835-2.432-2.774-3.627-.085-.128-.171-.3-.256-.427-.512-.768-.982-1.536-1.494-2.3-.469-.683-.341-.982.384-1.366a8.436,8.436,0,0,0,1.792-1.11,8.616,8.616,0,0,1,2.39-1.28.733.733,0,0,1,.9.256c.64.725,1.28,1.408,1.92,2.091.9.939,1.792,1.878,2.646,2.859.469.512.9,1.11,1.323,1.664A1.66,1.66,0,0,0,91.988,145.346Z" transform="translate(-45.145 -78.907)"/>
    <path id="Path_1161" data-name="Path 1161" class="cls-3" d="M81.078,93.5a29.958,29.958,0,0,0,.555,3.414,7.505,7.505,0,0,0,1.536,3.414,1.356,1.356,0,0,0,.427.427c.3.171.6.427.9.085.3-.3.043-.555-.128-.811a3.69,3.69,0,0,1-.3-.427c1.195-.427,1.878,0,2.091,1.11a1.452,1.452,0,0,1-.939,1.835A28.118,28.118,0,0,0,82.785,104a3.414,3.414,0,0,0-1.494,2.475,8.712,8.712,0,0,0,0,3.926c.043.213.085.469.128.683-.811.512-1.579.982-2.475,1.536-.085-.64-.171-1.195-.213-1.707-.085-.982-.128-1.963-.213-2.9a1.078,1.078,0,0,0-.683-.939,5.169,5.169,0,0,1-2.262-2.006,2.626,2.626,0,0,1-.384-1.622c.043-.341.512-.683.811-.939a10.372,10.372,0,0,1,1.494-.854c.64-.341,1.28-.6,1.92-.939.683.469.256,1.579,1.238,1.835a1.356,1.356,0,0,0,.085-.555,21.043,21.043,0,0,1-.555-5.164A6.035,6.035,0,0,1,81.078,93.5Z" transform="translate(-42.983 -53.604)"/>
    <path id="Path_1162" data-name="Path 1162" class="cls-6" d="M69.318,271.92a4.556,4.556,0,0,0,3.2-.3A18.358,18.358,0,0,0,75.25,270a6.056,6.056,0,0,1,.469.768c.341.768.683,1.536.982,2.347A8,8,0,0,1,76.872,277a3.439,3.439,0,0,1-1.494,2.219c-.128.085-.3.171-.427.256a2.129,2.129,0,0,1-3.073-.555,15.746,15.746,0,0,1-2.9-5.633A1.174,1.174,0,0,1,69.318,271.92Z" transform="translate(-39.374 -154.784)"/>
    <path id="Path_1163" data-name="Path 1163" class="cls-3" d="M88.148,247.727c-.555-.3-1.195-.6-1.835-.939a1.043,1.043,0,0,1-.384-.469c-.341-.6-.725-1.195-1.024-1.835a.938.938,0,0,1-.043-.6c.128-1.067.3-2.134.469-3.286a.955.955,0,0,0,.768-1.067c.043-.725.085-1.494.128-2.219a1.522,1.522,0,0,1,.256-.811,2.569,2.569,0,0,0,.811-3.115c-.6-1.451-.171-2.689.3-4.011.256-.64.469-1.323.768-2.176.256.384.384.6.512.811.512.9.982,1.75,1.494,2.646a.872.872,0,0,1,.043.854c-.6,1.664-1.152,3.329-1.707,4.993-.469,1.408-.939,2.859-1.366,4.267-.213.64.043,1.024.683.854a2.613,2.613,0,0,1,2.518.768,4.52,4.52,0,0,1-.854.512,1.661,1.661,0,0,0-1.323,1.835A14.287,14.287,0,0,1,88.148,247.727Z" transform="translate(-48.517 -130.248)"/>
    <path id="Path_1164" data-name="Path 1164" class="cls-6" d="M67.51,303.2a1.117,1.117,0,0,0,.128-1.28,10.926,10.926,0,0,1-.683-4.4c.128-1.11.469-2.219.683-3.329.9.3,1.664.555,2.56.811.043,1.067.171,2.219.171,3.414a27.155,27.155,0,0,1-.384,4.139,9.512,9.512,0,0,1-1.366,3.5,1.547,1.547,0,0,1-2.176.384,10,10,0,0,1-3.158-3.115c-.3-.512-.555-1.024-.811-1.536a3.029,3.029,0,0,1,.171-2.646c.213-.512,1.067-.64,1.579-.469a3.777,3.777,0,0,1,2.3,2.646c.171.427.3.9.469,1.323C67.126,302.778,67.3,302.948,67.51,303.2Zm-.768,1.195c-.3-.939-.555-1.878-.9-2.774a2.061,2.061,0,0,0-1.195-1.195c-.725-.3-1.024-.128-1.024.64a4.127,4.127,0,0,0,1.579,3.243A1.215,1.215,0,0,0,66.742,304.4Z" transform="translate(-35.56 -168.656)"/>
    <path id="Path_1165" data-name="Path 1165" class="cls-1" d="M98.792,334.241c-.811,1.451-1.579,2.817-2.39,4.267.085.085.128.256.256.384.427.427.3.768-.043,1.238a21.9,21.9,0,0,1-4.694,4.822,18.165,18.165,0,0,1-2.134,1.366c-.982-.939-1.963-1.835-2.987-2.859.341-.3.6-.555.939-.854.384.427.683.854,1.024,1.195.427.427.555.427,1.024-.043-.939-1.323-.939-1.878.128-2.347.171.3.341.64.512.939.171.341.384.64.555.982l.9-.256c.043-.9-.853-1.28-1.11-2.091.341-.213.64-.384,1.11-.64.3.725.555,1.366.854,2.091,1.323-.9.341-1.707-.128-2.56.725-.171,1.366-.384,2.006-.512.555-.128.725-.384.469-.982-.384-.982-.853-1.92-1.28-2.859-.3-.725-.64-1.408-.939-2.134A13.394,13.394,0,0,1,98.792,334.241Z" transform="translate(-49.644 -191.073)"/>
    <path id="Path_1166" data-name="Path 1166" class="cls-6" d="M89.956,288.7c.939,1.579,1.835,2.9,2.518,4.31.213.469-.085,1.238-.171,1.878-.085.512-.171,1.024-.3,1.579.6.171.725-.085.854-.469a10.2,10.2,0,0,1,.939-2.219,4.585,4.585,0,0,1,2.432-2.219,4.639,4.639,0,0,1,1.11-.171.652.652,0,0,1,.768.512,3.486,3.486,0,0,1,.256,2.176,5.274,5.274,0,0,1-1.238,2.3,13.308,13.308,0,0,1-2.817,2.3l-.256.128c-1.92.811-2.3.427-2.987-1.024-.171-.384-.3-.854-.469-1.238-.512-1.238-1.024-2.432-1.494-3.67a1.587,1.587,0,0,1-.213-.854A9.389,9.389,0,0,1,89.956,288.7Zm6.913,3.755c-.555.341-.982.427-1.152.683-.725,1.195-1.366,2.39-2.048,3.627-.085.128.043.427.128.512a.814.814,0,0,0,.555.085,1.386,1.386,0,0,0,.555-.427c.64-1.024,1.323-2.006,1.92-3.073C97.04,293.565,96.869,293.138,96.869,292.455Z" transform="translate(-50.836 -165.503)"/>
    <path id="Path_1167" data-name="Path 1167" class="cls-3" d="M119.33,297c1.024.768,2.048,1.536,3.158,2.39-.384.683-.853,1.494-1.28,2.347-.512,1.024-.982,2.091-1.451,3.115a27.1,27.1,0,0,1-3.329,5.676,11.583,11.583,0,0,1-1.664,1.451,3.012,3.012,0,0,1,.043-2.134c.384-1.195.811-2.39,1.238-3.542s.853-2.3,1.238-3.457C117.964,300.969,118.6,299.091,119.33,297Z" transform="translate(-65.573 -170.261)"/>
    <path id="Path_1168" data-name="Path 1168" class="cls-3" d="M142,181.5c1.024-.128,2.006-.213,3.03-.341.64-.085.768-.043.725.555-.085,1.622-.256,3.243-.427,4.865a.616.616,0,0,1-.3.469,5.513,5.513,0,0,1-2.987.427,1.8,1.8,0,0,1-1.067-.725,9.556,9.556,0,0,1-1.579-4.908c-.043-.427.213-.512.555-.512H142C142,181.368,142,181.454,142,181.5Z" transform="translate(-79.79 -103.834)"/>
    <path id="Path_1169" data-name="Path 1169" class="cls-3" d="M164.091,314.064c-.6-2.731-1.238-5.505-1.75-8.279a22.336,22.336,0,0,1-.128-2.945c-.043-1.067-.128-2.176-.213-3.329.469-.427.469-.427,2.219-.512.469.469.384,1.152.427,1.707.171,2.262.171,4.524.341,6.785a46.742,46.742,0,0,1-.341,5.974C164.646,313.808,164.56,314.064,164.091,314.064Z" transform="translate(-92.752 -171.408)"/>
    <path id="Path_1170" data-name="Path 1170" class="cls-6" d="M52.764,269.7c.725.555,1.451,1.11,2.219,1.707a9.34,9.34,0,0,1-2.091,2.859,24.361,24.361,0,0,1-3.243,2.646,6.319,6.319,0,0,1-1.75.725,1.043,1.043,0,0,1-1.323-1.451,6.647,6.647,0,0,1,1.067-1.835,24.215,24.215,0,0,1,2.475-2.646C50.929,270.98,51.825,270.425,52.764,269.7Zm-1.92,4.694c-.555-.469-.982-.683-1.323-.6a3.437,3.437,0,0,0-1.451,2.006c0,.384.256.64.555.427A5.774,5.774,0,0,0,50.843,274.394Z" transform="translate(-26.532 -154.612)"/>
    <path id="Path_1171" data-name="Path 1171" class="cls-3" d="M94.671,349.5c.768,1.408.683,2.091-.384,3.158a25.971,25.971,0,0,1-7.169,5.334c-.853.384-1.664.939-2.518,1.323-.512.256-1.067.384-1.622.6a1.411,1.411,0,0,1-1.878-.683,4.86,4.86,0,0,0,.939-.3,11.1,11.1,0,0,0,2.091-1.195,8.318,8.318,0,0,1,2.176-.982,22.175,22.175,0,0,0,4.78-3.414,32.692,32.692,0,0,0,3.073-3.371A1.356,1.356,0,0,1,94.671,349.5Z" transform="translate(-46.376 -200.357)"/>
    <path id="Path_1172" data-name="Path 1172" class="cls-3" d="M176.965,361.86c-.3.3-.555.555-.811.854a.892.892,0,0,1-.982.341,20.267,20.267,0,0,1-3.5-.683c-1.408-.555-2.945-.853-4.353-1.408-2.091-.854-4.1-1.792-6.145-2.774-1.238-.6-1.28-1.195-.3-2.134a2.719,2.719,0,0,1,.427-.256c.427.469.854,1.024,1.323,1.451a3.525,3.525,0,0,0,.939.6c.213.128.469.085.683.213a21.553,21.553,0,0,0,6.231,2.817,20.585,20.585,0,0,0,3.67.6h.213C175.215,361.6,176.026,361.732,176.965,361.86Z" transform="translate(-91.714 -203.969)"/>
    <path id="Path_1173" data-name="Path 1173" class="cls-3" d="M174.6,268.074v-2.262a49.948,49.948,0,0,1,12.93-3.713C186.89,262.783,176.392,267.605,174.6,268.074Z" transform="translate(-99.975 -150.255)"/>
    <path id="Path_1174" data-name="Path 1174" class="cls-6" d="M97.225,264.128c.085,0,.171-.043.213,0a7.658,7.658,0,0,1,2.859,2.048,2.338,2.338,0,0,1-.427,2.475,1.664,1.664,0,0,1-2.3.3c-.6-.384-1.238-.683-1.835-1.11a2.034,2.034,0,0,1-.085-3.158A6.544,6.544,0,0,1,97.225,264Zm-.982,2.006a2.709,2.709,0,0,0,2.689,1.451c.427-.085.555-.3.384-.725a2.389,2.389,0,0,0-1.835-1.323A1,1,0,0,0,96.243,266.134Z" transform="translate(-54.307 -151.344)"/>
    <path id="Path_1175" data-name="Path 1175" class="cls-3" d="M243.166,61.1a2.081,2.081,0,0,1-.9,2.262,7.052,7.052,0,0,1-3.585,1.835,3.2,3.2,0,0,1-3.585-3.03,7.531,7.531,0,0,0,4.225.683A8.142,8.142,0,0,0,243.166,61.1Z" transform="translate(-134.657 -35.031)"/>
    <path id="Path_1176" data-name="Path 1176" class="cls-3" d="M83.492,361.031c0,.043,0,.171-.085.213a12.473,12.473,0,0,1-3.457,2.091,1.356,1.356,0,0,1-.6.085c-.768.043-1.152-.213-1.152-.939a2.643,2.643,0,0,1,.341-1.536,13.613,13.613,0,0,1,1.92-1.92c.171-.128.64,0,.939.043a.86.86,0,0,1,.384.3C82.382,359.922,82.937,360.476,83.492,361.031Z" transform="translate(-44.714 -205.786)"/>
    <path id="Path_1177" data-name="Path 1177" class="cls-3" d="M186.2,362.241a2.735,2.735,0,0,1,1.195-1.75,7.983,7.983,0,0,1,1.707-.854,1.46,1.46,0,0,1,.854.043c1.024.341,1.579,1.238,2.3,1.963a.664.664,0,0,1-.213,1.024.617.617,0,0,1-.3.085A13.669,13.669,0,0,1,186.2,362.241Z" transform="translate(-106.625 -206.142)"/>
    <path id="Path_1178" data-name="Path 1178" class="cls-6" d="M72.494,261.7c.939,1.11,1.835,2.134,2.774,3.243A4.8,4.8,0,0,1,71,266.266c-.3-.939.384-1.579.6-2.347A10.516,10.516,0,0,1,72.494,261.7Z" transform="translate(-40.544 -150.026)"/>
    <path id="Path_1179" data-name="Path 1179" class="cls-3" d="M243.822,41.545c-1.152-.213-2.176-.427-3.2-.64a3.635,3.635,0,0,1-.982-.171,5.694,5.694,0,0,0-3.67.171c-.128.043-.256,0-.469-.128a11.87,11.87,0,0,1,1.152-.9,19.3,19.3,0,0,1,2.134-.982,2.034,2.034,0,0,1,2.134.171,8.883,8.883,0,0,1,2.518,1.835C243.566,41.076,243.694,41.332,243.822,41.545Z" transform="translate(-134.886 -22.176)"/>
    <path id="Path_1180" data-name="Path 1180" class="cls-3" d="M242.841,56.136a5.908,5.908,0,0,1-7.041.427,2.013,2.013,0,0,1,1.366-.512c1.579-.128,3.158-.213,4.737-.384A.749.749,0,0,1,242.841,56.136Z" transform="translate(-135.058 -31.902)"/>
    <path id="Path_1181" data-name="Path 1181" class="cls-3" d="M234.8,49.5c1.579-2.048,4.95-3.158,7-1.238C239.452,48.649,237.1,49.076,234.8,49.5Z" transform="translate(-134.485 -27.104)"/>
    <path id="Path_1182" data-name="Path 1182" class="cls-6" d="M112.347,135.85c-.427-.683-.3-1.067.128-1.451.9-.768,1.75-1.579,2.646-2.3.512-.384.683-.3,1.067.384C114.864,133.545,113.84,134.954,112.347,135.85Z" transform="translate(-64.137 -75.598)"/>
    <path id="Path_1183" data-name="Path 1183" class="cls-6" d="M113.893,129.885a10.531,10.531,0,0,1-2.859,2.39c-.341-.3-.512-.64-.128-.939a27.688,27.688,0,0,1,2.347-1.536C113.338,129.8,113.509,129.843,113.893,129.885Z" transform="translate(-63.337 -74.414)"/>
    <path id="Path_1184" data-name="Path 1184" class="cls-3" d="M70.7,255.927c.64-.171,1.067-.3,1.494-.427C72.45,256.055,71.3,256.4,70.7,255.927Z" transform="translate(-40.414 -146.471)"/>
    <path id="Path_1185" data-name="Path 1185" class="cls-3" d="M196.92,34.9c-2.9,1.11-5.718,2.219-8.535,3.329-.043-.085-.043-.128-.085-.213A15.585,15.585,0,0,1,196.92,34.9Z" transform="translate(-107.829 -20.012)"/>
    <path id="Path_1186" data-name="Path 1186" class="cls-4" d="M114.354,167.166l-.853-.854c-.982.341-1.28,1.024-1.835,1.494-.384-.043-.64-.3-.341-.6.811-.725,1.664-1.408,2.518-2.048.341-.256,1.11,0,1.408.341a.981.981,0,0,1,.256,1.195c-.3.555-.6,1.11-.982,1.75a2.534,2.534,0,0,1,.469.341c.128.128.256.384.213.469a.535.535,0,0,1-.469.256c-.64-.128-1.323-.3-1.963-.469a1.239,1.239,0,0,1,.469-1.024C113.5,167.806,113.842,167.593,114.354,167.166Z" transform="translate(-63.628 -94.624)"/>
    <path id="Path_1187" data-name="Path 1187" class="cls-4" d="M134.923,156.8c.555.128,1.195.043,1.28.811a1.325,1.325,0,0,1-.64,1.195.6.6,0,0,1-.811-.128C134.283,158.08,134.283,157.782,134.923,156.8Z" transform="translate(-76.942 -89.891)"/>
    <path id="Path_1188" data-name="Path 1188" class="cls-4" d="M142.3,152.4c.6,0,.853.341.853,1.11,0,.512-.341.6-.768.6a.923.923,0,0,1-.9-.982C141.45,152.571,141.664,152.4,142.3,152.4Z" transform="translate(-80.994 -87.369)"/>
    <path id="Path_1189" data-name="Path 1189" class="cls-4" d="M207.035,135.2a15.91,15.91,0,0,1,7,1.963c1.323.853,2.817,1.451,4.054,2.432a20.381,20.381,0,0,1,3.457,3.2c.982,1.152,1.323,2.6,2.091,3.8a6.06,6.06,0,0,1,.512,1.963,31.956,31.956,0,0,1,.384,6.7,4.047,4.047,0,0,1-.853,2.987,1.1,1.1,0,0,0-.213.512c-.982,3.2-3.286,5.334-6.06,6.956-1.408.811-3.2,1.024-4.78,1.536a10.749,10.749,0,0,1-4.011.555c-.768-.043-1.579-.043-2.347-.128a14.505,14.505,0,0,1-7-2.3c-1.152-.854-2.6-1.323-3.755-2.176a6.543,6.543,0,0,1-1.963-2.091,26.469,26.469,0,0,1-1.707-4.652,14.925,14.925,0,0,1-.3-6.145,33.753,33.753,0,0,1,1.28-4.95,13.062,13.062,0,0,1,3.8-5.42,5.8,5.8,0,0,0,.512-.512c1.92-2.56,4.908-3.2,7.767-4.1A10.163,10.163,0,0,1,207.035,135.2Z" transform="translate(-109.579 -77.509)"/>
    <path id="Path_1190" data-name="Path 1190" class="cls-4" d="M75.6,248c.128.043.3.085.427.128.3.085.725.043.768.512a1.292,1.292,0,0,1-.512,1.238c-.555.341-.853.171-.982-.469C75.255,248.9,75.042,248.384,75.6,248Z" transform="translate(-43.007 -142.172)"/>
    <path id="Path_1191" data-name="Path 1191" class="cls-4" d="M63.454,250.9c.939.469,1.11.9.725,1.536a.765.765,0,0,1-1.11.3c-.469-.256-.341-.6-.128-.939A6.11,6.11,0,0,1,63.454,250.9Z" transform="translate(-35.857 -143.834)"/>
    <path id="Path_1192" data-name="Path 1192" class="cls-1" d="M68.673,312.64a1.207,1.207,0,0,1-1.494-.043,4.191,4.191,0,0,1-1.579-3.243c0-.768.3-.939,1.024-.64a2.062,2.062,0,0,1,1.195,1.195C68.118,310.762,68.374,311.7,68.673,312.64Z" transform="translate(-37.491 -176.897)"/>
    <path id="Path_1193" data-name="Path 1193" class="cls-1" d="M103.254,297.5c0,.683.128,1.11-.043,1.408a33.385,33.385,0,0,1-1.92,3.073,1.386,1.386,0,0,1-.555.427.814.814,0,0,1-.555-.085.468.468,0,0,1-.128-.512c.64-1.238,1.323-2.432,2.048-3.627C102.273,297.927,102.7,297.841,103.254,297.5Z" transform="translate(-57.222 -170.548)"/>
    <path id="Path_1194" data-name="Path 1194" class="cls-1" d="M53.026,279.906a6.157,6.157,0,0,1-2.176,1.878c-.3.171-.6-.043-.555-.427a3.2,3.2,0,0,1,1.451-2.006C52,279.223,52.471,279.436,53.026,279.906Z" transform="translate(-28.714 -160.123)"/>
    <path id="Path_1195" data-name="Path 1195" class="cls-1" d="M98,268.16a1.02,1.02,0,0,1,1.238-.6,2.461,2.461,0,0,1,1.835,1.323c.171.427.043.683-.384.725A2.58,2.58,0,0,1,98,268.16Z" transform="translate(-56.064 -153.37)"/>
    <g id="Group_1314" data-name="Group 1314" transform="translate(13.335 12.242)">
      <path id="Path_1196" data-name="Path 1196" class="cls-5" d="M41.135,70.444c-.512-1.366-1.067-2.774-1.579-4.182-.725-2.091-1.451-4.267-2.134-6.316l-.256-.725c-.341-.982-.64-2.006-.982-2.987,0,0-.725-2.3-.9-2.817-.384-1.152-.725-2.262-1.11-3.414-.256-.768-.512-1.494-.768-2.262-.3-.811-.555-1.622-.811-2.39.512-.3,1.067-.6,1.579-.9.341-.171.64-.341.982-.512.469-.256.9-.512,1.366-.768l.512-.3c.469-.3.982-.555,1.451-.853,1.152-.64,2.3-1.323,3.414-2.006a36.54,36.54,0,0,1,3.371-1.792l.64-.3a17.757,17.757,0,0,0,1.792-.982c.384-.213.768-.469,1.152-.683.683-.384,1.451-.725,2.134-1.067l.256-.128c.9-.427,1.75-.853,2.646-1.238l.854-.427.683-.341c.6-.256,1.152-.555,1.75-.811,1.152-.512,2.3-1.024,3.585-1.536.171-.085.384-.128.6-.213.043.085.128.171.171.256.213.3.3.427.256.64a1.037,1.037,0,0,0,.171.768c0,.043.043.043.043.085.043.085.043.128.085.213.043.043.043.085.085.128.043.213.128.469.171.683s.128.469.171.683c.128.512.3,1.024.427,1.536l.085.341c.128.384.213.768.341,1.11a4.662,4.662,0,0,1,.213.725c.128.427.3.9.427,1.366.469,1.792.9,3.414,1.28,5.036.085.427.171.811.256,1.238.085.469.213.982.341,1.451.128.555.341,1.152.512,1.664.085.341.213.683.3,1.024a.464.464,0,0,1,.043.213A2.854,2.854,0,0,0,67,51.837a2.081,2.081,0,0,1,.128.3,15.144,15.144,0,0,1,.811,4.182c-1.067.853-7.852,4.31-8.45,4.566-.043.043-.085.043-.128.085a3.712,3.712,0,0,1-.6-1.792c0-.64-.085-1.408-.128-2.176-.043-.555-.128-1.152-.128-1.664a.729.729,0,0,0,.3-.555.8.8,0,0,0-.811-.768,1,1,0,0,0-.341.085h-.213a1.975,1.975,0,0,0-1.451.768A7.977,7.977,0,0,0,54.492,58.2a29.179,29.179,0,0,0-.427,3.329,19.642,19.642,0,0,0-.085,1.963c-.469.171-.64.213-.768.384a33.275,33.275,0,0,1-3.926,2.56c-.555.341-.982.6-1.238.768-.469.3-.9.6-1.323.9l-1.152.768c-1.323.9-2.689,1.75-4.011,2.646a.042.042,0,0,0-.043.043C41.476,71.382,41.135,70.444,41.135,70.444Z" transform="translate(-31.909 -29.732)"/>
      <path id="Path_1197" data-name="Path 1197" class="cls-2" d="M60.221,30.194a.042.042,0,0,0,.043.043,1.806,1.806,0,0,0,.213,1.11v.043a.933.933,0,0,0,.128.213.042.042,0,0,0,.043.043c.043.213.128.427.171.64.043.256.128.469.171.725.128.512.3,1.024.427,1.536l.085.341c.128.384.213.768.341,1.152a4.663,4.663,0,0,1,.213.725c.128.469.3.9.384,1.323.469,1.792.9,3.414,1.28,5.036.085.384.171.811.256,1.195.085.469.213.982.341,1.494.171.6.341,1.152.512,1.707.085.341.213.683.3.982h0a3.964,3.964,0,0,0,.3,2.432.606.606,0,0,1,.085.256,16.076,16.076,0,0,1,.768,3.627c-1.366.939-6.145,3.414-7.681,4.139a2.053,2.053,0,0,1-.256-.939c0-.683-.085-1.451-.128-2.262-.043-.469-.085-.939-.128-1.366a1.313,1.313,0,0,0,.256-.811,1.458,1.458,0,0,0-1.451-1.408,1.263,1.263,0,0,0-.427.085H56.38a2.574,2.574,0,0,0-1.92.982,8.537,8.537,0,0,0-1.622,3.627c-.171.811-.341,2.219-.469,3.414-.043.64-.085,1.152-.085,1.579a1.447,1.447,0,0,0-.6.384c-.384.384-2.774,1.835-3.8,2.475-.555.341-.982.6-1.238.768-.469.3-.9.6-1.366.9l-1.152.768c-1.024.683-2.134,1.408-3.414,2.219l-.085-.213c-.512-1.366-1.067-2.774-1.579-4.182-.725-2.091-1.451-4.225-2.134-6.316l-.256-.725c-.341-.982-.64-2.006-.982-2.987-.128-.427-.256-.853-.384-1.238-.171-.512-.341-1.024-.512-1.579-.341-1.11-.725-2.3-1.11-3.414-.256-.768-.512-1.536-.768-2.262l-.64-1.92c.384-.213.725-.384,1.11-.6.341-.171.64-.341.982-.512.469-.256.939-.512,1.366-.768l.512-.3c.469-.3.982-.555,1.451-.811,1.152-.64,2.3-1.323,3.457-2.006a34.9,34.9,0,0,1,3.329-1.75c.213-.085.427-.213.64-.3.64-.3,1.238-.683,1.835-1.024.384-.213.768-.469,1.152-.64.683-.384,1.408-.725,2.134-1.067l.256-.128c.9-.427,1.75-.853,2.646-1.238l.854-.384c.213-.128.469-.213.683-.341.555-.256,1.152-.555,1.707-.811,1.152-.512,2.3-1.024,3.585-1.536.171-.085.213-.085.256-.128m.6-1.494a6.567,6.567,0,0,0-1.195.384c-1.195.512-2.432,1.024-3.627,1.579l-2.432,1.152c-1.152.555-2.347,1.11-3.5,1.664-.811.384-1.622.768-2.432,1.195-.982.555-1.92,1.152-2.945,1.664a36.7,36.7,0,0,0-4.054,2.134c-1.579.982-3.243,1.878-4.865,2.817-.64.341-1.238.725-1.878,1.067-.9.512-1.835.982-2.689,1.494a.743.743,0,0,0-.213.6c.512,1.622,1.11,3.2,1.664,4.78.555,1.664,1.067,3.329,1.622,4.993.469,1.408.9,2.817,1.366,4.225.811,2.347,1.579,4.737,2.39,7.084.6,1.707,1.28,3.414,1.92,5.121.171.384.256.6.427.6a1.184,1.184,0,0,0,.555-.256c1.323-.853,2.689-1.75,4.011-2.646.811-.555,1.664-1.11,2.475-1.664.9-.6,4.694-2.774,5.292-3.457.085-.085,1.152-.384,1.067-.427-.341-.213.085-4.054.384-5.548-.043-.3.939-3.542,2.3-3.542a1.878,1.878,0,0,1,.427.085c0-.128.043-.171.128-.171.128,0,.3.171.043.171a.323.323,0,0,1-.171-.043c-.043,1.238.3,3.115.3,4.353a4.672,4.672,0,0,0,.768,2.3c0,.213.128.341.256.341a.567.567,0,0,0,.3-.128.688.688,0,0,1,.3-.171c.6-.256,8.834-4.438,8.876-4.95a14,14,0,0,0-.853-4.609,3.059,3.059,0,0,1-.341-2.048,1.228,1.228,0,0,0-.043-.555c-.256-.9-.555-1.792-.811-2.689-.213-.9-.384-1.792-.6-2.689-.427-1.664-.853-3.371-1.28-5.036-.171-.725-.427-1.408-.64-2.091-.128-.384-.213-.725-.341-1.11-.171-.6-.341-1.238-.512-1.835-.128-.469-.213-.939-.341-1.366a4.425,4.425,0,0,1-.171-.427c-.043-.171-.213-.341-.171-.469.085-.9-.64-1.28-.768-1.878Z" transform="translate(-30.98 -28.7)"/>
    </g>
    <g id="Group_1315" data-name="Group 1315" transform="translate(26.53 1.104)">
      <path id="Path_1198" data-name="Path 1198" class="cls-5" d="M84.823,29.321c-2.987-13.656-4.481-16.387-5.846-16.387H78.72l-.043.085c-1.323.512-2.6,1.11-3.542,1.536-1.451.683-2.9,1.366-4.31,2.048-.9.427-1.75.811-2.646,1.238-1.408.64-2.774,1.28-4.182,1.92-.043-.469-.043-.939-.085-1.408,0-.469-.043-.939-.043-1.366-.043-.811-.043-1.664-.128-2.518l-.128-1.408c-.043-.427-.085-.853-.128-1.323C63.4,10.715,63.4,9.776,63.4,8.965c.043,0,.043-.043.085-.043.6-.171,1.28-.3,1.878-.427,2.219-.469,4.4-.9,6.529-1.366a1.061,1.061,0,0,0,.341-.043,2.625,2.625,0,0,0,.555-.043c.555-.085,1.067-.213,1.622-.341.853-.171,1.75-.341,2.6-.512.811-.128,1.622-.213,2.39-.341.683-.085,1.366-.171,2.006-.256.725-.128,1.494-.256,2.219-.384.555-.085,1.152-.213,1.707-.3.341-.043.683-.128.982-.171a16.928,16.928,0,0,1,2.048-.3c.427,0,4.737-.256,6.359-.341.213,1.024.427,2.817.555,4.225a19.341,19.341,0,0,0,.3,2.3,4.57,4.57,0,0,1,0,1.323,6.914,6.914,0,0,0-.043.939,6.392,6.392,0,0,0,.085.939c.043.171.043.341.085.555,0,.171.043.341.043.555a7.887,7.887,0,0,1,.043,1.408A7.356,7.356,0,0,0,96,19.8a2.756,2.756,0,0,1,.085,1.323,3.706,3.706,0,0,0-.043.982l.043.469c.043.512.085.982.085,1.494a11.639,11.639,0,0,1-.128,1.75L96,26.547a8.8,8.8,0,0,1-.128,1.11,2.3,2.3,0,0,0-.043.683c0,.256-.043.768-.085,1.11h-.128a9.753,9.753,0,0,1-1.067-.085,11.246,11.246,0,0,0-1.195-.085,3.23,3.23,0,0,0-.64.043c-.555.085-5.974.811-7.639.982A6.231,6.231,0,0,1,84.823,29.321Z" transform="translate(-62.76 -3.46)"/>
      <path id="Path_1199" data-name="Path 1199" class="cls-2" d="M93.351,3.966c.171,1.024.341,2.518.469,3.627.171,1.323.256,2.048.3,2.39a3.206,3.206,0,0,1,0,1.11,8.222,8.222,0,0,0-.043,1.024,7.082,7.082,0,0,0,.085,1.024c.043.171.043.341.085.512,0,.171.043.384.043.555a6.3,6.3,0,0,1,.043,1.238,8.688,8.688,0,0,0,.213,3.755,2.528,2.528,0,0,1,.043,1.024,4.643,4.643,0,0,0-.043,1.11c0,.171.043.341.043.469.043.512.085.982.085,1.408a11.933,11.933,0,0,1-.128,1.707c0,.171-.043.341-.043.469v.256a6.7,6.7,0,0,1-.128,1.024,6.561,6.561,0,0,0-.085.811,1.914,1.914,0,0,1-.043.469c-.171,0-.341-.043-.512-.043a12.084,12.084,0,0,0-1.28-.085,4.14,4.14,0,0,0-.725.043c-.725.085-5.078.683-7.041.9a1.516,1.516,0,0,1-.085-.427c-3.457-15.662-4.865-16.9-6.487-16.9H77.86l-.128.085-.128.043c-1.323.512-2.6,1.11-3.585,1.579l-4.353,2.048c-.9.427-1.75.811-2.646,1.238-1.11.512-2.262,1.067-3.329,1.536a1.75,1.75,0,0,0-.043-.469c0-.469-.043-.9-.043-1.366-.043-.811-.043-1.664-.128-2.518-.043-.512-.085-.982-.128-1.451l-.128-1.28c-.043-.811-.085-1.579-.085-2.262.469-.128.939-.213,1.451-.341h.043c1.92-.384,4.182-.9,6.487-1.366h.213a4.155,4.155,0,0,0,.683-.043c.555-.085,1.067-.213,1.622-.341l2.56-.512c.768-.128,1.579-.213,2.39-.341l2.048-.256c.768-.128,1.494-.256,2.219-.384.555-.085,1.11-.213,1.707-.3.341-.043.683-.128,1.024-.171a16.866,16.866,0,0,1,1.963-.3c.213,0,3.8-.171,5.8-.3M94.375,2.6c-.3.043-6.017.341-6.871.384a24.908,24.908,0,0,0-3.115.469c-1.28.213-2.6.469-3.883.683-1.494.213-2.945.341-4.438.6-1.408.213-2.817.555-4.225.811a6.367,6.367,0,0,0-.9.085c-2.176.427-4.353.9-6.529,1.366-.683.128-1.323.3-1.963.469-.213.043-.555.256-.555.427,0,1.024.043,2.048.085,3.073.043.9.213,1.792.256,2.731.085,1.28.128,2.56.171,3.883.043.725.085,1.451.128,2.262a.633.633,0,0,0,.3-.043l4.737-2.176c2.3-1.067,4.652-2.176,6.956-3.286,1.152-.555,2.347-1.067,3.542-1.536h.043c2.048,0,5.249,16.131,5.59,17.411h.085c.811,0,8.066-.982,8.151-1.024a2.078,2.078,0,0,1,.512-.043c.725,0,1.536.171,2.262.171a3.23,3.23,0,0,0,.64-.043,11.736,11.736,0,0,0,.256-2.219,8.419,8.419,0,0,0,.171-1.494c.043-.768.128-1.536.171-2.3,0-.683-.043-1.323-.085-2.006a8.067,8.067,0,0,0-.043-2.475,7.094,7.094,0,0,1-.171-3.158,8.274,8.274,0,0,0-.128-2.048c-.043-.469-.171-.939-.171-1.408A11.64,11.64,0,0,0,95.4,9.727c-.213-.811-.64-5.8-1.024-7.127Z" transform="translate(-61.9 -2.6)"/>
    </g>
    <g id="Group_1316" data-name="Group 1316" transform="translate(1.391 12.413)">
      <path id="Path_1200" data-name="Path 1200" class="cls-5" d="M15.185,66.576c-.213-.64-.469-1.28-.683-1.92-.128-.427-.3-.853-.469-1.28-.128-.341-.256-.725-.384-1.067-.171-.427-.3-.853-.469-1.28-.085-.3-.213-.6-.3-.9-.128-.341-.213-.725-.341-1.067l-.384-1.024a6.091,6.091,0,0,1-.341-.939c-.171-.469-.3-.9-.469-1.366-.171-.555-.384-1.11-.555-1.622-.384-.982-.768-2.048-1.195-3.115L8.442,48.311c-.427-.939-.811-1.835-1.195-2.774A26.429,26.429,0,0,0,6.01,43.1,21.123,21.123,0,0,1,4.9,40.929c1.792-1.238,11.949-5.8,12.93-6.145.512-.171,1.067-.384,1.622-.555l1.536-.512c.341-.128.725-.256,1.11-.427.256-.128.555-.213.811-.341.427-.171.9-.384,1.323-.555,1.366-.512,2.774-1.024,4.139-1.494,0,.171-.043.341-.043.512a1.79,1.79,0,0,0,.043.683,4.8,4.8,0,0,1,.043,1.75,3.671,3.671,0,0,0-.043.683,7,7,0,0,0,.085.982c0,.085.043.171.043.256a1.356,1.356,0,0,0,.128.384l-9.773,5.505-.213.128a14.247,14.247,0,0,1-1.622.683,10.262,10.262,0,0,0-1.707.725c-.9.469-.768,1.494-.683,2.048,0,.085.043.213.043.3A7.864,7.864,0,0,0,15.1,47.33c.3.982.64,1.963,1.11,3.286l.768,2.176c.171.512.341.982.512,1.494a1,1,0,0,1,.085.341c.043.128.043.213.085.341.085.256.171.469.256.725.128.427.3.9.427,1.366.085.341.171.64.256.982.085.3.128.64.213.939a12.177,12.177,0,0,0,.469,1.28c.171.427.341.9.555,1.323.256.6.469,1.195.725,1.792a16.083,16.083,0,0,1-1.408.939c-.6.384-1.238.725-1.878,1.067a10.8,10.8,0,0,0-.939.555c-.128.085-.3.171-.427.256C15.569,66.363,15.4,66.491,15.185,66.576Z" transform="translate(-4.085 -30.132)"/>
      <path id="Path_1201" data-name="Path 1201" class="cls-2" d="M26.509,30.85a1.263,1.263,0,0,0,.085.427,3.7,3.7,0,0,1,0,1.536,4.14,4.14,0,0,0-.043.725,3.3,3.3,0,0,0,.128,1.152c0,.085.043.128.043.213-2.945,1.664-6.487,3.627-9.346,5.249l-.171.128c-.427.256-.982.427-1.536.683a13.324,13.324,0,0,0-1.792.768,2.449,2.449,0,0,0-1.024,2.731c0,.085.043.171.043.256a8.85,8.85,0,0,0,.427,1.963c.3.982.64,2.006,1.11,3.286.256.725.512,1.451.768,2.219.171.512.341.982.512,1.494a2.72,2.72,0,0,1,.085.3c.043.128.043.213.085.341.085.256.171.512.256.725.128.469.3.9.427,1.323a6.056,6.056,0,0,1,.213.939c.085.3.128.64.256.982a13.09,13.09,0,0,0,.469,1.366c.171.427.341.9.555,1.323.171.427.341.853.555,1.28a8.391,8.391,0,0,1-.939.6c-.6.384-1.238.725-1.835,1.067a10.8,10.8,0,0,0-.939.555,2.383,2.383,0,0,0-.341.213c-.128-.384-.3-.811-.427-1.195-.171-.427-.3-.853-.469-1.28-.128-.341-.256-.725-.384-1.067-.171-.427-.3-.853-.469-1.28-.085-.3-.213-.6-.3-.9-.128-.341-.213-.725-.341-1.11a7.942,7.942,0,0,0-.427-1.067,7.694,7.694,0,0,1-.341-.9c-.171-.427-.3-.9-.469-1.323-.171-.555-.384-1.11-.6-1.664-.384-.982-.768-2.048-1.238-3.115L7.945,47.109c-.384-.9-.811-1.835-1.195-2.774-.341-.768-.811-1.622-1.323-2.518-.3-.555-.6-1.152-.853-1.664,2.518-1.451,11.181-5.334,12.333-5.761.512-.171,1.067-.384,1.579-.555l1.536-.512c.341-.128.725-.256,1.152-.427.3-.128.555-.213.853-.341.469-.171.9-.384,1.323-.512,1.024-.427,2.091-.811,3.158-1.195m1.408-1.75c-.384.085-.555.085-.725.128-1.451.512-2.9,1.024-4.353,1.579-.725.256-1.451.6-2.176.9a10.681,10.681,0,0,1-1.067.384c-1.024.341-2.091.725-3.115,1.067-.6.213-13.741,6.017-13.485,6.657.555,1.366,1.92,3.627,2.518,4.993.768,1.835,1.579,3.627,2.347,5.462.427,1.024.811,2.048,1.195,3.073.384.982.683,2.006,1.067,2.987.256.64.512,1.28.768,1.963.213.64.427,1.323.64,1.963.256.768.555,1.579.853,2.347.427,1.195.853,2.432,1.28,3.627a.432.432,0,0,0,.3.171h.043c.469-.256.939-.555,1.451-.811.939-.555,1.878-1.067,2.817-1.622.555-.341,1.067-.683,1.579-1.024a.59.59,0,0,0,.213-.384c-.427-1.11-.939-2.219-1.366-3.371a10.537,10.537,0,0,1-.427-1.238c-.171-.64-.3-1.28-.469-1.92-.213-.725-.427-1.408-.683-2.091-.085-.213-.128-.469-.213-.683-.427-1.238-.9-2.432-1.323-3.67-.384-1.067-.725-2.176-1.067-3.286a7.818,7.818,0,0,1-.384-1.664c-.043-.6-.3-1.408.341-1.75.982-.555,2.347-.9,3.329-1.451,3.2-1.792,7.255-4.1,10.455-5.889.6-.341-.171-.043-.3-.768a4.92,4.92,0,0,1-.128-1.11,8.122,8.122,0,0,0,0-2.689,1.6,1.6,0,0,1-.043-.469c.043-.469.085-.9.128-1.408Z" transform="translate(-2.991 -29.1)"/>
    </g>
    <path id="Path_1202" data-name="Path 1202" class="cls-7" d="M115.98,29.376l1.28-8.919L109.28,13.8l-3.713,5.377L104.5,19.6s1.878,7.98,2.219,8.45,3.329.982,3.329.982l.64-4.908,3.243-.3-1.024,5.036Z" transform="translate(-59.79 -7.916)"/>
    <path id="Path_1203" data-name="Path 1203" class="cls-7" d="M94.452,12.939,91,17.249,79.9,21.943l3.2-7.6,4.054-.469L87.24,12l1.792.3.341,1.707Z" transform="translate(-45.688 -6.884)"/>
    <path id="Path_1204" data-name="Path 1204" class="cls-7" d="M71.839,58.373s-.043-4.31-3.67-4.609c-3.627-.256-4.822-.555-7.084.3s-1.707,2.006-4.908.256-2.859-1.878-5.59-.725c-2.774,1.152-2.347,2.176-3.713,4.353s.469,2.731-.085,4.438a47.338,47.338,0,0,0-1.152,6.4s-.341,2.3.811,3.286S62.28,65.841,62.28,65.841Z" transform="translate(-26.02 -30.299)"/>
    <path id="Path_1205" data-name="Path 1205" class="cls-7" d="M100.448,71.309c-.384.6-1.494.6-2.518-.043s-1.494-1.664-1.11-2.262,1.536-.6,2.518.043C100.363,69.688,100.875,70.669,100.448,71.309Z" transform="translate(-55.312 -39.309)"/>
    <path id="Path_1206" data-name="Path 1206" class="cls-7" d="M80.467,83.938a2.039,2.039,0,1,1,.171-2.774A2,2,0,0,1,80.467,83.938Z" transform="translate(-44.164 -46.091)"/>
    <path id="Path_1207" data-name="Path 1207" class="cls-7" d="M56.254,94.4c-.512.811-1.878.811-3.073.085-1.195-.768-1.75-2.006-1.238-2.817s1.878-.811,3.073-.085C56.211,92.351,56.766,93.589,56.254,94.4Z" transform="translate(-29.553 -52.199)"/>
    <path id="Path_1208" data-name="Path 1208" class="cls-8" d="M136.094,173.053c0,1.024-3.371-.555-4.011.171-.768.853,1.11,3.969-.085,3.969a4.1,4.1,0,1,1,4.1-4.139Z" transform="translate(-73.204 -96.884)"/>
    <g id="Group_1317" data-name="Group 1317" transform="translate(77.015 52.741)">
      <path id="Path_1209" data-name="Path 1209" class="cls-5" d="M183.876,164.46l-.128-1.11c-.171-1.707-.384-3.414-.512-5.164-.213-2.561-.384-5.164-.512-7.681l-.043-.9c-.085-1.195-.128-2.432-.171-3.627,0,0-.128-2.774-.171-3.414-.043-1.366-.128-2.731-.213-4.139-.043-.939-.128-1.835-.213-2.774-.085-.982-.171-2.006-.213-2.987v-.043l2.176-.512c.427-.085.854-.171,1.28-.3.6-.128,1.195-.3,1.792-.427l.683-.171c.64-.171,1.28-.341,1.963-.469,1.494-.384,3.073-.725,4.566-1.195a41.1,41.1,0,0,1,4.438-.939l.811-.128a21.643,21.643,0,0,0,2.39-.555c.512-.128,1.024-.256,1.579-.384.939-.213,1.92-.384,2.817-.555l.3-.043c1.152-.213,2.262-.384,3.414-.6l1.152-.213.9-.171c.725-.128,1.494-.256,2.262-.384,1.451-.213,2.987-.427,4.652-.64a5.441,5.441,0,0,1,.853-.043l.128.384c.171.427.213.64.085.854a1.2,1.2,0,0,0-.043.853.157.157,0,0,0,.043.128c0,.085.043.171.043.256a1.849,1.849,0,0,0,.043.213v1.622c0,.64,0,1.238.043,1.878v.341c0,.469,0,.9.043,1.366,0,.3.043.6.043.854.043.555.043,1.11.043,1.664,0,2.091-.043,4.1-.043,6.017,0,.469-.043.982-.085,1.451-.043.555-.085,1.152-.085,1.707,0,.683.043,1.366.043,2.006,0,.427.043.811.043,1.238v.3a3.372,3.372,0,0,0-.384,2.432c0,.128.043.256.043.341a16.191,16.191,0,0,1-.384,4.95c-1.408.64-10.455,2.432-11.266,2.518a.617.617,0,0,0-.3.085,4.267,4.267,0,0,1-.171-2.347,24.974,24.974,0,0,0,.512-2.475c.128-.683.256-1.366.384-1.92a.692.692,0,0,0,.512-.683.848.848,0,0,0-.853-.811.257.257,0,0,0-.171.043,1.933,1.933,0,0,0-.683-.128c-1.75,0-3.67,2.731-4.011,3.627-.427.854-1.067,2.3-1.536,3.542a15.642,15.642,0,0,0-.683,2.219h-.043c-.64.043-.811.043-.982.171a52.2,52.2,0,0,1-5.334,1.664c-.725.213-1.323.384-1.664.469-.6.171-1.195.384-1.835.6-.512.171-1.024.341-1.579.512-1.835.555-3.627,1.152-5.462,1.707a.464.464,0,0,1-.213.043C183.919,164.588,183.919,164.5,183.876,164.46Z" transform="translate(-181.06 -124.345)"/>
      <path id="Path_1210" data-name="Path 1210" class="cls-2" d="M218.479,124.88a1.739,1.739,0,0,1,.085.3,1.715,1.715,0,0,0-.085,1.28v.043c0,.085.043.171.043.3v1.707c0,.6,0,1.238.043,1.835v.384c0,.469,0,.9.043,1.366,0,.3.043.6.043.9.043.555.043,1.067.043,1.622,0,2.134-.043,4.1-.043,5.974,0,.469-.043.939-.085,1.451-.043.555-.085,1.152-.085,1.75,0,.683.043,1.366.043,2.048,0,.384.043.811.043,1.195v.043a4.018,4.018,0,0,0-.384,2.731c0,.128.043.213.043.341a17.665,17.665,0,0,1-.3,4.438c-1.835.6-8.834,2.048-10.541,2.347a2.8,2.8,0,0,1-.043-1.451,20.162,20.162,0,0,0,.512-2.518c.085-.555.213-1.11.3-1.622.043-.043.085-.043.128-.085a1.363,1.363,0,0,0,.469-1.024,1.476,1.476,0,0,0-1.494-1.451h-.128a2.417,2.417,0,0,0-.768-.128h0c-2.091,0-4.054,2.774-4.566,3.969h0a39.551,39.551,0,0,0-1.579,3.627c-.256.725-.469,1.323-.6,1.835a2.07,2.07,0,0,0-.854.213,47.752,47.752,0,0,1-5.164,1.622c-.725.213-1.323.384-1.664.469-.6.171-1.238.384-1.835.6l-1.536.512c-1.494.469-3.115.982-4.908,1.536l-.043-.512c-.171-1.664-.384-3.414-.512-5.121-.213-2.56-.384-5.164-.512-7.681l-.043-.9c-.085-1.195-.128-2.432-.171-3.627-.043-.512-.043-1.024-.085-1.536-.043-.64-.043-1.28-.085-1.878-.085-1.366-.128-2.774-.213-4.139-.043-.939-.128-1.878-.213-2.774-.043-.811-.128-1.622-.171-2.475l1.664-.384c.427-.085.853-.171,1.28-.3.6-.128,1.238-.3,1.835-.469.213-.043.469-.128.683-.171.64-.171,1.28-.341,1.963-.469,1.494-.384,3.073-.725,4.609-1.195a44.332,44.332,0,0,1,4.4-.939c.256-.043.555-.085.811-.128a22.4,22.4,0,0,0,2.432-.555l1.536-.384c.9-.213,1.878-.384,2.774-.555l.3-.043c1.152-.213,2.3-.384,3.414-.6l1.11-.171a6.624,6.624,0,0,0,.9-.171c.725-.128,1.494-.256,2.262-.384q2.176-.32,4.609-.64c.043.085.171.043.3.043m.982-1.28c-.6,0-1.067,0-1.494.043-1.536.213-3.115.384-4.652.64-1.067.171-2.091.341-3.158.512-1.536.256-3.03.512-4.566.768-1.067.171-2.134.384-3.158.6-1.323.3-2.6.683-3.926.939-1.792.341-3.585.6-5.334,1.11-2.134.6-4.353,1.11-6.487,1.664-.811.213-1.664.427-2.475.6-1.195.256-2.39.512-3.585.811a.8.8,0,0,0-.427.6c.128,1.963.3,3.883.427,5.846.128,2.006.213,4.011.3,6.017l.256,5.121c.171,2.859.341,5.761.6,8.62.171,2.091.427,4.182.64,6.273.043.555.128.811.427.811a2.141,2.141,0,0,0,.6-.128c1.835-.555,3.627-1.11,5.462-1.707,1.11-.341,2.262-.725,3.371-1.11,1.195-.384,6.273-1.664,7.169-2.219.085-.043,1.451-.085,1.366-.128-.341-.341,1.366-4.524,2.176-6.06.043-.3,1.92-3.286,3.457-3.286a1.159,1.159,0,0,1,.725.256c.043-.128.085-.171.171-.171.128,0,.3.256.128.256-.043,0-.128-.043-.3-.085-.427,1.366-.64,3.542-1.024,4.95a5.091,5.091,0,0,0,.171,2.817c-.043.3.085.469.3.469a.833.833,0,0,0,.3-.043,1.357,1.357,0,0,1,.384-.128c.811-.085,11.565-2.219,11.778-2.774a16.483,16.483,0,0,0,.469-5.42,3.143,3.143,0,0,1,.256-2.39,1.085,1.085,0,0,0,.128-.64c-.043-1.067-.085-2.134-.085-3.243,0-1.067.128-2.134.171-3.2.043-2.006.043-4.011.043-6.017,0-.854-.085-1.707-.085-2.56,0-.427-.043-.9-.043-1.323,0-.725-.043-1.494-.043-2.219v-1.622a2.142,2.142,0,0,0-.085-.512c-.043-.171-.128-.427-.043-.555.384-.811-.3-1.451-.3-2.176Z" transform="translate(-180.2 -123.6)"/>
    </g>
    <path id="Path_1211" data-name="Path 1211" class="cls-7" d="M213.677,145.709a13.885,13.885,0,0,0-5.036,1.067c-.982.512-1.024.854-.171,1.664.725.683,1.494,1.323,2.176,2.048a1.584,1.584,0,0,1,.469,1.878c-1.024,2.347-2.048,4.694-3.158,7.255-2.859-1.92-5.334-3.8-5.718-7.383-.085-.939-.3-1.878-.3-2.774,0-1.195-1.195-1.323-1.494-2.219-.683.3-1.195.555-1.707.768-2.048.9-4.011.427-4.95-1.536-.853-1.835-1.707-3.8-1.024-5.932a1.9,1.9,0,0,1,.341-.854,9.04,9.04,0,0,1,5.206-3.115,2.318,2.318,0,0,1,2.9,1.707c.384,1.238.6,2.518.9,3.926a1.908,1.908,0,0,0,2.646-.725,3.178,3.178,0,0,1,2.176-1.323,12.421,12.421,0,0,0,2.134-.683c1.579-.725,3.115-1.238,4.78-.341.6-.469,1.11-.853,1.622-1.238-.043-.171,0-.384-.085-.427-1.408-.939-1.28-2.262-.811-3.627.171-.469.3-.939.512-1.408a2.286,2.286,0,0,1,1.878-1.536c3.286-.6,4.011-.939,5.59,2.774a12.061,12.061,0,0,1,.725,1.707c.9,3.2-.555,5.377-3.883,5.718-1.11.128-1.494.768-1.792,1.75,1.579,1.28,1.878,3.073,2.134,5.078a20.194,20.194,0,0,1-.6,7.169,7.117,7.117,0,0,1-.341.854c-.256-.085-.469-.085-.6-.213a47.956,47.956,0,0,1-4.481-6.487C213.635,148.227,213.677,147.117,213.677,145.709Zm.256-4.865c-1.067.768-.64,1.707-.512,2.6q.256,1.856,1.792.9a2.332,2.332,0,0,0,.939-2.3c-.043-.9-.811-.768-1.408-.939A4.3,4.3,0,0,0,213.933,140.844Zm-9.218,2.262c-.384.6-.725,1.11-1.024,1.622-.384.64-.555,1.28.256,1.75a1.422,1.422,0,0,0,2.091-.512C206.807,144.77,206.508,144,204.716,143.106Z" transform="translate(-110.247 -74.832)"/>
    <path id="Path_1212" data-name="Path 1212" class="cls-4" d="M241.753,154.7c.256.085.512.171.811.256.555.171,1.366.043,1.408.939a2.332,2.332,0,0,1-.939,2.3c-1.024.683-1.622.341-1.792-.9C241.113,156.364,240.686,155.468,241.753,154.7Z" transform="translate(-138.067 -88.688)"/>
    <path id="Path_1213" data-name="Path 1213" class="cls-4" d="M219.293,160c1.75.9,2.048,1.664,1.323,2.817a1.415,1.415,0,0,1-2.091.512c-.811-.469-.64-1.067-.256-1.75C218.611,161.11,218.909,160.6,219.293,160Z" transform="translate(-124.825 -91.726)"/>
  </g>
</svg>
