<svg id="Layer_1" data-name="Layer 1" xmlns="http://www.w3.org/2000/svg" xmlns:xlink="http://www.w3.org/1999/xlink" viewBox="0 0 32 32"><defs><style>.cls-1{fill:none;}.cls-2{clip-path:url(#clip-path);}.cls-3{clip-path:url(#clip-path-2);}.cls-4{fill:#2191d0;}.cls-5{clip-path:url(#clip-path-3);}.cls-6{fill:#fff;}</style><clipPath id="clip-path"><rect class="cls-1" width="32" height="32"/></clipPath><clipPath id="clip-path-2"><rect class="cls-1" x="0.7" y="0.7" width="30.6" height="30.6"/></clipPath><clipPath id="clip-path-3"><rect class="cls-1" x="6.45" y="5.35" width="20.15" height="20.23"/></clipPath></defs><title>Blue</title><g id="icon_Round_corners" data-name="icon Round corners"><g class="cls-2"><g class="cls-3"><path class="cls-4" d="M28.24,30H3.76A1.74,1.74,0,0,1,2,28.24V3.76A1.74,1.74,0,0,1,3.76,2H28.24A1.74,1.74,0,0,1,30,3.76V28.24A1.74,1.74,0,0,1,28.24,30"/></g><g class="cls-5"><path class="cls-6" d="M24.49,6.42c-3.83,0-7.61,1.93-10.72,4.58a6.56,6.56,0,0,1,1.29-4.58,2,2,0,0,0-1.69-1.07c-2.51,0-3,3.76-1.86,7.83C6.94,18.13,4.77,24.2,8,25.58c0-2.86,1.62-6.65,4.4-9.89,1.69,4,4.77,7.54,8.8,7.54.82,0,.81-.29.81-.29-3.08-1-6.44-5.05-7.71-9.21A17.34,17.34,0,0,1,25.92,8.92c1.4-1.18.54-2.5-1.43-2.5"/></g></g></g></svg>