<svg xmlns="http://www.w3.org/2000/svg" xmlns:xlink="http://www.w3.org/1999/xlink" viewBox="0 0 729.37 268.43"><defs><style>.cls-1{fill:none;}.cls-2{clip-path:url(#clip-path);}.cls-3{fill:#3c3c3b;}.cls-4{fill:#2191d0;}</style><clipPath id="clip-path"><rect class="cls-1" width="729.37" height="268.43"/></clipPath></defs><title>findx logo beta</title><g id="Layer_1" data-name="Layer 1"><g id="findx_logo" data-name="findx logo"><g class="cls-2"><g class="cls-2"><path class="cls-3" d="M210.29,77.35,202.6,61.81H182.32V215.94h28v-114s19.56-18.11,42.45-18.11c30.47,0,33.13,19.83,33.13,43.65v88.5h28v-88.5c0-44.25-13-68.49-51.64-68.49-25.13,0-51.9,18.41-51.9,18.41"/><path class="cls-3" d="M456,.16V77.35S437,58.94,408.21,58.94c-23.2,0-65.05,16.61-65.05,81.2,0,52.82,30.84,79.21,66.84,79.21,22.55,0,46-15.73,46-15.73l6.74,12.13H484V.16Zm0,182.28s-21.58,14.75-42.45,14.75c-29.5,0-42.45-25.31-42.45-57,0-34.69,14.21-56.36,42.45-56.36C440.1,83.79,456,101.9,456,101.9Z"/><polygon class="cls-3" points="120.87 61.81 120.87 86.95 120.87 92.75 120.87 215.94 148.84 215.94 148.84 61.81 120.87 61.81"/><path class="cls-3" d="M29.94,61.81H0V87H29.85v129h28V87H92.69V61.81H57.92c0-34.27,14.63-42.48,35.19-36.76V1.82c-31.77-7.42-63.16,6.95-63.16,60"/><polygon class="cls-3" points="120.87 2.07 120.87 27.2 148.84 27.11 148.84 2.07 120.87 2.07"/><path class="cls-4" d="M707.15,67.56c-118.23,0-231.91,175.64-173,200.87,0-64.53,78.93-174.67,188-174.67,14.72-12.31,5.63-26.2-15-26.2"/><path class="cls-4" d="M608.28,67.56c-41.35,51.7,19.65,156.63,72.66,173.21,0,0,.09,3-8.45,3-94.45,0-139.28-187.46-81.87-187.46,9.5,0,16,7.6,17.65,11.21"/></g></g></g></g><g id="Layer_3_copy" data-name="Layer 3 copy"><path class="cls-3" d="M638.44,41.37V0h5.22V14.8a18,18,0,0,1,3.85-1.86,12.32,12.32,0,0,1,4.19-.8A9.54,9.54,0,0,1,660,16.39q3,4.24,3,11.17v.56q0,6.18-3,10a9.88,9.88,0,0,1-8.19,3.79,8.66,8.66,0,0,1-4.48-1.14,41,41,0,0,1-4.11-2.89l-.72,3.47Zm5.22-7.29a19.24,19.24,0,0,0,3.55,2.39,8.74,8.74,0,0,0,4.08,1.22,5.41,5.41,0,0,0,4.61-2.63,12.13,12.13,0,0,0,1.8-6.95v-.56a15.67,15.67,0,0,0-1.83-8,5.91,5.91,0,0,0-5.52-3.13,9.07,9.07,0,0,0-3.82,1,22,22,0,0,0-2.89,1.54Z"/><path class="cls-3" d="M665.37,27.58V26.41q0-7,3.42-10.61a11.57,11.57,0,0,1,8.86-3.66q6.15,0,8.83,3.58t2.68,9.52v2.6H670.73v.29a11.87,11.87,0,0,0,1.91,7,6.69,6.69,0,0,0,5.83,2.67,26.07,26.07,0,0,0,5.12-.42,17.71,17.71,0,0,0,4.69-1.81l1.17,4.16a18.41,18.41,0,0,1-4.4,1.49,30.05,30.05,0,0,1-6.58.69q-6.18,0-9.65-4T665.37,27.58ZM670.94,24h13v-.43a8.44,8.44,0,0,0-1.54-5.23,5.58,5.58,0,0,0-4.75-2.06,5.68,5.68,0,0,0-4.53,2.14,10.12,10.12,0,0,0-2.18,5.44Z"/><path class="cls-3" d="M692.71,34V7.08l5.22-1.33v6.92h5.44v3.87h-5.44V34q0,3.67,3.05,3.67a5.59,5.59,0,0,0,1.94-.37l.72,3.54a4.64,4.64,0,0,1-1.72.77,8.82,8.82,0,0,1-2.25.3,6.63,6.63,0,0,1-5.12-2Q692.71,38,692.71,34Z"/><path class="cls-3" d="M706.06,33.35a7.78,7.78,0,0,1,3.18-6.59q2.94-2.17,8.25-2.2l1,0a15.75,15.75,0,0,1,2.88.37,13.3,13.3,0,0,1,2.11.61l.69.29V21.72q0-2.91-1.47-4.12a6.85,6.85,0,0,0-4.42-1.21,29.56,29.56,0,0,0-9.1,1.47l-.9-4.1a31.81,31.81,0,0,1,10.26-1.61,17.34,17.34,0,0,1,4.46.52,10,10,0,0,1,3.43,1.62,6.82,6.82,0,0,1,2.26,3,11,11,0,0,1,.72,4.14V35.63q0,1,0,2.86t0,2.89H725q-.13-.77-.39-1.87t-.39-1.92a14.8,14.8,0,0,1-4.13,3.14A10.39,10.39,0,0,1,715.25,42q-4.42,0-6.8-2.26A8.33,8.33,0,0,1,706.06,33.35Zm5.22-.07a4.11,4.11,0,0,0,1.21,3.18A5,5,0,0,0,716,37.58a11.49,11.49,0,0,0,4.13-.92,20.46,20.46,0,0,0,4-2v-5.3l-.7-.28a15.6,15.6,0,0,0-2-.46,16.93,16.93,0,0,0-3.18-.29,9.39,9.39,0,0,0-5,1.21A4.13,4.13,0,0,0,711.29,33.28Z"/></g></svg>