<svg id="Rolling_eyes" data-name="Rolling eyes" xmlns="http://www.w3.org/2000/svg" viewBox="0 0 96 96">
  <defs>
    <style>
      .cls-1 {
        fill: #ffdd67;
      }

      .cls-2 {
        fill: #fff;
      }

      .cls-3 {
        fill: #664e27;
      }
    </style>
  </defs>
  <g id="Group_2023" data-name="Group 2023" transform="translate(0 0)">
    <circle id="Ellipse_60" data-name="Ellipse 60" class="cls-1" cx="48" cy="48" r="48"/>
    <path id="Path_4184" data-name="Path 4184" class="cls-2" d="M19,32.086c-9.429,0-18-7.714-18-17.143A25.027,25.027,0,0,1,2.714,7.229,45.688,45.688,0,0,1,19,3.8c6,0,11.143,1.714,16.286,3.429A25.027,25.027,0,0,1,37,14.943C37,24.371,28.429,32.086,19,32.086Z" transform="translate(7.571 28.771)"/>
    <path id="Path_4185" data-name="Path 4185" class="cls-3" d="M14.357,3.8a7.727,7.727,0,0,1,.857,4.286,6.761,6.761,0,0,1-6.857,6.857A6.761,6.761,0,0,1,1.5,8.086V6.371A28.623,28.623,0,0,1,14.357,3.8Z" transform="translate(11.357 28.771)"/>
    <path id="Path_4186" data-name="Path 4186" class="cls-2" d="M24.1,32.086c-10.286,0-18-7.714-18-17.143A25.027,25.027,0,0,1,7.814,7.229,45.688,45.688,0,0,1,24.1,3.8,40.941,40.941,0,0,1,39.529,7.229a25.027,25.027,0,0,1,1.714,7.714A17.193,17.193,0,0,1,24.1,32.086Z" transform="translate(46.186 28.771)"/>
    <path id="Path_4187" data-name="Path 4187" class="cls-3" d="M19.457,3.8a7.727,7.727,0,0,1,.857,4.286,6.761,6.761,0,0,1-6.857,6.857A6.761,6.761,0,0,1,6.6,8.086V6.371A28.623,28.623,0,0,1,19.457,3.8Z" transform="translate(49.971 28.771)"/>
    <path id="Path_4188" data-name="Path 4188" class="cls-3" d="M4.5,11.339a30.864,30.864,0,0,1,27.429,0c2.571.857-.857,6.857-2.571,6a28.632,28.632,0,0,0-22.286,0C5.357,18.2,2.785,12.2,4.5,11.339Z" transform="translate(29.786 61.518)"/>
  </g>
</svg>
