<svg id="Smirking" xmlns="http://www.w3.org/2000/svg" viewBox="0 0 96 96">
  <defs>
    <style>
      .cls-1 {
        fill: #ffdd67;
      }

      .cls-2 {
        fill: #664e27;
      }

      .cls-3 {
        fill: #917524;
      }
    </style>
  </defs>
  <g id="Group_2018" data-name="Group 2018">
    <path id="Path_4178" data-name="Path 4178" class="cls-1" d="M0,48A48,48,0,1,0,48,0,47.921,47.921,0,0,0,0,48Z"/>
    <path id="Path_4179" data-name="Path 4179" class="cls-2" d="M2.364,8.538c5.143-6,22.286-4.286,27.429,4.286,0,.857-.857,1.714-1.714,2.571-3.429-2.571-6.857-3.429-11.143-4.286,0,4.286-3.429,8.571-7.714,8.571C2.364,19.681-.207,11.966,2.364,8.538Z" transform="translate(10.493 37.748)"/>
    <path id="Path_4180" data-name="Path 4180" class="cls-2" d="M7.464,8.538c5.143-6,22.286-4.286,27.429,4.286,0,.857-.857,1.714-1.714,2.571-2.571-2.571-6.857-3.429-11.143-4.286,0,4.286-3.429,8.571-7.714,8.571C7.464,19.681,4.893,11.966,7.464,8.538Z" transform="translate(49.107 37.748)"/>
    <path id="Path_4181" data-name="Path 4181" class="cls-2" d="M35.523,18.69c-9.429,2.571-24,0-31.714-5.143C1.237,11.833,5.523,6.69,7.237,8.4c5.143,3.429,18,6.857,26.571,4.286C36.38,12.69,38.094,18.69,35.523,18.69Z" transform="translate(22.763 61.024)"/>
    <path id="Path_4182" data-name="Path 4182" class="cls-3" d="M3.269,11.582A24.539,24.539,0,0,1,22.126,6.439c1.714.857,1.714-2.571.857-2.571A24.228,24.228,0,0,0,1.555,9.011C.7,9.868,3.269,12.439,3.269,11.582Z" transform="translate(10.445 24.418)"/>
    <path id="Path_4183" data-name="Path 4183" class="cls-3" d="M8.471,6.814a24.539,24.539,0,0,1,18.857,5.143c.857.857,3.429-1.714,2.571-2.571-6-5.143-14.571-6.857-22.286-6C6.756,4.243,7.614,7.672,8.471,6.814Z" transform="translate(54.958 24.043)"/>
  </g>
</svg>
