<svg xmlns="http://www.w3.org/2000/svg" viewBox="0 0 92.396 96">
  <defs>
    <style>
      .cls-1 {
        fill: #ffdd67;
      }

      .cls-2 {
        fill: #917524;
      }

      .cls-3 {
        fill: #664e27;
      }

      .cls-4 {
        fill: #fff;
      }

      .cls-5 {
        fill: #cccfd4;
      }
    </style>
  </defs>
  <g id="Thinking" transform="translate(-157.099 0.906)">
    <ellipse id="Ellipse_59" data-name="Ellipse 59" class="cls-1" cx="43.241" cy="43.241" rx="43.241" ry="43.241" transform="translate(157.099 5.225) rotate(-4.065)"/>
    <path id="Path_4169" data-name="Path 4169" class="cls-2" d="M164.148,8.829A21.515,21.515,0,0,1,181.51,7.191c.655.328,1.966-2.621.983-2.948a24.961,24.961,0,0,0-19.983,1.638C161.528,6.536,163.166,9.157,164.148,8.829Z" transform="translate(11.626 8.628)"/>
    <path id="Path_4170" data-name="Path 4170" class="cls-2" d="M175.426,10.229a21.515,21.515,0,0,1,17.362-1.638c.655.328,1.966-2.621.983-2.948a24.961,24.961,0,0,0-19.983,1.638C172.8,7.936,174.77,10.884,175.426,10.229Z" transform="translate(37.366 11.814)"/>
    <path id="Path_4171" data-name="Path 4171" class="cls-3" d="M168.267,16.014c7.862-1.965,16.707-.655,23.258,3.931,1.638,1.31-1.31,5.241-2.948,4.259-4.586-2.948-11.465-5.241-18.672-3.276C167.612,21.583,165.974,16.67,168.267,16.014Z" transform="translate(22.904 36.494)"/>
    <path id="Path_4172" data-name="Path 4172" class="cls-4" d="M184.265,26.455A11.394,11.394,0,0,1,172.8,14.99a12.353,12.353,0,0,1,2.293-6.879A35.612,35.612,0,0,1,183.61,6.8a35.157,35.157,0,0,1,10.483,1.638,11.068,11.068,0,0,1,1.966,6.552A12.126,12.126,0,0,1,184.265,26.455Z" transform="translate(35.733 17.537)"/>
    <path id="Path_4173" data-name="Path 4173" class="cls-3" d="M184.21,7.028a5.534,5.534,0,0,1,.983,3.276,5.9,5.9,0,0,1-11.793,0,7.711,7.711,0,0,1,.655-2.621,28.667,28.667,0,0,1,7.862-.983A6.4,6.4,0,0,0,184.21,7.028Z" transform="translate(37.099 17.309)"/>
    <path id="Path_4174" data-name="Path 4174" class="cls-4" d="M174.065,26.455A11.394,11.394,0,0,1,162.6,14.99a12.352,12.352,0,0,1,2.293-6.879A35.613,35.613,0,0,1,173.41,6.8a35.157,35.157,0,0,1,10.483,1.638,11.068,11.068,0,0,1,1.966,6.552A12.126,12.126,0,0,1,174.065,26.455Z" transform="translate(12.52 17.537)"/>
    <path id="Path_4175" data-name="Path 4175" class="cls-3" d="M174.01,7.028a5.534,5.534,0,0,1,.983,3.276,5.9,5.9,0,0,1-11.793,0,7.711,7.711,0,0,1,.655-2.621,28.667,28.667,0,0,1,7.862-.983A6.4,6.4,0,0,0,174.01,7.028Z" transform="translate(13.885 17.309)"/>
    <path id="Path_4176" data-name="Path 4176" class="cls-4" d="M197.968,29.611c-6.552,1.638-22.931,3.6-25.879.328-1.31-1.31-.983-3.276-.655-6.879s-2.948-7.207-5.569-7.534c-2.948-.328-4.586,1.638-3.6,4.914,2.293,6.879-1.966,9.172-2.293,14.086,0,2.948-.983,7.862,3.276,14.086,4.914,7.207,13.758,7.207,17.034,7.207,3.6,0,5.241-.328,5.9-1.965a13.687,13.687,0,0,0,.983-2.948c.983-1.31,1.31-1.31,1.638-2.948s-.983-2.621-.655-3.6c.655-1.638,2.293-1.638.655-5.9,5.241-.655,8.845-1.638,11.793-3.276C206.157,32.559,201.243,28.956,197.968,29.611Z" transform="translate(6.307 37.312)"/>
    <path id="Path_4177" data-name="Path 4177" class="cls-5" d="M163.78,19.868c.983,5.241,1.31,6.879-.655,11.138C160.5,36.575,159.194,52.3,175.9,55.247c10.155,1.965,11.465-.655,11.138-3.276-.328-1.638,1.31-2.293,1.31-2.948.983-1.965-.655-2.621-.655-3.6,0-1.31,1.31-1.31,1.638-2.621.328-2.621-2.621-3.276,0-3.6,5.241-.328,8.517-1.31,11.465-3.276,2.621-1.965.983-5.569-2.948-4.914-8.845,1.965-21.62,3.931-25.879,0-1.966-1.965-.328-3.931-.655-8.19C171.642,17.248,162.8,15.282,163.78,19.868Zm11.793,38h0a20.8,20.8,0,0,1-12.448-7.207,18.67,18.67,0,0,1-3.6-14.086v-.983c0-2.293.983-3.931,1.638-5.569.983-2.293,1.966-4.586.655-8.19a5.75,5.75,0,0,1,.655-5.241c.983-1.31,2.621-1.638,4.586-1.31h.328c3.276.655,6.879,4.914,6.552,9.172-.328,3.276-.655,4.914.328,5.9a4.678,4.678,0,0,0,2.293.983c5.9.983,17.362-.655,22.276-1.638a3.588,3.588,0,0,1,2.621,0,5.917,5.917,0,0,1,4.586,3.6c.328.983,0,2.948-3.276,4.914a30.1,30.1,0,0,1-10.81,3.276c1.31,2.948-1.638,4.259-.983,5.241a3.278,3.278,0,0,1-.983,4.586c-1.31,1.31.328,2.621-.983,4.586-1.31,2.293-3.6,2.621-7.207,2.621C179.5,58.2,177.539,58.2,175.573,57.868Z" transform="translate(5.115 36.571)"/>
  </g>
</svg>
