<svg id="Zipper-Mouth" xmlns="http://www.w3.org/2000/svg" viewBox="0 0 92.356 96">
  <defs>
    <style>
      .cls-1 {
        fill: #ffdd67;
      }

      .cls-2 {
        fill: #696a6b;
      }

      .cls-3 {
        fill: #664e27;
      }
    </style>
  </defs>
  <g id="Group_1974" data-name="Group 1974" transform="translate(0 0)">
    <ellipse id="Ellipse_24" data-name="Ellipse 24" class="cls-1" cx="46.178" cy="48" rx="46.178" ry="48"/>
    <path id="Path_4108" data-name="Path 4108" class="cls-2" d="M92.093,89.064a.68.68,0,0,1,0,.82l-5.647,5.829a.554.554,0,0,1-.729,0L80.708,89.7l5.647-5.829ZM76.973,73.58,70.78,80.047a.608.608,0,0,0,0,.911L85.444,99.174a.511.511,0,0,0,.82,0l9.017-9.381a.608.608,0,0,0,0-.911L77.793,73.58A.511.511,0,0,0,76.973,73.58Z" transform="translate(-6.294 -6.544)"/>
    <path id="Path_4109" data-name="Path 4109" class="cls-2" d="M72.211,70.3H67.292a.609.609,0,0,0-.638.546v3.188a.609.609,0,0,0-.638-.546H61.1a.609.609,0,0,0-.638.546V70.846a.609.609,0,0,0-.638-.546H54.905a.609.609,0,0,0-.638.546v3.188a.609.609,0,0,0-.638-.546H48.712a.609.609,0,0,0-.638.546V70.846a.609.609,0,0,0-.638-.546H42.518a.609.609,0,0,0-.638.546v3.188a.609.609,0,0,0-.638-.546H36.325a.609.609,0,0,0-.638.546V70.846a.609.609,0,0,0-.638-.546H30.131a.609.609,0,0,0-.638.546v3.188a.609.609,0,0,0-.638-.546H23.938a.609.609,0,0,0-.638.546V82.5c0,.364.273.547.638.547h4.918a.609.609,0,0,0,.638-.547V79.317a.609.609,0,0,0,.638.546H35.05a.609.609,0,0,0,.638-.546V82.5a.609.609,0,0,0,.638.547h4.918a.609.609,0,0,0,.638-.547V79.317a.609.609,0,0,0,.638.546h5.1a.609.609,0,0,0,.638-.546V82.5a.609.609,0,0,0,.638.547h4.918a.609.609,0,0,0,.638-.547V79.317a.609.609,0,0,0,.638.546h4.918a.609.609,0,0,0,.638-.546V82.5a.609.609,0,0,0,.638.547H66.2a.609.609,0,0,0,.638-.547V79.317a.609.609,0,0,0,.638.546h4.736a.609.609,0,0,0,.638-.546V70.846C72.848,70.482,72.575,70.3,72.211,70.3Z" transform="translate(-2.078 -6.27)"/>
    <ellipse id="Ellipse_25" data-name="Ellipse 25" class="cls-3" cx="7.651" cy="8.015" rx="7.651" ry="8.015" transform="translate(20.858 35.157)"/>
    <ellipse id="Ellipse_26" data-name="Ellipse 26" class="cls-3" cx="7.651" cy="8.015" rx="7.651" ry="8.015" transform="translate(56.197 35.157)"/>
  </g>
</svg>
